<svg width="656" height="205" fill="none" xmlns="http://www.w3.org/2000/svg"><g filter="url(#a)"><g clip-path="url(#b)"><g filter="url(#c)"><rect x="50" y="46" width="556" height="105" rx="10" fill="#fff"/></g><rect x="57.401" y="55.4" width="270.198" height="86.198" rx="12.436" stroke="#C8CBD9" stroke-width=".802"/><path d="M73.15 87.003c-1.718 0-2.853-1.1-2.853-2.763h1.427c0 .932.55 1.483 1.46 1.483.966 0 1.584-.63 1.584-1.63 0-.954-.573-1.605-1.561-1.605-.63 0-1.202.314-1.494.74l-1.27-.269 1.011-4.302h4.28v1.326h-3.246l-.438 1.707c.393-.258.887-.404 1.449-.404 1.64 0 2.73 1.112 2.73 2.73 0 1.774-1.248 2.987-3.079 2.987Zm3.905-4.223c0-2.55 1.37-4.28 3.47-4.28 2.101 0 3.483 1.73 3.483 4.28 0 2.538-1.303 4.234-3.482 4.234-2.18 0-3.471-1.696-3.471-4.234Zm1.415 0c0 1.898.764 2.965 2.056 2.965 1.303 0 2.066-1.067 2.066-2.965 0-1.944-.763-3.01-2.066-3.01-1.292 0-2.056 1.066-2.056 3.01Zm10.694-2.123c0 1.269-.898 2.156-2.145 2.156-1.247 0-2.145-.887-2.145-2.156 0-1.258.898-2.157 2.145-2.157 1.247 0 2.145.899 2.145 2.157Zm4.504-1.988-6.234 8.2h-1.37l6.234-8.2h1.37Zm-5.593 1.988c0-.652-.427-1.101-1.056-1.101-.63 0-1.045.45-1.045 1.1 0 .652.427 1.101 1.045 1.101.629 0 1.056-.449 1.056-1.1Zm6.795 4.2c0 1.259-.887 2.157-2.134 2.157-1.258 0-2.145-.898-2.145-2.156s.887-2.157 2.145-2.157c1.247 0 2.134.899 2.134 2.157Zm-1.09 0c0-.65-.426-1.1-1.044-1.1-.629 0-1.056.45-1.056 1.1 0 .652.427 1.101 1.056 1.101.618 0 1.045-.449 1.045-1.1Z" fill="#1B1B1B"/><path d="M100.087 86.868h-.944v-6.96h2.629c1.492 0 2.378.789 2.378 2.088 0 .963-.482 1.657-1.348 1.936l1.415 2.936h-1.049l-1.3-2.753h-1.781v2.753Zm0-6.113v2.522h1.694c.876 0 1.377-.472 1.377-1.27 0-.81-.52-1.252-1.386-1.252h-1.685Zm6.39 6.229c-1.011 0-1.607-.568-1.607-1.425 0-.867.645-1.406 1.752-1.492l1.482-.116v-.135c0-.79-.471-1.069-1.107-1.069-.76 0-1.194.338-1.194.906h-.789c0-.983.809-1.628 2.022-1.628 1.165 0 1.954.617 1.954 1.887v2.956h-.77l-.096-.76c-.241.539-.886.876-1.647.876Zm.26-.703c.857 0 1.377-.559 1.377-1.444v-.25l-1.203.096c-.8.077-1.127.385-1.127.847 0 .5.366.75.953.75Zm3.949-5.238a.6.6 0 0 1-.597-.597c0-.337.27-.596.597-.596.328 0 .597.26.597.597a.6.6 0 0 1-.597.596Zm-.443 5.825V82.16h.905v4.708h-.905Zm1.834-1.367h.867c0 .481.366.77.963.77.635 0 1.001-.26 1.001-.693 0-.318-.154-.51-.645-.635l-.828-.193c-.838-.202-1.233-.616-1.233-1.31 0-.866.732-1.415 1.772-1.415 1.03 0 1.704.578 1.723 1.474h-.866c-.019-.472-.337-.77-.886-.77-.568 0-.886.25-.886.683 0 .317.231.53.693.645l.828.202c.8.193 1.194.558 1.194 1.261 0 .896-.77 1.464-1.887 1.464-1.107 0-1.81-.588-1.81-1.483Zm6.732 1.483c-1.386 0-2.339-1.002-2.339-2.465 0-1.473.934-2.494 2.301-2.494 1.338 0 2.214.925 2.214 2.32v.338l-3.639.01c.067.991.587 1.54 1.483 1.54.702 0 1.165-.29 1.319-.828h.847c-.231 1.01-1.021 1.579-2.186 1.579Zm-.038-4.198c-.79 0-1.29.472-1.406 1.3h2.715c0-.78-.51-1.3-1.309-1.3Zm5.112 4.198c-1.367 0-2.195-1.02-2.195-2.455 0-1.444.838-2.504 2.234-2.504.722 0 1.328.318 1.646.896v-3.139h.895v7.086h-.808l-.077-.857c-.309.645-.944.973-1.695.973Zm.183-.819c.924 0 1.492-.683 1.492-1.665 0-.963-.568-1.656-1.492-1.656s-1.463.693-1.463 1.656c0 .972.539 1.665 1.463 1.665ZM73.465 130.995H70.78v-8.121h2.64c2.426 0 4.066 1.64 4.066 4.066 0 2.415-1.617 4.055-4.021 4.055Zm-.124-7.11h-1.46v6.088h1.505c1.809 0 2.954-1.168 2.954-3.033 0-1.887-1.145-3.055-2.999-3.055Zm9.162 1.618h1.045v5.492h-.944l-.112-.831c-.314.573-1.044.966-1.853.966-1.28 0-2-.865-2-2.213v-3.414h1.056v3.066c0 1.18.506 1.629 1.315 1.629.965 0 1.493-.618 1.493-1.797v-2.898Zm4.837 5.627c-1.617 0-2.73-1.168-2.73-2.875 0-1.719 1.09-2.909 2.685-2.909 1.562 0 2.584 1.078 2.584 2.706v.394l-4.246.011c.079 1.157.685 1.797 1.73 1.797.82 0 1.359-.337 1.538-.966h.989c-.27 1.179-1.19 1.842-2.55 1.842Zm-.045-4.897c-.92 0-1.505.55-1.64 1.516h3.168c0-.91-.595-1.516-1.528-1.516Zm4.662.685c-.438 0-.81-.359-.81-.775a.81.81 0 0 1 .81-.797c.426 0 .797.359.797.797 0 .416-.37.775-.797.775Zm0 4.212c-.438 0-.81-.359-.81-.786a.81.81 0 0 1 .81-.798c.426 0 .797.36.797.798 0 .427-.37.786-.797.786Z" fill="#909090"/><path d="M100.317 130.995h-2.684v-8.121h2.639c2.426 0 4.066 1.64 4.066 4.066 0 2.415-1.617 4.055-4.021 4.055Zm-.123-7.11h-1.46v6.088h1.505c1.808 0 2.954-1.168 2.954-3.033 0-1.887-1.146-3.055-2.999-3.055Zm7.735 7.245c-1.617 0-2.729-1.168-2.729-2.875 0-1.719 1.089-2.909 2.684-2.909 1.562 0 2.584 1.078 2.584 2.706v.394l-4.246.011c.078 1.157.685 1.797 1.73 1.797.82 0 1.359-.337 1.538-.966h.989c-.27 1.179-1.191 1.842-2.55 1.842Zm-.045-4.897c-.921 0-1.505.55-1.64 1.516h3.168c0-.91-.596-1.516-1.528-1.516Zm3.404 2.022c0-1.719 1.089-2.909 2.695-2.909 1.382 0 2.348.786 2.539 2.01h-1.056c-.18-.696-.741-1.067-1.449-1.067-1 0-1.685.764-1.685 1.954 0 1.18.64 1.944 1.64 1.944.753 0 1.314-.393 1.505-1.045h1.056c-.213 1.191-1.236 1.988-2.561 1.988-1.617 0-2.684-1.146-2.684-2.875Zm8.729 2.875c-1.617 0-2.729-1.168-2.729-2.875 0-1.719 1.089-2.909 2.684-2.909 1.561 0 2.584 1.078 2.584 2.706v.394l-4.246.011c.078 1.157.685 1.797 1.73 1.797.819 0 1.359-.337 1.538-.966h.989c-.27 1.179-1.191 1.842-2.55 1.842Zm-.045-4.897c-.921 0-1.505.55-1.64 1.516h3.168c0-.91-.596-1.516-1.528-1.516Zm4.819 4.762h-1.056v-5.492h.943l.101.719c.281-.517.865-.876 1.64-.876.854 0 1.461.426 1.741 1.112.259-.686.921-1.112 1.775-1.112 1.258 0 2.022.786 2.022 2.055v3.594h-1.033v-3.336c0-.865-.483-1.359-1.225-1.359-.797 0-1.325.562-1.325 1.438v3.257h-1.045v-3.347c0-.865-.472-1.337-1.213-1.337-.797 0-1.325.551-1.325 1.427v3.257Zm9.584 0h-.954v-8.267h1.055v3.718c.36-.719 1.101-1.1 2-1.1 1.572 0 2.516 1.235 2.516 2.931 0 1.663-.989 2.853-2.584 2.853-.865 0-1.595-.382-1.954-1.134l-.079.999Zm.113-2.763c0 1.146.651 1.943 1.729 1.943 1.079 0 1.719-.808 1.719-1.943 0-1.123-.64-1.932-1.719-1.932-1.078 0-1.729.809-1.729 1.932Zm8.038 2.898c-1.618 0-2.73-1.168-2.73-2.875 0-1.719 1.09-2.909 2.685-2.909 1.561 0 2.583 1.078 2.583 2.706v.394l-4.246.011c.079 1.157.685 1.797 1.73 1.797.82 0 1.359-.337 1.539-.966h.988c-.269 1.179-1.19 1.842-2.549 1.842Zm-.045-4.897c-.921 0-1.505.55-1.64 1.516h3.167c0-.91-.595-1.516-1.527-1.516Zm6.907-.775v.966h-.471c-1 0-1.618.606-1.618 1.662v2.909h-1.056v-5.481h.989l.067.831c.225-.573.775-.955 1.528-.955.191 0 .348.023.561.068Zm5.399-1.595h-1.708v-.989h2.764v8.121h-1.056v-7.132Zm5.227 7.267c-1.663 0-2.741-1.056-2.741-2.673h1.09c0 1.044.64 1.685 1.673 1.685 1.101 0 1.809-.73 1.809-1.831 0-1.045-.663-1.82-1.798-1.82-.685 0-1.314.326-1.684.786l-.933-.235.989-4.168h4.066v1.011h-3.269l-.539 2.157c.427-.326.966-.494 1.573-.494 1.651 0 2.718 1.157 2.718 2.718 0 1.685-1.202 2.864-2.954 2.864Zm5.67-.135h-1.056v-4.605h-1.078v-.887h1.078v-1.719h1.056v1.719h1.078v.887h-1.078v4.605Zm3.082-.011h-1.056v-8.256h1.056v3.617c.348-.595 1.011-.999 1.864-.999 1.404 0 2.078.887 2.078 2.291v3.358h-1.056v-3.122c0-1.112-.528-1.562-1.314-1.562-1.022 0-1.572.742-1.572 1.685v2.988Zm6.988-.427a1.6 1.6 0 0 1-1.404 1.584v-.472c.461-.078.787-.382.787-.73a.58.58 0 0 1-.304.068.668.668 0 0 1-.685-.686c0-.449.303-.775.753-.775.471 0 .853.394.853 1.011Zm9.826.427-5.481.011v-.842l2.617-2.258c1.314-1.134 1.685-1.685 1.685-2.549 0-1.023-.584-1.629-1.561-1.629-1 0-1.651.73-1.674 1.887h-1.101c.034-1.741 1.135-2.876 2.786-2.876 1.629 0 2.673.989 2.673 2.55 0 1.157-.573 1.977-2.01 3.224l-1.685 1.46h3.751v1.022Zm1.014-4.044c0-2.516 1.303-4.223 3.347-4.223 2.033 0 3.336 1.707 3.336 4.223 0 2.528-1.247 4.201-3.336 4.201-2.101 0-3.347-1.673-3.347-4.201Zm1.089 0c0 2 .831 3.213 2.258 3.213 1.426 0 2.246-1.213 2.246-3.213 0-2.021-.82-3.234-2.246-3.234-1.427 0-2.258 1.213-2.258 3.234Zm12.146 4.044-5.481.011v-.842l2.617-2.258c1.314-1.134 1.685-1.685 1.685-2.549 0-1.023-.584-1.629-1.561-1.629-1 0-1.652.73-1.674 1.887h-1.101c.034-1.741 1.135-2.876 2.786-2.876 1.629 0 2.673.989 2.673 2.55 0 1.157-.573 1.977-2.01 3.224l-1.685 1.46h3.751v1.022Zm6.848-1.629h-.966v1.64h-1.056v-1.64h-4.2v-.977l3.83-5.504h1.426v5.504h.966v.977Zm-5.032-.977h3.01v-4.335l-3.01 4.335Z" fill="#1B1B1B"/><rect x="255.973" y="114.983" width="56.255" height="19.419" rx="3.209" fill="#F0F0F0"/><path d="M269.115 125.709h-1.762v2.484h-.944v-6.961h2.706c1.367 0 2.243.895 2.243 2.233 0 1.3-.886 2.244-2.243 2.244Zm-.164-3.63h-1.598v2.782h1.56c.933 0 1.453-.548 1.453-1.405 0-.876-.529-1.377-1.415-1.377Zm6.017 1.367v.828h-.404c-.857 0-1.386.52-1.386 1.425v2.494h-.905v-4.699h.847l.058.713c.192-.491.664-.819 1.309-.819.164 0 .298.02.481.058Zm.372 2.388c0-1.454 1.04-2.474 2.455-2.474 1.406 0 2.445 1.02 2.445 2.474 0 1.454-1.039 2.474-2.445 2.474-1.415 0-2.455-1.02-2.455-2.474Zm.914 0c0 .982.626 1.665 1.541 1.665.905 0 1.54-.683 1.54-1.665s-.635-1.666-1.54-1.666c-.915 0-1.541.684-1.541 1.666Zm5.441-3.466a.594.594 0 0 1-.597-.597c0-.337.26-.597.597-.597a.6.6 0 0 1 .597.597c0 .327-.28.597-.597.597Zm-1.647 7.962.154-.818c.183.048.289.067.434.067.433 0 .606-.25.606-.78v-5.314h.905v5.401c0 .943-.52 1.531-1.434 1.531-.241 0-.395-.01-.665-.087Zm5.444-2.022c-1.386 0-2.339-1.001-2.339-2.465 0-1.473.934-2.493 2.301-2.493 1.338 0 2.214.924 2.214 2.32v.337l-3.639.01c.067.991.587 1.54 1.483 1.54.703 0 1.165-.289 1.319-.828h.847c-.231 1.011-1.021 1.579-2.186 1.579Zm-.038-4.198c-.79 0-1.29.472-1.406 1.3h2.715c0-.78-.51-1.3-1.309-1.3Zm2.917 1.733c0-1.473.934-2.493 2.311-2.493 1.184 0 2.012.674 2.176 1.723h-.905c-.154-.597-.636-.914-1.242-.914-.857 0-1.445.654-1.445 1.675 0 1.011.549 1.665 1.406 1.665.645 0 1.127-.337 1.29-.895h.905c-.183 1.021-1.059 1.704-2.195 1.704-1.386 0-2.301-.982-2.301-2.465Zm6.78 2.35h-.905v-3.948h-.925v-.76h.925v-1.473h.905v1.473h.924v.76h-.924v3.948Zm5.514-6.114h-1.463v-.847h2.368v6.961h-.905v-6.114Z" fill="#1B1B1B"/><rect x="69.837" y="96.53" width="245.506" height="3.209" rx="1.605" fill="#EDEDED"/><rect x="69.837" y="96.53" width="122.753" height="3.209" rx="1.605" fill="#00AE32"/><rect x="339.401" y="56.4" width="260.198" height="84.198" rx="12.436" stroke="#C8CBD9" stroke-width=".802"/><path d="M348.622 86.868h-.808v-8.042h.82l4.425 6.694v-6.694h.798v8.042h-.798l-4.437-6.694v6.694Zm6.649-2.718c0-1.662 1.168-2.864 2.763-2.864s2.763 1.202 2.763 2.864c0 1.651-1.168 2.853-2.763 2.853s-2.763-1.202-2.763-2.853Zm.786-.011c0 1.28.809 2.168 1.977 2.168 1.157 0 1.977-.888 1.977-2.168 0-1.258-.82-2.157-1.977-2.157-1.168 0-1.977.899-1.977 2.157Zm7.172 2.73h-.764v-4.786h-1.09v-.651h1.09v-1.719h.764v1.719h1.089v.651h-1.089v4.785Zm4.753-1.528h.741c0 .629.472 1.022 1.236 1.022.842 0 1.337-.36 1.337-.944 0-.45-.225-.707-.865-.865l-.933-.236c-.943-.236-1.404-.73-1.404-1.471 0-.955.798-1.561 1.966-1.561 1.146 0 1.887.629 1.921 1.64h-.753c-.022-.63-.46-1-1.191-1-.763 0-1.19.326-1.19.91 0 .415.292.707.887.853l.933.236c.943.236 1.37.674 1.37 1.46 0 .978-.831 1.618-2.067 1.618-1.224 0-1.988-.651-1.988-1.662Zm6.578 1.527h-.764v-4.785h-1.09v-.651h1.09v-1.719h.764v1.719h1.089v.651h-1.089v4.785Zm3.572.135c-1.157 0-1.842-.651-1.842-1.606 0-1 .764-1.629 2.033-1.73l1.797-.146v-.18c0-1.067-.64-1.404-1.438-1.404-.943 0-1.505.427-1.505 1.157h-.708c0-1.1.899-1.808 2.236-1.808 1.258 0 2.179.629 2.179 2.066v3.516h-.652l-.101-.955c-.337.686-1.078 1.09-1.999 1.09Zm.18-.63c1.145 0 1.808-.797 1.808-1.976v-.292l-1.606.124c-1.022.09-1.438.539-1.438 1.145 0 .663.494 1 1.236 1Zm6.969-5.009v.697h-.427c-1 0-1.64.674-1.64 1.707v3.1h-.775v-5.436h.73l.056.842c.214-.584.787-.966 1.55-.966.169 0 .315.011.506.056Zm2.496 5.504h-.764v-4.785h-1.089v-.651h1.089v-1.719h.764v1.719h1.09v.651h-1.09v4.785Zm4.324.135c-1.595 0-2.662-1.146-2.662-2.853 0-1.696 1.056-2.864 2.606-2.864 1.472 0 2.471 1.044 2.471 2.583v.382h-4.324c.056 1.325.752 2.09 1.921 2.09.887 0 1.46-.383 1.662-1.101h.741c-.292 1.145-1.134 1.763-2.415 1.763Zm-.056-5.055c-1.022 0-1.696.674-1.831 1.741h3.527c0-1.044-.674-1.74-1.696-1.74Zm5.845 5.055c-1.584 0-2.516-1.213-2.516-2.842 0-1.64.932-2.875 2.549-2.875.899 0 1.618.393 2 1.18V78.68h.775v8.188h-.674l-.079-1.112c-.382.843-1.146 1.247-2.055 1.247Zm.134-.708c1.191 0 1.887-.898 1.887-2.156 0-1.247-.696-2.157-1.887-2.157-1.179 0-1.864.91-1.864 2.157 0 1.258.685 2.156 1.864 2.156Zm6.856 2.943v-.64h.595c.472 0 .944-.034 1.213-.764l.236-.64-2.201-5.762h.82l1.752 4.74 1.718-4.74h.798l-2.494 6.683c-.314.854-.842 1.202-1.617 1.202-.326 0-.573-.023-.82-.079Zm7.931-2.235c-1.595 0-2.662-1.146-2.662-2.853 0-1.696 1.056-2.864 2.606-2.864 1.471 0 2.471 1.044 2.471 2.583v.382h-4.325c.057 1.325.753 2.09 1.921 2.09.888 0 1.46-.383 1.663-1.101h.741c-.292 1.145-1.135 1.763-2.415 1.763Zm-.056-5.055c-1.022 0-1.696.674-1.831 1.741h3.527c0-1.044-.674-1.74-1.696-1.74Zm4.902 4.92h-.764v-4.785h-1.089v-.651h1.089v-1.719h.764v1.719h1.09v.651h-1.09v4.785Z" fill="#909090"/><rect x="532.972" y="114.983" width="58.255" height="19.419" rx="3.209" fill="#F0F0F0"/><path d="M546.114 125.709h-1.762v2.484h-.943v-6.961h2.705c1.367 0 2.243.895 2.243 2.233 0 1.3-.885 2.244-2.243 2.244Zm-.163-3.63h-1.599v2.782h1.56c.934 0 1.454-.548 1.454-1.405 0-.876-.53-1.377-1.415-1.377Zm6.017 1.367v.828h-.405c-.856 0-1.386.52-1.386 1.425v2.494h-.905v-4.699h.847l.058.713c.193-.491.664-.819 1.309-.819.164 0 .299.02.482.058Zm.371 2.388c0-1.454 1.04-2.474 2.455-2.474 1.406 0 2.446 1.02 2.446 2.474 0 1.454-1.04 2.474-2.446 2.474-1.415 0-2.455-1.02-2.455-2.474Zm.915 0c0 .982.626 1.665 1.54 1.665.905 0 1.541-.683 1.541-1.665s-.636-1.666-1.541-1.666c-.914 0-1.54.684-1.54 1.666Zm5.44-3.466a.594.594 0 0 1-.597-.597c0-.337.26-.597.597-.597a.6.6 0 0 1 .597.597.606.606 0 0 1-.597.597Zm-1.646 7.962.154-.818c.183.048.289.067.433.067.433 0 .607-.25.607-.78v-5.314h.905v5.401c0 .943-.52 1.531-1.435 1.531-.241 0-.395-.01-.664-.087Zm5.444-2.022c-1.386 0-2.34-1.001-2.34-2.465 0-1.473.934-2.493 2.301-2.493 1.339 0 2.215.924 2.215 2.32v.337l-3.639.01c.067.991.587 1.54 1.482 1.54.703 0 1.165-.289 1.319-.828h.847c-.231 1.011-1.02 1.579-2.185 1.579Zm-.039-4.198c-.789 0-1.29.472-1.405 1.3h2.715c0-.78-.51-1.3-1.31-1.3Zm2.918 1.733c0-1.473.933-2.493 2.31-2.493 1.184 0 2.012.674 2.176 1.723h-.905c-.154-.597-.635-.914-1.242-.914-.857 0-1.444.654-1.444 1.675 0 1.011.549 1.665 1.406 1.665.645 0 1.126-.337 1.29-.895h.905c-.183 1.021-1.059 1.704-2.195 1.704-1.387 0-2.301-.982-2.301-2.465Zm6.779 2.35h-.905v-3.948h-.924v-.76h.924v-1.473h.905v1.473h.924v.76h-.924v3.948Zm8.856-.01-4.699.01v-.722l2.244-1.936c1.126-.972 1.444-1.444 1.444-2.185 0-.876-.501-1.396-1.338-1.396-.857 0-1.416.626-1.435 1.617h-.943c.028-1.492.972-2.464 2.387-2.464 1.396 0 2.292.847 2.292 2.185 0 .992-.491 1.695-1.724 2.763l-1.444 1.252h3.216v.876Z" fill="#1B1B1B"/><path d="M350.464 130.995h-2.684v-8.121h2.64c2.426 0 4.066 1.64 4.066 4.066 0 2.415-1.618 4.055-4.022 4.055Zm-.123-7.11h-1.46v6.088h1.505c1.808 0 2.954-1.168 2.954-3.033 0-1.887-1.146-3.055-2.999-3.055Zm9.162 1.618h1.044v5.492h-.943l-.112-.831c-.315.573-1.045.966-1.854.966-1.28 0-1.999-.865-1.999-2.213v-3.414h1.056v3.066c0 1.18.505 1.629 1.314 1.629.966 0 1.494-.618 1.494-1.797v-2.898Zm4.837 5.627c-1.618 0-2.73-1.168-2.73-2.875 0-1.719 1.09-2.909 2.685-2.909 1.561 0 2.583 1.078 2.583 2.706v.394l-4.246.011c.079 1.157.686 1.797 1.73 1.797.82 0 1.359-.337 1.539-.966h.988c-.269 1.179-1.19 1.842-2.549 1.842Zm-.045-4.897c-.921 0-1.505.55-1.64 1.516h3.167c0-.91-.595-1.516-1.527-1.516Zm4.661.685c-.438 0-.809-.359-.809-.775a.81.81 0 0 1 .809-.797c.427 0 .798.359.798.797 0 .416-.371.775-.798.775Zm0 4.212c-.438 0-.809-.359-.809-.786 0-.438.371-.798.809-.798.427 0 .798.36.798.798a.806.806 0 0 1-.798.786Z" fill="#909090"/><path d="M373.913 128.738v-.405h1.067v.405c0 .797.438 1.37 1.337 1.37.921 0 1.325-.562 1.325-1.404v-5.83h1.101v5.875c0 1.46-.977 2.381-2.426 2.381-1.55 0-2.404-.988-2.404-2.392Zm8.091 2.392c-1.179 0-1.876-.663-1.876-1.662 0-1.011.753-1.64 2.044-1.741l1.73-.135v-.157c0-.921-.55-1.247-1.292-1.247-.887 0-1.392.393-1.392 1.056h-.921c0-1.146.943-1.898 2.358-1.898 1.36 0 2.281.718 2.281 2.201v3.448h-.899l-.112-.887c-.281.629-1.034 1.022-1.921 1.022Zm.303-.82c1 0 1.606-.651 1.606-1.685v-.292l-1.404.113c-.932.089-1.314.449-1.314.988 0 .584.427.876 1.112.876Zm5.147.685h-1.056v-5.492h.955l.112.842c.348-.629 1.044-.999 1.82-.999 1.448 0 2.111.887 2.111 2.291v3.358h-1.056v-3.122c0-1.112-.516-1.562-1.325-1.562-.989 0-1.561.708-1.561 1.775v2.909Zm9.201-5.492h1.045v5.492h-.944l-.112-.831c-.315.573-1.045.966-1.853.966-1.281 0-2-.865-2-2.213v-3.414h1.056v3.066c0 1.18.505 1.629 1.314 1.629.966 0 1.494-.618 1.494-1.797v-2.898Zm4.183 5.627c-1.18 0-1.876-.663-1.876-1.662 0-1.011.753-1.64 2.044-1.741l1.73-.135v-.157c0-.921-.55-1.247-1.292-1.247-.887 0-1.392.393-1.392 1.056h-.921c0-1.146.943-1.898 2.358-1.898 1.359 0 2.28.718 2.28 2.201v3.448h-.898l-.112-.887c-.281.629-1.034 1.022-1.921 1.022Zm.303-.82c1 0 1.606-.651 1.606-1.685v-.292l-1.404.113c-.932.089-1.314.449-1.314.988 0 .584.427.876 1.112.876Zm7.236-4.852v.966h-.472c-1 0-1.617.606-1.617 1.662v2.909h-1.056v-5.481h.988l.068.831c.224-.573.775-.955 1.527-.955.191 0 .348.023.562.068Zm.627 7.997v-.865h.707c.506 0 .91-.078 1.168-.775l.191-.528-2.212-5.784h1.112l1.595 4.425 1.628-4.425h1.09l-2.595 6.728c-.37.943-.921 1.337-1.763 1.337-.348 0-.641-.045-.921-.113Zm14.427-2.471-5.481.011v-.842l2.617-2.258c1.314-1.134 1.685-1.685 1.685-2.549 0-1.023-.584-1.629-1.561-1.629-1 0-1.651.73-1.674 1.887h-1.101c.034-1.741 1.135-2.876 2.786-2.876 1.629 0 2.673.989 2.673 2.55 0 1.157-.573 1.977-2.01 3.224l-1.685 1.46h3.751v1.022Zm2.607-7.121h-1.707v-.989h2.763v8.121h-1.056v-7.132Zm2.306 5.537h1.011c0 .562.427.899 1.123.899.741 0 1.168-.303 1.168-.809 0-.37-.179-.595-.752-.741l-.966-.225c-.977-.236-1.438-.719-1.438-1.527 0-1.011.854-1.651 2.067-1.651 1.202 0 1.988.673 2.01 1.718h-1.011c-.022-.55-.393-.899-1.033-.899-.663 0-1.033.293-1.033.798 0 .371.269.618.808.753l.966.235c.933.225 1.393.652 1.393 1.472 0 1.044-.898 1.707-2.201 1.707-1.292 0-2.112-.685-2.112-1.73Zm7.034 1.595h-1.056v-4.605h-1.078v-.887h1.078v-1.719h1.056v1.719h1.078v.887h-1.078v4.605Zm3.27-.438a1.6 1.6 0 0 1-1.404 1.584v-.472c.46-.078.786-.382.786-.73a.579.579 0 0 1-.303.068.668.668 0 0 1-.686-.686c0-.449.304-.775.753-.775.472 0 .854.394.854 1.011Zm9.826.427-5.482.011v-.842l2.618-2.258c1.314-1.134 1.684-1.685 1.684-2.549 0-1.023-.584-1.629-1.561-1.629-1 0-1.651.73-1.674 1.887h-1.1c.033-1.741 1.134-2.876 2.785-2.876 1.629 0 2.674.989 2.674 2.55 0 1.157-.573 1.977-2.011 3.224l-1.685 1.46h3.752v1.022Zm1.013-4.044c0-2.516 1.303-4.223 3.347-4.223 2.033 0 3.336 1.707 3.336 4.223 0 2.528-1.247 4.201-3.336 4.201-2.1 0-3.347-1.673-3.347-4.201Zm1.089 0c0 2 .832 3.213 2.258 3.213 1.427 0 2.247-1.213 2.247-3.213 0-2.021-.82-3.234-2.247-3.234-1.426 0-2.258 1.213-2.258 3.234Zm12.147 4.044-5.482.011v-.842l2.617-2.258c1.315-1.134 1.685-1.685 1.685-2.549 0-1.023-.584-1.629-1.561-1.629-1 0-1.651.73-1.674 1.887h-1.1c.033-1.741 1.134-2.876 2.785-2.876 1.629 0 2.673.989 2.673 2.55 0 1.157-.572 1.977-2.01 3.224l-1.685 1.46h3.752v1.022Zm3.665.146c-1.662 0-2.74-1.056-2.74-2.673h1.089c0 1.044.64 1.685 1.674 1.685 1.101 0 1.808-.73 1.808-1.831 0-1.045-.662-1.82-1.797-1.82-.685 0-1.314.326-1.685.786l-.932-.235.988-4.168h4.066v1.011h-3.268l-.539 2.157c.427-.326.966-.494 1.572-.494 1.651 0 2.718 1.157 2.718 2.718 0 1.685-1.201 2.864-2.954 2.864Z" fill="#1B1B1B"/><rect x="346.836" y="96.53" width="245.506" height="3.209" rx="1.605" fill="#EDEDED"/></g></g><defs><filter id="a" x="0" y="0" width="656" height="205" filterUnits="userSpaceOnUse" color-interpolation-filters="sRGB"><feFlood flood-opacity="0" result="BackgroundImageFix"/><feColorMatrix in="SourceAlpha" values="0 0 0 0 0 0 0 0 0 0 0 0 0 0 0 0 0 0 127 0" result="hardAlpha"/><feOffset dy="4"/><feGaussianBlur stdDeviation="25"/><feComposite in2="hardAlpha" operator="out"/><feColorMatrix values="0 0 0 0 0 0 0 0 0 0 0 0 0 0 0 0 0 0 0.1 0"/><feBlend in2="BackgroundImageFix" result="effect1_dropShadow_306_2375"/><feBlend in="SourceGraphic" in2="effect1_dropShadow_306_2375" result="shape"/></filter><filter id="c" x="0" y="0" width="656" height="205" filterUnits="userSpaceOnUse" color-interpolation-filters="sRGB"><feFlood flood-opacity="0" result="BackgroundImageFix"/><feColorMatrix in="SourceAlpha" values="0 0 0 0 0 0 0 0 0 0 0 0 0 0 0 0 0 0 127 0" result="hardAlpha"/><feOffset dy="4"/><feGaussianBlur stdDeviation="25"/><feComposite in2="hardAlpha" operator="out"/><feColorMatrix values="0 0 0 0 0 0 0 0 0 0 0 0 0 0 0 0 0 0 0.1 0"/><feBlend in2="BackgroundImageFix" result="effect1_dropShadow_306_2375"/><feBlend in="SourceGraphic" in2="effect1_dropShadow_306_2375" result="shape"/></filter><clipPath id="b"><rect x="50" y="46" width="556" height="105" rx="10" fill="#fff"/></clipPath></defs></svg>