<svg width="582" height="774" viewBox="0 0 582 774" fill="none" xmlns="http://www.w3.org/2000/svg">
<path d="M521.098 16L516.762 4.48H518.554L522.362 14.976H521.93L525.738 4.48H527.434L523.082 16H521.098ZM528.902 16V7.84H530.566V16H528.902ZM528.822 6.24V4.368H530.662V6.24H528.822ZM536.391 16.16C535.57 16.16 534.844 15.9787 534.215 15.616C533.596 15.2533 533.111 14.752 532.759 14.112C532.407 13.472 532.231 12.736 532.231 11.904C532.231 11.0613 532.402 10.3253 532.743 9.696C533.095 9.056 533.586 8.56 534.215 8.208C534.844 7.856 535.564 7.68 536.375 7.68C537.164 7.68 537.847 7.85067 538.423 8.192C539.01 8.52267 539.458 8.98667 539.767 9.584C540.087 10.1813 540.247 10.8907 540.247 11.712C540.247 11.84 540.242 11.9627 540.231 12.08C540.231 12.1867 540.22 12.2987 540.199 12.416H533.351V11.168H539.031L538.615 11.664C538.615 10.7893 538.418 10.1227 538.023 9.664C537.628 9.20533 537.079 8.976 536.375 8.976C535.618 8.976 535.015 9.23733 534.567 9.76C534.13 10.272 533.911 10.9867 533.911 11.904C533.911 12.832 534.13 13.5573 534.567 14.08C535.015 14.6027 535.634 14.864 536.423 14.864C536.903 14.864 537.319 14.768 537.671 14.576C538.023 14.3733 538.284 14.08 538.455 13.696H540.023C539.756 14.464 539.303 15.0667 538.663 15.504C538.034 15.9413 537.276 16.16 536.391 16.16ZM543.457 16L540.961 7.84H542.673L544.369 14.4H544.129L546.193 7.84H547.633L549.697 14.4H549.473L551.153 7.84H552.785L550.289 16H548.833L546.769 9.552H547.009L544.913 16H543.457ZM556.809 16L561.145 4.48H562.617L558.473 16H556.809ZM565.721 16L561.577 4.48H563.129L567.481 16H565.721ZM559.001 11.408H565.177V12.816H559.001V11.408ZM569.168 16V4.48H570.832V16H569.168ZM573.168 16V4.48H574.832V16H573.168Z" fill="#002D54"/>
<path d="M516.25 19.184H527.946V19.792H516.25V19.184ZM527.734 19.184H531.734V19.792H527.734V19.184ZM531.703 19.184H540.775V19.792H531.703V19.184ZM540.609 19.184H576V19.792H540.609V19.184Z" fill="#002D54"/>
<g filter="url(#filter0_dd_868_28314)">
<rect x="6" y="38" width="570" height="729" rx="8" fill="white" shape-rendering="crispEdges"/>
<path d="M32.592 85V82.84H35.868C36.804 82.84 37.596 82.654 38.244 82.282C38.904 81.898 39.402 81.376 39.738 80.716C40.086 80.056 40.26 79.3 40.26 78.448C40.26 77.608 40.092 76.87 39.756 76.234C39.42 75.598 38.922 75.1 38.262 74.74C37.614 74.38 36.816 74.2 35.868 74.2H32.646V72.04H35.868C37.32 72.04 38.586 72.304 39.666 72.832C40.746 73.348 41.58 74.092 42.168 75.064C42.768 76.024 43.068 77.164 43.068 78.484C43.068 79.804 42.768 80.956 42.168 81.94C41.568 82.912 40.728 83.668 39.648 84.208C38.58 84.736 37.326 85 35.886 85H32.592ZM30.9 85V72.04H33.672V85H30.9ZM50.1822 85C50.1102 84.736 50.0562 84.454 50.0202 84.154C49.9962 83.854 49.9842 83.506 49.9842 83.11H49.9122V78.772C49.9122 78.4 49.7862 78.112 49.5342 77.908C49.2942 77.692 48.9342 77.584 48.4542 77.584C47.9982 77.584 47.6322 77.662 47.3562 77.818C47.0922 77.974 46.9182 78.202 46.8342 78.502H44.2602C44.3802 77.674 44.8062 76.99 45.5382 76.45C46.2702 75.91 47.2722 75.64 48.5442 75.64C49.8642 75.64 50.8722 75.934 51.5682 76.522C52.2642 77.11 52.6122 77.956 52.6122 79.06V83.11C52.6122 83.41 52.6302 83.716 52.6662 84.028C52.7142 84.328 52.7862 84.652 52.8822 85H50.1822ZM46.9782 85.18C46.0662 85.18 45.3402 84.952 44.8002 84.496C44.2602 84.028 43.9902 83.41 43.9902 82.642C43.9902 81.79 44.3082 81.106 44.9442 80.59C45.5922 80.062 46.4922 79.72 47.6442 79.564L50.3262 79.186V80.752L48.0942 81.094C47.6142 81.166 47.2602 81.298 47.0322 81.49C46.8042 81.682 46.6902 81.946 46.6902 82.282C46.6902 82.582 46.7982 82.81 47.0142 82.966C47.2302 83.122 47.5182 83.2 47.8782 83.2C48.4422 83.2 48.9222 83.05 49.3182 82.75C49.7142 82.438 49.9122 82.078 49.9122 81.67L50.1642 83.11C49.9002 83.794 49.4982 84.31 48.9582 84.658C48.4182 85.006 47.7582 85.18 46.9782 85.18ZM54.3007 85V75.82H57.0007V85H54.3007ZM54.2107 74.596V71.68H57.0907V74.596H54.2107ZM59.1523 85V72.04H61.8523V85H59.1523ZM64.4718 88.69L67.0098 83.074L67.4778 82.3L69.8538 75.82H72.7338L67.1718 88.69H64.4718ZM66.4158 84.82L62.8878 75.82H65.8038L68.7018 84.028L66.4158 84.82ZM80.787 85V74.164H76.557V72.04H87.789V74.164H83.559V85H80.787ZM92.7916 85C92.7196 84.736 92.6656 84.454 92.6296 84.154C92.6056 83.854 92.5936 83.506 92.5936 83.11H92.5216V78.772C92.5216 78.4 92.3956 78.112 92.1436 77.908C91.9036 77.692 91.5436 77.584 91.0636 77.584C90.6076 77.584 90.2416 77.662 89.9656 77.818C89.7016 77.974 89.5276 78.202 89.4436 78.502H86.8696C86.9896 77.674 87.4156 76.99 88.1476 76.45C88.8796 75.91 89.8816 75.64 91.1536 75.64C92.4736 75.64 93.4816 75.934 94.1776 76.522C94.8736 77.11 95.2216 77.956 95.2216 79.06V83.11C95.2216 83.41 95.2396 83.716 95.2756 84.028C95.3236 84.328 95.3956 84.652 95.4916 85H92.7916ZM89.5876 85.18C88.6756 85.18 87.9496 84.952 87.4096 84.496C86.8696 84.028 86.5996 83.41 86.5996 82.642C86.5996 81.79 86.9176 81.106 87.5536 80.59C88.2016 80.062 89.1016 79.72 90.2536 79.564L92.9356 79.186V80.752L90.7036 81.094C90.2236 81.166 89.8696 81.298 89.6416 81.49C89.4136 81.682 89.2996 81.946 89.2996 82.282C89.2996 82.582 89.4076 82.81 89.6236 82.966C89.8396 83.122 90.1276 83.2 90.4876 83.2C91.0516 83.2 91.5316 83.05 91.9276 82.75C92.3236 82.438 92.5216 82.078 92.5216 81.67L92.7736 83.11C92.5096 83.794 92.1076 84.31 91.5676 84.658C91.0276 85.006 90.3676 85.18 89.5876 85.18ZM100.759 85.18C99.4147 85.18 98.3467 84.91 97.5547 84.37C96.7627 83.83 96.3307 83.086 96.2587 82.138H98.6707C98.7307 82.546 98.9347 82.858 99.2827 83.074C99.6427 83.278 100.135 83.38 100.759 83.38C101.323 83.38 101.731 83.302 101.983 83.146C102.247 82.978 102.379 82.744 102.379 82.444C102.379 82.216 102.301 82.042 102.145 81.922C102.001 81.79 101.731 81.682 101.335 81.598L99.8587 81.292C98.7667 81.064 97.9627 80.722 97.4467 80.266C96.9307 79.798 96.6727 79.198 96.6727 78.466C96.6727 77.578 97.0147 76.888 97.6987 76.396C98.3827 75.892 99.3367 75.64 100.561 75.64C101.773 75.64 102.739 75.886 103.459 76.378C104.179 76.858 104.575 77.53 104.647 78.394H102.235C102.187 78.082 102.019 77.848 101.731 77.692C101.443 77.524 101.035 77.44 100.507 77.44C100.027 77.44 99.6667 77.512 99.4267 77.656C99.1987 77.788 99.0847 77.98 99.0847 78.232C99.0847 78.448 99.1807 78.622 99.3727 78.754C99.5647 78.874 99.8827 78.982 100.327 79.078L101.983 79.42C102.907 79.612 103.603 79.972 104.071 80.5C104.551 81.016 104.791 81.628 104.791 82.336C104.791 83.236 104.437 83.938 103.729 84.442C103.033 84.934 102.043 85.18 100.759 85.18ZM106.121 85V72.04H108.821V85H106.121ZM112.007 85L108.191 80.23L111.917 75.82H115.031L110.657 80.644L110.783 79.798L115.211 85H112.007Z" fill="#002D54"/>
<rect x="436.5" y="62.5" width="115" height="33" rx="16.5" fill="white"/>
<rect x="436.5" y="62.5" width="115" height="33" rx="16.5" stroke="#002D54"/>
<path d="M454.72 84.5V83.52C455.728 82.6893 456.568 81.9613 457.24 81.336C457.921 80.7107 458.463 80.1553 458.864 79.67C459.275 79.1847 459.564 78.7413 459.732 78.34C459.909 77.9293 459.998 77.528 459.998 77.136C459.998 76.5573 459.825 76.1047 459.48 75.778C459.135 75.4513 458.659 75.288 458.052 75.288C457.427 75.288 456.923 75.4653 456.54 75.82C456.157 76.1747 455.924 76.6833 455.84 77.346H454.636C454.729 76.4313 455.079 75.694 455.686 75.134C456.302 74.5647 457.119 74.28 458.136 74.28C459.079 74.28 459.83 74.532 460.39 75.036C460.95 75.54 461.23 76.2307 461.23 77.108C461.23 77.584 461.137 78.06 460.95 78.536C460.773 79.012 460.474 79.5113 460.054 80.034C459.643 80.5567 459.097 81.1353 458.416 81.77C457.744 82.3953 456.909 83.1047 455.91 83.898L455.644 83.492H461.398V84.5H454.72ZM466.041 84.64C465.331 84.64 464.715 84.514 464.193 84.262C463.679 84.01 463.283 83.6647 463.003 83.226C462.723 82.7873 462.583 82.2973 462.583 81.756C462.583 81.252 462.695 80.7947 462.919 80.384C463.143 79.9733 463.441 79.6467 463.815 79.404C464.197 79.1613 464.617 79.04 465.075 79.04L465.103 79.334C464.673 79.334 464.286 79.2313 463.941 79.026C463.595 78.8113 463.325 78.522 463.129 78.158C462.933 77.794 462.835 77.3927 462.835 76.954C462.835 76.4313 462.97 75.9693 463.241 75.568C463.511 75.1667 463.889 74.854 464.375 74.63C464.86 74.3967 465.42 74.28 466.055 74.28C466.689 74.28 467.245 74.3967 467.721 74.63C468.197 74.854 468.57 75.1667 468.841 75.568C469.111 75.9693 469.247 76.4267 469.247 76.94C469.247 77.388 469.149 77.794 468.953 78.158C468.757 78.5127 468.486 78.7973 468.141 79.012C467.795 79.2267 467.403 79.334 466.965 79.334L467.007 79.04C467.473 79.04 467.893 79.1613 468.267 79.404C468.64 79.6467 468.939 79.9733 469.163 80.384C469.387 80.7947 469.499 81.252 469.499 81.756C469.499 82.2973 469.359 82.7873 469.079 83.226C468.799 83.6647 468.397 84.01 467.875 84.262C467.361 84.514 466.75 84.64 466.041 84.64ZM466.041 83.632C466.722 83.632 467.259 83.45 467.651 83.086C468.052 82.722 468.253 82.2413 468.253 81.644C468.253 81.0467 468.057 80.5753 467.665 80.23C467.273 79.8847 466.731 79.712 466.041 79.712C465.35 79.712 464.809 79.8847 464.417 80.23C464.025 80.5753 463.829 81.0467 463.829 81.644C463.829 82.2413 464.025 82.722 464.417 83.086C464.818 83.45 465.359 83.632 466.041 83.632ZM466.041 78.732C466.657 78.732 467.137 78.578 467.483 78.27C467.837 77.962 468.015 77.5513 468.015 77.038C468.015 76.506 467.833 76.0813 467.469 75.764C467.105 75.4467 466.629 75.288 466.041 75.288C465.443 75.288 464.963 75.4467 464.599 75.764C464.244 76.0813 464.067 76.506 464.067 77.038C464.067 77.5513 464.244 77.962 464.599 78.27C464.953 78.578 465.434 78.732 466.041 78.732ZM474.122 84.5V74.42H475.312L481.094 82.904L480.926 82.932V74.42H482.018V84.5H480.828L475.046 76.016L475.214 75.988V84.5H474.122ZM487.315 84.64C486.615 84.64 485.999 84.4767 485.467 84.15C484.935 83.8233 484.519 83.38 484.221 82.82C483.931 82.2507 483.787 81.6113 483.787 80.902C483.787 80.1833 483.936 79.5487 484.235 78.998C484.533 78.4473 484.944 78.0133 485.467 77.696C485.999 77.3787 486.615 77.22 487.315 77.22C488.024 77.22 488.64 77.3787 489.163 77.696C489.695 78.0133 490.105 78.4473 490.395 78.998C490.693 79.5487 490.843 80.1833 490.843 80.902C490.843 81.6113 490.693 82.2507 490.395 82.82C490.105 83.38 489.695 83.8233 489.163 84.15C488.64 84.4767 488.024 84.64 487.315 84.64ZM487.315 83.688C487.8 83.688 488.22 83.5713 488.575 83.338C488.929 83.0953 489.205 82.764 489.401 82.344C489.597 81.924 489.695 81.4387 489.695 80.888C489.695 80.0667 489.475 79.4087 489.037 78.914C488.607 78.4193 488.033 78.172 487.315 78.172C486.605 78.172 486.031 78.4193 485.593 78.914C485.154 79.4087 484.935 80.0667 484.935 80.888C484.935 81.4387 485.033 81.924 485.229 82.344C485.425 82.764 485.7 83.0953 486.055 83.338C486.419 83.5713 486.839 83.688 487.315 83.688ZM494.431 84.5L491.477 77.36H492.681L495.145 83.744H494.697L497.147 77.36H498.295L495.341 84.5H494.431ZM501.915 84.5V83.52C502.923 82.6893 503.763 81.9613 504.435 81.336C505.117 80.7107 505.658 80.1553 506.059 79.67C506.47 79.1847 506.759 78.7413 506.927 78.34C507.105 77.9293 507.193 77.528 507.193 77.136C507.193 76.5573 507.021 76.1047 506.675 75.778C506.33 75.4513 505.854 75.288 505.247 75.288C504.622 75.288 504.118 75.4653 503.735 75.82C503.353 76.1747 503.119 76.6833 503.035 77.346H501.831C501.925 76.4313 502.275 75.694 502.881 75.134C503.497 74.5647 504.314 74.28 505.331 74.28C506.274 74.28 507.025 74.532 507.585 75.036C508.145 75.54 508.425 76.2307 508.425 77.108C508.425 77.584 508.332 78.06 508.145 78.536C507.968 79.012 507.669 79.5113 507.249 80.034C506.839 80.5567 506.293 81.1353 505.611 81.77C504.939 82.3953 504.104 83.1047 503.105 83.898L502.839 83.492H508.593V84.5H501.915ZM513.838 84.64C513.044 84.64 512.349 84.4207 511.752 83.982C511.164 83.534 510.702 82.918 510.366 82.134C510.039 81.3407 509.876 80.4353 509.876 79.418C509.876 78.4007 510.039 77.5093 510.366 76.744C510.692 75.9693 511.154 75.3673 511.752 74.938C512.349 74.4993 513.044 74.28 513.838 74.28C514.631 74.28 515.322 74.4993 515.91 74.938C516.507 75.3673 516.969 75.9693 517.296 76.744C517.632 77.5093 517.8 78.4007 517.8 79.418C517.8 80.4447 517.632 81.35 517.296 82.134C516.969 82.918 516.507 83.534 515.91 83.982C515.322 84.4207 514.631 84.64 513.838 84.64ZM513.838 83.632C514.407 83.632 514.892 83.464 515.294 83.128C515.695 82.7827 516.003 82.2973 516.218 81.672C516.432 81.0373 516.54 80.2813 516.54 79.404C516.54 78.536 516.432 77.794 516.218 77.178C516.012 76.562 515.709 76.0953 515.308 75.778C514.906 75.4513 514.416 75.288 513.838 75.288C513.259 75.288 512.769 75.4513 512.368 75.778C511.966 76.1047 511.658 76.576 511.444 77.192C511.238 77.7987 511.136 78.536 511.136 79.404C511.136 80.2813 511.243 81.0373 511.458 81.672C511.672 82.3067 511.98 82.792 512.382 83.128C512.783 83.464 513.268 83.632 513.838 83.632ZM518.978 84.5V83.52C519.986 82.6893 520.826 81.9613 521.498 81.336C522.179 80.7107 522.721 80.1553 523.122 79.67C523.533 79.1847 523.822 78.7413 523.99 78.34C524.167 77.9293 524.256 77.528 524.256 77.136C524.256 76.5573 524.083 76.1047 523.738 75.778C523.393 75.4513 522.917 75.288 522.31 75.288C521.685 75.288 521.181 75.4653 520.798 75.82C520.415 76.1747 520.182 76.6833 520.098 77.346H518.894C518.987 76.4313 519.337 75.694 519.944 75.134C520.56 74.5647 521.377 74.28 522.394 74.28C523.337 74.28 524.088 74.532 524.648 75.036C525.208 75.54 525.488 76.2307 525.488 77.108C525.488 77.584 525.395 78.06 525.208 78.536C525.031 79.012 524.732 79.5113 524.312 80.034C523.901 80.5567 523.355 81.1353 522.674 81.77C522.002 82.3953 521.167 83.1047 520.168 83.898L519.902 83.492H525.656V84.5H518.978ZM526.771 84.5V83.52C527.779 82.6893 528.619 81.9613 529.291 81.336C529.972 80.7107 530.514 80.1553 530.915 79.67C531.326 79.1847 531.615 78.7413 531.783 78.34C531.96 77.9293 532.049 77.528 532.049 77.136C532.049 76.5573 531.876 76.1047 531.531 75.778C531.186 75.4513 530.71 75.288 530.103 75.288C529.478 75.288 528.974 75.4653 528.591 75.82C528.208 76.1747 527.975 76.6833 527.891 77.346H526.687C526.78 76.4313 527.13 75.694 527.737 75.134C528.353 74.5647 529.17 74.28 530.187 74.28C531.13 74.28 531.881 74.532 532.441 75.036C533.001 75.54 533.281 76.2307 533.281 77.108C533.281 77.584 533.188 78.06 533.001 78.536C532.824 79.012 532.525 79.5113 532.105 80.034C531.694 80.5567 531.148 81.1353 530.467 81.77C529.795 82.3953 528.96 83.1047 527.961 83.898L527.695 83.492H533.449V84.5H526.771Z" fill="#002D54"/>
<path d="M465 114H117" stroke="#434343" stroke-width="0.5" stroke-linecap="round"/>
<path d="M37.5935 158.16C36.7828 158.16 36.0788 158.016 35.4815 157.728C34.8948 157.44 34.4415 157.045 34.1215 156.544C33.8015 156.043 33.6415 155.483 33.6415 154.864C33.6415 154.288 33.7695 153.765 34.0255 153.296C34.2815 152.827 34.6228 152.453 35.0495 152.176C35.4868 151.899 35.9668 151.76 36.4895 151.76L36.5215 152.096C36.0308 152.096 35.5882 151.979 35.1935 151.744C34.7988 151.499 34.4895 151.168 34.2655 150.752C34.0415 150.336 33.9295 149.877 33.9295 149.376C33.9295 148.779 34.0842 148.251 34.3935 147.792C34.7028 147.333 35.1348 146.976 35.6895 146.72C36.2442 146.453 36.8842 146.32 37.6095 146.32C38.3348 146.32 38.9695 146.453 39.5135 146.72C40.0575 146.976 40.4842 147.333 40.7935 147.792C41.1028 148.251 41.2575 148.773 41.2575 149.36C41.2575 149.872 41.1455 150.336 40.9215 150.752C40.6975 151.157 40.3882 151.483 39.9935 151.728C39.5988 151.973 39.1508 152.096 38.6495 152.096L38.6975 151.76C39.2308 151.76 39.7108 151.899 40.1375 152.176C40.5642 152.453 40.9055 152.827 41.1615 153.296C41.4175 153.765 41.5455 154.288 41.5455 154.864C41.5455 155.483 41.3855 156.043 41.0655 156.544C40.7455 157.045 40.2868 157.44 39.6895 157.728C39.1028 158.016 38.4042 158.16 37.5935 158.16ZM37.5935 157.008C38.3722 157.008 38.9855 156.8 39.4335 156.384C39.8922 155.968 40.1215 155.419 40.1215 154.736C40.1215 154.053 39.8975 153.515 39.4495 153.12C39.0015 152.725 38.3828 152.528 37.5935 152.528C36.8042 152.528 36.1855 152.725 35.7375 153.12C35.2895 153.515 35.0655 154.053 35.0655 154.736C35.0655 155.419 35.2895 155.968 35.7375 156.384C36.1962 156.8 36.8148 157.008 37.5935 157.008ZM37.5935 151.408C38.2975 151.408 38.8468 151.232 39.2415 150.88C39.6468 150.528 39.8495 150.059 39.8495 149.472C39.8495 148.864 39.6415 148.379 39.2255 148.016C38.8095 147.653 38.2655 147.472 37.5935 147.472C36.9108 147.472 36.3615 147.653 35.9455 148.016C35.5402 148.379 35.3375 148.864 35.3375 149.472C35.3375 150.059 35.5402 150.528 35.9455 150.88C36.3508 151.232 36.9002 151.408 37.5935 151.408ZM42.9973 158V156.352H44.6453V158H42.9973ZM42.9973 151.92V150.272H44.6453V151.92H42.9973ZM50.8436 158.16C49.937 158.16 49.1423 157.909 48.4596 157.408C47.7876 156.896 47.2596 156.192 46.8756 155.296C46.5023 154.389 46.3156 153.355 46.3156 152.192C46.3156 151.029 46.5023 150.011 46.8756 149.136C47.249 148.251 47.777 147.563 48.4596 147.072C49.1423 146.571 49.937 146.32 50.8436 146.32C51.7503 146.32 52.5396 146.571 53.2116 147.072C53.8943 147.563 54.4223 148.251 54.7956 149.136C55.1796 150.011 55.3716 151.029 55.3716 152.192C55.3716 153.365 55.1796 154.4 54.7956 155.296C54.4223 156.192 53.8943 156.896 53.2116 157.408C52.5396 157.909 51.7503 158.16 50.8436 158.16ZM50.8436 157.008C51.4943 157.008 52.049 156.816 52.5076 156.432C52.9663 156.037 53.3183 155.483 53.5636 154.768C53.809 154.043 53.9316 153.179 53.9316 152.176C53.9316 151.184 53.809 150.336 53.5636 149.632C53.329 148.928 52.9823 148.395 52.5236 148.032C52.065 147.659 51.505 147.472 50.8436 147.472C50.1823 147.472 49.6223 147.659 49.1636 148.032C48.705 148.405 48.353 148.944 48.1076 149.648C47.873 150.341 47.7556 151.184 47.7556 152.176C47.7556 153.179 47.8783 154.043 48.1236 154.768C48.369 155.493 48.721 156.048 49.1796 156.432C49.6383 156.816 50.193 157.008 50.8436 157.008ZM61.7343 158.16C60.8276 158.16 60.0329 157.909 59.3503 157.408C58.6783 156.896 58.1503 156.192 57.7663 155.296C57.3929 154.389 57.2063 153.355 57.2063 152.192C57.2063 151.029 57.3929 150.011 57.7663 149.136C58.1396 148.251 58.6676 147.563 59.3503 147.072C60.0329 146.571 60.8276 146.32 61.7343 146.32C62.6409 146.32 63.4303 146.571 64.1023 147.072C64.7849 147.563 65.3129 148.251 65.6863 149.136C66.0703 150.011 66.2623 151.029 66.2623 152.192C66.2623 153.365 66.0703 154.4 65.6863 155.296C65.3129 156.192 64.7849 156.896 64.1023 157.408C63.4303 157.909 62.6409 158.16 61.7343 158.16ZM61.7343 157.008C62.3849 157.008 62.9396 156.816 63.3983 156.432C63.8569 156.037 64.2089 155.483 64.4543 154.768C64.6996 154.043 64.8223 153.179 64.8223 152.176C64.8223 151.184 64.6996 150.336 64.4543 149.632C64.2196 148.928 63.8729 148.395 63.4143 148.032C62.9556 147.659 62.3956 147.472 61.7343 147.472C61.0729 147.472 60.5129 147.659 60.0543 148.032C59.5956 148.405 59.2436 148.944 58.9983 149.648C58.7636 150.341 58.6463 151.184 58.6463 152.176C58.6463 153.179 58.7689 154.043 59.0143 154.768C59.2596 155.493 59.6116 156.048 60.0703 156.432C60.5289 156.816 61.0836 157.008 61.7343 157.008Z" fill="#002D54"/>
<path d="M80 152H556" stroke="#404040" stroke-linecap="round" stroke-dasharray="5 5"/>
<path d="M38.4216 224.16C37.611 224.16 36.907 224.016 36.3096 223.728C35.723 223.44 35.2696 223.045 34.9496 222.544C34.6296 222.043 34.4696 221.483 34.4696 220.864C34.4696 220.288 34.5976 219.765 34.8536 219.296C35.1096 218.827 35.451 218.453 35.8776 218.176C36.315 217.899 36.795 217.76 37.3176 217.76L37.3496 218.096C36.859 218.096 36.4163 217.979 36.0216 217.744C35.627 217.499 35.3176 217.168 35.0936 216.752C34.8696 216.336 34.7576 215.877 34.7576 215.376C34.7576 214.779 34.9123 214.251 35.2216 213.792C35.531 213.333 35.963 212.976 36.5176 212.72C37.0723 212.453 37.7123 212.32 38.4376 212.32C39.163 212.32 39.7976 212.453 40.3416 212.72C40.8856 212.976 41.3123 213.333 41.6216 213.792C41.931 214.251 42.0856 214.773 42.0856 215.36C42.0856 215.872 41.9736 216.336 41.7496 216.752C41.5256 217.157 41.2163 217.483 40.8216 217.728C40.427 217.973 39.979 218.096 39.4776 218.096L39.5256 217.76C40.059 217.76 40.539 217.899 40.9656 218.176C41.3923 218.453 41.7336 218.827 41.9896 219.296C42.2456 219.765 42.3736 220.288 42.3736 220.864C42.3736 221.483 42.2136 222.043 41.8936 222.544C41.5736 223.045 41.115 223.44 40.5176 223.728C39.931 224.016 39.2323 224.16 38.4216 224.16ZM38.4216 223.008C39.2003 223.008 39.8136 222.8 40.2616 222.384C40.7203 221.968 40.9496 221.419 40.9496 220.736C40.9496 220.053 40.7256 219.515 40.2776 219.12C39.8296 218.725 39.211 218.528 38.4216 218.528C37.6323 218.528 37.0136 218.725 36.5656 219.12C36.1176 219.515 35.8936 220.053 35.8936 220.736C35.8936 221.419 36.1176 221.968 36.5656 222.384C37.0243 222.8 37.643 223.008 38.4216 223.008ZM38.4216 217.408C39.1256 217.408 39.675 217.232 40.0696 216.88C40.475 216.528 40.6776 216.059 40.6776 215.472C40.6776 214.864 40.4696 214.379 40.0536 214.016C39.6376 213.653 39.0936 213.472 38.4216 213.472C37.739 213.472 37.1896 213.653 36.7736 214.016C36.3683 214.379 36.1656 214.864 36.1656 215.472C36.1656 216.059 36.3683 216.528 36.7736 216.88C37.179 217.232 37.7283 217.408 38.4216 217.408ZM43.8254 224V222.352H45.4734V224H43.8254ZM43.8254 217.92V216.272H45.4734V217.92H43.8254ZM50.8454 224.16C50.0774 224.16 49.4 224.021 48.8134 223.744C48.2374 223.456 47.768 223.04 47.4054 222.496C47.0534 221.952 46.8347 221.296 46.7494 220.528H48.1254C48.2427 221.328 48.536 221.941 49.0054 222.368C49.4747 222.795 50.0934 223.008 50.8614 223.008C51.5867 223.008 52.1574 222.816 52.5734 222.432C52.9894 222.048 53.1974 221.525 53.1974 220.864C53.1974 220.171 52.9947 219.611 52.5894 219.184C52.184 218.747 51.64 218.528 50.9574 218.528H49.5174V217.408H50.9094C51.528 217.408 52.0187 217.232 52.3814 216.88C52.7547 216.517 52.9414 216.037 52.9414 215.44C52.9414 214.811 52.744 214.325 52.3494 213.984C51.9654 213.643 51.4427 213.472 50.7814 213.472C50.1307 213.472 49.576 213.664 49.1174 214.048C48.6587 214.421 48.3867 214.96 48.3014 215.664H46.9094C46.9734 214.981 47.176 214.395 47.5174 213.904C47.8587 213.403 48.312 213.013 48.8774 212.736C49.4534 212.459 50.0987 212.32 50.8134 212.32C51.5067 212.32 52.12 212.443 52.6534 212.688C53.1867 212.933 53.6027 213.285 53.9014 213.744C54.2 214.192 54.3494 214.72 54.3494 215.328C54.3494 215.872 54.2267 216.352 53.9814 216.768C53.736 217.184 53.4 217.509 52.9734 217.744C52.5574 217.979 52.0774 218.096 51.5334 218.096L51.4374 217.76C52.088 217.76 52.648 217.899 53.1174 218.176C53.5974 218.443 53.9654 218.811 54.2214 219.28C54.488 219.749 54.6214 220.293 54.6214 220.912C54.6214 221.552 54.4614 222.117 54.1414 222.608C53.8214 223.099 53.3787 223.483 52.8134 223.76C52.248 224.027 51.592 224.16 50.8454 224.16ZM60.9061 224.16C59.9995 224.16 59.2048 223.909 58.5221 223.408C57.8501 222.896 57.3221 222.192 56.9381 221.296C56.5648 220.389 56.3781 219.355 56.3781 218.192C56.3781 217.029 56.5648 216.011 56.9381 215.136C57.3115 214.251 57.8395 213.563 58.5221 213.072C59.2048 212.571 59.9995 212.32 60.9061 212.32C61.8128 212.32 62.6021 212.571 63.2741 213.072C63.9568 213.563 64.4848 214.251 64.8581 215.136C65.2421 216.011 65.4341 217.029 65.4341 218.192C65.4341 219.365 65.2421 220.4 64.8581 221.296C64.4848 222.192 63.9568 222.896 63.2741 223.408C62.6021 223.909 61.8128 224.16 60.9061 224.16ZM60.9061 223.008C61.5568 223.008 62.1115 222.816 62.5701 222.432C63.0288 222.037 63.3808 221.483 63.6261 220.768C63.8715 220.043 63.9941 219.179 63.9941 218.176C63.9941 217.184 63.8715 216.336 63.6261 215.632C63.3915 214.928 63.0448 214.395 62.5861 214.032C62.1275 213.659 61.5675 213.472 60.9061 213.472C60.2448 213.472 59.6848 213.659 59.2261 214.032C58.7675 214.405 58.4155 214.944 58.1701 215.648C57.9355 216.341 57.8181 217.184 57.8181 218.176C57.8181 219.179 57.9408 220.043 58.1861 220.768C58.4315 221.493 58.7835 222.048 59.2421 222.432C59.7008 222.816 60.2555 223.008 60.9061 223.008Z" fill="#002D54"/>
<path d="M80 218H556" stroke="#404040" stroke-linecap="round" stroke-dasharray="5 5"/>
<path d="M37.2564 290.16C36.5844 290.16 35.9818 290.032 35.4484 289.776C34.9151 289.509 34.4831 289.12 34.1524 288.608C33.8218 288.085 33.6084 287.435 33.5124 286.656H34.9204C35.0271 287.488 35.2884 288.091 35.7044 288.464C36.1204 288.827 36.6484 289.008 37.2884 289.008C37.7578 289.008 38.1631 288.912 38.5044 288.72C38.8458 288.528 39.1284 288.235 39.3524 287.84C39.5764 287.445 39.7418 286.944 39.8484 286.336C39.9551 285.717 40.0084 284.987 40.0084 284.144V283.104L40.3764 283.152C40.2804 283.643 40.0671 284.08 39.7364 284.464C39.4058 284.837 38.9951 285.131 38.5044 285.344C38.0138 285.547 37.4858 285.648 36.9204 285.648C36.2164 285.648 35.5978 285.493 35.0644 285.184C34.5311 284.864 34.1098 284.427 33.8004 283.872C33.5018 283.317 33.3524 282.688 33.3524 281.984C33.3524 281.237 33.5178 280.592 33.8484 280.048C34.1791 279.504 34.6378 279.083 35.2244 278.784C35.8218 278.475 36.5044 278.32 37.2724 278.32C38.6378 278.32 39.6724 278.816 40.3764 279.808C41.0911 280.8 41.4484 282.256 41.4484 284.176C41.4484 285.456 41.2831 286.544 40.9524 287.44C40.6324 288.325 40.1578 289.003 39.5284 289.472C38.9098 289.931 38.1524 290.16 37.2564 290.16ZM37.2564 284.528C37.9924 284.528 38.6004 284.32 39.0804 283.904C39.5711 283.488 39.8164 282.891 39.8164 282.112C39.8164 281.589 39.6991 281.131 39.4644 280.736C39.2404 280.341 38.9311 280.032 38.5364 279.808C38.1418 279.584 37.6938 279.472 37.1924 279.472C36.4778 279.472 35.8964 279.701 35.4484 280.16C35.0111 280.608 34.7924 281.227 34.7924 282.016C34.7924 282.773 35.0058 283.381 35.4324 283.84C35.8698 284.299 36.4778 284.528 37.2564 284.528ZM43.2863 290V288.352H44.9343V290H43.2863ZM43.2863 283.92V282.272H44.9343V283.92H43.2863ZM51.1327 290.16C50.226 290.16 49.4314 289.909 48.7487 289.408C48.0767 288.896 47.5487 288.192 47.1647 287.296C46.7914 286.389 46.6047 285.355 46.6047 284.192C46.6047 283.029 46.7914 282.011 47.1647 281.136C47.538 280.251 48.066 279.563 48.7487 279.072C49.4314 278.571 50.226 278.32 51.1327 278.32C52.0394 278.32 52.8287 278.571 53.5007 279.072C54.1834 279.563 54.7114 280.251 55.0847 281.136C55.4687 282.011 55.6607 283.029 55.6607 284.192C55.6607 285.365 55.4687 286.4 55.0847 287.296C54.7114 288.192 54.1834 288.896 53.5007 289.408C52.8287 289.909 52.0394 290.16 51.1327 290.16ZM51.1327 289.008C51.7834 289.008 52.338 288.816 52.7967 288.432C53.2554 288.037 53.6074 287.483 53.8527 286.768C54.098 286.043 54.2207 285.179 54.2207 284.176C54.2207 283.184 54.098 282.336 53.8527 281.632C53.618 280.928 53.2714 280.395 52.8127 280.032C52.354 279.659 51.794 279.472 51.1327 279.472C50.4714 279.472 49.9114 279.659 49.4527 280.032C48.994 280.405 48.642 280.944 48.3967 281.648C48.162 282.341 48.0447 283.184 48.0447 284.176C48.0447 285.179 48.1674 286.043 48.4127 286.768C48.658 287.493 49.01 288.048 49.4687 288.432C49.9274 288.816 50.482 289.008 51.1327 289.008ZM62.0233 290.16C61.1166 290.16 60.322 289.909 59.6393 289.408C58.9673 288.896 58.4393 288.192 58.0553 287.296C57.682 286.389 57.4953 285.355 57.4953 284.192C57.4953 283.029 57.682 282.011 58.0553 281.136C58.4286 280.251 58.9566 279.563 59.6393 279.072C60.322 278.571 61.1166 278.32 62.0233 278.32C62.93 278.32 63.7193 278.571 64.3913 279.072C65.074 279.563 65.602 280.251 65.9753 281.136C66.3593 282.011 66.5513 283.029 66.5513 284.192C66.5513 285.365 66.3593 286.4 65.9753 287.296C65.602 288.192 65.074 288.896 64.3913 289.408C63.7193 289.909 62.93 290.16 62.0233 290.16ZM62.0233 289.008C62.674 289.008 63.2286 288.816 63.6873 288.432C64.146 288.037 64.498 287.483 64.7433 286.768C64.9886 286.043 65.1113 285.179 65.1113 284.176C65.1113 283.184 64.9886 282.336 64.7433 281.632C64.5086 280.928 64.162 280.395 63.7033 280.032C63.2446 279.659 62.6846 279.472 62.0233 279.472C61.362 279.472 60.802 279.659 60.3433 280.032C59.8846 280.405 59.5326 280.944 59.2873 281.648C59.0526 282.341 58.9353 283.184 58.9353 284.176C58.9353 285.179 59.058 286.043 59.3033 286.768C59.5486 287.493 59.9006 288.048 60.3593 288.432C60.818 288.816 61.3726 289.008 62.0233 289.008Z" fill="#002D54"/>
<path d="M80 284H556" stroke="#404040" stroke-linecap="round" stroke-dasharray="5 5"/>
<path d="M38.0846 356.16C37.4126 356.16 36.8099 356.032 36.2766 355.776C35.7432 355.509 35.3112 355.12 34.9806 354.608C34.6499 354.085 34.4366 353.435 34.3406 352.656H35.7486C35.8552 353.488 36.1166 354.091 36.5326 354.464C36.9486 354.827 37.4766 355.008 38.1166 355.008C38.5859 355.008 38.9912 354.912 39.3326 354.72C39.6739 354.528 39.9566 354.235 40.1806 353.84C40.4046 353.445 40.5699 352.944 40.6766 352.336C40.7832 351.717 40.8366 350.987 40.8366 350.144V349.104L41.2046 349.152C41.1086 349.643 40.8952 350.08 40.5646 350.464C40.2339 350.837 39.8232 351.131 39.3326 351.344C38.8419 351.547 38.3139 351.648 37.7486 351.648C37.0446 351.648 36.4259 351.493 35.8926 351.184C35.3592 350.864 34.9379 350.427 34.6286 349.872C34.3299 349.317 34.1806 348.688 34.1806 347.984C34.1806 347.237 34.3459 346.592 34.6766 346.048C35.0072 345.504 35.4659 345.083 36.0526 344.784C36.6499 344.475 37.3326 344.32 38.1006 344.32C39.4659 344.32 40.5006 344.816 41.2046 345.808C41.9192 346.8 42.2766 348.256 42.2766 350.176C42.2766 351.456 42.1112 352.544 41.7806 353.44C41.4606 354.325 40.9859 355.003 40.3566 355.472C39.7379 355.931 38.9806 356.16 38.0846 356.16ZM38.0846 350.528C38.8206 350.528 39.4286 350.32 39.9086 349.904C40.3992 349.488 40.6446 348.891 40.6446 348.112C40.6446 347.589 40.5272 347.131 40.2926 346.736C40.0686 346.341 39.7592 346.032 39.3646 345.808C38.9699 345.584 38.5219 345.472 38.0206 345.472C37.3059 345.472 36.7246 345.701 36.2766 346.16C35.8392 346.608 35.6206 347.227 35.6206 348.016C35.6206 348.773 35.8339 349.381 36.2606 349.84C36.6979 350.299 37.3059 350.528 38.0846 350.528ZM44.1144 356V354.352H45.7624V356H44.1144ZM44.1144 349.92V348.272H45.7624V349.92H44.1144ZM51.1344 356.16C50.3664 356.16 49.6891 356.021 49.1024 355.744C48.5264 355.456 48.0571 355.04 47.6944 354.496C47.3424 353.952 47.1238 353.296 47.0384 352.528H48.4144C48.5318 353.328 48.8251 353.941 49.2944 354.368C49.7638 354.795 50.3824 355.008 51.1504 355.008C51.8758 355.008 52.4464 354.816 52.8624 354.432C53.2784 354.048 53.4864 353.525 53.4864 352.864C53.4864 352.171 53.2838 351.611 52.8784 351.184C52.4731 350.747 51.9291 350.528 51.2464 350.528H49.8064V349.408H51.1984C51.8171 349.408 52.3078 349.232 52.6704 348.88C53.0438 348.517 53.2304 348.037 53.2304 347.44C53.2304 346.811 53.0331 346.325 52.6384 345.984C52.2544 345.643 51.7318 345.472 51.0704 345.472C50.4198 345.472 49.8651 345.664 49.4064 346.048C48.9478 346.421 48.6758 346.96 48.5904 347.664H47.1984C47.2624 346.981 47.4651 346.395 47.8064 345.904C48.1478 345.403 48.6011 345.013 49.1664 344.736C49.7424 344.459 50.3878 344.32 51.1024 344.32C51.7958 344.32 52.4091 344.443 52.9424 344.688C53.4758 344.933 53.8918 345.285 54.1904 345.744C54.4891 346.192 54.6384 346.72 54.6384 347.328C54.6384 347.872 54.5158 348.352 54.2704 348.768C54.0251 349.184 53.6891 349.509 53.2624 349.744C52.8464 349.979 52.3664 350.096 51.8224 350.096L51.7264 349.76C52.3771 349.76 52.9371 349.899 53.4064 350.176C53.8864 350.443 54.2544 350.811 54.5104 351.28C54.7771 351.749 54.9104 352.293 54.9104 352.912C54.9104 353.552 54.7504 354.117 54.4304 354.608C54.1104 355.099 53.6678 355.483 53.1024 355.76C52.5371 356.027 51.8811 356.16 51.1344 356.16ZM61.1952 356.16C60.2885 356.16 59.4939 355.909 58.8112 355.408C58.1392 354.896 57.6112 354.192 57.2272 353.296C56.8539 352.389 56.6672 351.355 56.6672 350.192C56.6672 349.029 56.8539 348.011 57.2272 347.136C57.6005 346.251 58.1285 345.563 58.8112 345.072C59.4939 344.571 60.2885 344.32 61.1952 344.32C62.1019 344.32 62.8912 344.571 63.5632 345.072C64.2459 345.563 64.7739 346.251 65.1472 347.136C65.5312 348.011 65.7232 349.029 65.7232 350.192C65.7232 351.365 65.5312 352.4 65.1472 353.296C64.7739 354.192 64.2459 354.896 63.5632 355.408C62.8912 355.909 62.1019 356.16 61.1952 356.16ZM61.1952 355.008C61.8459 355.008 62.4005 354.816 62.8592 354.432C63.3179 354.037 63.6699 353.483 63.9152 352.768C64.1605 352.043 64.2832 351.179 64.2832 350.176C64.2832 349.184 64.1605 348.336 63.9152 347.632C63.6805 346.928 63.3339 346.395 62.8752 346.032C62.4165 345.659 61.8565 345.472 61.1952 345.472C60.5339 345.472 59.9739 345.659 59.5152 346.032C59.0565 346.405 58.7045 346.944 58.4592 347.648C58.2245 348.341 58.1072 349.184 58.1072 350.176C58.1072 351.179 58.2299 352.043 58.4752 352.768C58.7205 353.493 59.0725 354.048 59.5312 354.432C59.9899 354.816 60.5445 355.008 61.1952 355.008Z" fill="#002D54"/>
<path d="M80 350H561" stroke="#404040" stroke-linecap="round" stroke-dasharray="5 5"/>
<circle cx="75" cy="319" r="5" fill="#002D54"/>
<path d="M80 319H557" stroke="#002D54" stroke-width="2" stroke-linecap="round"/>
<path d="M32.6781 422V411.792L33.0141 411.872C32.8861 412.16 32.6408 412.448 32.2781 412.736C31.9155 413.024 31.4941 413.275 31.0141 413.488C30.5448 413.701 30.0595 413.845 29.5581 413.92V412.688C30.0595 412.603 30.5395 412.453 30.9981 412.24C31.4568 412.027 31.8621 411.771 32.2141 411.472C32.5768 411.163 32.8435 410.832 33.0141 410.48H33.9581V422H32.6781ZM40.6561 422.16C39.7495 422.16 38.9548 421.909 38.2721 421.408C37.6001 420.896 37.0721 420.192 36.6881 419.296C36.3148 418.389 36.1281 417.355 36.1281 416.192C36.1281 415.029 36.3148 414.011 36.6881 413.136C37.0615 412.251 37.5895 411.563 38.2721 411.072C38.9548 410.571 39.7495 410.32 40.6561 410.32C41.5628 410.32 42.3521 410.571 43.0241 411.072C43.7068 411.563 44.2348 412.251 44.6081 413.136C44.9921 414.011 45.1841 415.029 45.1841 416.192C45.1841 417.365 44.9921 418.4 44.6081 419.296C44.2348 420.192 43.7068 420.896 43.0241 421.408C42.3521 421.909 41.5628 422.16 40.6561 422.16ZM40.6561 421.008C41.3068 421.008 41.8615 420.816 42.3201 420.432C42.7788 420.037 43.1308 419.483 43.3761 418.768C43.6215 418.043 43.7441 417.179 43.7441 416.176C43.7441 415.184 43.6215 414.336 43.3761 413.632C43.1415 412.928 42.7948 412.395 42.3361 412.032C41.8775 411.659 41.3175 411.472 40.6561 411.472C39.9948 411.472 39.4348 411.659 38.9761 412.032C38.5175 412.405 38.1655 412.944 37.9201 413.648C37.6855 414.341 37.5681 415.184 37.5681 416.176C37.5681 417.179 37.6908 418.043 37.9361 418.768C38.1815 419.493 38.5335 420.048 38.9921 420.432C39.4508 420.816 40.0055 421.008 40.6561 421.008ZM46.8566 422V420.352H48.5046V422H46.8566ZM46.8566 415.92V414.272H48.5046V415.92H46.8566ZM54.703 422.16C53.7963 422.16 53.0017 421.909 52.319 421.408C51.647 420.896 51.119 420.192 50.735 419.296C50.3617 418.389 50.175 417.355 50.175 416.192C50.175 415.029 50.3617 414.011 50.735 413.136C51.1083 412.251 51.6363 411.563 52.319 411.072C53.0017 410.571 53.7963 410.32 54.703 410.32C55.6097 410.32 56.399 410.571 57.071 411.072C57.7537 411.563 58.2817 412.251 58.655 413.136C59.039 414.011 59.231 415.029 59.231 416.192C59.231 417.365 59.039 418.4 58.655 419.296C58.2817 420.192 57.7537 420.896 57.071 421.408C56.399 421.909 55.6097 422.16 54.703 422.16ZM54.703 421.008C55.3537 421.008 55.9083 420.816 56.367 420.432C56.8257 420.037 57.1777 419.483 57.423 418.768C57.6683 418.043 57.791 417.179 57.791 416.176C57.791 415.184 57.6683 414.336 57.423 413.632C57.1883 412.928 56.8417 412.395 56.383 412.032C55.9243 411.659 55.3643 411.472 54.703 411.472C54.0417 411.472 53.4817 411.659 53.023 412.032C52.5643 412.405 52.2123 412.944 51.967 413.648C51.7323 414.341 51.615 415.184 51.615 416.176C51.615 417.179 51.7377 418.043 51.983 418.768C52.2283 419.493 52.5803 420.048 53.039 420.432C53.4977 420.816 54.0523 421.008 54.703 421.008ZM65.5936 422.16C64.687 422.16 63.8923 421.909 63.2096 421.408C62.5376 420.896 62.0096 420.192 61.6256 419.296C61.2523 418.389 61.0656 417.355 61.0656 416.192C61.0656 415.029 61.2523 414.011 61.6256 413.136C61.999 412.251 62.527 411.563 63.2096 411.072C63.8923 410.571 64.687 410.32 65.5936 410.32C66.5003 410.32 67.2896 410.571 67.9616 411.072C68.6443 411.563 69.1723 412.251 69.5456 413.136C69.9296 414.011 70.1216 415.029 70.1216 416.192C70.1216 417.365 69.9296 418.4 69.5456 419.296C69.1723 420.192 68.6443 420.896 67.9616 421.408C67.2896 421.909 66.5003 422.16 65.5936 422.16ZM65.5936 421.008C66.2443 421.008 66.799 420.816 67.2576 420.432C67.7163 420.037 68.0683 419.483 68.3136 418.768C68.559 418.043 68.6816 417.179 68.6816 416.176C68.6816 415.184 68.559 414.336 68.3136 413.632C68.079 412.928 67.7323 412.395 67.2736 412.032C66.815 411.659 66.255 411.472 65.5936 411.472C64.9323 411.472 64.3723 411.659 63.9136 412.032C63.455 412.405 63.103 412.944 62.8576 413.648C62.623 414.341 62.5056 415.184 62.5056 416.176C62.5056 417.179 62.6283 418.043 62.8736 418.768C63.119 419.493 63.471 420.048 63.9296 420.432C64.3883 420.816 64.943 421.008 65.5936 421.008Z" fill="#002D54"/>
<path d="M80 416H556" stroke="#404040" stroke-linecap="round" stroke-dasharray="5 5"/>
<path d="M33.5063 488V477.792L33.8423 477.872C33.7143 478.16 33.4689 478.448 33.1063 478.736C32.7436 479.024 32.3223 479.275 31.8423 479.488C31.3729 479.701 30.8876 479.845 30.3863 479.92V478.688C30.8876 478.603 31.3676 478.453 31.8263 478.24C32.2849 478.027 32.6903 477.771 33.0423 477.472C33.4049 477.163 33.6716 476.832 33.8423 476.48H34.7863V488H33.5063ZM41.4843 488.16C40.5776 488.16 39.7829 487.909 39.1003 487.408C38.4283 486.896 37.9003 486.192 37.5163 485.296C37.1429 484.389 36.9563 483.355 36.9563 482.192C36.9563 481.029 37.1429 480.011 37.5163 479.136C37.8896 478.251 38.4176 477.563 39.1003 477.072C39.7829 476.571 40.5776 476.32 41.4843 476.32C42.3909 476.32 43.1803 476.571 43.8523 477.072C44.5349 477.563 45.0629 478.251 45.4363 479.136C45.8203 480.011 46.0123 481.029 46.0123 482.192C46.0123 483.365 45.8203 484.4 45.4363 485.296C45.0629 486.192 44.5349 486.896 43.8523 487.408C43.1803 487.909 42.3909 488.16 41.4843 488.16ZM41.4843 487.008C42.1349 487.008 42.6896 486.816 43.1483 486.432C43.6069 486.037 43.9589 485.483 44.2043 484.768C44.4496 484.043 44.5723 483.179 44.5723 482.176C44.5723 481.184 44.4496 480.336 44.2043 479.632C43.9696 478.928 43.6229 478.395 43.1643 478.032C42.7056 477.659 42.1456 477.472 41.4843 477.472C40.8229 477.472 40.2629 477.659 39.8043 478.032C39.3456 478.405 38.9936 478.944 38.7483 479.648C38.5136 480.341 38.3963 481.184 38.3963 482.176C38.3963 483.179 38.5189 484.043 38.7643 484.768C39.0096 485.493 39.3616 486.048 39.8203 486.432C40.2789 486.816 40.8336 487.008 41.4843 487.008ZM47.6848 488V486.352H49.3328V488H47.6848ZM47.6848 481.92V480.272H49.3328V481.92H47.6848ZM54.7048 488.16C53.9368 488.16 53.2594 488.021 52.6728 487.744C52.0968 487.456 51.6274 487.04 51.2648 486.496C50.9128 485.952 50.6941 485.296 50.6088 484.528H51.9848C52.1021 485.328 52.3954 485.941 52.8648 486.368C53.3341 486.795 53.9528 487.008 54.7208 487.008C55.4461 487.008 56.0168 486.816 56.4328 486.432C56.8488 486.048 57.0568 485.525 57.0568 484.864C57.0568 484.171 56.8541 483.611 56.4488 483.184C56.0434 482.747 55.4994 482.528 54.8168 482.528H53.3768V481.408H54.7688C55.3874 481.408 55.8781 481.232 56.2408 480.88C56.6141 480.517 56.8008 480.037 56.8008 479.44C56.8008 478.811 56.6034 478.325 56.2088 477.984C55.8248 477.643 55.3021 477.472 54.6408 477.472C53.9901 477.472 53.4354 477.664 52.9768 478.048C52.5181 478.421 52.2461 478.96 52.1608 479.664H50.7688C50.8328 478.981 51.0354 478.395 51.3768 477.904C51.7181 477.403 52.1714 477.013 52.7368 476.736C53.3128 476.459 53.9581 476.32 54.6727 476.32C55.3661 476.32 55.9794 476.443 56.5128 476.688C57.0461 476.933 57.4621 477.285 57.7608 477.744C58.0594 478.192 58.2088 478.72 58.2088 479.328C58.2088 479.872 58.0861 480.352 57.8408 480.768C57.5954 481.184 57.2594 481.509 56.8328 481.744C56.4168 481.979 55.9368 482.096 55.3928 482.096L55.2968 481.76C55.9474 481.76 56.5074 481.899 56.9768 482.176C57.4568 482.443 57.8248 482.811 58.0808 483.28C58.3474 483.749 58.4808 484.293 58.4808 484.912C58.4808 485.552 58.3208 486.117 58.0008 486.608C57.6808 487.099 57.2381 487.483 56.6728 487.76C56.1074 488.027 55.4514 488.16 54.7048 488.16ZM64.7655 488.16C63.8588 488.16 63.0642 487.909 62.3815 487.408C61.7095 486.896 61.1815 486.192 60.7975 485.296C60.4242 484.389 60.2375 483.355 60.2375 482.192C60.2375 481.029 60.4242 480.011 60.7975 479.136C61.1708 478.251 61.6988 477.563 62.3815 477.072C63.0642 476.571 63.8588 476.32 64.7655 476.32C65.6722 476.32 66.4615 476.571 67.1335 477.072C67.8162 477.563 68.3442 478.251 68.7175 479.136C69.1015 480.011 69.2935 481.029 69.2935 482.192C69.2935 483.365 69.1015 484.4 68.7175 485.296C68.3442 486.192 67.8162 486.896 67.1335 487.408C66.4615 487.909 65.6722 488.16 64.7655 488.16ZM64.7655 487.008C65.4162 487.008 65.9708 486.816 66.4295 486.432C66.8882 486.037 67.2402 485.483 67.4855 484.768C67.7308 484.043 67.8535 483.179 67.8535 482.176C67.8535 481.184 67.7308 480.336 67.4855 479.632C67.2508 478.928 66.9042 478.395 66.4455 478.032C65.9868 477.659 65.4268 477.472 64.7655 477.472C64.1042 477.472 63.5442 477.659 63.0855 478.032C62.6268 478.405 62.2748 478.944 62.0295 479.648C61.7948 480.341 61.6775 481.184 61.6775 482.176C61.6775 483.179 61.8002 484.043 62.0455 484.768C62.2908 485.493 62.6428 486.048 63.1015 486.432C63.5602 486.816 64.1148 487.008 64.7655 487.008Z" fill="#002D54"/>
<path d="M80 482H556" stroke="#404040" stroke-linecap="round" stroke-dasharray="5 5"/>
<path d="M34.9906 554V543.792L35.3266 543.872C35.1986 544.16 34.9533 544.448 34.5906 544.736C34.228 545.024 33.8066 545.275 33.3266 545.488C32.8573 545.701 32.372 545.845 31.8706 545.92V544.688C32.372 544.603 32.852 544.453 33.3106 544.24C33.7693 544.027 34.1746 543.771 34.5266 543.472C34.8893 543.163 35.156 542.832 35.3266 542.48H36.2706V554H34.9906ZM41.0531 554V543.792L41.3891 543.872C41.2611 544.16 41.0158 544.448 40.6531 544.736C40.2905 545.024 39.8691 545.275 39.3891 545.488C38.9198 545.701 38.4345 545.845 37.9331 545.92V544.688C38.4345 544.603 38.9145 544.453 39.3731 544.24C39.8318 544.027 40.2371 543.771 40.5891 543.472C40.9518 543.163 41.2185 542.832 41.3891 542.48H42.3331V554H41.0531ZM44.5441 554V552.352H46.1921V554H44.5441ZM44.5441 547.92V546.272H46.1921V547.92H44.5441ZM52.3905 554.16C51.4838 554.16 50.6892 553.909 50.0065 553.408C49.3345 552.896 48.8065 552.192 48.4225 551.296C48.0492 550.389 47.8625 549.355 47.8625 548.192C47.8625 547.029 48.0492 546.011 48.4225 545.136C48.7958 544.251 49.3238 543.563 50.0065 543.072C50.6892 542.571 51.4838 542.32 52.3905 542.32C53.2972 542.32 54.0865 542.571 54.7585 543.072C55.4412 543.563 55.9692 544.251 56.3425 545.136C56.7265 546.011 56.9185 547.029 56.9185 548.192C56.9185 549.365 56.7265 550.4 56.3425 551.296C55.9692 552.192 55.4412 552.896 54.7585 553.408C54.0865 553.909 53.2972 554.16 52.3905 554.16ZM52.3905 553.008C53.0412 553.008 53.5958 552.816 54.0545 552.432C54.5132 552.037 54.8652 551.483 55.1105 550.768C55.3558 550.043 55.4785 549.179 55.4785 548.176C55.4785 547.184 55.3558 546.336 55.1105 545.632C54.8758 544.928 54.5292 544.395 54.0705 544.032C53.6118 543.659 53.0518 543.472 52.3905 543.472C51.7292 543.472 51.1692 543.659 50.7105 544.032C50.2518 544.405 49.8998 544.944 49.6545 545.648C49.4198 546.341 49.3025 547.184 49.3025 548.176C49.3025 549.179 49.4252 550.043 49.6705 550.768C49.9158 551.493 50.2678 552.048 50.7265 552.432C51.1852 552.816 51.7398 553.008 52.3905 553.008ZM63.2811 554.16C62.3745 554.16 61.5798 553.909 60.8971 553.408C60.2251 552.896 59.6971 552.192 59.3131 551.296C58.9398 550.389 58.7531 549.355 58.7531 548.192C58.7531 547.029 58.9398 546.011 59.3131 545.136C59.6865 544.251 60.2145 543.563 60.8971 543.072C61.5798 542.571 62.3745 542.32 63.2811 542.32C64.1878 542.32 64.9771 542.571 65.6491 543.072C66.3318 543.563 66.8598 544.251 67.2331 545.136C67.6171 546.011 67.8091 547.029 67.8091 548.192C67.8091 549.365 67.6171 550.4 67.2331 551.296C66.8598 552.192 66.3318 552.896 65.6491 553.408C64.9771 553.909 64.1878 554.16 63.2811 554.16ZM63.2811 553.008C63.9318 553.008 64.4865 552.816 64.9451 552.432C65.4038 552.037 65.7558 551.483 66.0011 550.768C66.2465 550.043 66.3691 549.179 66.3691 548.176C66.3691 547.184 66.2465 546.336 66.0011 545.632C65.7665 544.928 65.4198 544.395 64.9611 544.032C64.5025 543.659 63.9425 543.472 63.2811 543.472C62.6198 543.472 62.0598 543.659 61.6011 544.032C61.1425 544.405 60.7905 544.944 60.5451 545.648C60.3105 546.341 60.1931 547.184 60.1931 548.176C60.1931 549.179 60.3158 550.043 60.5611 550.768C60.8065 551.493 61.1585 552.048 61.6171 552.432C62.0758 552.816 62.6305 553.008 63.2811 553.008Z" fill="#002D54"/>
<path d="M80 548H556" stroke="#404040" stroke-linecap="round" stroke-dasharray="5 5"/>
<path d="M35.8188 620V609.792L36.1548 609.872C36.0268 610.16 35.7814 610.448 35.4188 610.736C35.0561 611.024 34.6348 611.275 34.1548 611.488C33.6854 611.701 33.2001 611.845 32.6988 611.92V610.688C33.2001 610.603 33.6801 610.453 34.1388 610.24C34.5974 610.027 35.0028 609.771 35.3548 609.472C35.7174 609.163 35.9841 608.832 36.1548 608.48H37.0988V620H35.8188ZM41.8813 620V609.792L42.2173 609.872C42.0893 610.16 41.8439 610.448 41.4813 610.736C41.1186 611.024 40.6973 611.275 40.2173 611.488C39.7479 611.701 39.2626 611.845 38.7613 611.92V610.688C39.2626 610.603 39.7426 610.453 40.2013 610.24C40.6599 610.027 41.0653 609.771 41.4173 609.472C41.7799 609.163 42.0466 608.832 42.2173 608.48H43.1613V620H41.8813ZM45.3723 620V618.352H47.0203V620H45.3723ZM45.3723 613.92V612.272H47.0203V613.92H45.3723ZM52.3923 620.16C51.6243 620.16 50.9469 620.021 50.3603 619.744C49.7843 619.456 49.3149 619.04 48.9523 618.496C48.6003 617.952 48.3816 617.296 48.2963 616.528H49.6723C49.7896 617.328 50.0829 617.941 50.5523 618.368C51.0216 618.795 51.6403 619.008 52.4083 619.008C53.1336 619.008 53.7043 618.816 54.1203 618.432C54.5363 618.048 54.7443 617.525 54.7443 616.864C54.7443 616.171 54.5416 615.611 54.1363 615.184C53.7309 614.747 53.1869 614.528 52.5043 614.528H51.0643V613.408H52.4563C53.0749 613.408 53.5656 613.232 53.9283 612.88C54.3016 612.517 54.4883 612.037 54.4883 611.44C54.4883 610.811 54.2909 610.325 53.8963 609.984C53.5123 609.643 52.9896 609.472 52.3283 609.472C51.6776 609.472 51.1229 609.664 50.6643 610.048C50.2056 610.421 49.9336 610.96 49.8483 611.664H48.4563C48.5203 610.981 48.7229 610.395 49.0643 609.904C49.4056 609.403 49.8589 609.013 50.4243 608.736C51.0003 608.459 51.6456 608.32 52.3602 608.32C53.0536 608.32 53.6669 608.443 54.2003 608.688C54.7336 608.933 55.1496 609.285 55.4483 609.744C55.7469 610.192 55.8963 610.72 55.8963 611.328C55.8963 611.872 55.7736 612.352 55.5283 612.768C55.2829 613.184 54.9469 613.509 54.5203 613.744C54.1043 613.979 53.6243 614.096 53.0803 614.096L52.9843 613.76C53.6349 613.76 54.1949 613.899 54.6643 614.176C55.1443 614.443 55.5123 614.811 55.7683 615.28C56.0349 615.749 56.1683 616.293 56.1683 616.912C56.1683 617.552 56.0083 618.117 55.6883 618.608C55.3683 619.099 54.9256 619.483 54.3603 619.76C53.7949 620.027 53.1389 620.16 52.3923 620.16ZM62.453 620.16C61.5463 620.16 60.7517 619.909 60.069 619.408C59.397 618.896 58.869 618.192 58.485 617.296C58.1117 616.389 57.925 615.355 57.925 614.192C57.925 613.029 58.1117 612.011 58.485 611.136C58.8583 610.251 59.3863 609.563 60.069 609.072C60.7517 608.571 61.5463 608.32 62.453 608.32C63.3597 608.32 64.149 608.571 64.821 609.072C65.5037 609.563 66.0317 610.251 66.405 611.136C66.789 612.011 66.981 613.029 66.981 614.192C66.981 615.365 66.789 616.4 66.405 617.296C66.0317 618.192 65.5037 618.896 64.821 619.408C64.149 619.909 63.3597 620.16 62.453 620.16ZM62.453 619.008C63.1037 619.008 63.6583 618.816 64.117 618.432C64.5757 618.037 64.9277 617.483 65.173 616.768C65.4183 616.043 65.541 615.179 65.541 614.176C65.541 613.184 65.4183 612.336 65.173 611.632C64.9383 610.928 64.5917 610.395 64.133 610.032C63.6743 609.659 63.1143 609.472 62.453 609.472C61.7917 609.472 61.2317 609.659 60.773 610.032C60.3143 610.405 59.9623 610.944 59.717 611.648C59.4823 612.341 59.365 613.184 59.365 614.176C59.365 615.179 59.4877 616.043 59.733 616.768C59.9783 617.493 60.3303 618.048 60.789 618.432C61.2477 618.816 61.8023 619.008 62.453 619.008Z" fill="#002D54"/>
<path d="M80 614H556" stroke="#404040" stroke-linecap="round" stroke-dasharray="5 5"/>
<path d="M33.5297 686V675.792L33.8657 675.872C33.7377 676.16 33.4924 676.448 33.1297 676.736C32.767 677.024 32.3457 677.275 31.8657 677.488C31.3964 677.701 30.911 677.845 30.4097 677.92V676.688C30.911 676.603 31.391 676.453 31.8497 676.24C32.3084 676.027 32.7137 675.771 33.0657 675.472C33.4284 675.163 33.695 674.832 33.8657 674.48H34.8097V686H33.5297ZM36.8197 686V684.88C37.9717 683.931 38.9317 683.099 39.6997 682.384C40.4784 681.669 41.097 681.035 41.5557 680.48C42.025 679.925 42.3557 679.419 42.5477 678.96C42.7504 678.491 42.8517 678.032 42.8517 677.584C42.8517 676.923 42.6544 676.405 42.2597 676.032C41.865 675.659 41.321 675.472 40.6277 675.472C39.913 675.472 39.337 675.675 38.8997 676.08C38.4624 676.485 38.1957 677.067 38.0997 677.824H36.7237C36.8304 676.779 37.2304 675.936 37.9237 675.296C38.6277 674.645 39.561 674.32 40.7237 674.32C41.801 674.32 42.6597 674.608 43.2997 675.184C43.9397 675.76 44.2597 676.549 44.2597 677.552C44.2597 678.096 44.153 678.64 43.9397 679.184C43.737 679.728 43.3957 680.299 42.9157 680.896C42.4464 681.493 41.8224 682.155 41.0437 682.88C40.2757 683.595 39.321 684.405 38.1797 685.312L37.8757 684.848H44.4517V686H36.8197ZM46.0051 686V684.352H47.6531V686H46.0051ZM46.0051 679.92V678.272H47.6531V679.92H46.0051ZM53.8514 686.16C52.9448 686.16 52.1501 685.909 51.4674 685.408C50.7954 684.896 50.2674 684.192 49.8834 683.296C49.5101 682.389 49.3234 681.355 49.3234 680.192C49.3234 679.029 49.5101 678.011 49.8834 677.136C50.2568 676.251 50.7848 675.563 51.4674 675.072C52.1501 674.571 52.9448 674.32 53.8514 674.32C54.7581 674.32 55.5474 674.571 56.2194 675.072C56.9021 675.563 57.4301 676.251 57.8034 677.136C58.1874 678.011 58.3794 679.029 58.3794 680.192C58.3794 681.365 58.1874 682.4 57.8034 683.296C57.4301 684.192 56.9021 684.896 56.2194 685.408C55.5474 685.909 54.7581 686.16 53.8514 686.16ZM53.8514 685.008C54.5021 685.008 55.0568 684.816 55.5154 684.432C55.9741 684.037 56.3261 683.483 56.5714 682.768C56.8168 682.043 56.9394 681.179 56.9394 680.176C56.9394 679.184 56.8168 678.336 56.5714 677.632C56.3368 676.928 55.9901 676.395 55.5314 676.032C55.0728 675.659 54.5128 675.472 53.8514 675.472C53.1901 675.472 52.6301 675.659 52.1714 676.032C51.7128 676.405 51.3608 676.944 51.1154 677.648C50.8808 678.341 50.7634 679.184 50.7634 680.176C50.7634 681.179 50.8861 682.043 51.1314 682.768C51.3768 683.493 51.7288 684.048 52.1874 684.432C52.6461 684.816 53.2008 685.008 53.8514 685.008ZM64.7421 686.16C63.8354 686.16 63.0407 685.909 62.3581 685.408C61.6861 684.896 61.1581 684.192 60.7741 683.296C60.4007 682.389 60.2141 681.355 60.2141 680.192C60.2141 679.029 60.4007 678.011 60.7741 677.136C61.1474 676.251 61.6754 675.563 62.3581 675.072C63.0407 674.571 63.8354 674.32 64.7421 674.32C65.6487 674.32 66.4381 674.571 67.1101 675.072C67.7927 675.563 68.3207 676.251 68.6941 677.136C69.0781 678.011 69.2701 679.029 69.2701 680.192C69.2701 681.365 69.0781 682.4 68.6941 683.296C68.3207 684.192 67.7927 684.896 67.1101 685.408C66.4381 685.909 65.6487 686.16 64.7421 686.16ZM64.7421 685.008C65.3927 685.008 65.9474 684.816 66.4061 684.432C66.8647 684.037 67.2167 683.483 67.4621 682.768C67.7074 682.043 67.8301 681.179 67.8301 680.176C67.8301 679.184 67.7074 678.336 67.4621 677.632C67.2274 676.928 66.8807 676.395 66.4221 676.032C65.9634 675.659 65.4034 675.472 64.7421 675.472C64.0807 675.472 63.5207 675.659 63.0621 676.032C62.6034 676.405 62.2514 676.944 62.0061 677.648C61.7714 678.341 61.6541 679.184 61.6541 680.176C61.6541 681.179 61.7767 682.043 62.0221 682.768C62.2674 683.493 62.6194 684.048 63.0781 684.432C63.5367 684.816 64.0914 685.008 64.7421 685.008Z" fill="#002D54"/>
<path d="M80 680H556" stroke="#404040" stroke-linecap="round" stroke-dasharray="5 5"/>
<rect x="179" y="152" width="185" height="66" rx="12" fill="#002D54"/>
<rect width="144" height="41" transform="translate(191 162)" fill="#002D54"/>
<path d="M191.63 179L196.508 166.04H198.164L193.502 179H191.63ZM201.656 179L196.994 166.04H198.74L203.636 179H201.656ZM194.096 173.834H201.044V175.418H194.096V173.834ZM205.534 179V166.04H207.406V179H205.534ZM210.034 179V166.04H211.906V179H210.034ZM218.53 179.18C217.594 179.18 216.772 178.976 216.064 178.568C215.356 178.148 214.804 177.578 214.408 176.858C214.012 176.126 213.814 175.298 213.814 174.374C213.814 173.438 214.012 172.616 214.408 171.908C214.816 171.2 215.368 170.648 216.064 170.252C216.772 169.844 217.594 169.64 218.53 169.64C219.478 169.64 220.306 169.844 221.014 170.252C221.722 170.648 222.268 171.2 222.652 171.908C223.048 172.616 223.246 173.438 223.246 174.374C223.246 175.298 223.048 176.126 222.652 176.858C222.268 177.578 221.722 178.148 221.014 178.568C220.306 178.976 219.478 179.18 218.53 179.18ZM218.53 177.65C219.094 177.65 219.58 177.512 219.988 177.236C220.408 176.96 220.738 176.576 220.978 176.084C221.218 175.592 221.338 175.016 221.338 174.356C221.338 173.372 221.074 172.598 220.546 172.034C220.03 171.458 219.358 171.17 218.53 171.17C217.714 171.17 217.042 171.458 216.514 172.034C215.998 172.61 215.74 173.384 215.74 174.356C215.74 175.016 215.854 175.592 216.082 176.084C216.322 176.576 216.652 176.96 217.072 177.236C217.504 177.512 217.99 177.65 218.53 177.65ZM228.984 179.18C228.108 179.18 227.328 178.976 226.644 178.568C225.96 178.148 225.42 177.578 225.024 176.858C224.64 176.138 224.448 175.316 224.448 174.392C224.448 173.468 224.64 172.652 225.024 171.944C225.42 171.224 225.96 170.66 226.644 170.252C227.328 169.844 228.102 169.64 228.966 169.64C229.698 169.64 230.352 169.778 230.928 170.054C231.504 170.33 231.978 170.714 232.35 171.206C232.722 171.698 232.962 172.28 233.07 172.952H231.306C231.186 172.412 230.922 171.98 230.514 171.656C230.118 171.332 229.614 171.17 229.002 171.17C228.474 171.17 228.012 171.302 227.616 171.566C227.22 171.83 226.914 172.202 226.698 172.682C226.482 173.162 226.374 173.732 226.374 174.392C226.374 175.04 226.482 175.61 226.698 176.102C226.914 176.594 227.22 176.978 227.616 177.254C228.012 177.518 228.48 177.65 229.02 177.65C229.608 177.65 230.106 177.494 230.514 177.182C230.934 176.858 231.204 176.426 231.324 175.886H233.088C232.968 176.546 232.716 177.122 232.332 177.614C231.96 178.106 231.486 178.49 230.91 178.766C230.334 179.042 229.692 179.18 228.984 179.18ZM240.542 179C240.482 178.772 240.44 178.52 240.416 178.244C240.404 177.968 240.398 177.632 240.398 177.236H240.308V172.862C240.308 172.274 240.158 171.836 239.858 171.548C239.57 171.248 239.108 171.098 238.472 171.098C237.86 171.098 237.368 171.218 236.996 171.458C236.636 171.698 236.426 172.04 236.366 172.484H234.584C234.668 171.62 235.058 170.93 235.754 170.414C236.45 169.898 237.38 169.64 238.544 169.64C239.744 169.64 240.644 169.922 241.244 170.486C241.844 171.038 242.144 171.854 242.144 172.934V177.236C242.144 177.512 242.162 177.794 242.198 178.082C242.234 178.37 242.288 178.676 242.36 179H240.542ZM237.374 179.18C236.438 179.18 235.694 178.952 235.142 178.496C234.59 178.028 234.314 177.398 234.314 176.606C234.314 175.79 234.602 175.148 235.178 174.68C235.766 174.2 236.606 173.876 237.698 173.708L240.722 173.222V174.536L237.986 174.968C237.374 175.064 236.912 175.226 236.6 175.454C236.3 175.682 236.15 176.012 236.15 176.444C236.15 176.864 236.288 177.182 236.564 177.398C236.852 177.602 237.266 177.704 237.806 177.704C238.526 177.704 239.12 177.53 239.588 177.182C240.068 176.834 240.308 176.396 240.308 175.868L240.542 177.2C240.326 177.836 239.942 178.328 239.39 178.676C238.838 179.012 238.166 179.18 237.374 179.18ZM248.199 179.18C247.131 179.18 246.345 178.934 245.841 178.442C245.349 177.938 245.103 177.2 245.103 176.228V167.714L246.957 167.012V176.246C246.957 176.726 247.083 177.08 247.335 177.308C247.587 177.536 247.995 177.65 248.559 177.65C248.775 177.65 248.967 177.632 249.135 177.596C249.303 177.56 249.447 177.518 249.567 177.47V178.982C249.435 179.042 249.249 179.09 249.009 179.126C248.769 179.162 248.499 179.18 248.199 179.18ZM243.267 171.314V169.82H249.567V171.314H243.267ZM255.074 179.18C254.15 179.18 253.334 178.976 252.626 178.568C251.93 178.16 251.384 177.596 250.988 176.876C250.592 176.156 250.394 175.328 250.394 174.392C250.394 173.444 250.586 172.616 250.97 171.908C251.366 171.188 251.918 170.63 252.626 170.234C253.334 169.838 254.144 169.64 255.056 169.64C255.944 169.64 256.712 169.832 257.36 170.216C258.02 170.588 258.524 171.11 258.872 171.782C259.232 172.454 259.412 173.252 259.412 174.176C259.412 174.32 259.406 174.458 259.394 174.59C259.394 174.71 259.382 174.836 259.358 174.968H251.654V173.564H258.044L257.576 174.122C257.576 173.138 257.354 172.388 256.91 171.872C256.466 171.356 255.848 171.098 255.056 171.098C254.204 171.098 253.526 171.392 253.022 171.98C252.53 172.556 252.284 173.36 252.284 174.392C252.284 175.436 252.53 176.252 253.022 176.84C253.526 177.428 254.222 177.722 255.11 177.722C255.65 177.722 256.118 177.614 256.514 177.398C256.91 177.17 257.204 176.84 257.396 176.408H259.16C258.86 177.272 258.35 177.95 257.63 178.442C256.922 178.934 256.07 179.18 255.074 179.18ZM266.299 179V177.524H270.169C270.901 177.524 271.471 177.326 271.879 176.93C272.299 176.534 272.509 175.994 272.509 175.31C272.509 174.59 272.287 174.014 271.843 173.582C271.411 173.15 270.817 172.934 270.061 172.934H266.299V171.494H269.881C270.613 171.494 271.177 171.32 271.573 170.972C271.981 170.612 272.185 170.102 272.185 169.442C272.185 168.818 271.993 168.344 271.609 168.02C271.237 167.684 270.685 167.516 269.953 167.516H266.299V166.04H270.241C271.417 166.04 272.353 166.328 273.049 166.904C273.745 167.468 274.093 168.242 274.093 169.226C274.093 169.85 273.949 170.402 273.661 170.882C273.385 171.35 273.001 171.716 272.509 171.98C272.017 172.232 271.459 172.358 270.835 172.358L270.925 171.98C271.597 171.98 272.197 172.136 272.725 172.448C273.253 172.748 273.673 173.162 273.985 173.69C274.297 174.218 274.453 174.83 274.453 175.526C274.453 176.21 274.285 176.816 273.949 177.344C273.625 177.872 273.163 178.28 272.563 178.568C271.963 178.856 271.267 179 270.475 179H266.299ZM264.895 179V166.04H266.803V179H264.895ZM279.397 179.18C278.785 179.18 278.245 179.054 277.777 178.802C277.309 178.538 276.943 178.178 276.679 177.722C276.427 177.266 276.301 176.744 276.301 176.156V169.82H278.173V175.724C278.173 176.36 278.329 176.834 278.641 177.146C278.953 177.458 279.397 177.614 279.973 177.614C280.489 177.614 280.945 177.494 281.341 177.254C281.749 177.014 282.067 176.684 282.295 176.264C282.535 175.832 282.655 175.334 282.655 174.77L282.889 176.966C282.589 177.638 282.127 178.178 281.503 178.586C280.891 178.982 280.189 179.18 279.397 179.18ZM282.727 179V176.84H282.655V169.82H284.509V179H282.727ZM293.703 179V176.894L293.883 176.948C293.691 177.632 293.295 178.178 292.695 178.586C292.095 178.982 291.375 179.18 290.535 179.18C289.707 179.18 288.981 178.982 288.357 178.586C287.745 178.19 287.265 177.638 286.917 176.93C286.581 176.222 286.413 175.394 286.413 174.446C286.413 173.486 286.587 172.646 286.935 171.926C287.283 171.206 287.769 170.648 288.393 170.252C289.017 169.856 289.749 169.658 290.589 169.658C291.465 169.658 292.185 169.868 292.749 170.288C293.325 170.696 293.703 171.272 293.883 172.016L293.631 172.052V166.04H295.485V179H293.703ZM291.003 177.614C291.831 177.614 292.485 177.332 292.965 176.768C293.445 176.192 293.685 175.4 293.685 174.392C293.685 173.408 293.439 172.634 292.947 172.07C292.467 171.494 291.813 171.206 290.985 171.206C290.169 171.206 289.521 171.494 289.041 172.07C288.573 172.634 288.339 173.426 288.339 174.446C288.339 175.442 288.573 176.222 289.041 176.786C289.521 177.338 290.175 177.614 291.003 177.614ZM301.97 182.87C300.818 182.87 299.864 182.606 299.108 182.078C298.364 181.562 297.914 180.872 297.758 180.008H299.522C299.642 180.404 299.906 180.716 300.314 180.944C300.734 181.172 301.292 181.286 301.988 181.286C302.888 181.286 303.56 181.064 304.004 180.62C304.448 180.176 304.67 179.516 304.67 178.64V176.66L304.832 176.696C304.652 177.392 304.262 177.944 303.662 178.352C303.062 178.748 302.342 178.946 301.502 178.946C300.698 178.946 299.99 178.754 299.378 178.37C298.766 177.986 298.292 177.452 297.956 176.768C297.62 176.072 297.452 175.262 297.452 174.338C297.452 173.402 297.626 172.58 297.974 171.872C298.322 171.164 298.808 170.618 299.432 170.234C300.068 169.85 300.806 169.658 301.646 169.658C302.51 169.658 303.224 169.868 303.788 170.288C304.364 170.696 304.73 171.278 304.886 172.034L304.742 172.052V169.82H306.524V178.622C306.524 179.942 306.116 180.98 305.3 181.736C304.496 182.492 303.386 182.87 301.97 182.87ZM302.06 177.434C302.864 177.434 303.506 177.152 303.986 176.588C304.478 176.024 304.724 175.25 304.724 174.266C304.724 173.306 304.478 172.55 303.986 171.998C303.506 171.446 302.858 171.17 302.042 171.17C301.226 171.17 300.578 171.452 300.098 172.016C299.618 172.568 299.378 173.336 299.378 174.32C299.378 175.28 299.618 176.042 300.098 176.606C300.59 177.158 301.244 177.434 302.06 177.434ZM313.117 179.18C312.193 179.18 311.377 178.976 310.669 178.568C309.973 178.16 309.427 177.596 309.031 176.876C308.635 176.156 308.437 175.328 308.437 174.392C308.437 173.444 308.629 172.616 309.013 171.908C309.409 171.188 309.961 170.63 310.669 170.234C311.377 169.838 312.187 169.64 313.099 169.64C313.987 169.64 314.755 169.832 315.403 170.216C316.063 170.588 316.567 171.11 316.915 171.782C317.275 172.454 317.455 173.252 317.455 174.176C317.455 174.32 317.449 174.458 317.437 174.59C317.437 174.71 317.425 174.836 317.401 174.968H309.697V173.564H316.087L315.619 174.122C315.619 173.138 315.397 172.388 314.953 171.872C314.509 171.356 313.891 171.098 313.099 171.098C312.247 171.098 311.569 171.392 311.065 171.98C310.573 172.556 310.327 173.36 310.327 174.392C310.327 175.436 310.573 176.252 311.065 176.84C311.569 177.428 312.265 177.722 313.153 177.722C313.693 177.722 314.161 177.614 314.557 177.398C314.953 177.17 315.247 176.84 315.439 176.408H317.203C316.903 177.272 316.393 177.95 315.673 178.442C314.965 178.934 314.113 179.18 313.117 179.18ZM323.117 179.18C322.049 179.18 321.263 178.934 320.759 178.442C320.267 177.938 320.021 177.2 320.021 176.228V167.714L321.875 167.012V176.246C321.875 176.726 322.001 177.08 322.253 177.308C322.505 177.536 322.913 177.65 323.477 177.65C323.693 177.65 323.885 177.632 324.053 177.596C324.221 177.56 324.365 177.518 324.485 177.47V178.982C324.353 179.042 324.167 179.09 323.927 179.126C323.687 179.162 323.417 179.18 323.117 179.18ZM318.185 171.314V169.82H324.485V171.314H318.185Z" fill="white"/>
<path d="M194.574 200.12C193.966 200.12 193.438 200.012 192.99 199.796C192.55 199.58 192.21 199.284 191.97 198.908C191.73 198.532 191.61 198.112 191.61 197.648C191.61 197.216 191.706 196.824 191.898 196.472C192.09 196.12 192.346 195.84 192.666 195.632C192.994 195.424 193.354 195.32 193.746 195.32L193.77 195.572C193.402 195.572 193.07 195.484 192.774 195.308C192.478 195.124 192.246 194.876 192.078 194.564C191.91 194.252 191.826 193.908 191.826 193.532C191.826 193.084 191.942 192.688 192.174 192.344C192.406 192 192.73 191.732 193.146 191.54C193.562 191.34 194.042 191.24 194.586 191.24C195.13 191.24 195.606 191.34 196.014 191.54C196.422 191.732 196.742 192 196.974 192.344C197.206 192.688 197.322 193.08 197.322 193.52C197.322 193.904 197.238 194.252 197.07 194.564C196.902 194.868 196.67 195.112 196.374 195.296C196.078 195.48 195.742 195.572 195.366 195.572L195.402 195.32C195.802 195.32 196.162 195.424 196.482 195.632C196.802 195.84 197.058 196.12 197.25 196.472C197.442 196.824 197.538 197.216 197.538 197.648C197.538 198.112 197.418 198.532 197.178 198.908C196.938 199.284 196.594 199.58 196.146 199.796C195.706 200.012 195.182 200.12 194.574 200.12ZM194.574 199.256C195.158 199.256 195.618 199.1 195.954 198.788C196.298 198.476 196.47 198.064 196.47 197.552C196.47 197.04 196.302 196.636 195.966 196.34C195.63 196.044 195.166 195.896 194.574 195.896C193.982 195.896 193.518 196.044 193.182 196.34C192.846 196.636 192.678 197.04 192.678 197.552C192.678 198.064 192.846 198.476 193.182 198.788C193.526 199.1 193.99 199.256 194.574 199.256ZM194.574 195.056C195.102 195.056 195.514 194.924 195.81 194.66C196.114 194.396 196.266 194.044 196.266 193.604C196.266 193.148 196.11 192.784 195.798 192.512C195.486 192.24 195.078 192.104 194.574 192.104C194.062 192.104 193.65 192.24 193.338 192.512C193.034 192.784 192.882 193.148 192.882 193.604C192.882 194.044 193.034 194.396 193.338 194.66C193.642 194.924 194.054 195.056 194.574 195.056ZM198.627 200V198.764H199.863V200H198.627ZM198.627 195.44V194.204H199.863V195.44H198.627ZM204.512 200.12C203.832 200.12 203.236 199.932 202.724 199.556C202.22 199.172 201.824 198.644 201.536 197.972C201.256 197.292 201.116 196.516 201.116 195.644C201.116 194.772 201.256 194.008 201.536 193.352C201.816 192.688 202.212 192.172 202.724 191.804C203.236 191.428 203.832 191.24 204.512 191.24C205.192 191.24 205.784 191.428 206.288 191.804C206.8 192.172 207.196 192.688 207.476 193.352C207.764 194.008 207.908 194.772 207.908 195.644C207.908 196.524 207.764 197.3 207.476 197.972C207.196 198.644 206.8 199.172 206.288 199.556C205.784 199.932 205.192 200.12 204.512 200.12ZM204.512 199.256C205 199.256 205.416 199.112 205.76 198.824C206.104 198.528 206.368 198.112 206.552 197.576C206.736 197.032 206.828 196.384 206.828 195.632C206.828 194.888 206.736 194.252 206.552 193.724C206.376 193.196 206.116 192.796 205.772 192.524C205.428 192.244 205.008 192.104 204.512 192.104C204.016 192.104 203.596 192.244 203.252 192.524C202.908 192.804 202.644 193.208 202.46 193.736C202.284 194.256 202.196 194.888 202.196 195.632C202.196 196.384 202.288 197.032 202.472 197.576C202.656 198.12 202.92 198.536 203.264 198.824C203.608 199.112 204.024 199.256 204.512 199.256ZM212.68 200.12C212 200.12 211.404 199.932 210.892 199.556C210.388 199.172 209.992 198.644 209.704 197.972C209.424 197.292 209.284 196.516 209.284 195.644C209.284 194.772 209.424 194.008 209.704 193.352C209.984 192.688 210.38 192.172 210.892 191.804C211.404 191.428 212 191.24 212.68 191.24C213.36 191.24 213.952 191.428 214.456 191.804C214.968 192.172 215.364 192.688 215.644 193.352C215.932 194.008 216.076 194.772 216.076 195.644C216.076 196.524 215.932 197.3 215.644 197.972C215.364 198.644 214.968 199.172 214.456 199.556C213.952 199.932 213.36 200.12 212.68 200.12ZM212.68 199.256C213.168 199.256 213.584 199.112 213.928 198.824C214.272 198.528 214.536 198.112 214.72 197.576C214.904 197.032 214.996 196.384 214.996 195.632C214.996 194.888 214.904 194.252 214.72 193.724C214.544 193.196 214.284 192.796 213.94 192.524C213.596 192.244 213.176 192.104 212.68 192.104C212.184 192.104 211.764 192.244 211.42 192.524C211.076 192.804 210.812 193.208 210.628 193.736C210.452 194.256 210.364 194.888 210.364 195.632C210.364 196.384 210.456 197.032 210.64 197.576C210.824 198.12 211.088 198.536 211.432 198.824C211.776 199.112 212.192 199.256 212.68 199.256ZM219.51 200L222.846 191.36H223.71L220.458 200H219.51ZM226.374 200L223.122 191.36H224.046L227.382 200H226.374ZM221.166 196.508H225.678V197.372H221.166V196.508ZM228.841 200V191.36H230.353L233.473 199.688H233.017L236.113 191.36H237.649V200H236.677V191.876H236.809L233.797 200H232.621L229.609 191.948H229.741V200H228.841ZM242.046 197.192V196.28H246.198V197.192H242.046ZM253.051 200.12C252.443 200.12 251.915 200.012 251.467 199.796C251.027 199.58 250.687 199.284 250.447 198.908C250.207 198.532 250.087 198.112 250.087 197.648C250.087 197.216 250.183 196.824 250.375 196.472C250.567 196.12 250.823 195.84 251.143 195.632C251.471 195.424 251.831 195.32 252.223 195.32L252.247 195.572C251.879 195.572 251.547 195.484 251.251 195.308C250.955 195.124 250.723 194.876 250.555 194.564C250.387 194.252 250.303 193.908 250.303 193.532C250.303 193.084 250.419 192.688 250.651 192.344C250.883 192 251.207 191.732 251.623 191.54C252.039 191.34 252.519 191.24 253.063 191.24C253.607 191.24 254.083 191.34 254.491 191.54C254.899 191.732 255.219 192 255.451 192.344C255.683 192.688 255.799 193.08 255.799 193.52C255.799 193.904 255.715 194.252 255.547 194.564C255.379 194.868 255.147 195.112 254.851 195.296C254.555 195.48 254.219 195.572 253.843 195.572L253.879 195.32C254.279 195.32 254.639 195.424 254.959 195.632C255.279 195.84 255.535 196.12 255.727 196.472C255.919 196.824 256.015 197.216 256.015 197.648C256.015 198.112 255.895 198.532 255.655 198.908C255.415 199.284 255.071 199.58 254.623 199.796C254.183 200.012 253.659 200.12 253.051 200.12ZM253.051 199.256C253.635 199.256 254.095 199.1 254.431 198.788C254.775 198.476 254.947 198.064 254.947 197.552C254.947 197.04 254.779 196.636 254.443 196.34C254.107 196.044 253.643 195.896 253.051 195.896C252.459 195.896 251.995 196.044 251.659 196.34C251.323 196.636 251.155 197.04 251.155 197.552C251.155 198.064 251.323 198.476 251.659 198.788C252.003 199.1 252.467 199.256 253.051 199.256ZM253.051 195.056C253.579 195.056 253.991 194.924 254.287 194.66C254.591 194.396 254.743 194.044 254.743 193.604C254.743 193.148 254.587 192.784 254.275 192.512C253.963 192.24 253.555 192.104 253.051 192.104C252.539 192.104 252.127 192.24 251.815 192.512C251.511 192.784 251.359 193.148 251.359 193.604C251.359 194.044 251.511 194.396 251.815 194.66C252.119 194.924 252.531 195.056 253.051 195.056ZM257.103 200V198.764H258.339V200H257.103ZM257.103 195.44V194.204H258.339V195.44H257.103ZM262.368 200.12C261.792 200.12 261.284 200.016 260.844 199.808C260.412 199.592 260.06 199.28 259.788 198.872C259.524 198.464 259.36 197.972 259.296 197.396H260.328C260.416 197.996 260.636 198.456 260.988 198.776C261.34 199.096 261.804 199.256 262.38 199.256C262.924 199.256 263.352 199.112 263.664 198.824C263.976 198.536 264.132 198.144 264.132 197.648C264.132 197.128 263.98 196.708 263.676 196.388C263.372 196.06 262.964 195.896 262.452 195.896H261.372V195.056H262.416C262.88 195.056 263.248 194.924 263.52 194.66C263.8 194.388 263.94 194.028 263.94 193.58C263.94 193.108 263.792 192.744 263.496 192.488C263.208 192.232 262.816 192.104 262.32 192.104C261.832 192.104 261.416 192.248 261.072 192.536C260.728 192.816 260.524 193.22 260.46 193.748H259.416C259.464 193.236 259.616 192.796 259.872 192.428C260.128 192.052 260.468 191.76 260.892 191.552C261.324 191.344 261.808 191.24 262.344 191.24C262.864 191.24 263.324 191.332 263.724 191.516C264.124 191.7 264.436 191.964 264.66 192.308C264.884 192.644 264.996 193.04 264.996 193.496C264.996 193.904 264.904 194.264 264.72 194.576C264.536 194.888 264.284 195.132 263.964 195.308C263.652 195.484 263.292 195.572 262.884 195.572L262.812 195.32C263.3 195.32 263.72 195.424 264.072 195.632C264.432 195.832 264.708 196.108 264.9 196.46C265.1 196.812 265.2 197.22 265.2 197.684C265.2 198.164 265.08 198.588 264.84 198.956C264.6 199.324 264.268 199.612 263.844 199.82C263.42 200.02 262.928 200.12 262.368 200.12ZM269.914 200.12C269.234 200.12 268.638 199.932 268.126 199.556C267.622 199.172 267.226 198.644 266.938 197.972C266.658 197.292 266.518 196.516 266.518 195.644C266.518 194.772 266.658 194.008 266.938 193.352C267.218 192.688 267.614 192.172 268.126 191.804C268.638 191.428 269.234 191.24 269.914 191.24C270.594 191.24 271.186 191.428 271.69 191.804C272.202 192.172 272.598 192.688 272.878 193.352C273.166 194.008 273.31 194.772 273.31 195.644C273.31 196.524 273.166 197.3 272.878 197.972C272.598 198.644 272.202 199.172 271.69 199.556C271.186 199.932 270.594 200.12 269.914 200.12ZM269.914 199.256C270.402 199.256 270.818 199.112 271.162 198.824C271.506 198.528 271.77 198.112 271.954 197.576C272.138 197.032 272.23 196.384 272.23 195.632C272.23 194.888 272.138 194.252 271.954 193.724C271.778 193.196 271.518 192.796 271.174 192.524C270.83 192.244 270.41 192.104 269.914 192.104C269.418 192.104 268.998 192.244 268.654 192.524C268.31 192.804 268.046 193.208 267.862 193.736C267.686 194.256 267.598 194.888 267.598 195.632C267.598 196.384 267.69 197.032 267.874 197.576C268.058 198.12 268.322 198.536 268.666 198.824C269.01 199.112 269.426 199.256 269.914 199.256ZM276.745 200L280.081 191.36H280.945L277.693 200H276.745ZM283.609 200L280.357 191.36H281.281L284.617 200H283.609ZM278.401 196.508H282.913V197.372H278.401V196.508ZM286.075 200V191.36H287.587L290.707 199.688H290.251L293.347 191.36H294.883V200H293.911V191.876H294.043L291.031 200H289.855L286.843 191.948H286.975V200H286.075Z" fill="white"/>
<rect x="102" y="284" width="210" height="66" rx="12" fill="#03543F" stroke="#4BC9C1" stroke-linecap="round" stroke-dasharray="4 4"/>
<rect width="106" height="41" transform="translate(122 294)" fill="#03543F"/>
<path d="M129.36 311.18C128.46 311.18 127.626 311.018 126.858 310.694C126.09 310.358 125.424 309.896 124.86 309.308C124.308 308.708 123.876 308 123.564 307.184C123.252 306.368 123.096 305.474 123.096 304.502C123.096 303.53 123.246 302.642 123.546 301.838C123.858 301.022 124.29 300.32 124.842 299.732C125.406 299.132 126.072 298.67 126.84 298.346C127.608 298.022 128.442 297.86 129.342 297.86C130.35 297.86 131.256 298.064 132.06 298.472C132.864 298.868 133.518 299.432 134.022 300.164C134.538 300.896 134.856 301.748 134.976 302.72H133.104C132.948 301.7 132.534 300.908 131.862 300.344C131.202 299.768 130.368 299.48 129.36 299.48C128.508 299.48 127.752 299.69 127.092 300.11C126.444 300.518 125.94 301.1 125.58 301.856C125.22 302.6 125.04 303.482 125.04 304.502C125.04 305.51 125.22 306.398 125.58 307.166C125.952 307.922 126.462 308.51 127.11 308.93C127.758 309.35 128.508 309.56 129.36 309.56C130.368 309.56 131.208 309.278 131.88 308.714C132.564 308.138 132.978 307.34 133.122 306.32H135.012C134.88 307.304 134.556 308.162 134.04 308.894C133.524 309.614 132.864 310.178 132.06 310.586C131.268 310.982 130.368 311.18 129.36 311.18ZM142.438 311C142.378 310.772 142.336 310.52 142.312 310.244C142.3 309.968 142.294 309.632 142.294 309.236H142.204V304.862C142.204 304.274 142.054 303.836 141.754 303.548C141.466 303.248 141.004 303.098 140.368 303.098C139.756 303.098 139.264 303.218 138.892 303.458C138.532 303.698 138.322 304.04 138.262 304.484H136.48C136.564 303.62 136.954 302.93 137.65 302.414C138.346 301.898 139.276 301.64 140.44 301.64C141.64 301.64 142.54 301.922 143.14 302.486C143.74 303.038 144.04 303.854 144.04 304.934V309.236C144.04 309.512 144.058 309.794 144.094 310.082C144.13 310.37 144.184 310.676 144.256 311H142.438ZM139.27 311.18C138.334 311.18 137.59 310.952 137.038 310.496C136.486 310.028 136.21 309.398 136.21 308.606C136.21 307.79 136.498 307.148 137.074 306.68C137.662 306.2 138.502 305.876 139.594 305.708L142.618 305.222V306.536L139.882 306.968C139.27 307.064 138.808 307.226 138.496 307.454C138.196 307.682 138.046 308.012 138.046 308.444C138.046 308.864 138.184 309.182 138.46 309.398C138.748 309.602 139.162 309.704 139.702 309.704C140.422 309.704 141.016 309.53 141.484 309.182C141.964 308.834 142.204 308.396 142.204 307.868L142.438 309.2C142.222 309.836 141.838 310.328 141.286 310.676C140.734 311.012 140.062 311.18 139.27 311.18ZM146.576 311V298.04H148.448V311H146.576ZM151.076 311V298.04H152.948V311H151.076ZM158.389 311L163.267 298.04H164.923L160.261 311H158.389ZM168.415 311L163.753 298.04H165.499L170.395 311H168.415ZM160.855 305.834H167.803V307.418H160.855V305.834ZM172.293 311V301.82H174.075V303.98H174.165V311H172.293ZM178.809 311V305.096C178.809 304.46 178.647 303.986 178.323 303.674C178.011 303.362 177.543 303.206 176.919 303.206C176.379 303.206 175.899 303.326 175.479 303.566C175.071 303.806 174.747 304.136 174.507 304.556C174.279 304.976 174.165 305.474 174.165 306.05L173.931 303.854C174.231 303.17 174.693 302.63 175.317 302.234C175.941 301.838 176.667 301.64 177.495 301.64C178.479 301.64 179.253 301.916 179.817 302.468C180.381 303.02 180.663 303.752 180.663 304.664V311H178.809ZM189.833 311V308.894L190.013 308.948C189.821 309.632 189.425 310.178 188.825 310.586C188.225 310.982 187.505 311.18 186.665 311.18C185.837 311.18 185.111 310.982 184.487 310.586C183.875 310.19 183.395 309.638 183.047 308.93C182.711 308.222 182.543 307.394 182.543 306.446C182.543 305.486 182.717 304.646 183.065 303.926C183.413 303.206 183.899 302.648 184.523 302.252C185.147 301.856 185.879 301.658 186.719 301.658C187.595 301.658 188.315 301.868 188.879 302.288C189.455 302.696 189.833 303.272 190.013 304.016L189.761 304.052V298.04H191.615V311H189.833ZM187.133 309.614C187.961 309.614 188.615 309.332 189.095 308.768C189.575 308.192 189.815 307.4 189.815 306.392C189.815 305.408 189.569 304.634 189.077 304.07C188.597 303.494 187.943 303.206 187.115 303.206C186.299 303.206 185.651 303.494 185.171 304.07C184.703 304.634 184.469 305.426 184.469 306.446C184.469 307.442 184.703 308.222 185.171 308.786C185.651 309.338 186.305 309.614 187.133 309.614ZM194.248 311V301.82H196.03V304.106H196.12V311H194.248ZM196.12 306.212L195.886 304.034C196.102 303.254 196.474 302.66 197.002 302.252C197.53 301.844 198.16 301.64 198.892 301.64C199.168 301.64 199.36 301.664 199.468 301.712V303.476C199.408 303.452 199.324 303.44 199.216 303.44C199.108 303.428 198.976 303.422 198.82 303.422C197.92 303.422 197.242 303.656 196.786 304.124C196.342 304.592 196.12 305.288 196.12 306.212ZM204.835 311.18C203.911 311.18 203.095 310.976 202.387 310.568C201.691 310.16 201.145 309.596 200.749 308.876C200.353 308.156 200.155 307.328 200.155 306.392C200.155 305.444 200.347 304.616 200.731 303.908C201.127 303.188 201.679 302.63 202.387 302.234C203.095 301.838 203.905 301.64 204.817 301.64C205.705 301.64 206.473 301.832 207.121 302.216C207.781 302.588 208.285 303.11 208.633 303.782C208.993 304.454 209.173 305.252 209.173 306.176C209.173 306.32 209.167 306.458 209.155 306.59C209.155 306.71 209.143 306.836 209.119 306.968H201.415V305.564H207.805L207.337 306.122C207.337 305.138 207.115 304.388 206.671 303.872C206.227 303.356 205.609 303.098 204.817 303.098C203.965 303.098 203.287 303.392 202.783 303.98C202.291 304.556 202.045 305.36 202.045 306.392C202.045 307.436 202.291 308.252 202.783 308.84C203.287 309.428 203.983 309.722 204.871 309.722C205.411 309.722 205.879 309.614 206.275 309.398C206.671 309.17 206.965 308.84 207.157 308.408H208.921C208.621 309.272 208.111 309.95 207.391 310.442C206.683 310.934 205.831 311.18 204.835 311.18ZM212.784 311L209.976 301.82H211.902L213.81 309.2H213.54L215.862 301.82H217.482L219.804 309.2H219.552L221.442 301.82H223.278L220.47 311H218.832L216.51 303.746H216.78L214.422 311H212.784Z" fill="white"/>
<path d="M125.604 332.12C125.1 332.12 124.648 332.024 124.248 331.832C123.848 331.632 123.524 331.34 123.276 330.956C123.028 330.564 122.868 330.076 122.796 329.492H123.852C123.932 330.116 124.128 330.568 124.44 330.848C124.752 331.12 125.148 331.256 125.628 331.256C125.98 331.256 126.284 331.184 126.54 331.04C126.796 330.896 127.008 330.676 127.176 330.38C127.344 330.084 127.468 329.708 127.548 329.252C127.628 328.788 127.668 328.24 127.668 327.608V326.828L127.944 326.864C127.872 327.232 127.712 327.56 127.464 327.848C127.216 328.128 126.908 328.348 126.54 328.508C126.172 328.66 125.776 328.736 125.352 328.736C124.824 328.736 124.36 328.62 123.96 328.388C123.56 328.148 123.244 327.82 123.012 327.404C122.788 326.988 122.676 326.516 122.676 325.988C122.676 325.428 122.8 324.944 123.048 324.536C123.296 324.128 123.64 323.812 124.08 323.588C124.528 323.356 125.04 323.24 125.616 323.24C126.64 323.24 127.416 323.612 127.944 324.356C128.48 325.1 128.748 326.192 128.748 327.632C128.748 328.592 128.624 329.408 128.376 330.08C128.136 330.744 127.78 331.252 127.308 331.604C126.844 331.948 126.276 332.12 125.604 332.12ZM125.604 327.896C126.156 327.896 126.612 327.74 126.972 327.428C127.34 327.116 127.524 326.668 127.524 326.084C127.524 325.692 127.436 325.348 127.26 325.052C127.092 324.756 126.86 324.524 126.564 324.356C126.268 324.188 125.932 324.104 125.556 324.104C125.02 324.104 124.584 324.276 124.248 324.62C123.92 324.956 123.756 325.42 123.756 326.012C123.756 326.58 123.916 327.036 124.236 327.38C124.564 327.724 125.02 327.896 125.604 327.896ZM130.127 332V330.764H131.363V332H130.127ZM130.127 327.44V326.204H131.363V327.44H130.127ZM136.012 332.12C135.332 332.12 134.736 331.932 134.224 331.556C133.72 331.172 133.324 330.644 133.036 329.972C132.756 329.292 132.616 328.516 132.616 327.644C132.616 326.772 132.756 326.008 133.036 325.352C133.316 324.688 133.712 324.172 134.224 323.804C134.736 323.428 135.332 323.24 136.012 323.24C136.692 323.24 137.284 323.428 137.788 323.804C138.3 324.172 138.696 324.688 138.976 325.352C139.264 326.008 139.408 326.772 139.408 327.644C139.408 328.524 139.264 329.3 138.976 329.972C138.696 330.644 138.3 331.172 137.788 331.556C137.284 331.932 136.692 332.12 136.012 332.12ZM136.012 331.256C136.5 331.256 136.916 331.112 137.26 330.824C137.604 330.528 137.868 330.112 138.052 329.576C138.236 329.032 138.328 328.384 138.328 327.632C138.328 326.888 138.236 326.252 138.052 325.724C137.876 325.196 137.616 324.796 137.272 324.524C136.928 324.244 136.508 324.104 136.012 324.104C135.516 324.104 135.096 324.244 134.752 324.524C134.408 324.804 134.144 325.208 133.96 325.736C133.784 326.256 133.696 326.888 133.696 327.632C133.696 328.384 133.788 329.032 133.972 329.576C134.156 330.12 134.42 330.536 134.764 330.824C135.108 331.112 135.524 331.256 136.012 331.256ZM144.18 332.12C143.5 332.12 142.904 331.932 142.392 331.556C141.888 331.172 141.492 330.644 141.204 329.972C140.924 329.292 140.784 328.516 140.784 327.644C140.784 326.772 140.924 326.008 141.204 325.352C141.484 324.688 141.88 324.172 142.392 323.804C142.904 323.428 143.5 323.24 144.18 323.24C144.86 323.24 145.452 323.428 145.956 323.804C146.468 324.172 146.864 324.688 147.144 325.352C147.432 326.008 147.576 326.772 147.576 327.644C147.576 328.524 147.432 329.3 147.144 329.972C146.864 330.644 146.468 331.172 145.956 331.556C145.452 331.932 144.86 332.12 144.18 332.12ZM144.18 331.256C144.668 331.256 145.084 331.112 145.428 330.824C145.772 330.528 146.036 330.112 146.22 329.576C146.404 329.032 146.496 328.384 146.496 327.632C146.496 326.888 146.404 326.252 146.22 325.724C146.044 325.196 145.784 324.796 145.44 324.524C145.096 324.244 144.676 324.104 144.18 324.104C143.684 324.104 143.264 324.244 142.92 324.524C142.576 324.804 142.312 325.208 142.128 325.736C141.952 326.256 141.864 326.888 141.864 327.632C141.864 328.384 141.956 329.032 142.14 329.576C142.324 330.12 142.588 330.536 142.932 330.824C143.276 331.112 143.692 331.256 144.18 331.256ZM151.01 332L154.346 323.36H155.21L151.958 332H151.01ZM157.874 332L154.622 323.36H155.546L158.882 332H157.874ZM152.666 328.508H157.178V329.372H152.666V328.508ZM160.341 332V323.36H161.853L164.973 331.688H164.517L167.613 323.36H169.149V332H168.177V323.876H168.309L165.297 332H164.121L161.109 323.948H161.241V332H160.341ZM173.546 329.192V328.28H177.698V329.192H173.546ZM184.515 332.12C184.011 332.12 183.559 332.024 183.159 331.832C182.759 331.632 182.435 331.34 182.187 330.956C181.939 330.564 181.779 330.076 181.707 329.492H182.763C182.843 330.116 183.039 330.568 183.351 330.848C183.663 331.12 184.059 331.256 184.539 331.256C184.891 331.256 185.195 331.184 185.451 331.04C185.707 330.896 185.919 330.676 186.087 330.38C186.255 330.084 186.379 329.708 186.459 329.252C186.539 328.788 186.579 328.24 186.579 327.608V326.828L186.855 326.864C186.783 327.232 186.623 327.56 186.375 327.848C186.127 328.128 185.819 328.348 185.451 328.508C185.083 328.66 184.687 328.736 184.263 328.736C183.735 328.736 183.271 328.62 182.871 328.388C182.471 328.148 182.155 327.82 181.923 327.404C181.699 326.988 181.587 326.516 181.587 325.988C181.587 325.428 181.711 324.944 181.959 324.536C182.207 324.128 182.551 323.812 182.991 323.588C183.439 323.356 183.951 323.24 184.527 323.24C185.551 323.24 186.327 323.612 186.855 324.356C187.391 325.1 187.659 326.192 187.659 327.632C187.659 328.592 187.535 329.408 187.287 330.08C187.047 330.744 186.691 331.252 186.219 331.604C185.755 331.948 185.187 332.12 184.515 332.12ZM184.515 327.896C185.067 327.896 185.523 327.74 185.883 327.428C186.251 327.116 186.435 326.668 186.435 326.084C186.435 325.692 186.347 325.348 186.171 325.052C186.003 324.756 185.771 324.524 185.475 324.356C185.179 324.188 184.843 324.104 184.467 324.104C183.931 324.104 183.495 324.276 183.159 324.62C182.831 324.956 182.667 325.42 182.667 326.012C182.667 326.58 182.827 327.036 183.147 327.38C183.475 327.724 183.931 327.896 184.515 327.896ZM189.037 332V330.764H190.273V332H189.037ZM189.037 327.44V326.204H190.273V327.44H189.037ZM194.302 332.12C193.726 332.12 193.218 332.016 192.778 331.808C192.346 331.592 191.994 331.28 191.722 330.872C191.458 330.464 191.294 329.972 191.23 329.396H192.262C192.35 329.996 192.57 330.456 192.922 330.776C193.274 331.096 193.738 331.256 194.314 331.256C194.858 331.256 195.286 331.112 195.598 330.824C195.91 330.536 196.066 330.144 196.066 329.648C196.066 329.128 195.914 328.708 195.61 328.388C195.306 328.06 194.898 327.896 194.386 327.896H193.306V327.056H194.35C194.814 327.056 195.182 326.924 195.454 326.66C195.734 326.388 195.874 326.028 195.874 325.58C195.874 325.108 195.726 324.744 195.43 324.488C195.142 324.232 194.75 324.104 194.254 324.104C193.766 324.104 193.35 324.248 193.006 324.536C192.662 324.816 192.458 325.22 192.394 325.748H191.35C191.398 325.236 191.55 324.796 191.806 324.428C192.062 324.052 192.402 323.76 192.826 323.552C193.258 323.344 193.742 323.24 194.278 323.24C194.798 323.24 195.258 323.332 195.658 323.516C196.058 323.7 196.37 323.964 196.594 324.308C196.818 324.644 196.93 325.04 196.93 325.496C196.93 325.904 196.838 326.264 196.654 326.576C196.47 326.888 196.218 327.132 195.898 327.308C195.586 327.484 195.226 327.572 194.818 327.572L194.746 327.32C195.234 327.32 195.654 327.424 196.006 327.632C196.366 327.832 196.642 328.108 196.834 328.46C197.034 328.812 197.134 329.22 197.134 329.684C197.134 330.164 197.014 330.588 196.774 330.956C196.534 331.324 196.202 331.612 195.778 331.82C195.354 332.02 194.862 332.12 194.302 332.12ZM201.848 332.12C201.168 332.12 200.572 331.932 200.06 331.556C199.556 331.172 199.16 330.644 198.872 329.972C198.592 329.292 198.452 328.516 198.452 327.644C198.452 326.772 198.592 326.008 198.872 325.352C199.152 324.688 199.548 324.172 200.06 323.804C200.572 323.428 201.168 323.24 201.848 323.24C202.528 323.24 203.12 323.428 203.624 323.804C204.136 324.172 204.532 324.688 204.812 325.352C205.1 326.008 205.244 326.772 205.244 327.644C205.244 328.524 205.1 329.3 204.812 329.972C204.532 330.644 204.136 331.172 203.624 331.556C203.12 331.932 202.528 332.12 201.848 332.12ZM201.848 331.256C202.336 331.256 202.752 331.112 203.096 330.824C203.44 330.528 203.704 330.112 203.888 329.576C204.072 329.032 204.164 328.384 204.164 327.632C204.164 326.888 204.072 326.252 203.888 325.724C203.712 325.196 203.452 324.796 203.108 324.524C202.764 324.244 202.344 324.104 201.848 324.104C201.352 324.104 200.932 324.244 200.588 324.524C200.244 324.804 199.98 325.208 199.796 325.736C199.62 326.256 199.532 326.888 199.532 327.632C199.532 328.384 199.624 329.032 199.808 329.576C199.992 330.12 200.256 330.536 200.6 330.824C200.944 331.112 201.36 331.256 201.848 331.256ZM208.678 332L212.014 323.36H212.878L209.626 332H208.678ZM215.542 332L212.29 323.36H213.214L216.55 332H215.542ZM210.334 328.508H214.846V329.372H210.334V328.508ZM218.009 332V323.36H219.521L222.641 331.688H222.185L225.281 323.36H226.817V332H225.845V323.876H225.977L222.965 332H221.789L218.777 323.948H218.909V332H218.009Z" fill="white"/>
</g>
<defs>
<filter id="filter0_dd_868_28314" x="0" y="33" width="582" height="741" filterUnits="userSpaceOnUse" color-interpolation-filters="sRGB">
<feFlood flood-opacity="0" result="BackgroundImageFix"/>
<feColorMatrix in="SourceAlpha" type="matrix" values="0 0 0 0 0 0 0 0 0 0 0 0 0 0 0 0 0 0 127 0" result="hardAlpha"/>
<feOffset dy="1"/>
<feGaussianBlur stdDeviation="3"/>
<feComposite in2="hardAlpha" operator="out"/>
<feColorMatrix type="matrix" values="0 0 0 0 0 0 0 0 0 0 0 0 0 0 0 0 0 0 0.1 0"/>
<feBlend mode="normal" in2="BackgroundImageFix" result="effect1_dropShadow_868_28314"/>
<feColorMatrix in="SourceAlpha" type="matrix" values="0 0 0 0 0 0 0 0 0 0 0 0 0 0 0 0 0 0 127 0" result="hardAlpha"/>
<feOffset dy="1"/>
<feGaussianBlur stdDeviation="1"/>
<feComposite in2="hardAlpha" operator="out"/>
<feColorMatrix type="matrix" values="0 0 0 0 0 0 0 0 0 0 0 0 0 0 0 0 0 0 0.1 0"/>
<feBlend mode="normal" in2="effect1_dropShadow_868_28314" result="effect2_dropShadow_868_28314"/>
<feBlend mode="normal" in="SourceGraphic" in2="effect2_dropShadow_868_28314" result="shape"/>
</filter>
</defs>
</svg>
