<svg width="656" height="248" fill="none" xmlns="http://www.w3.org/2000/svg"><g filter="url(#a)"><g clip-path="url(#b)"><g filter="url(#c)"><rect x="50" y="46" width="556" height="148" rx="10" fill="#fff"/></g><g clip-path="url(#d)"><path fill="#fff" d="M50 46h556v370.667H50z"/><path d="M435.339 110.48v279.545" stroke="#C8CBD9" stroke-width=".193"/><circle cx="521.056" cy="173.419" r="23.939" stroke="#C7CEFF" stroke-width="9.267"/><path d="M521.056 149.48c13.221 0 23.938 10.718 23.938 23.939s-10.717 23.939-23.938 23.939c-10.662 0-19.697-6.97-22.794-16.603" stroke="#8593ED" stroke-width="9.267"/><path d="M521.056 149.48c13.221 0 23.939 10.718 23.939 23.939 0 7.832-3.762 14.786-9.576 19.153" stroke="#DEE1F4" stroke-width="13.9"/><path d="M521.056 149.48c13.221 0 23.939 10.718 23.939 23.939 0 7.832-3.762 14.786-9.576 19.153" stroke="#5A6ACF" stroke-width="9.267"/><path d="M527 133.317a2.317 2.317 0 0 1 2.317-2.317h49.366a2.317 2.317 0 0 1 2.317 2.317v20.88a2.317 2.317 0 0 1-2.317 2.317h-32.17l-1.664 1.231a.58.58 0 0 1-.689 0l-1.663-1.231h-13.18a2.317 2.317 0 0 1-2.317-2.317v-20.88Z" fill="#37375C"/><path opacity=".5" d="M533.587 147.425v-.384h.871v3.35h-.426v-2.966h-.445Zm2.202.895a.986.986 0 0 1 .371-.362c.166-.099.36-.148.579-.148.225 0 .429.054.611.162.186.108.331.261.436.459.105.194.157.421.157.681 0 .256-.052.485-.157.686a1.166 1.166 0 0 1-1.047.634c-.216 0-.408-.048-.575-.143a1.07 1.07 0 0 1-.375-.366v1.672h-.422v-3.743h.422v.468Zm1.724.792c0-.192-.039-.358-.116-.501a.794.794 0 0 0-.315-.324.857.857 0 0 0-.431-.111.844.844 0 0 0-.746.445 1.023 1.023 0 0 0-.116.495c0 .192.039.36.116.505a.86.86 0 0 0 .315.329.86.86 0 0 0 .431.112.82.82 0 0 0 .746-.441 1.07 1.07 0 0 0 .116-.509Zm4.155-1.307c.197 0 .373.042.528.125a.884.884 0 0 1 .366.366c.089.164.134.363.134.598v1.497h-.417v-1.437c0-.253-.063-.446-.19-.579a.648.648 0 0 0-.505-.204.673.673 0 0 0-.523.213c-.13.139-.195.342-.195.607v1.4h-.417v-1.437c0-.253-.063-.446-.19-.579a.648.648 0 0 0-.505-.204.673.673 0 0 0-.523.213c-.13.139-.195.342-.195.607v1.4h-.422v-2.539h.422v.366a.834.834 0 0 1 .334-.306c.142-.071.298-.107.468-.107.213 0 .401.048.565.144a.88.88 0 0 1 .366.421.832.832 0 0 1 .352-.417c.164-.098.346-.148.547-.148Zm4.947.709v.357h-1.848v-.357h1.848Zm2.087 1.131v-.32l1.627-2.252h.505v2.206h.463v.366h-.463v.746h-.417v-.746h-1.715Zm1.733-2.132-1.246 1.766h1.246v-1.766Zm1.89.807a.993.993 0 0 1 .371-.362c.167-.099.36-.148.579-.148.225 0 .429.054.612.162.185.108.33.261.435.459.105.194.158.421.158.681 0 .256-.053.485-.158.686a1.157 1.157 0 0 1-1.047.634c-.216 0-.408-.048-.575-.143a1.08 1.08 0 0 1-.375-.366v1.672h-.422v-3.743h.422v.468Zm1.724.792c0-.192-.039-.358-.116-.501a.794.794 0 0 0-.315-.324.857.857 0 0 0-.431-.111.844.844 0 0 0-.746.445 1.023 1.023 0 0 0-.116.495c0 .192.039.36.116.505a.86.86 0 0 0 .315.329.86.86 0 0 0 .431.112.82.82 0 0 0 .746-.441 1.07 1.07 0 0 0 .116-.509Zm4.155-1.307c.197 0 .374.042.528.125a.884.884 0 0 1 .366.366c.09.164.134.363.134.598v1.497h-.417v-1.437c0-.253-.063-.446-.19-.579-.123-.136-.291-.204-.505-.204a.674.674 0 0 0-.523.213c-.13.139-.195.342-.195.607v1.4h-.417v-1.437c0-.253-.063-.446-.19-.579a.648.648 0 0 0-.505-.204.673.673 0 0 0-.523.213c-.13.139-.195.342-.195.607v1.4h-.422v-2.539h.422v.366a.834.834 0 0 1 .334-.306c.142-.071.298-.107.468-.107.213 0 .401.048.565.144a.874.874 0 0 1 .366.421.832.832 0 0 1 .352-.417c.164-.098.346-.148.547-.148Z" fill="#fff"/><path d="M535.7 140.852h-1.349l-.231.658h-.552l1.154-3.225h.611l1.154 3.225h-.556l-.231-.658Zm-.149-.431-.523-1.497-.529 1.497h1.052Zm2.624-1.033h-.473v2.122h-.532v-2.122h-.302v-.431h.302v-.181c0-.293.077-.506.231-.639.158-.136.403-.204.737-.204v.44c-.161 0-.273.031-.338.093-.065.058-.098.162-.098.31v.181h.473v.431Zm1.2 0v1.413c0 .096.022.165.065.208.046.041.124.061.232.061h.324v.44h-.417c-.238 0-.42-.056-.547-.167-.126-.111-.19-.292-.19-.542v-1.413h-.301v-.431h.301v-.635h.533v.635h.621v.431h-.621Zm3.563.783c0 .095-.006.182-.018.259h-1.951a.709.709 0 0 0 .227.491.716.716 0 0 0 .501.186c.284 0 .485-.119.602-.357h.57a1.153 1.153 0 0 1-.422.579c-.2.148-.451.222-.75.222-.244 0-.464-.054-.658-.162a1.203 1.203 0 0 1-.454-.463 1.444 1.444 0 0 1-.162-.695c0-.263.052-.493.157-.69.108-.201.258-.356.45-.464a1.35 1.35 0 0 1 .667-.162c.241 0 .455.053.644.158.188.105.335.253.44.444.105.189.157.407.157.654Zm-.551-.167a.599.599 0 0 0-.208-.468.749.749 0 0 0-.505-.176.672.672 0 0 0-.468.176.716.716 0 0 0-.232.468h1.413Zm1.715-.677a.825.825 0 0 1 .306-.301.912.912 0 0 1 .459-.111v.547h-.135c-.207 0-.364.052-.472.157-.105.105-.158.288-.158.547v1.344h-.528v-2.553h.528v.37Zm2.654-.412c.201 0 .38.042.538.125.16.084.285.207.375.371.09.164.134.361.134.593v1.506h-.523v-1.427c0-.229-.057-.403-.172-.524a.607.607 0 0 0-.468-.185.622.622 0 0 0-.472.185c-.114.121-.172.295-.172.524v1.427h-.528v-2.553h.528v.292a.894.894 0 0 1 .329-.246c.136-.059.28-.088.431-.088Zm2.944 2.636c-.241 0-.458-.054-.653-.162a1.201 1.201 0 0 1-.459-.463 1.412 1.412 0 0 1-.166-.695c0-.26.057-.49.171-.69a1.18 1.18 0 0 1 .468-.464c.198-.108.418-.162.662-.162.245 0 .465.054.663.162.198.108.354.263.468.464.114.2.171.43.171.69 0 .259-.058.49-.176.69a1.23 1.23 0 0 1-.481.468 1.39 1.39 0 0 1-.668.162Zm0-.458a.771.771 0 0 0 .672-.389.943.943 0 0 0 .111-.473.947.947 0 0 0-.106-.468.712.712 0 0 0-.283-.292.77.77 0 0 0-.38-.097.773.773 0 0 0-.38.097.697.697 0 0 0-.273.292.981.981 0 0 0-.102.468c0 .275.069.488.208.639.143.149.32.223.533.223Zm3.071.458a1.32 1.32 0 0 1-.653-.162 1.195 1.195 0 0 1-.459-.463 1.412 1.412 0 0 1-.167-.695c0-.26.057-.49.171-.69.115-.201.271-.356.468-.464.198-.108.419-.162.663-.162.244 0 .465.054.663.162.197.108.353.263.468.464.114.2.171.43.171.69 0 .259-.059.49-.176.69a1.232 1.232 0 0 1-.482.468 1.386 1.386 0 0 1-.667.162Zm0-.458a.774.774 0 0 0 .672-.389.943.943 0 0 0 .111-.473.947.947 0 0 0-.107-.468.716.716 0 0 0-.282-.292.773.773 0 0 0-.38-.097.77.77 0 0 0-.38.097.693.693 0 0 0-.274.292.981.981 0 0 0-.102.468c0 .275.07.488.209.639.142.149.32.223.533.223Zm3.251-2.178c.201 0 .38.042.537.125a.89.89 0 0 1 .376.371c.089.164.134.361.134.593v1.506h-.523v-1.427c0-.229-.058-.403-.172-.524a.607.607 0 0 0-.468-.185.62.62 0 0 0-.472.185c-.115.121-.172.295-.172.524v1.427h-.528v-2.553h.528v.292a.885.885 0 0 1 .329-.246c.136-.059.28-.088.431-.088Z" fill="#fff"/><g filter="url(#e)"><path d="M548.469 112.413c0-1.066.865-1.931 1.931-1.931h38.225a1.93 1.93 0 0 1 1.93 1.931v8.494a1.93 1.93 0 0 1-1.93 1.931H550.4a1.931 1.931 0 0 1-1.931-1.931v-8.494Z" fill="#FBFCFE"/><path d="M548.566 112.413c0-1.013.821-1.834 1.834-1.834h38.225c1.013 0 1.834.821 1.834 1.834v8.494a1.834 1.834 0 0 1-1.834 1.834H550.4a1.834 1.834 0 0 1-1.834-1.834v-8.494Z" stroke="#DDE4F0" stroke-width=".193"/></g><path d="m557.769 114.579-1.209 3.22h-.612l-1.213-3.22h.565l.954 2.678.959-2.678h.556Zm.904.329a.327.327 0 0 1-.241-.098.326.326 0 0 1-.097-.241.33.33 0 0 1 .338-.338c.093 0 .171.033.236.097a.328.328 0 0 1 .097.241.326.326 0 0 1-.097.241.32.32 0 0 1-.236.098Zm.259.338v2.553h-.528v-2.553h.528Zm3.227 1.214c0 .096-.006.182-.019.259h-1.95a.705.705 0 0 0 .727.677c.284 0 .485-.119.602-.357h.57a1.157 1.157 0 0 1-.421.579c-.201.148-.451.223-.751.223-.244 0-.463-.055-.658-.163a1.21 1.21 0 0 1-.454-.463 1.444 1.444 0 0 1-.162-.695c0-.263.052-.493.157-.69.108-.201.258-.356.45-.464a1.35 1.35 0 0 1 .667-.162 1.3 1.3 0 0 1 .644.158c.188.105.335.253.44.444.105.189.158.407.158.654Zm-.552-.167a.599.599 0 0 0-.208-.468.747.747 0 0 0-.505-.176.676.676 0 0 0-.468.176.716.716 0 0 0-.232.468h1.413Zm4.693-1.047-.792 2.553h-.556l-.514-1.886-.515 1.886h-.556l-.797-2.553h.538l.533 2.052.542-2.052h.551l.519 2.043.528-2.043h.519Zm3.657 2.553-.741-1.288h-.403v1.288h-.528v-3.22h1.112c.247 0 .455.043.625.129a.892.892 0 0 1 .514.834c0 .21-.061.402-.185.575-.12.17-.307.286-.561.347l.797 1.335h-.63Zm-1.144-1.71h.584c.197 0 .346-.049.444-.148a.53.53 0 0 0 .153-.399.508.508 0 0 0-.148-.389c-.099-.096-.249-.143-.449-.143h-.584v1.079Zm4.932.371c0 .096-.006.182-.018.259h-1.951a.705.705 0 0 0 .727.677c.284 0 .485-.119.603-.357h.57a1.16 1.16 0 0 1-.422.579c-.201.148-.451.223-.751.223-.244 0-.463-.055-.658-.163a1.217 1.217 0 0 1-.454-.463 1.444 1.444 0 0 1-.162-.695c0-.263.053-.493.158-.69.108-.201.258-.356.449-.464.195-.108.417-.162.667-.162a1.3 1.3 0 0 1 .644.158c.189.105.335.253.441.444.105.189.157.407.157.654Zm-.551-.167a.6.6 0 0 0-.209-.468.747.747 0 0 0-.505-.176.676.676 0 0 0-.468.176.71.71 0 0 0-.231.468h1.413Zm1.792-.672c.09-.117.212-.216.366-.296.155-.081.329-.121.524-.121.222 0 .424.056.607.167.185.108.33.261.435.459.105.197.158.424.158.681 0 .256-.053.486-.158.69a1.148 1.148 0 0 1-1.042.64 1.127 1.127 0 0 1-.89-.413v1.585h-.528v-3.767h.528v.375Zm1.552.89a.883.883 0 0 0-.111-.454.709.709 0 0 0-.287-.292.76.76 0 0 0-1.047.296.943.943 0 0 0-.107.459c0 .176.036.331.107.463a.76.76 0 0 0 1.047.297.765.765 0 0 0 .287-.306.936.936 0 0 0 .111-.463Zm2.36 1.33c-.24 0-.458-.055-.653-.163a1.208 1.208 0 0 1-.459-.463 1.412 1.412 0 0 1-.166-.695c0-.259.057-.49.171-.69a1.18 1.18 0 0 1 .468-.464c.198-.108.419-.162.663-.162.244 0 .465.054.662.162.198.108.354.263.468.464.114.2.172.431.172.69 0 .259-.059.49-.176.69a1.232 1.232 0 0 1-.482.468 1.387 1.387 0 0 1-.668.163Zm0-.459a.781.781 0 0 0 .38-.097.739.739 0 0 0 .292-.292.943.943 0 0 0 .112-.473.947.947 0 0 0-.107-.468.712.712 0 0 0-.283-.292.77.77 0 0 0-.38-.097.773.773 0 0 0-.38.097.697.697 0 0 0-.273.292.981.981 0 0 0-.102.468c0 .275.07.488.209.639a.704.704 0 0 0 .532.223Zm2.569-1.765a.813.813 0 0 1 .306-.302.91.91 0 0 1 .459-.111v.547h-.135c-.207 0-.364.052-.472.157-.105.105-.158.288-.158.547v1.344h-.528v-2.553h.528v.371Zm2.059.06v1.413c0 .096.022.165.065.208.047.041.124.061.232.061h.324v.44h-.417c-.238 0-.42-.056-.547-.167-.126-.111-.189-.292-.189-.542v-1.413h-.302v-.431h.302v-.635h.532v.635h.621v.431h-.621Z" fill="#5A6ACF"/><path opacity=".5" d="M453.147 124.568v.371h-1.521v1.18h1.235v.371h-1.235v1.576h-.456v-3.498h1.977Zm1.202 1.194a.88.88 0 0 1 .341-.366c.151-.087.333-.13.547-.13v.471h-.12c-.512 0-.768.278-.768.834v1.495h-.457v-2.75h.457v.446Zm2.808 2.35a1.42 1.42 0 0 1-.702-.176 1.271 1.271 0 0 1-.492-.497 1.568 1.568 0 0 1-.176-.753c0-.281.06-.529.181-.743.123-.217.291-.383.502-.497.21-.117.446-.175.707-.175.261 0 .497.058.708.175.211.114.377.278.497.492.124.214.186.464.186.748s-.064.535-.191.753c-.124.214-.293.38-.507.497a1.463 1.463 0 0 1-.713.176Zm0-.402a.965.965 0 0 0 .462-.115.862.862 0 0 0 .346-.347c.091-.154.136-.341.136-.562 0-.221-.044-.408-.131-.562a.83.83 0 0 0-.341-.341.935.935 0 0 0-.457-.116.942.942 0 0 0-.461.116.81.81 0 0 0-.332.341 1.17 1.17 0 0 0-.125.562c0 .224.04.413.12.567a.85.85 0 0 0 .332.347c.137.073.287.11.451.11Zm5.512-2.444c.214 0 .405.045.572.135.168.087.3.219.397.397.097.177.145.393.145.647v1.621h-.451v-1.556c0-.274-.069-.483-.206-.627-.134-.147-.316-.221-.547-.221-.238 0-.427.077-.567.231-.141.151-.211.37-.211.658v1.515h-.452v-1.556c0-.274-.069-.483-.206-.627-.134-.147-.316-.221-.547-.221-.237 0-.427.077-.567.231-.141.151-.211.37-.211.658v1.515h-.457v-2.75h.457v.396a.902.902 0 0 1 .362-.331 1.11 1.11 0 0 1 .506-.115c.231 0 .436.051.613.155a.951.951 0 0 1 .396.457.906.906 0 0 1 .382-.452c.177-.107.375-.16.592-.16Zm3.392-.412v-.417h.944v3.629h-.462v-3.212h-.482Zm3.904 1.18v.386h-2.002v-.386h2.002Zm2.998-.733c-.073-.372-.303-.557-.688-.557-.297 0-.52.115-.667.346-.147.227-.219.604-.216 1.129a.843.843 0 0 1 .382-.406 1.21 1.21 0 0 1 .602-.151c.345 0 .619.107.823.321.208.214.311.511.311.889 0 .227-.045.431-.135.612a.996.996 0 0 1-.402.432 1.23 1.23 0 0 1-.647.16c-.345 0-.614-.077-.808-.23a1.205 1.205 0 0 1-.407-.638 3.732 3.732 0 0 1-.115-1.004c0-1.228.428-1.842 1.284-1.842.328 0 .586.089.773.266.188.177.298.402.332.673h-.422Zm-.683.748a.94.94 0 0 0-.406.09.726.726 0 0 0-.311.266.77.77 0 0 0-.116.432c0 .254.074.461.221.622.147.157.358.236.633.236.234 0 .42-.072.557-.216.14-.147.211-.345.211-.592 0-.261-.067-.465-.201-.613-.134-.15-.33-.225-.588-.225Zm4.735-1.481c.382 0 .711.072.989.216.281.14.495.343.643.607.15.264.225.576.225.934 0 .358-.075.669-.225.933a1.484 1.484 0 0 1-.643.603c-.278.137-.607.205-.989.205h-1.089v-3.498h1.089Zm0 3.122c.452 0 .797-.119 1.034-.356.238-.241.357-.578.357-1.009 0-.435-.121-.775-.362-1.019-.237-.245-.58-.367-1.029-.367h-.632v2.751h.632Zm5.163-1.104c0 .087-.005.179-.015.276h-2.199c.017.271.109.483.276.637a.901.901 0 0 0 .618.226.849.849 0 0 0 .492-.135.749.749 0 0 0 .281-.372h.492c-.074.264-.221.48-.442.648-.221.164-.495.246-.823.246-.261 0-.496-.059-.703-.176a1.253 1.253 0 0 1-.482-.497 1.568 1.568 0 0 1-.176-.753c0-.284.057-.534.171-.748.114-.214.273-.378.477-.492.207-.117.445-.175.713-.175.261 0 .492.056.692.17.201.114.355.271.462.472.111.197.166.422.166.673Zm-.472-.096a.825.825 0 0 0-.116-.446.72.72 0 0 0-.316-.287.952.952 0 0 0-.436-.1.859.859 0 0 0-.593.221c-.16.147-.252.351-.276.612h1.737Zm1.097.196c0-.284.057-.532.171-.743.113-.214.271-.38.472-.497.204-.117.436-.175.697-.175.338 0 .616.082.833.246.221.163.367.391.437.682h-.492a.703.703 0 0 0-.276-.396.833.833 0 0 0-.502-.146.803.803 0 0 0-.632.271c-.161.177-.241.43-.241.758 0 .331.08.587.241.768.16.181.371.271.632.271a.86.86 0 0 0 .502-.14.713.713 0 0 0 .276-.402h.492a1.22 1.22 0 0 1-.442.678c-.22.167-.496.251-.828.251-.261 0-.493-.059-.697-.176a1.223 1.223 0 0 1-.472-.497 1.579 1.579 0 0 1-.171-.753Zm3.885.748-.563 1.35h-.306l.367-1.35h.502Zm2.117.266c.425-.341.757-.621.998-.838.241-.221.444-.45.608-.688.167-.241.251-.477.251-.708 0-.217-.054-.388-.161-.512-.104-.127-.273-.19-.507-.19-.227 0-.405.072-.532.215-.124.141-.191.33-.201.568h-.441c.013-.375.127-.665.341-.869.214-.204.49-.306.828-.306.345 0 .618.095.818.286.204.191.307.454.307.788 0 .278-.084.549-.251.813a3.59 3.59 0 0 1-.563.693c-.21.198-.48.428-.808.693h1.727v.381h-2.414v-.326Zm3.135-1.486c0-.575.094-1.024.281-1.345.187-.325.515-.487.984-.487.465 0 .791.162.979.487.187.321.281.77.281 1.345 0 .586-.094 1.041-.281 1.366-.188.324-.514.486-.979.486-.469 0-.797-.162-.984-.486-.187-.325-.281-.78-.281-1.366Zm2.073 0c0-.291-.02-.537-.06-.738a.925.925 0 0 0-.236-.492c-.117-.123-.288-.185-.512-.185-.228 0-.402.062-.522.185a.971.971 0 0 0-.236.492 4.164 4.164 0 0 0-.055.738c0 .301.018.554.055.758.04.204.119.368.236.492.12.124.294.186.522.186.224 0 .395-.062.512-.186a.925.925 0 0 0 .236-.492c.04-.204.06-.457.06-.758Zm1.217 1.486c.425-.341.758-.621.999-.838.24-.221.443-.45.607-.688.167-.241.251-.477.251-.708 0-.217-.054-.388-.161-.512-.103-.127-.272-.19-.507-.19-.227 0-.405.072-.532.215-.124.141-.191.33-.201.568h-.441c.013-.375.127-.665.341-.869.214-.204.49-.306.828-.306.345 0 .618.095.818.286.205.191.307.454.307.788 0 .278-.084.549-.251.813a3.59 3.59 0 0 1-.563.693c-.21.198-.48.428-.808.693h1.727v.381h-2.414v-.326Zm3.135-1.486c0-.575.094-1.024.281-1.345.188-.325.516-.487.984-.487.465 0 .791.162.979.487.187.321.281.77.281 1.345 0 .586-.094 1.041-.281 1.366-.188.324-.514.486-.979.486-.468 0-.796-.162-.984-.486-.187-.325-.281-.78-.281-1.366Zm2.073 0c0-.291-.02-.537-.06-.738a.925.925 0 0 0-.236-.492c-.117-.123-.288-.185-.512-.185-.228 0-.402.062-.522.185a.971.971 0 0 0-.236.492 4.164 4.164 0 0 0-.055.738c0 .301.018.554.055.758.04.204.119.368.236.492.12.124.294.186.522.186.224 0 .395-.062.512-.186a.925.925 0 0 0 .236-.492c.04-.204.06-.457.06-.758Z" fill="#000"/><path d="M453.718 113.817c0 .314-.108.575-.324.784-.213.206-.539.308-.978.308h-.725v1.573h-.492v-3.767h1.217c.425 0 .747.102.967.308.224.205.335.47.335.794Zm-1.302.687c.274 0 .475-.059.605-.178s.195-.289.195-.509c0-.464-.267-.697-.8-.697h-.725v1.384h.725Zm2.599-.503a.944.944 0 0 1 .367-.394 1.16 1.16 0 0 1 .59-.141v.508h-.13c-.552 0-.827.299-.827.898v1.61h-.492v-2.962h.492v.481Zm3.009 2.53c-.277 0-.529-.063-.756-.189a1.377 1.377 0 0 1-.53-.535 1.689 1.689 0 0 1-.189-.811c0-.303.065-.569.194-.8.134-.234.314-.413.541-.535.227-.126.481-.189.762-.189s.535.063.762.189c.227.122.406.299.535.529.134.231.2.5.2.806 0 .306-.068.576-.205.811a1.39 1.39 0 0 1-.546.535 1.577 1.577 0 0 1-.768.189Zm0-.432c.177 0 .343-.042.498-.125a.93.93 0 0 0 .373-.373c.097-.165.146-.367.146-.605s-.047-.44-.141-.606a.902.902 0 0 0-.368-.367 1.003 1.003 0 0 0-.491-.124 1.02 1.02 0 0 0-.498.124.883.883 0 0 0-.356.367 1.245 1.245 0 0 0-.136.606c0 .241.044.445.13.611.09.165.209.29.357.373.148.079.31.119.486.119Zm2.624-3.06a.323.323 0 0 1-.33-.335.323.323 0 0 1 .33-.335c.094 0 .171.032.232.097a.324.324 0 0 1 .098.238.324.324 0 0 1-.098.238.303.303 0 0 1-.232.097Zm.243 4.087c0 .263-.066.456-.2.578-.133.123-.328.184-.584.184h-.286v-.416h.205c.137 0 .233-.027.287-.081.058-.055.086-.146.086-.276v-3.595h.492v3.606Zm3.729-2.238c0 .093-.006.193-.016.297h-2.368c.018.292.117.521.297.687a.972.972 0 0 0 .665.243.912.912 0 0 0 .53-.146.799.799 0 0 0 .303-.4h.529a1.28 1.28 0 0 1-.475.697c-.238.177-.534.265-.887.265-.281 0-.533-.063-.757-.189a1.363 1.363 0 0 1-.519-.535 1.689 1.689 0 0 1-.189-.811c0-.306.062-.575.184-.806a1.28 1.28 0 0 1 .514-.529c.223-.126.479-.189.767-.189.281 0 .53.061.746.183.216.123.382.292.497.508.119.213.179.455.179.725Zm-.508-.103a.892.892 0 0 0-.125-.481.78.78 0 0 0-.34-.308 1.016 1.016 0 0 0-.47-.108.918.918 0 0 0-.638.238c-.173.158-.272.378-.298.659h1.871Zm1.166.211c0-.306.062-.573.184-.8.123-.231.292-.409.508-.535.22-.126.471-.189.752-.189.364 0 .663.088.897.264.238.177.395.422.47.736h-.529a.754.754 0 0 0-.298-.427.892.892 0 0 0-.54-.157.866.866 0 0 0-.681.292c-.173.191-.26.463-.26.816 0 .357.087.632.26.827.173.195.4.292.681.292a.918.918 0 0 0 .54-.152.77.77 0 0 0 .298-.432h.529a1.318 1.318 0 0 1-.475.73c-.238.18-.536.27-.892.27-.281 0-.532-.063-.752-.189a1.33 1.33 0 0 1-.508-.535 1.712 1.712 0 0 1-.184-.811Zm4.261-1.07v1.746c0 .144.03.246.092.308.061.057.167.086.319.086h.362v.416h-.444c-.273 0-.479-.063-.616-.189s-.205-.333-.205-.621v-1.746h-.384v-.406h.384v-.746h.492v.746h.773v.406h-.773Zm5.515-1.211v.4h-1.027v3.367h-.492v-3.367h-1.033v-.4h2.552Zm1.053.324a.323.323 0 0 1-.238-.097.324.324 0 0 1-.098-.238c0-.094.033-.173.098-.238a.323.323 0 0 1 .238-.097.3.3 0 0 1 .227.097.327.327 0 0 1 .097.238.327.327 0 0 1-.097.238.3.3 0 0 1-.227.097Zm.237.481v2.962h-.492v-2.962h.492Zm4.594-.054c.231 0 .436.049.616.146.18.094.323.236.427.427.105.191.157.424.157.697v1.746h-.486v-1.675c0-.296-.074-.521-.222-.676-.144-.159-.341-.238-.589-.238-.256 0-.46.083-.611.249-.151.162-.227.398-.227.708v1.632h-.487v-1.675c0-.296-.073-.521-.221-.676-.144-.159-.341-.238-.589-.238-.256 0-.46.083-.611.249-.152.162-.227.398-.227.708v1.632h-.492v-2.962h.492v.427a.976.976 0 0 1 .389-.357c.166-.082.348-.124.546-.124.249 0 .468.056.659.168.191.111.334.275.427.492a.972.972 0 0 1 .411-.487c.191-.115.404-.173.638-.173Zm4.903 1.422c0 .093-.006.193-.016.297h-2.368c.018.292.117.521.297.687a.972.972 0 0 0 .665.243.912.912 0 0 0 .53-.146.799.799 0 0 0 .303-.4h.529a1.28 1.28 0 0 1-.475.697c-.238.177-.534.265-.887.265-.281 0-.533-.063-.757-.189a1.363 1.363 0 0 1-.519-.535 1.689 1.689 0 0 1-.189-.811c0-.306.062-.575.184-.806a1.28 1.28 0 0 1 .514-.529c.223-.126.479-.189.767-.189.281 0 .53.061.746.183.216.123.382.292.497.508.119.213.179.455.179.725Zm-.508-.103a.892.892 0 0 0-.125-.481.774.774 0 0 0-.34-.308 1.016 1.016 0 0 0-.47-.108.918.918 0 0 0-.638.238c-.173.158-.272.378-.298.659h1.871Z" fill="#000"/><path d="M158.111 181.914h261.783M158.111 166.469h261.783" stroke="#E2E7E7" stroke-width=".386" stroke-dasharray="1.16 2.32"/><path d="M161.2 178.053h3.089v34.75H161.2v-34.75Z" fill="#5A6ACF"/><path d="M166.605 193.496h3.089v19.306h-3.089v-19.306Z" fill="#E6E8EC"/><path d="M295.566 178.053h3.089v34.75h-3.089v-34.75Z" fill="#5A6ACF"/><path d="M300.972 193.496h3.089v19.306h-3.089v-19.306Z" fill="#E6E8EC"/><path d="M183.594 185.776h3.089v27.027h-3.089v-27.027Z" fill="#5A6ACF"/><path d="M189 178.053h3.089v34.75H189v-34.75Z" fill="#E6E8EC"/><path d="M317.961 185.776h3.089v27.027h-3.089v-27.027Z" fill="#5A6ACF"/><path d="M323.367 178.053h3.089v34.75h-3.089v-34.75Z" fill="#E6E8EC"/><path d="M205.989 181.912h3.089v30.889h-3.089v-30.889ZM340.355 181.912h3.089v30.889h-3.089v-30.889ZM228.383 189.635h3.089v23.167h-3.089v-23.167Z" fill="#5A6ACF"/><path d="M233.789 181.912h3.089v30.889h-3.089v-30.889Z" fill="#E6E8EC"/><path d="M362.75 189.635h3.088v23.167h-3.088v-23.167Z" fill="#5A6ACF"/><path d="M368.155 181.912h3.089v30.889h-3.089v-30.889Z" fill="#E6E8EC"/><path d="M250.777 174.192h3.089v38.611h-3.089v-38.611Z" fill="#5A6ACF"/><path d="M256.183 185.776h3.089v27.027h-3.089v-27.027Z" fill="#E6E8EC"/><path d="M385.144 174.192h3.089v38.611h-3.089v-38.611Z" fill="#5A6ACF"/><path d="M390.549 185.776h3.089v27.027h-3.089v-27.027Z" fill="#E6E8EC"/><path d="M273.172 170.33h3.089v42.472h-3.089V170.33Z" fill="#5A6ACF"/><path d="M278.578 193.496h3.089v19.306h-3.089v-19.306Z" fill="#E6E8EC"/><path d="M407.539 170.33h3.088v42.472h-3.088V170.33Z" fill="#5A6ACF"/><path d="M412.944 193.496h3.089v19.306h-3.089v-19.306Z" fill="#E6E8EC"/><g filter="url(#f)"><path d="M377.809 112.413a1.93 1.93 0 0 1 1.93-1.931h38.225c1.066 0 1.931.865 1.931 1.931v8.494a1.931 1.931 0 0 1-1.931 1.931h-38.225a1.93 1.93 0 0 1-1.93-1.931v-8.494Z" fill="#FBFCFE"/><path d="M377.905 112.413c0-1.013.821-1.834 1.834-1.834h38.225c1.013 0 1.834.821 1.834 1.834v8.494a1.834 1.834 0 0 1-1.834 1.834h-38.225a1.834 1.834 0 0 1-1.834-1.834v-8.494Z" stroke="#DDE4F0" stroke-width=".193"/></g><path d="m387.109 114.579-1.21 3.22h-.611l-1.214-3.22h.565l.955 2.678.959-2.678h.556Zm.903.329a.327.327 0 0 1-.241-.098.326.326 0 0 1-.097-.241.33.33 0 0 1 .338-.338.332.332 0 0 1 .334.338.33.33 0 0 1-.334.339Zm.26.338v2.553h-.529v-2.553h.529Zm3.226 1.214c0 .096-.006.182-.018.259h-1.951a.705.705 0 0 0 .727.677c.284 0 .485-.119.603-.357h.57a1.16 1.16 0 0 1-.422.579c-.201.148-.451.223-.751.223-.244 0-.463-.055-.658-.163a1.217 1.217 0 0 1-.454-.463 1.444 1.444 0 0 1-.162-.695c0-.263.053-.493.158-.69.108-.201.258-.356.449-.464.195-.108.417-.162.667-.162a1.3 1.3 0 0 1 .644.158c.189.105.335.253.441.444.105.189.157.407.157.654Zm-.551-.167a.6.6 0 0 0-.209-.468.747.747 0 0 0-.505-.176.676.676 0 0 0-.468.176.71.71 0 0 0-.231.468h1.413Zm4.693-1.047-.793 2.553h-.556l-.514-1.886-.514 1.886h-.556l-.797-2.553h.537l.533 2.052.542-2.052h.552l.518 2.043.529-2.043h.519Zm3.657 2.553-.742-1.288h-.403v1.288h-.528v-3.22h1.112c.247 0 .456.043.626.129a.89.89 0 0 1 .384.348c.087.145.13.307.13.486 0 .21-.062.402-.186.575-.12.17-.307.286-.56.347l.797 1.335h-.63Zm-1.145-1.71h.584c.198 0 .346-.049.445-.148a.53.53 0 0 0 .153-.399.509.509 0 0 0-.149-.389c-.098-.096-.248-.143-.449-.143h-.584v1.079Zm4.932.371c0 .096-.006.182-.018.259h-1.951a.709.709 0 0 0 .227.491.716.716 0 0 0 .501.186c.284 0 .485-.119.602-.357h.57a1.153 1.153 0 0 1-.422.579c-.201.148-.451.223-.75.223-.244 0-.464-.055-.658-.163a1.203 1.203 0 0 1-.454-.463 1.444 1.444 0 0 1-.162-.695c0-.263.052-.493.157-.69.108-.201.258-.356.449-.464.195-.108.417-.162.668-.162.241 0 .455.053.644.158.188.105.335.253.44.444.105.189.157.407.157.654Zm-.551-.167a.602.602 0 0 0-.208-.468.749.749 0 0 0-.505-.176.672.672 0 0 0-.468.176.716.716 0 0 0-.232.468h1.413Zm1.792-.672c.09-.117.212-.216.366-.296.155-.081.329-.121.524-.121.222 0 .425.056.607.167.185.108.331.261.436.459.105.197.157.424.157.681 0 .256-.052.486-.157.69a1.2 1.2 0 0 1-.436.473 1.145 1.145 0 0 1-.607.167c-.195 0-.368-.039-.519-.116a1.2 1.2 0 0 1-.371-.297v1.585h-.528v-3.767h.528v.375Zm1.553.89a.873.873 0 0 0-.112-.454.703.703 0 0 0-.287-.292.763.763 0 0 0-.76 0 .786.786 0 0 0-.287.296.943.943 0 0 0-.107.459c0 .176.036.331.107.463.074.13.17.229.287.297a.763.763 0 0 0 .76 0 .758.758 0 0 0 .287-.306.926.926 0 0 0 .112-.463Zm2.36 1.33c-.241 0-.459-.055-.653-.163a1.195 1.195 0 0 1-.459-.463 1.412 1.412 0 0 1-.167-.695c0-.259.057-.49.171-.69.115-.201.271-.356.468-.464.198-.108.419-.162.663-.162.244 0 .465.054.663.162.197.108.353.263.468.464.114.2.171.431.171.69 0 .259-.059.49-.176.69a1.225 1.225 0 0 1-.482.468 1.386 1.386 0 0 1-.667.163Zm0-.459a.784.784 0 0 0 .38-.097.745.745 0 0 0 .292-.292.943.943 0 0 0 .111-.473.947.947 0 0 0-.107-.468.716.716 0 0 0-.282-.292.773.773 0 0 0-.38-.097.77.77 0 0 0-.38.097.7.7 0 0 0-.274.292.981.981 0 0 0-.101.468c0 .275.069.488.208.639.142.149.32.223.533.223Zm2.568-1.765a.828.828 0 0 1 .306-.302.912.912 0 0 1 .459-.111v.547h-.134c-.207 0-.365.052-.473.157-.105.105-.158.288-.158.547v1.344h-.528v-2.553h.528v.371Zm2.06.06v1.413c0 .096.021.165.065.208.046.041.123.061.231.061h.325v.44h-.417c-.238 0-.421-.056-.547-.167-.127-.111-.19-.292-.19-.542v-1.413h-.301v-.431h.301v-.635h.533v.635h.621v.431h-.621Z" fill="#5A6ACF"/><path d="M159.7 112.715c.411 0 .766.077 1.065.232.303.152.533.37.692.654a2 2 0 0 1 .243 1.006 2 2 0 0 1-.243 1.005 1.594 1.594 0 0 1-.692.649c-.299.148-.654.221-1.065.221h-1.173v-3.767h1.173Zm0 3.362c.487 0 .858-.128 1.114-.384.255-.259.383-.621.383-1.086 0-.469-.129-.835-.389-1.098-.256-.263-.625-.394-1.108-.394h-.681v2.962h.681Zm4.134.454c-.278 0-.53-.063-.757-.189a1.383 1.383 0 0 1-.53-.535 1.689 1.689 0 0 1-.189-.811c0-.303.065-.569.195-.8.133-.234.313-.413.54-.535.227-.126.481-.189.763-.189.281 0 .535.063.762.189.227.122.405.299.535.529.133.231.2.5.2.806 0 .306-.069.576-.206.811-.133.23-.315.409-.545.535a1.577 1.577 0 0 1-.768.189Zm0-.432c.177 0 .342-.042.497-.125a.923.923 0 0 0 .373-.373c.098-.165.146-.367.146-.605s-.047-.44-.14-.606a.908.908 0 0 0-.368-.367 1.004 1.004 0 0 0-.492-.124c-.18 0-.346.041-.497.124a.879.879 0 0 0-.357.367c-.09.166-.135.368-.135.606 0 .241.043.445.13.611.09.165.209.29.356.373.148.079.31.119.487.119Zm3.802-2.633c.36 0 .652.11.876.33.223.216.335.53.335.94v1.746h-.487v-1.675c0-.296-.074-.521-.221-.676-.148-.159-.35-.238-.606-.238-.259 0-.466.081-.621.243-.152.163-.227.399-.227.709v1.637h-.492v-2.962h.492v.422a.973.973 0 0 1 .394-.352c.17-.082.355-.124.557-.124Zm2.024 1.524c0-.302.061-.567.183-.794a1.34 1.34 0 0 1 .503-.535c.216-.126.456-.189.719-.189.26 0 .485.055.676.167.191.112.333.252.427.422v-.541h.497v2.962h-.497v-.551a1.165 1.165 0 0 1-.438.432 1.3 1.3 0 0 1-.67.168 1.343 1.343 0 0 1-1.217-.74 1.71 1.71 0 0 1-.183-.801Zm2.508.006c0-.224-.045-.418-.135-.584a.925.925 0 0 0-.368-.378.965.965 0 0 0-.503-.135.998.998 0 0 0-.502.129.94.94 0 0 0-.362.379 1.19 1.19 0 0 0-.136.583c0 .228.045.426.136.595.09.166.21.294.362.384.151.086.319.13.502.13a.966.966 0 0 0 .871-.514c.09-.169.135-.366.135-.589Zm2.121-1.07v1.746c0 .144.031.246.092.308.062.057.168.086.319.086h.362v.416h-.443c-.274 0-.479-.063-.616-.189s-.205-.333-.205-.621v-1.746h-.384v-.406h.384v-.746h.491v.746h.773v.406h-.773Zm1.817-.887a.323.323 0 0 1-.238-.097.324.324 0 0 1-.098-.238c0-.094.033-.173.098-.238a.323.323 0 0 1 .238-.097.3.3 0 0 1 .227.097.323.323 0 0 1 .097.238.323.323 0 0 1-.097.238.3.3 0 0 1-.227.097Zm.237.481v2.962h-.491v-2.962h.491Zm2.324 3.011c-.278 0-.53-.063-.757-.189a1.383 1.383 0 0 1-.53-.535 1.689 1.689 0 0 1-.189-.811c0-.303.065-.569.195-.8.133-.234.313-.413.54-.535.227-.126.481-.189.762-.189.282 0 .536.063.763.189.227.122.405.299.535.529.133.231.2.5.2.806 0 .306-.069.576-.206.811a1.39 1.39 0 0 1-.546.535 1.57 1.57 0 0 1-.767.189Zm0-.432c.176 0 .342-.042.497-.125a.93.93 0 0 0 .373-.373c.097-.165.146-.367.146-.605s-.047-.44-.141-.606a.9.9 0 0 0-.367-.367 1.004 1.004 0 0 0-.492-.124c-.18 0-.346.041-.497.124a.879.879 0 0 0-.357.367c-.09.166-.135.368-.135.606 0 .241.043.445.13.611.09.165.209.29.356.373.148.079.31.119.487.119Zm3.802-2.633c.36 0 .652.11.876.33.223.216.335.53.335.94v1.746h-.487v-1.675c0-.296-.074-.521-.221-.676-.148-.159-.35-.238-.606-.238-.259 0-.467.081-.621.243-.152.163-.228.399-.228.709v1.637h-.491v-2.962h.491v.422a.982.982 0 0 1 .395-.352 1.26 1.26 0 0 1 .557-.124ZM162.989 130h-.881l-2.648-4.008V130h-.881v-5.375h.881l2.648 4v-4h.881V130Zm7-4.95-2.147 4.95h-.888l2.17-4.857h-2.858v-.749h3.723v.656Zm2.027 3.892-.934 2.131h-.572l.549-2.131h.957Zm1.796-1.884c-.535-.268-.803-.69-.803-1.267 0-.278.07-.532.209-.764.139-.232.347-.415.625-.548.278-.139.618-.209 1.02-.209.396 0 .733.07 1.011.209.283.133.494.316.633.548.139.232.209.486.209.764 0 .289-.075.544-.224.765a1.45 1.45 0 0 1-.579.502c.293.108.525.286.695.533.17.242.255.527.255.857 0 .334-.085.63-.255.888-.17.257-.407.455-.711.594a2.44 2.44 0 0 1-1.034.209c-.386 0-.731-.069-1.035-.209a1.66 1.66 0 0 1-.703-.594 1.577 1.577 0 0 1-.255-.888c0-.335.085-.623.255-.865.17-.242.399-.417.687-.525Zm2.062-1.159c0-.288-.09-.509-.27-.664-.18-.154-.427-.231-.741-.231-.309 0-.554.077-.734.231-.18.155-.27.379-.27.672 0 .258.092.469.278.633.19.16.432.24.726.24.293 0 .535-.083.726-.247a.801.801 0 0 0 .285-.634Zm-1.011 1.545c-.34 0-.618.085-.834.255-.211.165-.317.404-.317.718 0 .293.103.533.309.718.206.18.486.27.842.27.35 0 .625-.092.826-.278a.912.912 0 0 0 .309-.71c0-.309-.106-.548-.317-.718-.206-.17-.479-.255-.818-.255Zm6.746-2.317h-2.586v1.537c.108-.144.267-.265.478-.363.217-.098.446-.147.688-.147.432 0 .782.093 1.05.278.273.186.466.42.579.703.118.283.178.582.178.896 0 .381-.075.721-.224 1.019a1.606 1.606 0 0 1-.657.695c-.288.17-.643.255-1.065.255-.562 0-1.012-.139-1.352-.417a1.687 1.687 0 0 1-.61-1.104h.857a.971.971 0 0 0 .379.579c.195.139.44.208.733.208.366 0 .639-.11.819-.332.185-.221.278-.514.278-.88 0-.371-.093-.654-.278-.849-.185-.201-.458-.302-.819-.302-.252 0-.466.065-.641.193-.17.124-.293.294-.37.51h-.834v-3.251h3.397v.772Zm1.983 3.676a30.98 30.98 0 0 0 1.166-1.05c.288-.278.527-.566.718-.865.19-.299.286-.597.286-.896 0-.309-.075-.551-.224-.726-.145-.175-.374-.262-.688-.262-.303 0-.54.098-.71.293-.165.191-.252.448-.263.772h-.849c.015-.587.19-1.034.525-1.343.34-.314.77-.471 1.29-.471.561 0 .998.154 1.312.463.32.309.479.721.479 1.236 0 .37-.095.728-.286 1.073-.185.34-.409.646-.671.919-.258.268-.587.579-.989.934l-.347.309h2.448v.734h-3.753v-.641l.556-.479Zm5.244.139-.934 2.131h-.572l.549-2.131h.957Zm.847-1.83c0-.891.149-1.586.447-2.085.304-.505.824-.757 1.56-.757.736 0 1.254.252 1.552.757.304.499.456 1.194.456 2.085 0 .901-.152 1.606-.456 2.116-.298.504-.816.757-1.552.757-.736 0-1.256-.253-1.56-.757-.298-.51-.447-1.215-.447-2.116Zm3.15 0c0-.417-.028-.77-.085-1.058a1.368 1.368 0 0 0-.324-.703c-.165-.185-.409-.278-.734-.278-.324 0-.569.093-.733.278-.165.18-.276.415-.332.703a6.08 6.08 0 0 0-.078 1.058c0 .432.026.795.078 1.089.051.293.159.53.324.71.17.18.417.27.741.27.325 0 .569-.09.734-.27.17-.18.28-.417.332-.71.051-.294.077-.657.077-1.089Zm1.99 0c0-.891.149-1.586.448-2.085.303-.505.823-.757 1.559-.757.737 0 1.254.252 1.553.757.303.499.455 1.194.455 2.085 0 .901-.152 1.606-.455 2.116-.299.504-.816.757-1.553.757-.736 0-1.256-.253-1.559-.757-.299-.51-.448-1.215-.448-2.116Zm3.15 0c0-.417-.028-.77-.085-1.058a1.368 1.368 0 0 0-.324-.703c-.165-.185-.409-.278-.734-.278-.324 0-.568.093-.733.278-.165.18-.276.415-.332.703a6.09 6.09 0 0 0-.077 1.058c0 .432.025.795.077 1.089.051.293.159.53.324.71.17.18.417.27.741.27.325 0 .569-.09.734-.27.17-.18.281-.417.332-.71.052-.294.077-.657.077-1.089Zm1.99 0c0-.891.149-1.586.448-2.085.303-.505.823-.757 1.56-.757.736 0 1.253.252 1.552.757.303.499.455 1.194.455 2.085 0 .901-.152 1.606-.455 2.116-.299.504-.816.757-1.552.757-.737 0-1.257-.253-1.56-.757-.299-.51-.448-1.215-.448-2.116Zm3.15 0c0-.417-.028-.77-.085-1.058a1.368 1.368 0 0 0-.324-.703c-.165-.185-.409-.278-.733-.278-.325 0-.569.093-.734.278-.165.18-.276.415-.332.703a6.09 6.09 0 0 0-.077 1.058c0 .432.025.795.077 1.089.051.293.159.53.324.71.17.18.417.27.742.27.324 0 .568-.09.733-.27.17-.18.281-.417.332-.71.052-.294.077-.657.077-1.089Z" fill="#000"/><path d="M164.738 140.006c.297-.247.533-.452.709-.616.176-.167.323-.34.44-.519a.964.964 0 0 0 .176-.528.566.566 0 0 0-.111-.371c-.074-.089-.188-.134-.343-.134a.43.43 0 0 0-.357.157c-.083.102-.126.243-.129.422h-.631c.013-.371.122-.652.329-.843.21-.192.476-.288.797-.288.352 0 .623.095.811.283.189.185.283.431.283.737 0 .241-.065.471-.195.69-.13.219-.278.411-.445.575-.166.16-.384.355-.653.583h1.367v.538h-2.289v-.482l.241-.204Zm3.011.765a.416.416 0 0 1-.292-.107.371.371 0 0 1-.111-.273c0-.108.037-.198.111-.269a.405.405 0 0 1 .292-.111c.114 0 .209.037.283.111a.357.357 0 0 1 .111.269.371.371 0 0 1-.394.38Zm.957-2.813v-.597h1.116v3.377h-.667v-2.78h-.449Zm1.876.232c0-.235.068-.419.204-.551a.739.739 0 0 1 .533-.2c.216 0 .392.067.528.2.139.132.208.316.208.551 0 .238-.069.423-.208.556a.723.723 0 0 1-.528.199.738.738 0 0 1-.533-.199c-.136-.133-.204-.318-.204-.556Zm2.975-.695-1.821 3.243h-.63l1.816-3.243h.635Zm-2.243.334c-.17 0-.255.12-.255.361 0 .244.085.366.255.366a.235.235 0 0 0 .195-.088.463.463 0 0 0 .069-.278c0-.241-.088-.361-.264-.361Zm1.302 2.21c0-.238.068-.422.204-.552a.738.738 0 0 1 .533-.199c.216 0 .39.066.523.199.136.13.204.314.204.552 0 .237-.068.423-.204.556a.71.71 0 0 1-.523.199.733.733 0 0 1-.533-.199c-.136-.133-.204-.319-.204-.556Zm.732-.362c-.176 0-.264.121-.264.362 0 .244.088.366.264.366.173 0 .26-.122.26-.366 0-.241-.087-.362-.26-.362Z" fill="#149D52"/><path d="m177.175 140.349.788-2.15h.449l-.996 2.539h-.491l-.996-2.539h.454l.792 2.15Zm2.744.431c-.194 0-.369-.032-.523-.097a.906.906 0 0 1-.366-.278.757.757 0 0 1-.149-.413h.436a.43.43 0 0 0 .176.311c.108.08.249.12.422.12.16 0 .287-.035.38-.106a.328.328 0 0 0 .139-.269.262.262 0 0 0-.149-.246 2.033 2.033 0 0 0-.458-.162 3.792 3.792 0 0 1-.464-.148.88.88 0 0 1-.305-.227.607.607 0 0 1-.126-.399c0-.129.039-.248.116-.356a.771.771 0 0 1 .329-.255c.142-.065.304-.097.487-.097.281 0 .508.071.681.213a.768.768 0 0 1 .278.583h-.422a.43.43 0 0 0-.162-.319.582.582 0 0 0-.389-.121.605.605 0 0 0-.362.098.3.3 0 0 0-.134.254.29.29 0 0 0 .079.209.674.674 0 0 0 .204.13c.083.031.197.066.343.106.182.05.33.099.444.148a.737.737 0 0 1 .292.214c.084.095.127.22.13.375a.643.643 0 0 1-.116.375.788.788 0 0 1-.329.264 1.17 1.17 0 0 1-.482.093Zm3.565-3.47v3.428h-.421v-3.428h.421Zm.754 2.149c0-.259.053-.486.158-.681a1.141 1.141 0 0 1 1.047-.62c.222 0 .415.047.579.143a.95.95 0 0 1 .366.362v-.464h.426v2.539h-.426v-.472a.995.995 0 0 1-.375.37 1.116 1.116 0 0 1-.575.144 1.151 1.151 0 0 1-1.042-.635 1.458 1.458 0 0 1-.158-.686Zm2.15.005c0-.191-.038-.358-.116-.5a.802.802 0 0 0-.315-.325.825.825 0 0 0-.431-.115.808.808 0 0 0-.741.435 1.034 1.034 0 0 0-.116.5c0 .195.039.365.116.51a.842.842 0 0 0 .31.329c.13.074.274.111.431.111a.826.826 0 0 0 .746-.44c.078-.145.116-.313.116-.505Zm2.231 1.316c-.195 0-.369-.032-.524-.097a.92.92 0 0 1-.366-.278.756.756 0 0 1-.148-.413h.436a.43.43 0 0 0 .176.311c.108.08.248.12.421.12a.609.609 0 0 0 .38-.106.325.325 0 0 0 .139-.269.261.261 0 0 0-.148-.246 2.044 2.044 0 0 0-.459-.162 3.77 3.77 0 0 1-.463-.148.884.884 0 0 1-.306-.227.612.612 0 0 1-.125-.399c0-.129.039-.248.116-.356a.771.771 0 0 1 .329-.255c.142-.065.304-.097.486-.097.281 0 .508.071.681.213a.765.765 0 0 1 .278.583h-.421a.437.437 0 0 0-.162-.319.585.585 0 0 0-.39-.121.603.603 0 0 0-.361.098.297.297 0 0 0-.134.254c0 .084.026.153.078.209a.7.7 0 0 0 .204.13c.084.031.198.066.343.106.182.05.331.099.445.148a.751.751 0 0 1 .292.214c.083.095.126.22.13.375a.643.643 0 0 1-.116.375.794.794 0 0 1-.329.264c-.139.062-.3.093-.482.093Zm2.229-2.233v1.496c0 .124.026.212.079.264.052.05.143.075.273.075h.311v.356h-.38c-.235 0-.411-.054-.528-.162-.118-.108-.177-.286-.177-.533v-1.496h-.329v-.348h.329v-.639h.422v.639h.663v.348h-.663Zm6.177-.348-.792 2.539h-.436l-.611-2.015-.612 2.015h-.435l-.797-2.539h.431l.583 2.132.631-2.132h.43l.617 2.136.574-2.136h.417Zm2.928 1.172c0 .081-.004.166-.014.255h-2.029c.016.25.1.447.255.589a.83.83 0 0 0 .57.208.776.776 0 0 0 .454-.125.68.68 0 0 0 .259-.343h.454a1.1 1.1 0 0 1-.407.598c-.204.151-.457.227-.76.227a1.3 1.3 0 0 1-.649-.162 1.157 1.157 0 0 1-.445-.459 1.444 1.444 0 0 1-.162-.695c0-.262.053-.493.158-.69.105-.198.251-.349.44-.454.191-.108.411-.162.658-.162.241 0 .454.052.639.157.186.105.328.25.426.436.102.182.153.389.153.62Zm-.435-.088a.766.766 0 0 0-.107-.412.672.672 0 0 0-.292-.264.864.864 0 0 0-.403-.093.787.787 0 0 0-.546.204c-.149.136-.234.324-.255.565h1.603Zm3.502.088c0 .081-.005.166-.014.255h-2.03c.016.25.101.447.255.589a.833.833 0 0 0 .57.208.774.774 0 0 0 .454-.125.683.683 0 0 0 .26-.343h.454a1.102 1.102 0 0 1-.408.598c-.204.151-.457.227-.76.227a1.3 1.3 0 0 1-.649-.162 1.155 1.155 0 0 1-.444-.459 1.444 1.444 0 0 1-.163-.695c0-.262.053-.493.158-.69.105-.198.252-.349.44-.454.192-.108.411-.162.658-.162.241 0 .454.052.639.157.186.105.328.25.427.436.102.182.153.389.153.62Zm-.436-.088a.765.765 0 0 0-.106-.412.678.678 0 0 0-.292-.264.87.87 0 0 0-.403-.093.788.788 0 0 0-.547.204c-.148.136-.233.324-.255.565h1.603Zm2.603 1.455-.996-1.121v1.121h-.422v-3.428h.422v2.015l.978-1.126h.588l-1.195 1.265 1.2 1.274h-.575Z" fill="#737B8B"/><path d="M159.504 140.6v-3.489M158.111 138.111l1.373-1.373 1.374 1.373" stroke="#149D52" stroke-width=".579" stroke-linecap="round" stroke-linejoin="round"/><path opacity=".5" d="M158.954 153.512v1.169h1.275v.377h-1.275v1.204h1.426v.377h-1.883v-3.504h1.883v.377h-1.426Zm3.745 3.127-.652-1.024-.628 1.024h-.476l.888-1.366-.888-1.385h.517l.652 1.019.623-1.019h.476l-.883 1.36.888 1.391h-.517Zm1.617-2.244a1.08 1.08 0 0 1 .401-.392c.181-.107.39-.16.628-.16a1.264 1.264 0 0 1 1.134.672c.114.211.171.457.171.738 0 .278-.057.526-.171.743a1.25 1.25 0 0 1-.472.507 1.24 1.24 0 0 1-.662.181 1.152 1.152 0 0 1-1.029-.552v1.812h-.457v-4.056h.457v.507Zm1.867.858c0-.207-.042-.388-.126-.542a.855.855 0 0 0-.341-.351.929.929 0 0 0-.467-.121.912.912 0 0 0-.808.482 1.104 1.104 0 0 0-.125.537c0 .208.041.39.125.547a.953.953 0 0 0 .341.357c.144.08.3.12.467.12.171 0 .326-.04.467-.12a.896.896 0 0 0 .341-.357c.084-.157.126-.341.126-.552Zm3.771-.095c0 .087-.005.179-.015.276h-2.199c.017.271.109.484.276.637a.9.9 0 0 0 .617.226.845.845 0 0 0 .492-.135.738.738 0 0 0 .281-.372h.492c-.073.265-.22.481-.441.648-.221.164-.496.246-.824.246-.261 0-.495-.059-.702-.176a1.253 1.253 0 0 1-.482-.497 1.562 1.562 0 0 1-.176-.753c0-.284.057-.533.171-.748.114-.214.273-.378.477-.491.207-.118.445-.176.712-.176.261 0 .492.057.693.171.201.113.355.271.462.471.11.198.166.422.166.673Zm-.472-.095a.83.83 0 0 0-.116-.447.723.723 0 0 0-.316-.286.941.941 0 0 0-.437-.101.858.858 0 0 0-.592.221c-.161.147-.253.352-.276.613h1.737Zm2.608-1.225c.334 0 .605.102.813.306.207.201.311.492.311.873v1.622h-.452v-1.556c0-.275-.068-.484-.205-.628-.138-.147-.325-.221-.563-.221a.763.763 0 0 0-.577.226c-.14.151-.211.37-.211.658v1.521h-.456v-2.751h.456v.392a.915.915 0 0 1 .367-.327c.157-.077.329-.115.517-.115Zm3.037 2.846c-.211 0-.4-.035-.567-.106a.985.985 0 0 1-.397-.301.81.81 0 0 1-.16-.446h.472a.466.466 0 0 0 .19.336c.117.087.27.13.457.13.174 0 .311-.038.412-.115.1-.077.15-.174.15-.291a.281.281 0 0 0-.16-.266 2.167 2.167 0 0 0-.497-.176 3.899 3.899 0 0 1-.502-.161.938.938 0 0 1-.332-.246.66.66 0 0 1-.135-.431c0-.141.042-.27.125-.387a.838.838 0 0 1 .357-.276c.154-.07.329-.105.527-.105.304 0 .55.077.738.231a.834.834 0 0 1 .301.632h-.457a.465.465 0 0 0-.176-.346.633.633 0 0 0-.421-.131.65.65 0 0 0-.392.106.325.325 0 0 0-.145.276c0 .09.028.165.085.226.06.057.134.103.221.14.09.034.214.072.371.116.198.053.358.107.482.16.124.05.229.127.316.231a.612.612 0 0 1 .141.407c0 .15-.042.286-.126.406a.84.84 0 0 1-.356.286 1.27 1.27 0 0 1-.522.101Zm4.352-1.526c0 .087-.005.179-.016.276h-2.198c.017.271.109.484.276.637a.9.9 0 0 0 .617.226.845.845 0 0 0 .492-.135.738.738 0 0 0 .281-.372h.492a1.192 1.192 0 0 1-.441.648c-.221.164-.496.246-.824.246-.261 0-.495-.059-.702-.176a1.253 1.253 0 0 1-.482-.497 1.562 1.562 0 0 1-.176-.753c0-.284.057-.533.171-.748.114-.214.273-.378.477-.491.207-.118.445-.176.712-.176.261 0 .492.057.693.171.201.113.355.271.462.471.11.198.166.422.166.673Zm-.472-.095a.83.83 0 0 0-.116-.447.723.723 0 0 0-.316-.286.941.941 0 0 0-.437-.101.856.856 0 0 0-.592.221c-.161.147-.253.352-.276.613h1.737Zm2.241 1.621c-.211 0-.4-.035-.567-.106a.981.981 0 0 1-.396-.301.812.812 0 0 1-.161-.446h.472a.464.464 0 0 0 .191.336c.117.087.269.13.456.13.174 0 .311-.038.412-.115.1-.077.15-.174.15-.291a.281.281 0 0 0-.16-.266 2.167 2.167 0 0 0-.497-.176 3.899 3.899 0 0 1-.502-.161.926.926 0 0 1-.331-.246.655.655 0 0 1-.136-.431c0-.141.042-.27.126-.387a.829.829 0 0 1 .356-.276c.154-.07.33-.105.527-.105.305 0 .551.077.738.231a.83.83 0 0 1 .301.632h-.457a.467.467 0 0 0-.175-.346.638.638 0 0 0-.422-.131.653.653 0 0 0-.392.106.325.325 0 0 0-.145.276c0 .09.028.165.085.226.06.057.134.103.221.14.09.034.214.072.372.116.197.053.358.107.481.16.124.05.23.127.317.231.09.104.137.239.14.407 0 .15-.042.286-.125.406a.85.85 0 0 1-.357.286 1.27 1.27 0 0 1-.522.101Zm4.493-2.42h-.578v2.375h-.456v-2.375h-.357v-.376h.357v-.196c0-.308.078-.532.236-.672.16-.144.416-.216.768-.216v.381c-.201 0-.343.04-.427.121-.08.077-.121.206-.121.386v.196h.578v.376Zm1.182.071a.877.877 0 0 1 .341-.367c.151-.087.333-.13.547-.13v.472h-.12c-.512 0-.768.277-.768.833v1.496h-.457v-2.751h.457v.447Zm2.808 2.349c-.257 0-.491-.059-.702-.176a1.271 1.271 0 0 1-.492-.497 1.562 1.562 0 0 1-.176-.753c0-.281.06-.528.181-.743.124-.217.291-.383.502-.496.211-.118.447-.176.708-.176.261 0 .496.058.707.176.211.113.377.277.497.491.124.215.186.464.186.748 0 .285-.064.536-.191.753-.124.214-.293.38-.507.497a1.463 1.463 0 0 1-.713.176Zm0-.402a.965.965 0 0 0 .462-.115.868.868 0 0 0 .347-.346 1.1 1.1 0 0 0 .135-.563c0-.221-.043-.408-.13-.562a.831.831 0 0 0-.342-.341.934.934 0 0 0-.456-.116.943.943 0 0 0-.462.116.816.816 0 0 0-.332.341 1.17 1.17 0 0 0-.125.562c0 .225.04.414.12.568a.86.86 0 0 0 .332.346c.137.073.287.11.451.11Zm5.512-2.444c.215 0 .405.045.573.135.167.087.299.22.396.397.097.177.146.393.146.647v1.622h-.452v-1.556c0-.275-.069-.484-.206-.628-.134-.147-.316-.221-.547-.221-.238 0-.427.077-.567.231-.141.151-.211.37-.211.658v1.516h-.452v-1.556c0-.275-.068-.484-.206-.628-.133-.147-.316-.221-.547-.221a.731.731 0 0 0-.567.231c-.14.151-.211.37-.211.658v1.516h-.456v-2.751h.456v.397a.911.911 0 0 1 .362-.332c.154-.077.323-.115.507-.115.231 0 .435.052.612.155.177.104.31.256.397.457a.908.908 0 0 1 .381-.452c.177-.107.375-.16.592-.16Zm3.392-.412v-.416h.944v3.629h-.462v-3.213h-.482Zm3.904 1.18v.386h-2.002v-.386h2.002Zm.855-1.18v-.416h.944v3.629h-.462v-3.213h-.482Zm1.866 2.846c.425-.341.758-.62.999-.838.241-.221.443-.45.607-.688.168-.241.251-.477.251-.707 0-.218-.053-.389-.16-.512-.104-.128-.273-.191-.507-.191-.228 0-.405.072-.532.216-.124.14-.191.329-.201.567h-.442c.014-.375.127-.664.341-.868.215-.205.491-.307.829-.307.344 0 .617.096.818.286.204.191.306.454.306.789 0 .277-.084.548-.251.813a3.548 3.548 0 0 1-.562.692c-.211.198-.48.429-.808.693h1.726v.382h-2.414v-.327Zm5.831-3.132c.382 0 .711.072.989.216.281.14.495.343.643.607.15.265.225.576.225.934 0 .358-.075.669-.225.934a1.482 1.482 0 0 1-.643.602 2.213 2.213 0 0 1-.989.206h-1.089v-3.499h1.089Zm0 3.122c.452 0 .797-.119 1.034-.356.238-.241.357-.577.357-1.009 0-.435-.121-.775-.362-1.019-.237-.244-.58-.366-1.029-.366h-.632v2.75h.632Zm5.163-1.104c0 .087-.005.179-.015.276h-2.199c.017.271.109.484.276.637a.901.901 0 0 0 .618.226.849.849 0 0 0 .492-.135.749.749 0 0 0 .281-.372h.492a1.194 1.194 0 0 1-.442.648c-.221.164-.495.246-.823.246-.261 0-.496-.059-.703-.176a1.253 1.253 0 0 1-.482-.497 1.562 1.562 0 0 1-.176-.753c0-.284.057-.533.171-.748.114-.214.273-.378.477-.491.207-.118.445-.176.713-.176.261 0 .492.057.692.171.201.113.355.271.462.471.111.198.166.422.166.673Zm-.472-.095a.83.83 0 0 0-.116-.447.717.717 0 0 0-.316-.286.94.94 0 0 0-.436-.101.859.859 0 0 0-.593.221c-.16.147-.252.352-.276.613h1.737Zm1.097.195c0-.284.057-.532.171-.743.114-.214.271-.379.472-.496.204-.118.436-.176.697-.176.338 0 .616.082.833.246.221.164.367.391.437.682h-.492a.703.703 0 0 0-.276-.396.833.833 0 0 0-.502-.146.806.806 0 0 0-.632.271c-.161.178-.241.43-.241.758 0 .332.08.588.241.768.16.181.371.271.632.271a.852.852 0 0 0 .502-.14.713.713 0 0 0 .276-.402h.492a1.22 1.22 0 0 1-.442.678c-.22.167-.496.251-.828.251-.261 0-.493-.059-.697-.176a1.23 1.23 0 0 1-.472-.497 1.579 1.579 0 0 1-.171-.753Zm3.885.748-.563 1.35h-.306l.367-1.35h.502Zm2.117.266c.425-.341.758-.62.998-.838.241-.221.444-.45.608-.688.167-.241.251-.477.251-.707 0-.218-.054-.389-.161-.512-.104-.128-.273-.191-.507-.191-.227 0-.405.072-.532.216-.124.14-.191.329-.201.567h-.441c.013-.375.127-.664.341-.868.214-.205.49-.307.828-.307.345 0 .618.096.818.286.204.191.307.454.307.789 0 .277-.084.548-.251.813a3.552 3.552 0 0 1-.563.692c-.21.198-.48.429-.808.693h1.727v.382h-2.414v-.327Zm3.135-1.486c0-.575.094-1.023.281-1.345.187-.324.515-.487.984-.487.465 0 .791.163.979.487.187.322.281.77.281 1.345 0 .586-.094 1.041-.281 1.366-.188.324-.514.487-.979.487-.469 0-.797-.163-.984-.487-.187-.325-.281-.78-.281-1.366Zm2.073 0c0-.291-.02-.537-.06-.737a.925.925 0 0 0-.236-.492c-.117-.124-.288-.186-.512-.186-.228 0-.402.062-.522.186a.971.971 0 0 0-.236.492c-.037.2-.055.446-.055.737 0 .302.018.554.055.758.04.205.119.369.236.492.12.124.294.186.522.186.224 0 .395-.062.512-.186a.918.918 0 0 0 .236-.492c.04-.204.06-.456.06-.758Zm1.217 1.486c.425-.341.758-.62.999-.838.241-.221.443-.45.607-.688.167-.241.251-.477.251-.707 0-.218-.054-.389-.161-.512-.103-.128-.272-.191-.507-.191-.227 0-.405.072-.532.216-.124.14-.19.329-.201.567h-.441c.013-.375.127-.664.341-.868.214-.205.49-.307.828-.307.345 0 .618.096.818.286.205.191.307.454.307.789 0 .277-.084.548-.251.813a3.552 3.552 0 0 1-.563.692c-.21.198-.48.429-.808.693h1.727v.382h-2.414v-.327Zm3.135-1.486c0-.575.094-1.023.281-1.345.188-.324.516-.487.984-.487.465 0 .791.163.979.487.187.322.281.77.281 1.345 0 .586-.094 1.041-.281 1.366-.188.324-.514.487-.979.487-.468 0-.796-.163-.984-.487-.187-.325-.281-.78-.281-1.366Zm2.073 0c0-.291-.02-.537-.06-.737a.925.925 0 0 0-.236-.492c-.117-.124-.288-.186-.512-.186-.228 0-.402.062-.522.186a.971.971 0 0 0-.236.492c-.037.2-.055.446-.055.737 0 .302.018.554.055.758.04.205.119.369.236.492.12.124.294.186.522.186.224 0 .395-.062.512-.186a.918.918 0 0 0 .236-.492c.04-.204.06-.456.06-.758Z" fill="#000"/><path d="M160.21 88.326c.515 0 .964.1 1.349.299.389.195.688.477.896.848.213.366.32.794.32 1.285 0 .492-.107.918-.32 1.28a2.08 2.08 0 0 1-.896.833c-.385.19-.834.285-1.349.285h-1.577v-4.83h1.577Zm0 4.184c.565 0 .999-.153 1.3-.459.301-.306.452-.737.452-1.293 0-.56-.151-.998-.452-1.313-.301-.315-.735-.473-1.3-.473h-.785v3.538h.785Zm3.279-1.286c0-.384.079-.725.236-1.022a1.762 1.762 0 0 1 1.571-.938c.301 0 .563.06.785.18.227.117.408.263.542.439v-.556h.8v3.83h-.8v-.57c-.134.18-.317.33-.549.451-.231.12-.495.18-.792.18-.329 0-.63-.083-.903-.25a1.852 1.852 0 0 1-.654-.708 2.235 2.235 0 0 1-.236-1.036Zm3.134.014c0-.264-.055-.493-.166-.688a1.118 1.118 0 0 0-.994-.598c-.204 0-.394.051-.57.153-.176.097-.32.243-.431.438-.107.19-.16.417-.16.681 0 .264.053.496.16.695.111.2.255.352.431.459a1.144 1.144 0 0 0 1.14 0c.176-.102.317-.25.424-.445.111-.2.166-.43.166-.695Zm3.423 1.98a1.99 1.99 0 0 1-.813-.16 1.471 1.471 0 0 1-.563-.444c-.139-.19-.213-.4-.222-.632h.82c.014.162.09.299.229.41.144.106.322.16.535.16.223 0 .394-.042.515-.126.125-.088.187-.199.187-.333 0-.144-.069-.25-.208-.32a3.706 3.706 0 0 0-.646-.23 6.17 6.17 0 0 1-.702-.229 1.256 1.256 0 0 1-.473-.34c-.13-.153-.195-.355-.195-.605 0-.204.061-.389.181-.556a1.2 1.2 0 0 1 .514-.403c.227-.097.487-.146.779-.146.435 0 .785.112 1.049.334.269.218.413.517.431.896h-.792a.566.566 0 0 0-.209-.41c-.125-.102-.294-.153-.507-.153-.208 0-.368.04-.48.119a.366.366 0 0 0-.166.312c0 .102.037.188.111.258a.83.83 0 0 0 .271.166c.107.037.264.086.473.146.278.074.505.15.681.23.18.074.336.185.465.333.13.148.197.345.202.59 0 .219-.06.413-.181.585-.12.171-.292.306-.514.403a1.88 1.88 0 0 1-.772.146Zm4.497-3.954c.292 0 .551.063.778.188.232.125.413.31.542.556.135.246.202.542.202.89v2.258h-.786v-2.14c0-.343-.085-.605-.257-.786-.171-.185-.405-.278-.702-.278-.296 0-.532.093-.709.278-.171.181-.257.443-.257.786v2.14h-.792v-5.143h.792v1.759a1.34 1.34 0 0 1 .508-.376 1.73 1.73 0 0 1 .681-.132Zm3.518.633c.134-.186.317-.336.549-.452.236-.12.498-.18.785-.18.338 0 .644.08.918.242.273.163.488.394.646.695.157.297.236.638.236 1.022 0 .385-.079.73-.236 1.036a1.79 1.79 0 0 1-.653.709c-.274.166-.577.25-.911.25-.296 0-.56-.058-.792-.174a1.52 1.52 0 0 1-.542-.445v.556h-.793v-5.143h.793v1.884Zm2.328 1.327c0-.264-.056-.491-.167-.681a1.056 1.056 0 0 0-.431-.438 1.139 1.139 0 0 0-1.57.445c-.107.195-.16.424-.16.688 0 .264.053.496.16.695a1.138 1.138 0 0 0 1.57.445 1.14 1.14 0 0 0 .431-.459c.111-.2.167-.43.167-.695Zm3.444 1.995c-.362 0-.688-.081-.98-.243a1.805 1.805 0 0 1-.688-.695 2.114 2.114 0 0 1-.25-1.043c0-.39.085-.734.257-1.035a1.77 1.77 0 0 1 .702-.696c.296-.162.628-.243.994-.243s.697.081.993.243c.297.163.531.394.702.695.172.302.258.647.258 1.036 0 .39-.089.734-.265 1.036a1.85 1.85 0 0 1-.722.702 2.08 2.08 0 0 1-1.001.243Zm0-.688c.204 0 .394-.049.57-.146.18-.098.326-.243.438-.438a1.41 1.41 0 0 0 .166-.709c0-.278-.053-.512-.159-.702a1.077 1.077 0 0 0-.424-.438 1.16 1.16 0 0 0-.57-.146 1.16 1.16 0 0 0-.57.146 1.041 1.041 0 0 0-.41.438c-.102.19-.153.424-.153.702 0 .412.104.732.313.96.213.222.479.333.799.333Zm2.7-1.307c0-.384.078-.725.236-1.022a1.766 1.766 0 0 1 1.571-.938c.301 0 .563.06.785.18.227.117.408.263.542.439v-.556h.799v3.83h-.799v-.57c-.134.18-.317.33-.549.451-.232.12-.496.18-.792.18-.329 0-.63-.083-.904-.25a1.857 1.857 0 0 1-.653-.708 2.222 2.222 0 0 1-.236-1.036Zm3.134.014c0-.264-.055-.493-.167-.688a1.119 1.119 0 0 0-.993-.598c-.204 0-.394.051-.57.153-.176.097-.32.243-.431.438-.107.19-.16.417-.16.681 0 .264.053.496.16.695.111.2.255.352.431.459a1.139 1.139 0 0 0 1.139 0c.176-.102.318-.25.424-.445.112-.2.167-.43.167-.695Zm2.825-1.355c.116-.195.269-.345.459-.452.195-.111.424-.167.688-.167v.82h-.201c-.311 0-.547.08-.709.237-.158.157-.237.43-.237.82v2.015h-.792v-3.83h.792v.557Zm1.804 1.341c0-.384.079-.725.237-1.022a1.766 1.766 0 0 1 2.314-.77c.246.106.44.25.584.43v-1.849h.799v5.143h-.799v-.577c-.13.186-.311.339-.542.46-.227.12-.489.18-.786.18a1.75 1.75 0 0 1-.917-.25 1.857 1.857 0 0 1-.653-.71 2.223 2.223 0 0 1-.237-1.035Zm3.135.014c0-.264-.056-.493-.167-.688a1.119 1.119 0 0 0-.994-.598c-.204 0-.394.051-.57.153a1.125 1.125 0 0 0-.431.438c-.106.19-.159.417-.159.681 0 .264.053.496.159.695.112.2.255.352.431.459a1.144 1.144 0 0 0 1.14 0c.176-.102.318-.25.424-.445.111-.2.167-.43.167-.695Z" fill="#1F384C"/><g filter="url(#g)"><rect x="526.42" y="51.963" width="12.58" height="12.76" rx="6.29" fill="#fff"/><mask id="h" style="mask-type:luminance" maskUnits="userSpaceOnUse" x="528" y="53" width="10" height="10"><path d="M537.203 53.76h-8.986v9.124h8.986V53.76Z" fill="#fff"/></mask><g mask="url(#h)"><path d="m533.169 55.322.346-.347a1.758 1.758 0 0 1 2.474-.02 1.749 1.749 0 0 1 .34 2.007.84.84 0 0 0 .16.96 2.434 2.434 0 0 0 .714-1.73 2.443 2.443 0 0 0-.719-1.728c-.957-.952-2.511-.933-3.465.021l-3.304 3.304-.271-.272c-.692-.692-.697-1.824.008-2.503a1.747 1.747 0 0 1 1.997-.302.785.785 0 0 0 .912-.141l.009-.009a.09.09 0 0 0 .006-.009.039.039 0 0 0 .002-.01.039.039 0 0 0-.002-.011 2.446 2.446 0 0 0-3.409-.02c-.985.951-.982 2.533-.013 3.502l3.302 3.302-.35.35a1.758 1.758 0 0 1-2.474.022 1.748 1.748 0 0 1-.341-2.007.833.833 0 0 0-.159-.96 2.434 2.434 0 0 0-.714 1.73 2.442 2.442 0 0 0 .719 1.727c.957.952 2.511.934 3.465-.021l3.308-3.308.272.273c.681.68.698 1.788.021 2.473a1.75 1.75 0 0 1-2.007.34.837.837 0 0 0-.96.16 2.44 2.44 0 0 0 2.665.527c.297-.123.566-.304.793-.531.952-.957.933-2.511-.022-3.465l-3.303-3.304Zm-.419 5.5-2.541-2.54 2.467-2.467 2.54 2.54-2.466 2.468Z" fill="#18CDCA"/></g></g><path d="M546.024 59.323h-1.409l-.259.718h-.445l1.168-3.21h.486l1.163 3.21h-.445l-.259-.718Zm-.12-.343-.584-1.631-.584 1.631h1.168Zm1.369-.218c0-.26.052-.486.157-.68a1.146 1.146 0 0 1 1.052-.622c.198 0 .381.047.551.14.17.089.3.208.39.356v-1.344h.426v3.429h-.426v-.477a1.007 1.007 0 0 1-.371.375 1.119 1.119 0 0 1-.575.144c-.225 0-.431-.056-.616-.167a1.172 1.172 0 0 1-.431-.468c-.105-.2-.157-.43-.157-.686Zm2.15.005c0-.192-.039-.359-.116-.5a.808.808 0 0 0-.315-.325.83.83 0 0 0-.431-.116.811.811 0 0 0-.742.435 1.035 1.035 0 0 0-.115.501c0 .195.038.365.115.51a.844.844 0 0 0 .311.329c.13.074.273.111.431.111a.855.855 0 0 0 .431-.111.84.84 0 0 0 .315-.33c.077-.144.116-.313.116-.504Zm4.385-1.311c.197 0 .373.041.528.125.154.08.276.202.366.366.09.163.134.363.134.597v1.497h-.417v-1.436c0-.254-.063-.447-.19-.58a.648.648 0 0 0-.505-.203.674.674 0 0 0-.523.213c-.13.139-.195.341-.195.607v1.399h-.417v-1.436c0-.254-.063-.447-.19-.58a.648.648 0 0 0-.505-.203.672.672 0 0 0-.523.213c-.13.139-.195.341-.195.607v1.399h-.422v-2.54h.422v.367a.835.835 0 0 1 .334-.306 1.03 1.03 0 0 1 .468-.106 1.1 1.1 0 0 1 .565.143.873.873 0 0 1 .366.422.83.83 0 0 1 .352-.417c.164-.099.346-.148.547-.148Zm2.131-.366a.277.277 0 0 1-.204-.084.276.276 0 0 1-.083-.204c0-.08.027-.148.083-.204a.277.277 0 0 1 .204-.083c.077 0 .142.028.194.083a.276.276 0 0 1 .084.204c0 .08-.028.149-.084.204a.255.255 0 0 1-.194.084Zm.204.412v2.539h-.422v-2.54h.422Zm2.148-.046c.309 0 .56.094.751.282.192.186.287.454.287.806v1.497h-.417v-1.436c0-.254-.063-.447-.19-.58-.126-.135-.299-.203-.519-.203a.7.7 0 0 0-.532.208c-.13.14-.195.341-.195.607v1.404h-.422v-2.54h.422v.362a.838.838 0 0 1 .338-.3c.145-.072.304-.107.477-.107Z" fill="#1F384C"/><path d="m569.32 60.325 1.933-1.933-.454-.456-1.479 1.48-1.479-1.48-.455.455 1.934 1.934Z" fill="#1F384C" opacity=".5"/><path d="M588.007 61.447a.625.625 0 0 1-.621-.617h1.236a.622.622 0 0 1-.046.24.632.632 0 0 1-.445.365h-.015a.594.594 0 0 1-.109.012Zm2.471-.926h-4.942v-.618l.618-.309v-1.699a2.496 2.496 0 0 1 .285-1.254c.203-.358.549-.612.95-.698v-.673h1.236v.673c.797.19 1.236.883 1.236 1.952v1.699l.617.309v.618Z" fill="#B0C3CC"/><circle cx="589.783" cy="55.955" r="1.39" fill="#EC5252" stroke="#fff" stroke-width=".463"/><rect x="158.111" y="52.18" width="241.319" height="12.356" rx="1.931" fill="#F6F6FB"/><path opacity=".3" d="M165.283 60.073c-.213 0-.405-.037-.574-.111a.975.975 0 0 1-.394-.315.824.824 0 0 1-.149-.468h.45c.015.151.077.28.185.384.111.102.272.153.482.153.201 0 .358-.049.473-.148a.494.494 0 0 0 .176-.389.439.439 0 0 0-.102-.301.652.652 0 0 0-.255-.176 3.98 3.98 0 0 0-.412-.13 3.733 3.733 0 0 1-.515-.167.861.861 0 0 1-.329-.26c-.089-.12-.134-.28-.134-.481a.835.835 0 0 1 .51-.783 1.34 1.34 0 0 1 .56-.111c.303 0 .55.075.742.227a.839.839 0 0 1 .329.602h-.464a.49.49 0 0 0-.194-.324.685.685 0 0 0-.454-.144.65.65 0 0 0-.431.139.458.458 0 0 0-.167.38.42.42 0 0 0 .097.287.69.69 0 0 0 .246.172c.099.037.236.08.412.13.213.058.385.117.514.175.13.056.241.144.334.265.093.117.139.278.139.481a.854.854 0 0 1-.125.445.916.916 0 0 1-.371.339c-.163.086-.357.13-.579.13Zm4.205-1.4c0 .081-.004.166-.014.256h-2.029c.015.25.1.446.255.588a.83.83 0 0 0 .57.209.78.78 0 0 0 .454-.125c.123-.087.21-.201.259-.343h.454a1.106 1.106 0 0 1-.407.597c-.204.152-.458.228-.76.228-.241 0-.458-.055-.649-.163a1.159 1.159 0 0 1-.445-.458 1.444 1.444 0 0 1-.162-.695c0-.263.053-.493.158-.69a1.09 1.09 0 0 1 .44-.455c.191-.108.411-.162.658-.162.241 0 .454.053.639.157.185.106.327.25.426.436.102.182.153.39.153.62Zm-.435-.087a.766.766 0 0 0-.107-.413.669.669 0 0 0-.292-.264.87.87 0 0 0-.403-.092.792.792 0 0 0-.547.204c-.148.136-.233.324-.254.565h1.603Zm1.027.176c0-.26.053-.486.158-.681a1.14 1.14 0 0 1 .431-.459c.185-.108.39-.162.616-.162.222 0 .415.048.579.144a.954.954 0 0 1 .366.361v-.463h.426v2.539h-.426v-.473a1 1 0 0 1-.375.37 1.118 1.118 0 0 1-.575.145 1.15 1.15 0 0 1-1.042-.635c-.105-.201-.158-.43-.158-.686Zm2.15.005c0-.192-.038-.359-.116-.5a.794.794 0 0 0-.315-.325.826.826 0 0 0-.431-.116.81.81 0 0 0-.741.436 1.035 1.035 0 0 0-.116.5c0 .195.039.364.116.51a.842.842 0 0 0 .31.329c.13.074.274.11.431.11a.826.826 0 0 0 .746-.44 1.05 1.05 0 0 0 .116-.504Zm1.754-.853a.812.812 0 0 1 .315-.338.993.993 0 0 1 .505-.12v.435h-.111c-.473 0-.709.256-.709.769v1.38h-.422v-2.538h.422v.412Zm1.342.853c0-.263.052-.492.157-.686.106-.198.251-.35.436-.459a1.27 1.27 0 0 1 .644-.162c.312 0 .568.076.769.227.204.151.338.361.403.63h-.454a.646.646 0 0 0-.255-.366.768.768 0 0 0-.463-.134.745.745 0 0 0-.584.25c-.148.164-.222.397-.222.7 0 .305.074.542.222.708.149.167.343.25.584.25.185 0 .34-.043.463-.129a.655.655 0 0 0 .255-.37h.454c-.068.259-.204.467-.407.625-.204.154-.459.232-.765.232a1.27 1.27 0 0 1-.644-.163 1.144 1.144 0 0 1-.436-.458 1.46 1.46 0 0 1-.157-.695Zm4.425-1.312c.192 0 .365.042.519.126.155.08.275.202.362.365.089.164.134.363.134.598v1.497h-.417v-1.437c0-.253-.063-.446-.19-.579-.127-.136-.3-.204-.519-.204-.222 0-.4.07-.533.209-.13.139-.194.341-.194.607v1.404h-.422v-3.429h.422v1.251a.83.83 0 0 1 .342-.301c.149-.071.314-.107.496-.107Z" fill="#1F384C"/><g opacity=".5" stroke="#627B87" stroke-width=".579" stroke-linecap="round" stroke-linejoin="round"><path clip-rule="evenodd" d="M390.902 59.835a1.897 1.897 0 1 0 0-3.794 1.897 1.897 0 0 0 0 3.794Z"/><path d="m392.372 59.408 1.192 1.192"/></g><path fill="#F1F2F7" d="M50 46.002h92.667v370.667H50z"/><path opacity=".1" d="M57.722 96.97a1.93 1.93 0 0 1 1.93-1.93h73.362a1.93 1.93 0 0 1 1.93 1.93v12.355a1.93 1.93 0 0 1-1.93 1.931H59.653a1.931 1.931 0 0 1-1.93-1.931V96.97Z" fill="#707FDD"/><g opacity=".6"><path d="M78.409 189.421c-.214 0-.405-.037-.575-.111a.978.978 0 0 1-.394-.315.818.818 0 0 1-.148-.468h.45a.605.605 0 0 0 .185.384c.11.102.271.153.482.153.2 0 .358-.049.472-.148a.493.493 0 0 0 .176-.389.437.437 0 0 0-.102-.301.642.642 0 0 0-.254-.176 3.709 3.709 0 0 0-.413-.13 3.743 3.743 0 0 1-.514-.167.86.86 0 0 1-.33-.259c-.089-.121-.133-.282-.133-.482a.832.832 0 0 1 .51-.783c.163-.075.35-.112.56-.112.302 0 .55.076.741.227a.839.839 0 0 1 .33.603h-.464a.493.493 0 0 0-.195-.325.687.687 0 0 0-.454-.143.649.649 0 0 0-.43.139.459.459 0 0 0-.168.38.42.42 0 0 0 .098.287.69.69 0 0 0 .245.171c.1.038.236.081.413.13.213.059.384.118.514.176.13.056.24.144.334.264.092.118.139.278.139.482a.85.85 0 0 1-.126.445.916.916 0 0 1-.37.338c-.164.087-.357.13-.58.13Zm4.205-1.399c0 .08-.005.165-.014.255h-2.03c.016.25.1.446.255.588a.831.831 0 0 0 .57.208.775.775 0 0 0 .454-.125.68.68 0 0 0 .26-.342h.454a1.099 1.099 0 0 1-.408.597c-.204.152-.457.227-.76.227-.24 0-.457-.054-.648-.162a1.154 1.154 0 0 1-.445-.459 1.439 1.439 0 0 1-.163-.695c0-.262.053-.492.158-.69.105-.198.252-.349.44-.454.192-.108.411-.162.658-.162.241 0 .454.052.64.157.185.105.327.251.426.436.102.182.153.389.153.621Zm-.436-.088a.77.77 0 0 0-.106-.413.675.675 0 0 0-.292-.264.867.867 0 0 0-.403-.092.793.793 0 0 0-.547.203c-.148.136-.233.325-.255.566h1.603Zm1.7-.737v1.497c0 .123.026.211.078.264.053.049.144.074.274.074h.31v.357h-.38c-.234 0-.41-.055-.528-.163-.117-.108-.176-.285-.176-.532v-1.497h-.329v-.348h.329v-.639h.422v.639h.662v.348h-.662Zm1.88 0v1.497c0 .123.027.211.08.264.052.049.143.074.273.074h.31v.357h-.38c-.235 0-.41-.055-.528-.163-.118-.108-.176-.285-.176-.532v-1.497h-.33v-.348h.33v-.639h.421v.639h.663v.348h-.663Zm1.585-.76a.28.28 0 0 1-.204-.083.279.279 0 0 1-.084-.204c0-.08.028-.148.084-.204a.275.275 0 0 1 .204-.083c.077 0 .142.027.194.083a.279.279 0 0 1 .084.204c0 .08-.028.148-.084.204a.259.259 0 0 1-.194.083Zm.203.412v2.54h-.421v-2.54h.421Zm2.15-.046c.308 0 .558.094.75.283.191.185.287.454.287.806v1.497h-.417v-1.437c0-.253-.063-.446-.19-.579-.127-.136-.3-.204-.519-.204-.222 0-.4.07-.533.209-.13.139-.194.341-.194.607v1.404h-.422v-2.54h.422v.362a.838.838 0 0 1 .338-.301c.145-.071.304-.107.477-.107Zm2.966.005c.22 0 .41.048.575.143.166.096.29.217.37.362v-.464h.427v2.595c0 .232-.05.437-.149.616-.099.183-.24.325-.426.427a1.288 1.288 0 0 1-.64.153c-.333 0-.611-.079-.833-.237a.922.922 0 0 1-.394-.644h.417a.654.654 0 0 0 .287.371c.145.096.32.144.524.144.231 0 .42-.073.565-.218.148-.145.222-.349.222-.612v-.533a1.011 1.011 0 0 1-.37.371 1.089 1.089 0 0 1-.575.148c-.226 0-.43-.055-.616-.167a1.167 1.167 0 0 1-.431-.468 1.454 1.454 0 0 1-.158-.685c0-.26.053-.487.158-.681a1.143 1.143 0 0 1 1.047-.621Zm.945 1.306c0-.191-.038-.358-.116-.5a.796.796 0 0 0-.315-.324.82.82 0 0 0-.43-.116.855.855 0 0 0-.431.111.806.806 0 0 0-.31.324 1.033 1.033 0 0 0-.117.501c0 .194.039.364.116.509.077.143.18.252.31.329.13.075.274.112.431.112a.821.821 0 0 0 .746-.441c.078-.145.116-.313.116-.505Zm2.23 1.316c-.194 0-.368-.032-.523-.097a.913.913 0 0 1-.366-.278.753.753 0 0 1-.148-.412h.436a.43.43 0 0 0 .176.31.69.69 0 0 0 .421.12.61.61 0 0 0 .38-.106.326.326 0 0 0 .14-.269.26.26 0 0 0-.149-.245 1.985 1.985 0 0 0-.459-.163 3.618 3.618 0 0 1-.463-.148.872.872 0 0 1-.306-.227.61.61 0 0 1-.125-.398.6.6 0 0 1 .116-.357.772.772 0 0 1 .329-.255c.142-.065.304-.097.486-.097.281 0 .508.071.681.213a.768.768 0 0 1 .278.584h-.421a.432.432 0 0 0-.162-.32.588.588 0 0 0-.39-.12.603.603 0 0 0-.361.097.301.301 0 0 0-.134.255.29.29 0 0 0 .078.208.67.67 0 0 0 .204.13c.084.031.198.066.343.106.182.05.33.099.445.149a.732.732 0 0 1 .292.213.57.57 0 0 1 .13.375.641.641 0 0 1-.116.375.783.783 0 0 1-.33.265 1.19 1.19 0 0 1-.481.092Z" fill="#273240"/><path fill-rule="evenodd" clip-rule="evenodd" d="M71.352 188.163a.666.666 0 0 1 .24.229c.11.179.1.399-.006.593l-.207.348a.617.617 0 0 1-.524.301.617.617 0 0 1-.314-.087.473.473 0 0 0-.26-.066.552.552 0 0 0-.548.527.598.598 0 0 1-.612.593h-.403a.599.599 0 0 1-.615-.593.548.548 0 0 0-.545-.527.46.46 0 0 0-.26.066.625.625 0 0 1-.314.087.618.618 0 0 1-.527-.301l-.204-.348a.576.576 0 0 1-.006-.593.612.612 0 0 1 .237-.229.476.476 0 0 0 .186-.185.53.53 0 0 0-.192-.724.592.592 0 0 1-.219-.82l.198-.342a.616.616 0 0 1 .835-.22.568.568 0 0 0 .743-.199.45.45 0 0 0 .068-.255.517.517 0 0 1 .083-.307.632.632 0 0 1 .523-.301h.418c.219 0 .417.121.526.301a.515.515 0 0 1 .08.307.45.45 0 0 0 .069.255c.15.246.485.338.745.199a.612.612 0 0 1 .832.22l.198.342a.587.587 0 0 1-.219.82.528.528 0 0 0-.19.724c.048.078.101.144.184.185Zm-3.27-.455c0 .455.376.817.84.817a.819.819 0 0 0 .832-.817.82.82 0 0 0-.832-.819.829.829 0 0 0-.84.819Z" fill="#A6ABC8"/></g><path opacity=".5" d="M67.114 174.747a1.45 1.45 0 0 1-1.291-.731 1.57 1.57 0 0 1-.196-.781c0-.289.065-.548.195-.778.133-.232.313-.412.54-.539.226-.13.477-.195.752-.195.277 0 .529.065.755.195.227.127.405.306.536.535.13.229.195.49.195.782 0 .291-.065.552-.195.781a1.42 1.42 0 0 1-.535.539 1.51 1.51 0 0 1-.757.192Zm0-.336c.206 0 .392-.048.556-.144.167-.097.297-.234.39-.412.097-.179.145-.385.145-.62 0-.238-.048-.445-.144-.621a1.013 1.013 0 0 0-.387-.412 1.09 1.09 0 0 0-.56-.144c-.21 0-.397.048-.561.144a1.042 1.042 0 0 0-.39.412c-.094.176-.141.383-.141.621 0 .235.047.441.14.62.096.178.227.315.39.412.168.096.355.144.561.144Zm4.204-2.655v.315h-.806v2.646h-.387v-2.646h-.811v-.315h2.004Zm3.143 0v2.961h-.386v-1.342h-1.508v1.342h-.387v-2.961h.387v1.3h1.508v-1.3h.386Zm1.433.315v.989h1.078v.319h-1.078v1.019H77.1v.319h-1.593v-2.965H77.1v.319h-1.206Zm3.735 2.646-.705-1.211h-.467v1.211h-.386v-2.961h.955c.224 0 .412.039.565.115.156.077.272.18.349.31.076.13.114.279.114.446 0 .204-.06.384-.178.54-.116.155-.292.259-.527.31l.743 1.24h-.463Zm-1.172-1.521h.57c.209 0 .366-.051.47-.153a.56.56 0 0 0 .158-.416.528.528 0 0 0-.157-.408c-.102-.096-.26-.144-.472-.144h-.569v1.121Zm3.523 1.551c-.196 0-.371-.034-.527-.102a.9.9 0 0 1-.361-.289.752.752 0 0 1-.136-.429h.412c.014.139.07.256.17.352.102.094.249.14.442.14.183 0 .328-.045.433-.135a.454.454 0 0 0 .161-.357.403.403 0 0 0-.093-.276.598.598 0 0 0-.234-.162 4.019 4.019 0 0 0-.378-.119 3.592 3.592 0 0 1-.471-.152.789.789 0 0 1-.302-.238.725.725 0 0 1-.123-.442.764.764 0 0 1 .467-.718c.15-.068.322-.102.514-.102.278 0 .504.07.68.208a.767.767 0 0 1 .301.553h-.425a.45.45 0 0 0-.178-.298.625.625 0 0 0-.416-.131.596.596 0 0 0-.395.127.421.421 0 0 0-.153.348c0 .108.03.196.09.264.061.068.136.12.224.157.09.034.217.073.378.119.196.053.353.107.472.161.119.051.22.132.305.242.085.108.128.255.128.442 0 .144-.038.28-.115.408a.851.851 0 0 1-.34.31c-.15.079-.327.119-.53.119Z" fill="#082431"/><g opacity=".6"><path d="M79.544 134.979a.895.895 0 0 1-.278.672c-.183.176-.462.264-.839.264h-.62v1.349h-.422v-3.23h1.042c.365 0 .641.088.83.264a.883.883 0 0 1 .287.681Zm-1.117.589c.235 0 .408-.051.519-.153.111-.102.167-.247.167-.436 0-.398-.229-.597-.686-.597h-.62v1.186h.62Zm2.255-.431a.812.812 0 0 1 .316-.338.987.987 0 0 1 .505-.121v.436h-.112c-.472 0-.709.256-.709.769v1.381h-.421v-2.54h.422v.413Zm2.608 2.168c-.238 0-.454-.054-.649-.162a1.177 1.177 0 0 1-.454-.459 1.44 1.44 0 0 1-.162-.695c0-.259.055-.488.167-.685a1.16 1.16 0 0 1 .463-.459c.195-.108.412-.162.653-.162.241 0 .459.054.653.162.195.105.348.256.46.454.113.198.17.428.17.69 0 .263-.058.495-.175.695a1.19 1.19 0 0 1-.468.459 1.35 1.35 0 0 1-.658.162Zm0-.37a.891.891 0 0 0 .426-.107.797.797 0 0 0 .32-.32c.083-.142.125-.315.125-.519 0-.203-.04-.376-.12-.519a.773.773 0 0 0-.316-.315.863.863 0 0 0-.421-.106.873.873 0 0 0-.427.106.755.755 0 0 0-.305.315 1.08 1.08 0 0 0-.116.519c0 .207.037.382.11.524.078.142.18.249.307.32a.867.867 0 0 0 .417.102Zm2.276-2.623a.28.28 0 0 1-.204-.083.287.287 0 0 1-.078-.204.275.275 0 0 1 .283-.287.26.26 0 0 1 .198.083.279.279 0 0 1 .084.204c0 .08-.028.148-.084.204a.264.264 0 0 1-.199.083Zm.209 3.503c0 .225-.058.391-.172.496-.114.105-.28.157-.5.157h-.246v-.357h.176c.118 0 .2-.023.246-.069.05-.046.074-.125.074-.236v-3.082h.422v3.091Zm3.223-1.918c0 .08-.005.165-.014.255h-2.03c.016.25.101.446.256.588a.831.831 0 0 0 .57.208.775.775 0 0 0 .454-.125c.123-.086.21-.2.26-.342h.453a1.099 1.099 0 0 1-.408.597c-.204.152-.457.227-.76.227-.24 0-.457-.054-.648-.162a1.154 1.154 0 0 1-.445-.459 1.44 1.44 0 0 1-.162-.695c0-.262.052-.492.157-.69.106-.198.252-.349.44-.454.192-.108.411-.162.659-.162.24 0 .454.052.639.157.185.105.327.251.426.436.102.182.153.389.153.621Zm-.435-.088a.77.77 0 0 0-.107-.413.674.674 0 0 0-.292-.264.867.867 0 0 0-.403-.092.793.793 0 0 0-.547.203c-.148.136-.233.325-.255.566h1.604Zm1.027.18c0-.262.053-.491.158-.685.105-.198.25-.351.435-.459.189-.108.403-.162.644-.162.312 0 .569.075.77.227.203.151.338.361.403.63h-.455a.648.648 0 0 0-.254-.366.766.766 0 0 0-.464-.134.743.743 0 0 0-.584.25c-.148.163-.222.397-.222.699 0 .306.074.542.222.709.149.167.343.25.584.25.186 0 .34-.043.464-.129a.659.659 0 0 0 .254-.371H92a1.13 1.13 0 0 1-.407.626c-.204.154-.459.231-.765.231-.24 0-.455-.054-.644-.162a1.133 1.133 0 0 1-.435-.459 1.458 1.458 0 0 1-.158-.695Zm3.68-.917v1.497c0 .123.026.211.078.264.053.049.144.074.274.074h.31v.357h-.38c-.235 0-.41-.055-.528-.163-.118-.108-.176-.285-.176-.532v-1.497h-.33v-.348h.33v-.639h.421v.639h.663v.348h-.663Zm6.07-1.015v3.207h-.422v-2.391l-1.065 2.391h-.297l-1.07-2.396v2.396h-.422v-3.207h.454l1.186 2.651 1.187-2.651h.449Zm.751 1.928c0-.26.052-.487.157-.681a1.144 1.144 0 0 1 1.047-.621c.223 0 .416.048.579.143a.957.957 0 0 1 .366.362v-.464h.427v2.54h-.427v-.473a1.004 1.004 0 0 1-.375.371 1.124 1.124 0 0 1-.574.143 1.143 1.143 0 0 1-1.043-.635 1.453 1.453 0 0 1-.157-.685Zm2.149.004c0-.191-.038-.358-.115-.5a.806.806 0 0 0-.315-.324.822.822 0 0 0-.431-.116.81.81 0 0 0-.742.435 1.036 1.036 0 0 0-.116.501c0 .194.039.364.116.509a.837.837 0 0 0 .311.329.842.842 0 0 0 .431.112.847.847 0 0 0 .431-.112.833.833 0 0 0 .315-.329 1.06 1.06 0 0 0 .115-.505Zm2.569-1.311c.309 0 .559.094.751.283.191.185.287.454.287.806v1.497h-.417v-1.437c0-.253-.063-.446-.19-.579-.126-.136-.299-.204-.519-.204a.7.7 0 0 0-.532.209c-.13.139-.195.341-.195.607v1.404h-.422v-2.54h.422v.362a.835.835 0 0 1 .338-.301 1.07 1.07 0 0 1 .477-.107Zm1.763 1.307c0-.26.052-.487.157-.681a1.144 1.144 0 0 1 1.047-.621c.223 0 .416.048.579.143a.957.957 0 0 1 .366.362v-.464h.427v2.54h-.427v-.473a1.004 1.004 0 0 1-.375.371 1.124 1.124 0 0 1-.574.143 1.143 1.143 0 0 1-1.043-.635 1.453 1.453 0 0 1-.157-.685Zm2.149.004c0-.191-.038-.358-.115-.5a.802.802 0 0 0-.316-.324.816.816 0 0 0-.43-.116.851.851 0 0 0-.431.111.804.804 0 0 0-.311.324 1.036 1.036 0 0 0-.116.501c0 .194.039.364.116.509a.83.83 0 0 0 .311.329.842.842 0 0 0 .431.112.828.828 0 0 0 .746-.441 1.06 1.06 0 0 0 .115-.505Zm2.379-1.306c.22 0 .411.048.575.143.167.096.29.217.371.362v-.464h.426v2.595c0 .232-.05.437-.148.616a1.045 1.045 0 0 1-.427.427 1.286 1.286 0 0 1-.639.153c-.334 0-.612-.079-.834-.237a.92.92 0 0 1-.394-.644h.417a.652.652 0 0 0 .287.371c.145.096.32.144.524.144.232 0 .42-.073.565-.218.148-.145.223-.349.223-.612v-.533a1.015 1.015 0 0 1-.371.371 1.089 1.089 0 0 1-.575.148c-.225 0-.431-.055-.616-.167a1.169 1.169 0 0 1-.431-.468 1.453 1.453 0 0 1-.157-.685c0-.26.052-.487.157-.681a1.144 1.144 0 0 1 1.047-.621Zm.946 1.306c0-.191-.039-.358-.116-.5a.806.806 0 0 0-.315-.324.822.822 0 0 0-.431-.116.81.81 0 0 0-.742.435 1.035 1.035 0 0 0-.115.501c0 .194.038.364.115.509a.837.837 0 0 0 .311.329c.13.075.273.112.431.112a.847.847 0 0 0 .431-.112.833.833 0 0 0 .315-.329 1.06 1.06 0 0 0 .116-.505Zm3.648-.092c0 .08-.005.165-.014.255h-2.029c.015.25.1.446.255.588a.829.829 0 0 0 .569.208.777.777 0 0 0 .455-.125c.123-.086.21-.2.259-.342h.454a1.1 1.1 0 0 1-.408.597c-.204.152-.457.227-.76.227-.24 0-.457-.054-.648-.162a1.15 1.15 0 0 1-.445-.459 1.441 1.441 0 0 1-.162-.695c0-.262.052-.492.157-.69.105-.198.252-.349.441-.454.191-.108.41-.162.657-.162.241 0 .455.052.64.157.185.105.327.251.426.436.102.182.153.389.153.621Zm-.435-.088a.77.77 0 0 0-.107-.413.672.672 0 0 0-.292-.264.866.866 0 0 0-.403-.092.795.795 0 0 0-.547.203c-.148.136-.233.325-.255.566h1.604Zm4.238-1.131c.198 0 .374.042.528.125a.873.873 0 0 1 .366.366c.09.164.135.363.135.598v1.497h-.417v-1.437c0-.253-.064-.446-.19-.579a.649.649 0 0 0-.505-.204.675.675 0 0 0-.524.213c-.13.139-.195.342-.195.607v1.4h-.417v-1.437c0-.253-.063-.446-.19-.579-.123-.136-.291-.204-.505-.204a.674.674 0 0 0-.523.213c-.13.139-.195.342-.195.607v1.4h-.421v-2.54h.421v.367a.84.84 0 0 1 .334-.306c.142-.071.298-.107.468-.107.213 0 .401.048.565.144a.874.874 0 0 1 .366.421.837.837 0 0 1 .352-.417c.164-.098.346-.148.547-.148Zm4.23 1.219c0 .08-.005.165-.014.255h-2.029c.015.25.1.446.255.588a.829.829 0 0 0 .569.208.772.772 0 0 0 .454-.125.675.675 0 0 0 .26-.342h.454a1.1 1.1 0 0 1-.408.597c-.204.152-.457.227-.76.227-.241 0-.457-.054-.648-.162a1.15 1.15 0 0 1-.445-.459 1.441 1.441 0 0 1-.162-.695c0-.262.052-.492.157-.69.105-.198.252-.349.44-.454.192-.108.411-.162.658-.162.241 0 .454.052.64.157.185.105.327.251.426.436.102.182.153.389.153.621Zm-.436-.088a.769.769 0 0 0-.106-.413.672.672 0 0 0-.292-.264.866.866 0 0 0-.403-.092.795.795 0 0 0-.547.203c-.148.136-.233.325-.255.566h1.603Zm2.423-1.131c.309 0 .559.094.75.283.192.185.288.454.288.806v1.497h-.417v-1.437c0-.253-.064-.446-.19-.579-.127-.136-.3-.204-.519-.204-.223 0-.4.07-.533.209-.13.139-.195.341-.195.607v1.404h-.421v-2.54h.421v.362a.842.842 0 0 1 .338-.301c.146-.071.305-.107.478-.107Zm2.434.394v1.497c0 .123.026.211.078.264.053.049.144.074.274.074h.31v.357h-.38c-.234 0-.411-.055-.528-.163-.117-.108-.176-.285-.176-.532v-1.497h-.329v-.348h.329v-.639h.422v.639h.662v.348h-.662Z" fill="#273240"/><path fill-rule="evenodd" clip-rule="evenodd" d="M67.706 132.685h2.427c.894 0 1.392.515 1.392 1.398v2.992c0 .897-.498 1.401-1.392 1.401h-2.427c-.88 0-1.393-.504-1.393-1.401v-2.992c0-.883.513-1.398 1.393-1.398Zm.078 1.349v-.003h.866a.227.227 0 0 1 0 .455h-.866a.226.226 0 0 1 0-.452Zm0 1.761h2.27a.226.226 0 0 0 0-.452h-2.27a.226.226 0 1 0 0 .452Zm0 1.323h2.27a.227.227 0 0 0 .203-.226.228.228 0 0 0-.202-.229h-2.27a.23.23 0 0 0-.217.351c.045.072.13.116.216.104Z" fill="#A6ABC8"/></g><g opacity=".6"><path d="M79.21 117.818v.342h-1.404v1.089h1.14v.343h-1.14v1.455h-.421v-3.229h1.825Zm.92.278a.276.276 0 0 1-.204-.084.276.276 0 0 1-.083-.204c0-.08.028-.148.083-.204a.28.28 0 0 1 .204-.083c.077 0 .142.028.195.083a.279.279 0 0 1 .083.204.276.276 0 0 1-.083.204.256.256 0 0 1-.195.084Zm.204.412v2.539h-.422v-2.539h.422Zm2.149-.046c.309 0 .559.094.75.282.192.186.288.454.288.806v1.497h-.417v-1.436c0-.254-.064-.447-.19-.58-.127-.135-.3-.203-.52-.203-.222 0-.4.069-.532.208-.13.139-.195.341-.195.607v1.404h-.421v-2.539h.421v.361a.845.845 0 0 1 .339-.301c.145-.071.304-.106.477-.106Zm1.762 1.306c0-.259.052-.486.157-.681.105-.198.25-.35.431-.459.186-.108.391-.162.617-.162.222 0 .415.048.579.144a.959.959 0 0 1 .366.361v-.463h.426v2.539h-.426v-.473a1.002 1.002 0 0 1-.376.371 1.115 1.115 0 0 1-.574.144 1.153 1.153 0 0 1-1.042-.635 1.456 1.456 0 0 1-.158-.686Zm2.15.005c0-.192-.039-.358-.116-.501a.797.797 0 0 0-.315-.324.829.829 0 0 0-.431-.116.815.815 0 0 0-.741.436 1.031 1.031 0 0 0-.116.5c0 .195.038.365.116.51.077.142.18.252.31.329.13.074.273.111.431.111a.854.854 0 0 0 .43-.111.83.83 0 0 0 .316-.329 1.06 1.06 0 0 0 .116-.505Zm2.569-1.311c.309 0 .559.094.75.282.192.186.288.454.288.806v1.497h-.417v-1.436c0-.254-.064-.447-.19-.58-.127-.135-.3-.203-.52-.203-.222 0-.4.069-.532.208-.13.139-.195.341-.195.607v1.404h-.421v-2.539h.421v.361a.845.845 0 0 1 .339-.301c.145-.071.304-.106.477-.106Zm1.762 1.311c0-.263.052-.491.157-.686.105-.198.25-.35.436-.459.188-.108.403-.162.644-.162.312 0 .568.076.77.227.203.152.337.362.402.63h-.454a.65.65 0 0 0-.255-.366.773.773 0 0 0-.463-.134.743.743 0 0 0-.584.25c-.148.164-.222.397-.222.7 0 .306.074.542.222.709.148.167.343.25.584.25.185 0 .34-.043.463-.13a.656.656 0 0 0 .255-.37h.454a1.13 1.13 0 0 1-.407.625c-.204.154-.46.232-.765.232-.241 0-.456-.054-.644-.162a1.139 1.139 0 0 1-.436-.459 1.463 1.463 0 0 1-.157-.695Zm3.383-1.677a.276.276 0 0 1-.204-.084.276.276 0 0 1-.084-.204c0-.08.028-.148.084-.204a.28.28 0 0 1 .204-.083c.077 0 .142.028.194.083a.279.279 0 0 1 .084.204.276.276 0 0 1-.084.204.256.256 0 0 1-.194.084Zm.204.412v2.539h-.422v-2.539h.421Zm.754 1.26c0-.259.052-.486.157-.681a1.15 1.15 0 0 1 .431-.459c.185-.108.39-.162.616-.162.223 0 .416.048.58.144a.959.959 0 0 1 .365.361v-.463h.427v2.539h-.427v-.473a1.002 1.002 0 0 1-.375.371 1.115 1.115 0 0 1-.574.144 1.153 1.153 0 0 1-1.043-.635 1.458 1.458 0 0 1-.157-.686Zm2.15.005c0-.192-.04-.358-.116-.501a.796.796 0 0 0-.315-.324.83.83 0 0 0-.431-.116.815.815 0 0 0-.741.436 1.032 1.032 0 0 0-.117.5c0 .195.04.365.116.51a.84.84 0 0 0 .31.329c.13.074.274.111.432.111a.855.855 0 0 0 .43-.111.828.828 0 0 0 .316-.329 1.06 1.06 0 0 0 .115-.505Zm1.753-2.155v3.429h-.422v-3.429h.422Zm4.328.2v.342h-.881v2.887h-.421v-2.887h-.885v-.342h2.187Zm1.133 1.102a.81.81 0 0 1 .315-.338.999.999 0 0 1 .505-.12v.435h-.111c-.472 0-.709.257-.709.769v1.381h-.421v-2.539h.421v.412Zm1.343.848c0-.259.052-.486.157-.681a1.15 1.15 0 0 1 .431-.459c.185-.108.391-.162.616-.162.223 0 .416.048.579.144a.965.965 0 0 1 .367.361v-.463h.426v2.539h-.426v-.473a1.007 1.007 0 0 1-.376.371 1.112 1.112 0 0 1-.574.144 1.152 1.152 0 0 1-1.043-.635 1.457 1.457 0 0 1-.157-.686Zm2.15.005c0-.192-.039-.358-.116-.501a.806.806 0 0 0-.315-.324.831.831 0 0 0-.431-.116.82.82 0 0 0-.742.436 1.034 1.034 0 0 0-.115.5c0 .195.038.365.115.51a.844.844 0 0 0 .311.329c.13.074.273.111.431.111a.857.857 0 0 0 .431-.111.84.84 0 0 0 .315-.329c.077-.145.116-.314.116-.505Zm1.174 0c0-.263.052-.491.157-.686.105-.198.251-.35.436-.459a1.27 1.27 0 0 1 .644-.162c.312 0 .568.076.769.227.204.152.338.362.403.63h-.454a.648.648 0 0 0-.255-.366.771.771 0 0 0-.463-.134.743.743 0 0 0-.584.25c-.148.164-.222.397-.222.7 0 .306.074.542.222.709.148.167.343.25.584.25.185 0 .34-.043.463-.13a.653.653 0 0 0 .255-.37h.454a1.13 1.13 0 0 1-.408.625c-.203.154-.458.232-.764.232a1.27 1.27 0 0 1-.644-.162 1.142 1.142 0 0 1-.436-.459 1.463 1.463 0 0 1-.157-.695Zm4.583 1.274-.997-1.121v1.121h-.421v-3.429h.421v2.016l.978-1.126h.588l-1.195 1.265 1.2 1.274h-.574Zm1.377-2.951a.278.278 0 0 1-.204-.084.278.278 0 0 1-.083-.204.28.28 0 0 1 .083-.204.28.28 0 0 1 .204-.083.26.26 0 0 1 .195.083.28.28 0 0 1 .083.204.278.278 0 0 1-.083.204.258.258 0 0 1-.195.084Zm.204.412v2.539h-.422v-2.539h.422Zm2.149-.046c.309 0 .559.094.75.282.192.186.288.454.288.806v1.497h-.417v-1.436c0-.254-.064-.447-.19-.58-.127-.135-.3-.203-.519-.203-.223 0-.4.069-.533.208-.13.139-.195.341-.195.607v1.404h-.421v-2.539h.421v.361a.845.845 0 0 1 .339-.301 1.07 1.07 0 0 1 .477-.106Zm2.967.004c.219 0 .41.048.574.144.167.096.29.216.371.361v-.463h.426v2.595c0 .231-.049.437-.148.616a1.053 1.053 0 0 1-.426.426 1.292 1.292 0 0 1-.64.153c-.333 0-.611-.079-.834-.236a.927.927 0 0 1-.394-.644h.417a.652.652 0 0 0 .288.37.925.925 0 0 0 .523.144c.232 0 .42-.073.565-.218.149-.145.223-.349.223-.611v-.533a1.012 1.012 0 0 1-.371.37 1.088 1.088 0 0 1-.574.149 1.18 1.18 0 0 1-.617-.167 1.169 1.169 0 0 1-.431-.468 1.457 1.457 0 0 1-.157-.686c0-.259.052-.486.157-.681a1.15 1.15 0 0 1 .431-.459c.186-.108.391-.162.617-.162Zm.945 1.307c0-.192-.039-.358-.116-.501a.794.794 0 0 0-.315-.324.829.829 0 0 0-.431-.116.81.81 0 0 0-.741.436 1.023 1.023 0 0 0-.116.5c0 .195.038.365.116.51.077.142.18.252.31.329.13.074.273.111.431.111a.826.826 0 0 0 .746-.44c.077-.145.116-.314.116-.505Z" fill="#273240"/><path fill-rule="evenodd" clip-rule="evenodd" d="M69.534 119.142h.801a.22.22 0 0 0 .217-.222.218.218 0 0 0-.217-.222h-.801a.218.218 0 0 0-.217.222.22.22 0 0 0 .217.222Zm1.753-1.537c.177 0 .292.062.408.198.116.136.136.331.11.508l-.275 1.939a.743.743 0 0 1-.732.647h-3.157a.744.744 0 0 1-.735-.691l-.266-3.222-.437-.076a.223.223 0 0 1 .075-.438l.69.107c.099.018.171.1.18.2l.055.662a.178.178 0 0 0 .176.166h3.908Zm-3.692 3.759a.444.444 0 0 0-.44.449c0 .246.197.447.44.447.24 0 .437-.201.437-.447a.444.444 0 0 0-.437-.449Zm3.255 0a.444.444 0 0 0-.44.449c0 .246.197.447.44.447.24 0 .437-.201.437-.447a.444.444 0 0 0-.437-.449Z" fill="#A6ABC8"/></g><path d="M78.427 101.61c.343 0 .643.066.899.199.26.13.459.318.598.566.142.244.213.529.213.857 0 .327-.071.611-.213.852a1.385 1.385 0 0 1-.598.556c-.256.127-.556.19-.899.19h-1.052v-3.22h1.052Zm0 2.789c.377 0 .666-.102.866-.305.201-.204.302-.492.302-.862 0-.374-.1-.666-.302-.876-.2-.21-.49-.315-.866-.315h-.524v2.358h.524Zm2.25-.857c0-.256.053-.483.158-.681a1.175 1.175 0 0 1 1.047-.625c.2 0 .375.04.523.12.152.077.272.175.362.292v-.371h.533v2.553h-.533v-.38a1.04 1.04 0 0 1-.366.301 1.12 1.12 0 0 1-.528.121c-.22 0-.42-.056-.603-.167a1.24 1.24 0 0 1-.435-.472 1.487 1.487 0 0 1-.158-.691Zm2.09.009a.905.905 0 0 0-.111-.458.748.748 0 0 0-1.043-.297.746.746 0 0 0-.287.292.915.915 0 0 0-.107.454c0 .176.036.331.107.463.074.133.17.235.287.306a.762.762 0 0 0 .76 0 .751.751 0 0 0 .283-.296.939.939 0 0 0 .11-.464Zm2.346 1.321c-.2 0-.381-.036-.542-.107a.983.983 0 0 1-.375-.296.751.751 0 0 1-.148-.422h.546c.01.108.06.199.153.274a.582.582 0 0 0 .357.106.603.603 0 0 0 .343-.083c.083-.059.125-.133.125-.223 0-.095-.046-.166-.14-.213a2.53 2.53 0 0 0-.43-.153 3.96 3.96 0 0 1-.468-.153.835.835 0 0 1-.315-.227.601.601 0 0 1-.13-.403c0-.136.04-.259.12-.37a.793.793 0 0 1 .344-.269c.151-.065.324-.097.519-.097.29 0 .523.074.7.222.178.145.274.344.286.598h-.528a.376.376 0 0 0-.139-.274.52.52 0 0 0-.338-.102.553.553 0 0 0-.32.079.245.245 0 0 0-.11.209c0 .068.024.125.073.171.05.046.11.083.18.111.072.025.177.057.316.098.185.049.337.1.454.152.12.05.224.124.31.223.087.099.132.23.135.394a.66.66 0 0 1-.12.389.8.8 0 0 1-.344.269 1.267 1.267 0 0 1-.514.097Zm3.062-2.636c.195 0 .368.041.52.125a.873.873 0 0 1 .36.37c.09.164.135.362.135.593v1.506h-.524v-1.427c0-.228-.057-.403-.171-.523a.605.605 0 0 0-.468-.186.62.62 0 0 0-.473.186c-.114.12-.171.295-.171.523v1.427h-.528v-3.428h.528v1.172a.882.882 0 0 1 .338-.25 1.15 1.15 0 0 1 .454-.088Zm2.41.421a.989.989 0 0 1 .366-.301c.157-.08.332-.12.524-.12a1.135 1.135 0 0 1 1.042.625c.105.198.157.425.157.681 0 .257-.052.487-.157.691-.105.2-.25.358-.436.472a1.144 1.144 0 0 1-.606.167c-.198 0-.374-.039-.529-.116a1.016 1.016 0 0 1-.361-.296v.37h-.528v-3.428h.528v1.255Zm1.552.885a.884.884 0 0 0-.111-.454.707.707 0 0 0-.287-.292.762.762 0 0 0-1.047.297.937.937 0 0 0-.107.458c0 .176.035.331.106.464a.762.762 0 0 0 1.047.296.763.763 0 0 0 .288-.306.931.931 0 0 0 .111-.463Zm2.36 1.33c-.24 0-.458-.054-.653-.162a1.2 1.2 0 0 1-.459-.464 1.407 1.407 0 0 1-.166-.695c0-.259.057-.489.17-.69.115-.201.271-.355.469-.463.197-.108.418-.162.662-.162.244 0 .465.054.663.162.198.108.354.262.468.463.114.201.171.431.171.69 0 .26-.058.49-.176.691a1.229 1.229 0 0 1-.481.468c-.201.108-.424.162-.668.162Zm0-.459a.771.771 0 0 0 .38-.097.736.736 0 0 0 .292-.292.94.94 0 0 0 .111-.473.946.946 0 0 0-.106-.468.712.712 0 0 0-.283-.291.772.772 0 0 0-.38-.098.772.772 0 0 0-.38.098.692.692 0 0 0-.273.291.981.981 0 0 0-.102.468c0 .275.07.488.208.64.142.148.32.222.533.222Zm1.865-.871c0-.256.052-.483.157-.681a1.175 1.175 0 0 1 1.047-.625c.201 0 .376.04.524.12.151.077.272.175.361.292v-.371h.533v2.553h-.533v-.38a1.12 1.12 0 0 1-.894.422c-.22 0-.42-.056-.602-.167a1.24 1.24 0 0 1-.436-.472 1.486 1.486 0 0 1-.157-.691Zm2.09.009a.905.905 0 0 0-.112-.458.749.749 0 0 0-1.043-.297.745.745 0 0 0-.287.292.915.915 0 0 0-.106.454c0 .176.035.331.106.463.074.133.17.235.287.306a.762.762 0 0 0 .76 0 .752.752 0 0 0 .283-.296.939.939 0 0 0 .111-.464Zm1.947-.903a.81.81 0 0 1 .306-.301.91.91 0 0 1 .459-.111v.546h-.135c-.207 0-.364.053-.472.158-.105.105-.158.287-.158.547v1.343h-.528v-2.553h.528v.371Zm1.267.894c0-.256.053-.483.158-.681a1.174 1.174 0 0 1 1.542-.514.993.993 0 0 1 .39.287v-1.232h.533v3.428h-.533v-.384a.987.987 0 0 1-.362.305 1.091 1.091 0 0 1-.523.121c-.223 0-.427-.056-.612-.167a1.24 1.24 0 0 1-.435-.472 1.487 1.487 0 0 1-.158-.691Zm2.09.009a.896.896 0 0 0-.112-.458.749.749 0 0 0-1.042-.297.747.747 0 0 0-.287.292.915.915 0 0 0-.107.454c0 .176.036.331.107.463.074.133.17.235.287.306a.76.76 0 0 0 .76 0 .753.753 0 0 0 .282-.296.93.93 0 0 0 .112-.464Z" fill="#002D54"/><path fill-rule="evenodd" clip-rule="evenodd" d="M67.567 100.251h2.704c.985 0 1.541.559 1.544 1.544v2.704c0 .985-.559 1.544-1.544 1.544h-2.704c-.985 0-1.544-.559-1.544-1.544v-2.704c0-.985.559-1.544 1.544-1.544Zm1.366 4.593a.24.24 0 0 0 .24-.217v-2.951a.236.236 0 0 0-.11-.229.244.244 0 0 0-.257 0 .244.244 0 0 0-.113.229v2.951a.244.244 0 0 0 .24.217Zm1.333 0a.244.244 0 0 0 .24-.217v-.95a.244.244 0 0 0-.37-.229.233.233 0 0 0-.11.229v.95a.24.24 0 0 0 .24.217Zm-2.442-.217a.24.24 0 0 1-.24.217.24.24 0 0 1-.24-.217v-2.001a.244.244 0 0 1 .113-.229.24.24 0 0 1 .254 0 .244.244 0 0 1 .113.229v2.001Z" fill="#002D54"/><path opacity=".5" d="M68.774 87.22v2.938h-.386v-2.191l-.977 2.191h-.272l-.981-2.196v2.196h-.387V87.22h.417l1.087 2.43 1.087-2.43h.412Zm1.428.292v.99h1.079v.318h-1.079v1.02h1.206v.318h-1.592v-2.964h1.592v.318h-1.206Zm4.505 2.646h-.387l-1.554-2.357v2.357h-.387v-2.964h.387l1.554 2.353v-2.353h.387v2.964Zm1.423-2.96v1.873c0 .263.064.459.19.586.131.127.311.191.54.191.227 0 .404-.064.531-.191.13-.127.196-.323.196-.586v-1.873h.386v1.869c0 .246-.05.454-.148.624a.934.934 0 0 1-.404.374 1.264 1.264 0 0 1-.565.123c-.21 0-.4-.041-.569-.123a.94.94 0 0 1-.4-.374 1.25 1.25 0 0 1-.144-.624v-1.87h.387Z" fill="#082431"/><path d="M67.998 54.157v1.665H66v-1.665h1.998ZM66 56.698h1.998v2.365c0 .491.12.869.362 1.133.241.265.596.398 1.063.398.467 0 .826-.133 1.075-.398.25-.264.374-.642.374-1.133v-2.365h1.997v2.354c0 .732-.155 1.35-.467 1.857a2.984 2.984 0 0 1-1.262 1.145 3.913 3.913 0 0 1-1.752.386c-.647 0-1.227-.125-1.74-.374a2.887 2.887 0 0 1-1.204-1.145c-.296-.514-.444-1.137-.444-1.87v-2.353ZM72.87 55.822v-1.665h-1.998v1.665h1.997Z" fill="#002D54"/><path fill-rule="evenodd" clip-rule="evenodd" d="M75.803 55.839H77.345c.538 0 1.491.043 1.927.315.437.273.78.662 1.028 1.169.258.506.386 1.094.386 1.764 0 .67-.129 1.261-.386 1.775-.249.507-.591.9-1.028 1.18a2.699 2.699 0 0 1-1.46.41c-.452 0-.853-.094-1.203-.281a2.207 2.207 0 0 1-.806-.724v1.58h-1.998v-7.188h1.998Zm2.85 3.248c0-.499-.14-.888-.42-1.169a1.342 1.342 0 0 0-1.017-.432c-.397 0-.736.144-1.016.432-.273.289-.409.682-.409 1.18 0 .499.136.892.409 1.18.28.288.62.433 1.016.433.398 0 .736-.145 1.017-.433.28-.296.42-.693.42-1.191Z" fill="#002D54"/><path d="M73.805 63.951h1.998v1.514h-1.998v-1.514ZM83.264 53.713v8.645h-1.997v-8.645h1.998ZM85.25 55.161c-.35 0-.639-.101-.865-.303a1.03 1.03 0 0 1-.327-.771c0-.312.11-.57.327-.772.226-.21.514-.315.865-.315.342 0 .623.105.84.315a.99.99 0 0 1 .34.772c0 .303-.113.56-.34.77-.217.203-.498.304-.84.304ZM86.243 62.358h-1.998v-6.52h1.998v6.52ZM89.42 57.498v4.86h-1.998v-4.86h-.725v-1.66h.725v-.186c0-.802.23-1.41.689-1.822.46-.421 1.133-.631 2.021-.631.148 0 .257.004.327.011v1.694c-.381-.023-.65.031-.806.164-.156.132-.234.37-.234.713v.058h1.862V54.25h1.998v1.589h1.308v1.659H93.28v2.617c0 .194.047.335.14.42.094.086.25.129.467.129h.713v1.694h-1.016c-.725 0-1.29-.175-1.694-.526-.405-.358-.608-.938-.608-1.74v-2.594H89.42ZM95.394 55.822H97v1.655h-1.606v-1.655ZM95.394 60.69H97v1.655h-1.606V60.69Z" fill="#002D54"/><path stroke="#C8CBD9" stroke-width=".193" d="M50 70.614h556"/><path fill="#F1F2F7" d="M65 115h3v2h-3zM67 121h5v2h-5z"/></g></g></g><defs><filter id="a" x="0" y="0" width="656" height="248" filterUnits="userSpaceOnUse" color-interpolation-filters="sRGB"><feFlood flood-opacity="0" result="BackgroundImageFix"/><feColorMatrix in="SourceAlpha" values="0 0 0 0 0 0 0 0 0 0 0 0 0 0 0 0 0 0 127 0" result="hardAlpha"/><feOffset dy="4"/><feGaussianBlur stdDeviation="25"/><feComposite in2="hardAlpha" operator="out"/><feColorMatrix values="0 0 0 0 0 0 0 0 0 0 0 0 0 0 0 0 0 0 0.1 0"/><feBlend in2="BackgroundImageFix" result="effect1_dropShadow_306_2403"/><feBlend in="SourceGraphic" in2="effect1_dropShadow_306_2403" result="shape"/></filter><filter id="c" x="0" y="0" width="656" height="248" filterUnits="userSpaceOnUse" color-interpolation-filters="sRGB"><feFlood flood-opacity="0" result="BackgroundImageFix"/><feColorMatrix in="SourceAlpha" values="0 0 0 0 0 0 0 0 0 0 0 0 0 0 0 0 0 0 127 0" result="hardAlpha"/><feOffset dy="4"/><feGaussianBlur stdDeviation="25"/><feComposite in2="hardAlpha" operator="out"/><feColorMatrix values="0 0 0 0 0 0 0 0 0 0 0 0 0 0 0 0 0 0 0.1 0"/><feBlend in2="BackgroundImageFix" result="effect1_dropShadow_306_2403"/><feBlend in="SourceGraphic" in2="effect1_dropShadow_306_2403" result="shape"/></filter><filter id="e" x="548.083" y="110.482" width="42.858" height="13.514" filterUnits="userSpaceOnUse" color-interpolation-filters="sRGB"><feFlood flood-opacity="0" result="BackgroundImageFix"/><feColorMatrix in="SourceAlpha" values="0 0 0 0 0 0 0 0 0 0 0 0 0 0 0 0 0 0 127 0" result="hardAlpha"/><feOffset dy=".772"/><feGaussianBlur stdDeviation=".193"/><feColorMatrix values="0 0 0 0 0.25098 0 0 0 0 0.282353 0 0 0 0 0.321569 0 0 0 0.05 0"/><feBlend in2="BackgroundImageFix" result="effect1_dropShadow_306_2403"/><feBlend in="SourceGraphic" in2="effect1_dropShadow_306_2403" result="shape"/></filter><filter id="f" x="377.422" y="110.482" width="42.858" height="13.514" filterUnits="userSpaceOnUse" color-interpolation-filters="sRGB"><feFlood flood-opacity="0" result="BackgroundImageFix"/><feColorMatrix in="SourceAlpha" values="0 0 0 0 0 0 0 0 0 0 0 0 0 0 0 0 0 0 127 0" result="hardAlpha"/><feOffset dy=".772"/><feGaussianBlur stdDeviation=".193"/><feColorMatrix values="0 0 0 0 0.25098 0 0 0 0 0.282353 0 0 0 0 0.321569 0 0 0 0.05 0"/><feBlend in2="BackgroundImageFix" result="effect1_dropShadow_306_2403"/><feBlend in="SourceGraphic" in2="effect1_dropShadow_306_2403" result="shape"/></filter><filter id="g" x="523.937" y="49.715" width="17.546" height="17.726" filterUnits="userSpaceOnUse" color-interpolation-filters="sRGB"><feFlood flood-opacity="0" result="BackgroundImageFix"/><feColorMatrix in="SourceAlpha" values="0 0 0 0 0 0 0 0 0 0 0 0 0 0 0 0 0 0 127 0" result="hardAlpha"/><feOffset dy=".235"/><feGaussianBlur stdDeviation="1.242"/><feComposite in2="hardAlpha" operator="out"/><feColorMatrix values="0 0 0 0 0 0 0 0 0 0 0 0 0 0 0 0 0 0 0.1 0"/><feBlend in2="BackgroundImageFix" result="effect1_dropShadow_306_2403"/><feBlend in="SourceGraphic" in2="effect1_dropShadow_306_2403" result="shape"/></filter><clipPath id="b"><rect x="50" y="46" width="556" height="148" rx="10" fill="#fff"/></clipPath><clipPath id="d"><path fill="#fff" transform="translate(50 46)" d="M0 0h556v370.667H0z"/></clipPath></defs></svg>