<svg width="352" height="406" fill="none" xmlns="http://www.w3.org/2000/svg"><rect width="352" height="406" rx="20" fill="#002D54"/><g filter="url(#a)"><rect x="32" y="193" width="291" height="183" rx="10" fill="#FFF250"/></g><g filter="url(#b)"><rect x="10" y="213" width="332" height="183" rx="10" fill="#fff"/></g><g filter="url(#c)"><g clip-path="url(#d)"><rect x="29" y="229" width="298" height="152" rx="20" fill="#fff"/><rect x="43.567" y="242.567" width="125.862" height="65.766" rx="10.772" fill="url(#e)" fill-opacity=".2"/><rect x="43.567" y="242.567" width="125.862" height="65.766" rx="10.772" fill="#FAFBFC"/><rect x="43.567" y="242.567" width="125.862" height="65.766" rx="10.772" stroke="url(#f)" stroke-width="1.134"/><path fill-rule="evenodd" clip-rule="evenodd" d="M74.015 255.779c.489.489.489 1.282 0 1.772l-7.516 7.516a1.253 1.253 0 0 1-1.772 0l-4.125-4.125-4.125 4.125a1.253 1.253 0 0 1-1.771-1.772l5.01-5.011a1.253 1.253 0 0 1 1.772 0l4.125 4.125 6.63-6.63a1.253 1.253 0 0 1 1.772 0Z" fill="#37DF34"/><path fill-rule="evenodd" clip-rule="evenodd" d="M68.118 255.727c0-.692.561-1.252 1.253-1.252h3.758c.692 0 1.253.56 1.253 1.252v3.758a1.253 1.253 0 1 1-2.506 0v-2.505h-2.505a1.253 1.253 0 0 1-1.253-1.253Z" fill="#37DF34"/><path d="M87.308 264.315c-.907 0-1.683-.159-2.327-.476-.635-.317-1.147-.73-1.537-1.238a5.195 5.195 0 0 1-.858-1.647 5.942 5.942 0 0 1-.272-1.728v-.299c0-.599.09-1.197.272-1.796a5.06 5.06 0 0 1 .871-1.633c.39-.49.898-.884 1.524-1.184.626-.299 1.374-.449 2.245-.449.89 0 1.651.155 2.286.463a3.747 3.747 0 0 1 1.51 1.293c.372.553.6 1.206.68 1.959h-1.36c-.072-.562-.254-1.025-.544-1.388a2.633 2.633 0 0 0-1.102-.83 3.796 3.796 0 0 0-1.47-.272c-.59 0-1.106.104-1.55.313a2.967 2.967 0 0 0-1.117.857c-.29.363-.512.785-.666 1.266a5.386 5.386 0 0 0-.218 1.564c0 .535.073 1.043.218 1.524.154.481.38.907.68 1.279.308.372.69.667 1.143.885.453.208.984.313 1.592.313.852 0 1.57-.214 2.15-.64.58-.426.934-1.043 1.061-1.85h1.36a4.39 4.39 0 0 1-.693 1.864c-.363.562-.871 1.011-1.524 1.347-.644.335-1.429.503-2.354.503Zm6.312-.245v-7.266h1.034v2.994H94.6c0-1.061.231-1.837.694-2.327.472-.499 1.175-.748 2.109-.748h.245v1.17h-.463c-.725 0-1.283.195-1.673.585-.39.381-.585.934-.585 1.66v3.932H93.62Zm8.59.245c-.635 0-1.184-.109-1.646-.326a3.19 3.19 0 0 1-1.13-.858 3.805 3.805 0 0 1-.653-1.211 4.618 4.618 0 0 1-.204-1.36v-.245c0-.472.068-.93.204-1.374a3.66 3.66 0 0 1 .653-1.198c.29-.363.658-.648 1.103-.857.453-.218.984-.327 1.591-.327.79 0 1.438.173 1.946.517.517.336.898.772 1.143 1.307.254.535.381 1.106.381 1.714v.585h-6.45v-.979h5.498l-.3.53c0-.517-.081-.961-.245-1.333a1.917 1.917 0 0 0-.734-.885c-.327-.208-.74-.313-1.239-.313-.517 0-.947.118-1.292.354-.336.236-.59.558-.762.966-.163.408-.245.88-.245 1.415 0 .517.082.985.245 1.402a2.2 2.2 0 0 0 .789.979c.354.236.803.354 1.347.354.572 0 1.034-.127 1.388-.381.363-.254.581-.549.653-.884h1.225c-.1.499-.3.93-.599 1.292-.299.363-.676.64-1.129.83a3.93 3.93 0 0 1-1.538.286Zm8.277 0a3.52 3.52 0 0 1-1.429-.286 3.49 3.49 0 0 1-1.143-.802 3.892 3.892 0 0 1-.748-1.198 4.106 4.106 0 0 1-.258-1.469v-.245c0-.517.086-1.002.258-1.456.172-.454.413-.853.721-1.197a3.412 3.412 0 0 1 2.558-1.103c.554 0 1.057.118 1.511.354.453.227.825.585 1.115 1.075.291.49.454 1.125.49 1.905l-.544-.871v-4.885h1.306v9.933h-1.034v-3.224h.381c-.036.825-.209 1.496-.517 2.013-.308.508-.698.88-1.17 1.116-.463.227-.962.34-1.497.34Zm.177-1.143c.445 0 .848-.1 1.211-.299.363-.2.653-.485.871-.857.218-.381.326-.826.326-1.334v-.626c0-.499-.113-.92-.34-1.265a2.097 2.097 0 0 0-.884-.803 2.543 2.543 0 0 0-1.198-.286c-.48 0-.907.114-1.279.341a2.366 2.366 0 0 0-.857.952c-.199.408-.299.889-.299 1.442 0 .554.104 1.039.313 1.456.208.408.499.726.871.953.372.217.793.326 1.265.326Zm6.524.898v-7.266h1.306v7.266h-1.306Zm-1.116-6.232v-1.034h2.422v1.034h-2.422Zm1.483-2.204c-.29 0-.508-.077-.653-.231a.851.851 0 0 1-.204-.585c0-.236.068-.431.204-.585.145-.155.363-.232.653-.232.29 0 .504.077.64.232a.82.82 0 0 1 .217.585.82.82 0 0 1-.217.585c-.136.154-.35.231-.64.231Zm6.295 8.518c-.544 0-1.016-.077-1.415-.231a1.806 1.806 0 0 1-.912-.79c-.209-.381-.313-.893-.313-1.537V254.6h1.252v7.157c0 .39.104.694.313.912.218.208.521.313.912.313h1.279v1.17h-1.116Zm-3.892-6.368v-.98h5.008v.98h-5.008Z" fill="#A4B4CB"/><rect x="187.571" y="242.567" width="125.862" height="65.766" rx="10.772" fill="url(#g)" fill-opacity=".2"/><rect x="187.571" y="242.567" width="125.862" height="65.766" rx="10.772" fill="#FAFBFC"/><rect x="187.571" y="242.567" width="125.862" height="65.766" rx="10.772" stroke="url(#h)" stroke-width="1.134"/><path opacity=".8" d="M234.887 297v-14.695h2.49l6.817 10.358v-10.358h2.49V297h-2.49l-6.817-10.358V297h-2.49Zm19.936.306c-1.041 0-1.96-.221-2.756-.663a4.83 4.83 0 0 1-1.867-1.868c-.442-.796-.663-1.714-.663-2.755v-4.735c0-1.041.221-1.96.663-2.756a4.762 4.762 0 0 1 1.867-1.857c.796-.449 1.715-.673 2.756-.673 1.041 0 1.956.224 2.745.673a4.762 4.762 0 0 1 1.867 1.857c.449.796.674 1.715.674 2.756v4.735c0 1.041-.225 1.959-.674 2.755a4.83 4.83 0 0 1-1.867 1.868c-.789.442-1.704.663-2.745.663Zm0-2.337c.517 0 .986-.122 1.408-.367a2.818 2.818 0 0 0 1-1c.245-.422.368-.892.368-1.409v-5.092c0-.524-.123-.993-.368-1.408a2.71 2.71 0 0 0-1-1 2.693 2.693 0 0 0-1.408-.378 2.69 2.69 0 0 0-1.408.378 2.713 2.713 0 0 0-1.001 1 2.725 2.725 0 0 0-.367 1.408v5.092c0 .517.123.987.367 1.409a2.82 2.82 0 0 0 1.001 1 2.75 2.75 0 0 0 1.408.367Z" fill="#050624"/><path fill="#36374F" d="M232 286.994h16.142v2.483H232zM232 290.719h16.142v2.483H232z"/><path fill-rule="evenodd" clip-rule="evenodd" d="M198.709 264.131a1.254 1.254 0 0 1 0-1.772l7.516-7.516a1.254 1.254 0 0 1 1.772 0l4.125 4.125 4.125-4.125a1.252 1.252 0 1 1 1.771 1.772l-5.01 5.011a1.254 1.254 0 0 1-1.772 0l-4.125-4.125-6.63 6.63a1.254 1.254 0 0 1-1.772 0Z" fill="#DF3434"/><path fill-rule="evenodd" clip-rule="evenodd" d="M204.606 264.183c0 .692-.561 1.252-1.253 1.252h-3.758c-.692 0-1.252-.56-1.252-1.252v-3.758a1.252 1.252 0 1 1 2.505 0v2.505h2.505c.692 0 1.253.561 1.253 1.253Z" fill="#DF3434"/><path d="M227.026 262.938v-9.933h1.333v9.933h-1.333Zm4.061 0v-7.266h1.034v3.115h-.164c0-.716.096-1.319.286-1.809.2-.499.499-.876.898-1.13.399-.263.903-.394 1.511-.394h.054c.916 0 1.592.286 2.027.857.445.572.667 1.397.667 2.476v4.151h-1.306v-4.423c0-.562-.159-1.011-.476-1.347-.318-.344-.753-.517-1.307-.517-.571 0-1.034.177-1.387.531-.354.354-.531.825-.531 1.415v4.341h-1.306Zm11.533.081c-.544 0-1.016-.077-1.415-.231a1.793 1.793 0 0 1-.911-.789c-.209-.381-.313-.894-.313-1.538v-6.994h1.251v7.157c0 .39.105.694.313.912.218.209.522.313.912.313h1.279v1.17h-1.116Zm-3.891-6.368v-.979h5.007v.979h-5.007Zm9.89 6.531c-.635 0-1.184-.108-1.646-.326a3.207 3.207 0 0 1-1.13-.857 3.83 3.83 0 0 1-.653-1.211 4.628 4.628 0 0 1-.204-1.361v-.245c0-.472.068-.93.204-1.374.145-.445.363-.844.653-1.198a3.06 3.06 0 0 1 1.103-.857c.453-.218.984-.326 1.591-.326.79 0 1.438.172 1.946.517.517.335.898.771 1.143 1.306.254.535.381 1.107.381 1.714v.585h-6.449v-.979h5.497l-.3.53c0-.517-.081-.961-.245-1.333a1.909 1.909 0 0 0-.734-.884c-.327-.209-.74-.313-1.239-.313-.517 0-.947.118-1.292.353-.336.236-.59.558-.762.966-.163.409-.245.88-.245 1.416 0 .517.082.984.245 1.401.172.408.435.735.789.98.354.236.803.353 1.347.353.572 0 1.034-.127 1.388-.381.363-.254.581-.548.653-.884h1.225c-.1.499-.3.93-.599 1.293a2.89 2.89 0 0 1-1.129.83c-.454.19-.966.285-1.538.285Zm5.243-.244v-7.266h1.034v2.993h-.054c0-1.061.231-1.837.693-2.327.472-.499 1.175-.748 2.109-.748h.245v1.17h-.462c-.726 0-1.284.195-1.674.585-.39.381-.585.934-.585 1.66v3.933h-1.306Zm8.59.244c-.635 0-1.184-.108-1.647-.326a3.203 3.203 0 0 1-1.129-.857 3.83 3.83 0 0 1-.653-1.211 4.628 4.628 0 0 1-.204-1.361v-.245c0-.472.068-.93.204-1.374.145-.445.363-.844.653-1.198.29-.362.658-.648 1.102-.857.454-.218.984-.326 1.592-.326.789 0 1.438.172 1.946.517.517.335.898.771 1.143 1.306.254.535.381 1.107.381 1.714v.585h-6.45v-.979h5.497l-.299.53c0-.517-.082-.961-.245-1.333a1.905 1.905 0 0 0-.735-.884c-.326-.209-.739-.313-1.238-.313-.517 0-.948.118-1.293.353a2.202 2.202 0 0 0-.762.966c-.163.409-.244.88-.244 1.416 0 .517.081.984.244 1.401.173.408.436.735.79.98.353.236.802.353 1.347.353.571 0 1.034-.127 1.388-.381.362-.254.58-.548.653-.884h1.224c-.1.499-.299.93-.598 1.293-.3.363-.676.639-1.13.83-.453.19-.966.285-1.537.285Zm7.624-.027c-.953 0-1.692-.204-2.218-.612-.517-.408-.785-.966-.803-1.674h1.224c.019.281.159.549.422.803.272.245.731.367 1.375.367.58 0 1.025-.113 1.333-.34.308-.236.463-.521.463-.857 0-.299-.114-.531-.341-.694-.226-.172-.594-.286-1.102-.34l-.789-.082c-.689-.072-1.252-.276-1.687-.612-.435-.345-.653-.825-.653-1.442 0-.463.118-.857.354-1.184a2.17 2.17 0 0 1 .979-.762c.418-.181.898-.272 1.443-.272.816 0 1.478.181 1.986.544.508.363.771.903.789 1.619h-1.224c-.009-.29-.145-.535-.408-.734-.254-.209-.635-.313-1.143-.313s-.894.104-1.157.313a.966.966 0 0 0-.395.789c0 .272.091.49.273.653.19.163.498.267.925.313l.789.081c.78.082 1.406.3 1.878.654.471.344.707.834.707 1.469 0 .454-.131.857-.394 1.211-.254.345-.608.617-1.062.816-.453.191-.975.286-1.564.286Zm7.744-.136c-.545 0-1.016-.077-1.416-.231a1.797 1.797 0 0 1-.911-.789c-.209-.381-.313-.894-.313-1.538v-6.994h1.252v7.157c0 .39.104.694.313.912.217.209.521.313.911.313h1.279v1.17h-1.115Zm-3.892-6.368v-.979h5.007v.979h-5.007Z" fill="#A4B4CB"/><rect x="44" y="317" width="269" height="56" rx="11.255" fill="#FAFBFC"/><g clip-path="url(#i)"><path fill-rule="evenodd" clip-rule="evenodd" d="M115.861 357.643C99.935 372.721 90 394.063 90 417.726c0 6.669.79 13.153 2.279 19.365l31.278-6.64a50.879 50.879 0 0 1-1.608-12.725c0-14.84 6.367-28.194 16.518-37.478l-22.606-22.605Z" fill="#D22CD6"/><path fill-rule="evenodd" clip-rule="evenodd" d="m180.681 335.378-2.277 31.885a51.423 51.423 0 0 0-5.678-.314 50.555 50.555 0 0 0-30.283 10.015l-22.74-22.74C134.061 342.223 152.55 335 172.726 335c2.684 0 5.337.128 7.955.378Z" fill="#9614FC"/><path fill-rule="evenodd" clip-rule="evenodd" d="m183.492 368.091 2.29-32.068c28.55 4.526 52.238 23.659 63.168 49.501l-31.22 8.664c-6.883-13.133-19.345-22.881-34.238-26.097Z" fill="#1192EF"/><path d="M147.774 357.691v-6.225l.401.31h-1.88v-.748h2.355v6.663h-.876Zm3.833 0v-6.225l.402.31h-1.881v-.748h2.355v6.663h-.876Zm4.262 0 2.52-6.663h.693l-2.519 6.663h-.694Zm-.493-3.085c-.347 0-.63-.079-.849-.237a1.416 1.416 0 0 1-.474-.63 2.404 2.404 0 0 1-.146-.849v-.237c0-.329.051-.621.155-.877.103-.261.265-.465.484-.611.219-.153.496-.229.83-.229.341 0 .618.076.831.229.219.146.38.35.484.611.103.256.155.548.155.877v.237a2.3 2.3 0 0 1-.155.849 1.365 1.365 0 0 1-.466.63c-.213.158-.496.237-.849.237Zm0-.602c.28 0 .487-.101.621-.302.14-.207.21-.514.21-.922 0-.432-.07-.745-.21-.94-.14-.201-.347-.301-.621-.301s-.48.1-.62.301c-.14.195-.21.505-.21.931 0 .408.067.715.2.922.14.207.35.311.63.311Zm4.163 3.779c-.347 0-.63-.079-.849-.238a1.414 1.414 0 0 1-.475-.63 2.417 2.417 0 0 1-.146-.848v-.238c0-.328.052-.621.155-.876.104-.262.265-.466.484-.612.219-.152.496-.228.831-.228.341 0 .618.076.831.228.219.146.38.35.483.612.104.255.156.548.156.876v.238c0 .304-.052.587-.156.848a1.347 1.347 0 0 1-.465.63c-.213.159-.496.238-.849.238Zm0-.603c.28 0 .487-.1.621-.301.14-.207.21-.514.21-.922 0-.432-.07-.745-.21-.94-.14-.201-.347-.301-.621-.301s-.481.1-.621.301c-.14.195-.21.505-.21.931 0 .408.067.715.201.922.14.207.35.31.63.31ZM205.968 367.961v-6.226l.401.311h-1.88v-.749h2.355v6.664h-.876Zm2.664 0v-1.095c0-.268.037-.496.11-.685.079-.189.213-.359.402-.511a3.31 3.31 0 0 1 .766-.457l1.251-.575c.304-.14.545-.319.721-.538.177-.226.265-.515.265-.868 0-.426-.119-.757-.356-.995-.237-.237-.572-.356-1.004-.356-.426 0-.761.119-1.004.356-.244.238-.366.569-.366.995h-.858c0-.383.08-.736.238-1.058.164-.323.411-.579.739-.767.329-.195.746-.292 1.251-.292.505 0 .919.097 1.241.292.329.188.572.438.73.748.165.311.247.648.247 1.014v.127c0 .481-.14.886-.42 1.214-.274.329-.645.6-1.114.813l-1.25.575c-.28.128-.469.256-.566.383-.098.128-.146.299-.146.512v.839l-.238-.42h3.816v.749h-4.455Zm7.241 0 2.519-6.664h.694l-2.52 6.664h-.693Zm-.493-3.085c-.347 0-.63-.08-.849-.238a1.414 1.414 0 0 1-.475-.63 2.418 2.418 0 0 1-.146-.849v-.237c0-.329.052-.621.155-.876.104-.262.265-.466.484-.612.219-.152.496-.228.831-.228.341 0 .617.076.83.228.22.146.381.35.484.612.104.255.155.547.155.876v.237c0 .305-.051.588-.155.849a1.347 1.347 0 0 1-.465.63c-.213.158-.496.238-.849.238Zm0-.603c.28 0 .487-.1.621-.301.14-.207.209-.514.209-.922 0-.432-.069-.746-.209-.94-.14-.201-.347-.302-.621-.302s-.481.101-.621.302c-.14.194-.21.505-.21.931 0 .407.067.715.201.922.14.207.35.31.63.31Zm4.162 3.779c-.347 0-.63-.079-.849-.237a1.405 1.405 0 0 1-.474-.63 2.404 2.404 0 0 1-.146-.849v-.237c0-.329.051-.621.155-.877.103-.261.265-.465.484-.611.219-.152.496-.228.83-.228.341 0 .618.076.831.228.219.146.38.35.484.611.103.256.155.548.155.877v.237a2.3 2.3 0 0 1-.155.849 1.355 1.355 0 0 1-.466.63c-.213.158-.496.237-.849.237Zm0-.602c.28 0 .487-.101.621-.301.14-.207.21-.515.21-.922 0-.433-.07-.746-.21-.941-.14-.201-.347-.301-.621-.301s-.48.1-.62.301c-.14.195-.21.505-.21.931 0 .408.067.715.2.922.14.207.35.311.63.311Z" fill="#fff"/></g><path opacity=".8" d="M68.481 295.889v-14.696h2.49l6.817 10.359v-10.359h2.49v14.696h-2.49l-6.817-10.358v10.358h-2.49Zm14.242-.021v-2.143l6.286-5.602c.49-.436.83-.847 1.02-1.235.191-.388.286-.762.286-1.123 0-.49-.105-.925-.316-1.306a2.367 2.367 0 0 0-.878-.918c-.367-.225-.792-.337-1.275-.337-.51 0-.963.119-1.358.357-.387.231-.69.541-.908.929-.217.387-.32.806-.306 1.255h-2.53c0-.98.217-1.834.652-2.562a4.546 4.546 0 0 1 1.817-1.694c.776-.401 1.67-.602 2.684-.602.939 0 1.782.211 2.53.633a4.552 4.552 0 0 1 1.766 1.735c.429.735.643 1.582.643 2.541 0 .701-.095 1.289-.286 1.765a4.14 4.14 0 0 1-.857 1.317c-.374.401-.84.847-1.398 1.337l-4.46 3.949-.224-.612h7.225v2.316H82.723Zm13.311.021 5.062-12.369h-6.419v-2.327h9.052v2.327l-5.041 12.369h-2.654Zm9.595 2.602.143-1.061c.313.027.561-.028.745-.164a.93.93 0 0 0 .367-.561c.068-.238.085-.51.051-.816h-1.306v-2.623h2.521v2.725c0 .891-.211 1.564-.633 2.02-.422.456-1.051.616-1.888.48Zm7.148-2.602 5.062-12.369h-6.419v-2.327h9.051v2.327l-5.041 12.369h-2.653Zm14.944.306c-.973 0-1.837-.197-2.592-.592a4.458 4.458 0 0 1-1.776-1.643c-.428-.701-.642-1.504-.642-2.408 0-.81.187-1.562.561-2.256a4.195 4.195 0 0 1 1.643-1.663l-.051.786a4.823 4.823 0 0 1-1.317-1.48 3.918 3.918 0 0 1-.459-1.898c0-.844.197-1.575.592-2.194a4.021 4.021 0 0 1 1.643-1.439c.694-.347 1.493-.521 2.398-.521s1.704.174 2.398.521c.701.34 1.249.82 1.643 1.439.402.619.602 1.35.602 2.194 0 .701-.149 1.33-.449 1.888-.292.558-.738 1.061-1.336 1.51l-.011-.796a4.078 4.078 0 0 1 1.623 1.653c.381.694.571 1.446.571 2.256 0 .904-.217 1.707-.653 2.408a4.434 4.434 0 0 1-1.786 1.643c-.755.395-1.622.592-2.602.592Zm0-2.317c.721 0 1.306-.197 1.755-.592.456-.394.684-.972.684-1.734s-.224-1.341-.673-1.735c-.449-.402-1.038-.602-1.766-.602-.721 0-1.303.2-1.745.602-.442.394-.663.973-.663 1.735 0 .762.221 1.34.663 1.734.442.395 1.024.592 1.745.592Zm0-7c.606 0 1.096-.15 1.47-.449.381-.307.571-.769.571-1.388 0-.619-.19-1.079-.571-1.378-.374-.306-.864-.459-1.47-.459-.599 0-1.088.153-1.469.459-.375.299-.562.759-.562 1.378 0 .619.187 1.081.562 1.388.381.299.87.449 1.469.449Zm12.048 9.317a4.83 4.83 0 0 1-2.092-.459 5.155 5.155 0 0 1-1.673-1.286 4.98 4.98 0 0 1-1-1.898l2.367-.633c.095.395.269.735.521 1.02.258.286.557.507.898.664.347.156.704.234 1.071.234a2.602 2.602 0 0 0 2.245-1.275 2.53 2.53 0 0 0 .347-1.306c0-.477-.119-.909-.357-1.296a2.5 2.5 0 0 0-.939-.929 2.517 2.517 0 0 0-1.296-.347c-.565 0-1.034.102-1.408.306-.368.204-.65.422-.847.653l-2.102-.673.449-7.777h7.98v2.307h-6.664l.919-.868-.327 5.409-.449-.551a3.706 3.706 0 0 1 1.327-.776c.503-.17.989-.255 1.459-.255.918 0 1.731.211 2.439.633a4.434 4.434 0 0 1 1.674 1.704c.408.721.612 1.541.612 2.46 0 .918-.238 1.751-.715 2.5a5.314 5.314 0 0 1-1.887 1.775 5.056 5.056 0 0 1-2.552.664Z" fill="#050624"/><path fill="#36374F" d="M66 285h16.142v2.483H66zM66 288.725h16.142v2.483H66z"/></g></g><defs><linearGradient id="e" x1="43" y1="275.45" x2="169.996" y2="275.45" gradientUnits="userSpaceOnUse"><stop stop-color="#F0F0F0"/><stop offset="1" stop-color="#F0F0F0" stop-opacity="0"/></linearGradient><linearGradient id="f" x1="43" y1="276.405" x2="169.996" y2="276.405" gradientUnits="userSpaceOnUse"><stop stop-color="#3E79E5"/><stop offset="1" stop-color="#01B8E3"/></linearGradient><linearGradient id="g" x1="187.004" y1="275.45" x2="313.999" y2="275.45" gradientUnits="userSpaceOnUse"><stop stop-color="#F0F0F0"/><stop offset="1" stop-color="#F0F0F0" stop-opacity="0"/></linearGradient><linearGradient id="h" x1="187.004" y1="276.405" x2="313.999" y2="276.405" gradientUnits="userSpaceOnUse"><stop stop-color="#3E79E5"/><stop offset="1" stop-color="#01B8E3"/></linearGradient><filter id="a" x="22" y="183" width="311" height="203" filterUnits="userSpaceOnUse" color-interpolation-filters="sRGB"><feFlood flood-opacity="0" result="BackgroundImageFix"/><feColorMatrix in="SourceAlpha" values="0 0 0 0 0 0 0 0 0 0 0 0 0 0 0 0 0 0 127 0" result="hardAlpha"/><feOffset/><feGaussianBlur stdDeviation="5"/><feComposite in2="hardAlpha" operator="out"/><feColorMatrix values="0 0 0 0 0 0 0 0 0 0 0 0 0 0 0 0 0 0 0.1 0"/><feBlend in2="BackgroundImageFix" result="effect1_dropShadow_306_2697"/><feBlend in="SourceGraphic" in2="effect1_dropShadow_306_2697" result="shape"/></filter><filter id="b" x="0" y="203" width="352" height="203" filterUnits="userSpaceOnUse" color-interpolation-filters="sRGB"><feFlood flood-opacity="0" result="BackgroundImageFix"/><feColorMatrix in="SourceAlpha" values="0 0 0 0 0 0 0 0 0 0 0 0 0 0 0 0 0 0 127 0" result="hardAlpha"/><feOffset/><feGaussianBlur stdDeviation="5"/><feComposite in2="hardAlpha" operator="out"/><feColorMatrix values="0 0 0 0 0 0 0 0 0 0 0 0 0 0 0 0 0 0 0.1 0"/><feBlend in2="BackgroundImageFix" result="effect1_dropShadow_306_2697"/><feBlend in="SourceGraphic" in2="effect1_dropShadow_306_2697" result="shape"/></filter><filter id="c" x="9" y="209" width="338" height="192" filterUnits="userSpaceOnUse" color-interpolation-filters="sRGB"><feFlood flood-opacity="0" result="BackgroundImageFix"/><feColorMatrix in="SourceAlpha" values="0 0 0 0 0 0 0 0 0 0 0 0 0 0 0 0 0 0 127 0" result="hardAlpha"/><feOffset/><feGaussianBlur stdDeviation="10"/><feComposite in2="hardAlpha" operator="out"/><feColorMatrix values="0 0 0 0 0 0 0 0 0 0 0 0 0 0 0 0 0 0 0.2 0"/><feBlend in2="BackgroundImageFix" result="effect1_dropShadow_306_2697"/><feBlend in="SourceGraphic" in2="effect1_dropShadow_306_2697" result="shape"/></filter><clipPath id="d"><rect x="29" y="229" width="298" height="152" rx="20" fill="#fff"/></clipPath><clipPath id="i"><path fill="#fff" transform="translate(90 335)" d="M0 0h177v38H0z"/></clipPath></defs></svg>