<svg width="354" height="416" fill="none" xmlns="http://www.w3.org/2000/svg"><rect width="352" height="406" rx="20" fill="#002D54"/><g filter="url(#a)"><rect x="22" y="196" width="42" height="183" rx="10" fill="#FFF250"/></g><g filter="url(#b)"><rect x="75" y="196" width="202" height="183" rx="10" fill="#FFF250"/></g><g filter="url(#c)"><rect x="287" y="196" width="42" height="183" rx="10" fill="#FFF250"/></g><g filter="url(#d)"><rect x="10" y="213" width="332" height="183" rx="10" fill="#fff"/></g><g filter="url(#e)"><rect x="25" y="227.016" width="286.567" height="155.368" rx="8.632" fill="#fff"/><path d="M40.629 249.968c-.437 0-.83-.076-1.181-.228a2.237 2.237 0 0 1-.862-.65 2.14 2.14 0 0 1-.427-1.011l1.036-.158c.088.354.27.627.543.82.276.194.594.291.953.291a1.8 1.8 0 0 0 .6-.1c.188-.066.34-.163.456-.29a.66.66 0 0 0 .178-.468.607.607 0 0 0-.041-.228.548.548 0 0 0-.124-.191.769.769 0 0 0-.207-.149 1.401 1.401 0 0 0-.29-.12l-1.542-.456a4.068 4.068 0 0 1-.43-.153 1.854 1.854 0 0 1-.436-.269 1.394 1.394 0 0 1-.335-.439 1.537 1.537 0 0 1-.129-.663c0-.384.097-.706.29-.966.197-.262.459-.458.788-.588.331-.13.698-.193 1.102-.191.408.003.773.074 1.093.212.32.135.589.333.804.592.216.26.368.573.456.941l-1.073.186a1.16 1.16 0 0 0-.257-.534 1.198 1.198 0 0 0-.46-.34 1.544 1.544 0 0 0-1.131-.033 1 1 0 0 0-.41.265.594.594 0 0 0-.153.406c0 .146.044.267.132.36a.972.972 0 0 0 .328.22c.132.053.266.097.401.133l1.07.298c.146.039.31.091.492.157.183.067.358.159.526.278.169.119.307.275.415.468.11.193.165.439.165.738 0 .309-.064.581-.194.816-.127.232-.3.425-.518.58a2.354 2.354 0 0 1-.75.348 3.287 3.287 0 0 1-.878.116Zm5.388 0c-.437 0-.803-.104-1.098-.311a1.903 1.903 0 0 1-.667-.845 3.117 3.117 0 0 1-.224-1.206c0-.45.075-.853.224-1.21.149-.356.367-.636.654-.841.29-.207.648-.31 1.073-.31.423 0 .789.103 1.098.31.312.205.554.485.725.841.172.354.257.757.257 1.21 0 .448-.084.85-.252 1.206a2.057 2.057 0 0 1-.713.845 1.88 1.88 0 0 1-1.077.311Zm-2.159 1.864v-6.463h.883v3.14h.124v3.323h-1.007Zm2.005-2.759c.26 0 .474-.065.642-.195.169-.13.293-.305.373-.526.083-.224.125-.472.125-.746 0-.27-.042-.516-.125-.737a1.136 1.136 0 0 0-.385-.531c-.174-.132-.395-.198-.663-.198-.254 0-.461.062-.621.186-.16.122-.28.293-.357.514a2.367 2.367 0 0 0-.111.766c0 .29.037.546.111.767.078.221.198.393.36.518.167.121.383.182.651.182Zm5.144.895a2.36 2.36 0 0 1-1.194-.294 2.094 2.094 0 0 1-.803-.816 2.465 2.465 0 0 1-.286-1.202c0-.489.094-.913.282-1.272.187-.362.448-.642.783-.841.334-.199.72-.298 1.16-.298.464 0 .857.109 1.18.327.326.215.568.521.726.916.157.395.216.86.178 1.396h-.99v-.365c-.003-.486-.089-.841-.257-1.065-.169-.223-.434-.335-.796-.335-.409 0-.712.127-.911.381-.2.251-.299.62-.299 1.106 0 .453.1.804.299 1.053.199.248.489.373.87.373.245 0 .457-.054.634-.162.18-.111.317-.269.414-.477l.986.299a1.995 1.995 0 0 1-.795.94c-.357.224-.75.336-1.181.336Zm-1.541-2.084v-.754h3.078v.754h-3.078Zm7.465 1.96v-2.155c0-.141-.01-.297-.03-.468a1.616 1.616 0 0 0-.136-.493.942.942 0 0 0-.315-.394c-.138-.102-.326-.153-.563-.153-.127 0-.253.021-.377.062a.865.865 0 0 0-.34.216c-.1.099-.18.237-.24.414-.061.174-.092.398-.092.671l-.592-.253c0-.381.073-.726.22-1.035.149-.31.367-.556.654-.738.287-.185.64-.277 1.06-.277.332 0 .606.055.821.165.216.111.387.252.514.423.127.171.22.353.282.547.06.193.099.377.116.551.019.171.029.311.029.418v2.499H56.93Zm-3.103 0v-4.475h.89v1.388h.12v3.087h-1.01Zm6.916.124a1.88 1.88 0 0 1-1.077-.311 2.057 2.057 0 0 1-.713-.845 2.785 2.785 0 0 1-.253-1.206c0-.453.085-.856.253-1.21a2.04 2.04 0 0 1 .725-.841c.312-.207.68-.31 1.102-.31.426 0 .782.103 1.07.31.29.205.509.485.658.841.149.357.224.76.224 1.21 0 .445-.075.847-.224 1.206-.15.356-.372.638-.667.845-.296.207-.662.311-1.098.311Zm.153-.895c.268 0 .484-.061.647-.182.165-.125.285-.297.36-.518.077-.221.116-.477.116-.767a2.29 2.29 0 0 0-.116-.766 1.045 1.045 0 0 0-.352-.514c-.16-.124-.367-.186-.622-.186-.268 0-.489.066-.663.198-.174.13-.302.307-.385.531a2.088 2.088 0 0 0-.124.737c0 .274.04.522.12.746.083.221.209.396.377.526s.383.195.642.195Zm1.123.771v-3.141h-.124v-2.826h1.007v5.967h-.883Zm2.127-5.154v-.916h.998v.916h-.998Zm0 5.154v-4.475h.998v4.475h-.998Zm5.334 0v-2.155c0-.141-.01-.297-.028-.468a1.616 1.616 0 0 0-.137-.493.942.942 0 0 0-.315-.394c-.138-.102-.326-.153-.564-.153-.127 0-.252.021-.377.062a.865.865 0 0 0-.34.216c-.099.099-.179.237-.24.414-.06.174-.09.398-.09.671l-.593-.253c0-.381.073-.726.22-1.035.148-.31.367-.556.654-.738.287-.185.64-.277 1.06-.277.332 0 .606.055.82.165.216.111.388.252.515.423.127.171.22.353.281.547.061.193.1.377.116.551.02.171.03.311.03.418v2.499h-1.011Zm-3.103 0v-4.475h.891v1.388h.12v3.087h-1.01Zm7.076 2.113c-.248 0-.487-.039-.716-.116a2.03 2.03 0 0 1-.613-.336 1.78 1.78 0 0 1-.448-.522l.92-.456a.816.816 0 0 0 .36.361c.158.08.325.12.502.12.207 0 .392-.038.555-.112a.821.821 0 0 0 .377-.323.915.915 0 0 0 .128-.531v-1.272h.125v-3.401h.874v4.69c0 .113-.006.221-.017.323a2.22 2.22 0 0 1-.045.307c-.067.29-.194.527-.382.712a1.73 1.73 0 0 1-.7.419 2.927 2.927 0 0 1-.92.137Zm-.086-1.989a1.88 1.88 0 0 1-1.078-.311 2.057 2.057 0 0 1-.712-.845 2.785 2.785 0 0 1-.253-1.206c0-.453.084-.856.253-1.21a2.04 2.04 0 0 1 .725-.841c.312-.207.68-.31 1.102-.31.425 0 .781.103 1.069.31.29.205.51.485.658.841.15.357.224.76.224 1.21 0 .445-.074.847-.224 1.206-.149.356-.371.638-.666.845-.296.207-.662.311-1.098.311Zm.153-.895c.268 0 .483-.061.646-.182.166-.125.286-.297.36-.518.078-.221.117-.477.117-.767a2.29 2.29 0 0 0-.116-.766 1.045 1.045 0 0 0-.353-.514c-.16-.124-.367-.186-.621-.186-.268 0-.489.066-.663.198-.174.13-.302.307-.385.531a2.086 2.086 0 0 0-.124.737c0 .274.04.522.12.746.083.221.208.396.377.526.168.13.382.195.642.195ZM43.264 274.098l.003-.497 1.986-1.786c.165-.15.276-.29.332-.423.058-.135.087-.272.087-.413a.926.926 0 0 0-.118-.466.882.882 0 0 0-.783-.451.922.922 0 0 0-.805.46.882.882 0 0 0-.115.454h-.565c0-.282.065-.531.195-.746.13-.218.308-.388.532-.51.226-.124.481-.186.767-.186.278 0 .526.064.746.192a1.428 1.428 0 0 1 .712 1.259c0 .195-.025.363-.075.506a1.224 1.224 0 0 1-.224.398c-.101.12-.229.249-.382.385l-1.65 1.483-.071-.187h2.402v.528h-2.974Zm5.04.097c-.23 0-.444-.048-.643-.143a1.53 1.53 0 0 1-.506-.392 1.528 1.528 0 0 1-.298-.578l.531-.143a.907.907 0 0 0 .199.383.963.963 0 0 0 .733.335.935.935 0 0 0 .491-.13.991.991 0 0 0 .348-.351.95.95 0 0 0 .128-.482.915.915 0 0 0-.134-.488.96.96 0 0 0-.833-.475.98.98 0 0 0-.836.422l-.49-.186.136-2.34h2.402v.525h-2.135l.246-.23-.115 1.874-.121-.159a1.361 1.361 0 0 1 .976-.416 1.427 1.427 0 0 1 1.267.724c.129.222.193.471.193.749 0 .275-.07.527-.211.755-.141.226-.329.407-.563.544a1.502 1.502 0 0 1-.764.202Zm2.22.603.034-.258c.087.006.152-.011.196-.05a.275.275 0 0 0 .084-.162.81.81 0 0 0 .006-.226h-.32v-.703h.609v.796c0 .217-.054.381-.162.491-.105.11-.254.147-.447.112Zm3.115-.603c-.23 0-.444-.048-.643-.143a1.53 1.53 0 0 1-.506-.392 1.528 1.528 0 0 1-.299-.578l.532-.143a.907.907 0 0 0 .199.383.964.964 0 0 0 .733.335.936.936 0 0 0 .491-.13.991.991 0 0 0 .348-.351.95.95 0 0 0 .127-.482.915.915 0 0 0-.133-.488.96.96 0 0 0-.833-.475.98.98 0 0 0-.836.422l-.49-.186.136-2.34h2.402v.525h-2.135l.246-.23-.115 1.874-.122-.159a1.361 1.361 0 0 1 .976-.416 1.427 1.427 0 0 1 1.268.724c.128.222.193.471.193.749 0 .275-.07.527-.212.755-.14.226-.328.407-.562.544a1.503 1.503 0 0 1-.765.202Zm3.792 0a1.53 1.53 0 0 1-.777-.196 1.49 1.49 0 0 1-.538-.538 1.53 1.53 0 0 1-.195-.776v-1.641c0-.29.065-.549.196-.777.132-.228.311-.407.537-.537a1.53 1.53 0 0 1 .777-.196c.29 0 .549.065.777.196.228.13.407.309.537.537.13.228.196.487.196.777v1.641c0 .29-.065.549-.196.776-.13.226-.31.405-.537.538a1.53 1.53 0 0 1-.777.196Zm0-.532a.918.918 0 0 0 .478-.127.965.965 0 0 0 .342-.342.927.927 0 0 0 .128-.478v-1.706a.92.92 0 0 0-.128-.479.965.965 0 0 0-.342-.342.918.918 0 0 0-.478-.127.929.929 0 0 0-.479.127.965.965 0 0 0-.341.342.92.92 0 0 0-.128.479v1.706c0 .174.043.333.128.478a.965.965 0 0 0 .341.342.929.929 0 0 0 .479.127Zm3.89.532a1.53 1.53 0 0 1-.777-.196 1.488 1.488 0 0 1-.537-.538 1.529 1.529 0 0 1-.196-.776v-1.641c0-.29.065-.549.196-.777.132-.228.312-.407.537-.537a1.53 1.53 0 0 1 .777-.196c.29 0 .55.065.777.196.228.13.407.309.538.537.13.228.195.487.195.777v1.641a1.457 1.457 0 0 1-.733 1.314 1.53 1.53 0 0 1-.777.196Zm0-.532a.918.918 0 0 0 .479-.127.965.965 0 0 0 .342-.342.928.928 0 0 0 .127-.478v-1.706a.921.921 0 0 0-.127-.479.965.965 0 0 0-.342-.342.918.918 0 0 0-.479-.127.929.929 0 0 0-.478.127.966.966 0 0 0-.342.342.921.921 0 0 0-.128.479v1.706c0 .174.043.333.128.478a.966.966 0 0 0 .342.342.929.929 0 0 0 .478.127ZM43.264 297.343l.003-.498 1.986-1.786c.165-.149.276-.29.332-.423.058-.135.087-.272.087-.413a.928.928 0 0 0-.118-.466.882.882 0 0 0-.783-.451.892.892 0 0 0-.476.128.882.882 0 0 0-.444.786h-.565a1.384 1.384 0 0 1 .727-1.256c.225-.124.481-.186.767-.186.278 0 .526.064.746.193a1.43 1.43 0 0 1 .712 1.258c0 .195-.025.364-.075.507a1.23 1.23 0 0 1-.224.397c-.101.12-.229.249-.382.386l-1.65 1.482-.071-.187h2.402v.529h-2.974Zm5.04.096c-.23 0-.444-.048-.643-.143a1.53 1.53 0 0 1-.506-.392 1.528 1.528 0 0 1-.298-.578l.531-.142a.903.903 0 0 0 .199.382.963.963 0 0 0 .733.335.935.935 0 0 0 .491-.13.991.991 0 0 0 .348-.351.948.948 0 0 0 .128-.482.915.915 0 0 0-.134-.488.96.96 0 0 0-.833-.475.98.98 0 0 0-.836.422l-.49-.186.136-2.34h2.402v.525h-2.135l.246-.23-.115 1.874-.121-.158a1.361 1.361 0 0 1 .976-.417 1.427 1.427 0 0 1 1.267.724c.129.222.193.471.193.749 0 .276-.07.527-.211.755-.141.226-.329.407-.563.544a1.492 1.492 0 0 1-.764.202Zm2.22.603.034-.258c.087.006.152-.011.196-.05a.275.275 0 0 0 .084-.161.818.818 0 0 0 .006-.227h-.32v-.703h.609v.796c0 .217-.054.381-.162.491-.105.11-.254.147-.447.112Zm3.302-.603a1.53 1.53 0 0 1-.777-.196 1.486 1.486 0 0 1-.538-.537 1.536 1.536 0 0 1-.195-.777v-1.641c0-.29.065-.549.195-.777.133-.228.312-.407.538-.537a1.53 1.53 0 0 1 .777-.196c.29 0 .549.065.777.196.228.13.407.309.537.537.13.228.196.487.196.777v1.641c0 .29-.065.549-.196.777-.13.225-.31.405-.537.537a1.53 1.53 0 0 1-.777.196Zm0-.531a.919.919 0 0 0 .478-.128.965.965 0 0 0 .342-.342.927.927 0 0 0 .128-.478v-1.706a.92.92 0 0 0-.128-.479.954.954 0 0 0-1.299-.341.954.954 0 0 0-.341.341.92.92 0 0 0-.128.479v1.706c0 .174.043.333.128.478a.965.965 0 0 0 .341.342.93.93 0 0 0 .479.128Zm3.89.531a1.53 1.53 0 0 1-.777-.196 1.486 1.486 0 0 1-.537-.537 1.536 1.536 0 0 1-.196-.777v-1.641c0-.29.065-.549.196-.777.132-.228.312-.407.537-.537a1.53 1.53 0 0 1 .777-.196c.29 0 .55.065.777.196.228.13.407.309.538.537.13.228.195.487.195.777v1.641a1.455 1.455 0 0 1-.733 1.314 1.53 1.53 0 0 1-.777.196Zm0-.531a.92.92 0 0 0 .479-.128.965.965 0 0 0 .341-.342.928.928 0 0 0 .128-.478v-1.706a.921.921 0 0 0-.128-.479.955.955 0 0 0-.82-.469.955.955 0 0 0-.82.469.921.921 0 0 0-.128.479v1.706c0 .174.043.333.128.478a.965.965 0 0 0 .342.342.93.93 0 0 0 .478.128Zm3.89.531a1.53 1.53 0 0 1-.776-.196 1.486 1.486 0 0 1-.538-.537 1.536 1.536 0 0 1-.196-.777v-1.641c0-.29.066-.549.196-.777.133-.228.312-.407.538-.537a1.53 1.53 0 0 1 .776-.196c.29 0 .55.065.777.196.228.13.407.309.538.537.13.228.196.487.196.777v1.641c0 .29-.066.549-.196.777-.13.225-.31.405-.538.537a1.53 1.53 0 0 1-.777.196Zm0-.531a.919.919 0 0 0 .479-.128.966.966 0 0 0 .342-.342.928.928 0 0 0 .127-.478v-1.706a.921.921 0 0 0-.127-.479.955.955 0 0 0-.82-.469.954.954 0 0 0-.82.469.92.92 0 0 0-.128.479v1.706c0 .174.042.333.127.478a.965.965 0 0 0 .342.342.93.93 0 0 0 .478.128ZM43.264 321.71l.003-.497 1.986-1.787c.165-.149.276-.29.332-.423.058-.134.087-.272.087-.413a.928.928 0 0 0-.118-.466.873.873 0 0 0-.323-.329.875.875 0 0 0-.46-.122.92.92 0 0 0-.805.46.882.882 0 0 0-.115.454h-.565a1.381 1.381 0 0 1 .727-1.255c.225-.125.481-.187.767-.187.278 0 .526.064.746.193a1.424 1.424 0 0 1 .712 1.258c0 .195-.025.364-.075.507a1.22 1.22 0 0 1-.224.397 3.837 3.837 0 0 1-.382.386l-1.65 1.482-.071-.186h2.402v.528h-2.974Zm5.528.003v-.824h-2.057v-.525l1.476-3.126h.628l-1.476 3.126h1.43v-1.258h.559v1.258h.466v.525h-.466v.824h-.56Zm1.586.696.034-.258c.087.006.153-.01.196-.05a.275.275 0 0 0 .084-.161.818.818 0 0 0 .006-.227h-.32v-.702h.61v.795c0 .218-.055.381-.162.491-.106.11-.255.147-.448.112Zm3.116-.603c-.23 0-.445-.048-.643-.143a1.54 1.54 0 0 1-.507-.391 1.542 1.542 0 0 1-.298-.578l.531-.143a.903.903 0 0 0 .199.382.963.963 0 0 0 .733.336.936.936 0 0 0 .491-.131.99.99 0 0 0 .348-.351.947.947 0 0 0 .128-.482.914.914 0 0 0-.134-.488.96.96 0 0 0-.833-.475.98.98 0 0 0-.836.423l-.49-.187.136-2.34h2.402v.525h-2.134l.245-.229-.115 1.873-.121-.158c.124-.133.272-.235.444-.308a1.436 1.436 0 0 1 1.8.615c.128.222.192.472.192.749 0 .276-.07.527-.211.755-.141.226-.329.407-.563.544a1.492 1.492 0 0 1-.764.202Zm3.791 0a1.53 1.53 0 0 1-.777-.196 1.479 1.479 0 0 1-.537-.537 1.536 1.536 0 0 1-.196-.777v-1.641c0-.29.065-.549.196-.777.132-.227.312-.407.537-.537a1.53 1.53 0 0 1 .777-.196c.29 0 .55.065.777.196.228.13.407.31.538.537.13.228.195.487.195.777v1.641c0 .29-.065.549-.195.777-.13.226-.31.405-.538.537a1.53 1.53 0 0 1-.777.196Zm0-.531a.92.92 0 0 0 .479-.128.932.932 0 0 0 .47-.82v-1.706a.915.915 0 0 0-.128-.478.965.965 0 0 0-.342-.342.92.92 0 0 0-.479-.128.93.93 0 0 0-.478.128.965.965 0 0 0-.342.342.915.915 0 0 0-.128.478v1.706a.932.932 0 0 0 .47.82.93.93 0 0 0 .478.128Zm3.89.531a1.53 1.53 0 0 1-.776-.196 1.479 1.479 0 0 1-.538-.537 1.536 1.536 0 0 1-.196-.777v-1.641c0-.29.066-.549.196-.777.133-.227.312-.407.538-.537a1.53 1.53 0 0 1 .776-.196c.29 0 .55.065.777.196.228.13.407.31.538.537.13.228.196.487.196.777v1.641c0 .29-.066.549-.196.777-.13.226-.31.405-.538.537a1.53 1.53 0 0 1-.776.196Zm0-.531a.919.919 0 0 0 .479-.128.932.932 0 0 0 .47-.82v-1.706a.915.915 0 0 0-.128-.478.966.966 0 0 0-.342-.342.919.919 0 0 0-.479-.128.93.93 0 0 0-.478.128.965.965 0 0 0-.342.342.914.914 0 0 0-.127.478v1.706a.93.93 0 0 0 .469.82.93.93 0 0 0 .478.128ZM43.264 343.684l.003-.497 1.986-1.787c.165-.149.276-.29.332-.422.058-.135.087-.273.087-.413a.926.926 0 0 0-.118-.466.882.882 0 0 0-.783-.451.922.922 0 0 0-.805.46.882.882 0 0 0-.115.454h-.565c0-.282.065-.531.195-.746.13-.218.308-.388.532-.51.226-.124.481-.186.767-.186.278 0 .526.064.746.192a1.428 1.428 0 0 1 .712 1.259c0 .195-.025.363-.075.506a1.224 1.224 0 0 1-.224.398c-.101.12-.229.249-.382.385l-1.65 1.483-.071-.187h2.402v.528h-2.974Zm5.528.004v-.824h-2.057v-.525l1.476-3.126h.628l-1.476 3.126h1.43v-1.259h.559v1.259h.466v.525h-.466v.824h-.56Zm1.586.696.034-.258c.087.006.153-.011.196-.05a.275.275 0 0 0 .084-.162.81.81 0 0 0 .006-.226h-.32v-.703h.61v.796c0 .217-.055.381-.162.491-.106.109-.255.147-.448.112Zm3.302-.603a1.54 1.54 0 0 1-.777-.196 1.49 1.49 0 0 1-.537-.538 1.53 1.53 0 0 1-.196-.776v-1.641c0-.29.065-.549.196-.777a1.459 1.459 0 0 1 1.314-.733c.29 0 .55.065.777.195.228.131.407.31.538.538.13.228.195.487.195.777v1.641a1.458 1.458 0 0 1-.733 1.314 1.54 1.54 0 0 1-.777.196Zm0-.532a.918.918 0 0 0 .479-.127.966.966 0 0 0 .342-.342.928.928 0 0 0 .127-.478v-1.706a.921.921 0 0 0-.127-.479.966.966 0 0 0-.342-.342.918.918 0 0 0-.479-.127.929.929 0 0 0-.478.127.965.965 0 0 0-.342.342.921.921 0 0 0-.127.479v1.706c0 .174.042.333.127.478a.965.965 0 0 0 .342.342.929.929 0 0 0 .478.127Zm3.89.532a1.54 1.54 0 0 1-.776-.196 1.49 1.49 0 0 1-.538-.538 1.53 1.53 0 0 1-.196-.776v-1.641c0-.29.066-.549.196-.777a1.459 1.459 0 0 1 1.315-.733c.29 0 .549.065.776.195.228.131.407.31.538.538.13.228.196.487.196.777v1.641c0 .29-.066.549-.196.776-.13.226-.31.405-.538.538a1.54 1.54 0 0 1-.776.196Zm0-.532a.918.918 0 0 0 .479-.127.965.965 0 0 0 .342-.342.927.927 0 0 0 .127-.478v-1.706a.92.92 0 0 0-.127-.479.965.965 0 0 0-.342-.342.918.918 0 0 0-.478-.127.929.929 0 0 0-.479.127.965.965 0 0 0-.342.342.92.92 0 0 0-.127.479v1.706c0 .174.042.333.127.478a.965.965 0 0 0 .342.342.929.929 0 0 0 .479.127Zm3.89.532a1.54 1.54 0 0 1-.776-.196 1.49 1.49 0 0 1-.538-.538 1.53 1.53 0 0 1-.195-.776v-1.641a1.459 1.459 0 0 1 1.51-1.51c.29 0 .549.065.777.195.227.131.407.31.537.538.13.228.196.487.196.777v1.641c0 .29-.065.549-.196.776-.13.226-.31.405-.537.538a1.54 1.54 0 0 1-.777.196Zm0-.532a.918.918 0 0 0 .48-.127.965.965 0 0 0 .341-.342.928.928 0 0 0 .127-.478v-1.706a.921.921 0 0 0-.127-.479.965.965 0 0 0-.342-.342.918.918 0 0 0-.478-.127.929.929 0 0 0-.479.127.966.966 0 0 0-.342.342.921.921 0 0 0-.127.479v1.706c0 .174.043.333.127.478a.966.966 0 0 0 .342.342.929.929 0 0 0 .479.127ZM78.377 363.525v-3.949H76.85v-.525h3.605v.525H78.93v3.949h-.553Zm4.963 0v-1.681c0-.159-.014-.312-.044-.46a1.15 1.15 0 0 0-.146-.394.754.754 0 0 0-.28-.28.862.862 0 0 0-.44-.102.967.967 0 0 0-.38.071.748.748 0 0 0-.288.211c-.081.096-.144.216-.19.361a1.749 1.749 0 0 0-.065.506l-.364-.112c0-.325.058-.603.174-.835.118-.235.283-.414.494-.538.214-.126.464-.19.752-.19.218 0 .403.035.556.103a1.1 1.1 0 0 1 .383.273c.101.112.18.239.239.38.058.138.098.28.121.425.025.143.037.279.037.407v1.855h-.559Zm-2.393 0v-4.474h.498v2.47h.062v2.004h-.56Zm5.034.087c-.215 0-.4-.034-.556-.102a1.116 1.116 0 0 1-.382-.274 1.345 1.345 0 0 1-.24-.379c-.057-.138-.099-.28-.124-.425a2.632 2.632 0 0 1-.034-.407v-1.856h.56v1.682c0 .157.014.309.043.456.029.147.078.28.146.398.07.118.164.211.28.28a.873.873 0 0 0 .44.102.985.985 0 0 0 .38-.071.776.776 0 0 0 .292-.212.984.984 0 0 0 .186-.36c.044-.145.066-.314.066-.506l.363.111c0 .324-.059.602-.177.836-.116.234-.28.415-.494.541-.211.124-.46.186-.749.186Zm1.119-.087v-.898h-.062v-2.458h.556v3.356H87.1Zm1.364 0v-3.356h.494v.811l-.08-.105c.039-.104.09-.199.151-.286a.935.935 0 0 1 .215-.214.935.935 0 0 1 .295-.162c.11-.037.222-.059.336-.065.114-.009.22-.001.32.021v.519a1.04 1.04 0 0 0-.382-.024.772.772 0 0 0-.386.152.828.828 0 0 0-.251.279c-.058.11-.099.229-.122.358a2.18 2.18 0 0 0-.034.388v1.684h-.556Zm3.465.091c-.4 0-.728-.088-.985-.262a1.1 1.1 0 0 1-.47-.736l.566-.09c.046.182.15.327.314.435.164.106.367.158.609.158.23 0 .41-.047.54-.143a.454.454 0 0 0 .196-.388.375.375 0 0 0-.065-.23c-.043-.06-.133-.116-.27-.168a6.562 6.562 0 0 0-.612-.186 3.803 3.803 0 0 1-.7-.246.895.895 0 0 1-.363-.295.731.731 0 0 1-.109-.407c0-.197.054-.369.162-.516.108-.149.258-.264.45-.345.195-.08.42-.121.678-.121.254 0 .482.041.683.121.201.081.363.196.485.345a.95.95 0 0 1 .22.516l-.565.103a.61.61 0 0 0-.26-.426c-.146-.104-.333-.158-.563-.165-.218-.008-.395.03-.532.115a.39.39 0 0 0-.202.345c0 .081.025.15.075.208a.735.735 0 0 0 .283.165c.138.052.34.111.603.177.296.075.529.157.699.246a.87.87 0 0 1 .366.31.826.826 0 0 1 .11.439c0 .323-.12.578-.358.764-.238.184-.567.277-.985.277Zm3.345.003c-.313 0-.581-.078-.805-.233a1.552 1.552 0 0 1-.519-.637 2.188 2.188 0 0 1-.18-.905c0-.335.06-.637.18-.904a1.51 1.51 0 0 1 .52-.631c.223-.155.49-.233.8-.233.318 0 .584.077.8.23.215.153.378.364.487.631.112.267.168.57.168.907 0 .334-.056.635-.168.905-.11.267-.272.479-.487.637-.216.155-.481.233-.796.233Zm.068-.507a.913.913 0 0 0 .556-.161.951.951 0 0 0 .32-.451c.071-.193.106-.411.106-.656 0-.248-.035-.467-.105-.655a.924.924 0 0 0-.317-.445.883.883 0 0 0-.544-.161.916.916 0 0 0-.566.168 1 1 0 0 0-.329.453c-.07.191-.106.404-.106.64 0 .239.037.454.11.647.072.19.18.341.325.453.147.112.33.168.55.168Zm.982.413v-2.47h-.062v-2.004h.556v4.474h-.494Zm2.319.094c-.25 0-.461-.046-.63-.137a.975.975 0 0 1-.383-.367.997.997 0 0 1-.127-.497c0-.176.033-.328.099-.457a.898.898 0 0 1 .286-.323 1.46 1.46 0 0 1 .438-.205c.16-.043.338-.081.534-.112.2-.033.4-.063.603-.09l.569-.078-.199.115c.006-.298-.054-.519-.18-.662-.125-.142-.34-.214-.647-.214a1.01 1.01 0 0 0-.534.14c-.151.091-.258.24-.32.447l-.525-.158c.08-.294.237-.525.469-.693.232-.168.538-.252.917-.252.304 0 .565.055.783.165.219.108.377.271.472.491.048.103.078.216.09.339.013.12.019.246.019.379v2.075h-.491v-.804l.115.074a1.37 1.37 0 0 1-.532.615c-.225.139-.5.209-.826.209Zm.084-.463c.199 0 .37-.036.516-.106a.993.993 0 0 0 .354-.283.923.923 0 0 0 .174-.385c.03-.104.047-.219.05-.345.004-.128.006-.227.006-.295l.192.084-.53.071c-.175.023-.34.048-.495.075a3.758 3.758 0 0 0-.42.09 1.342 1.342 0 0 0-.257.112.576.576 0 0 0-.193.177.536.536 0 0 0-.003.525.53.53 0 0 0 .217.202c.1.052.23.078.389.078Zm2.736 1.861.649-1.765.009.522-1.466-3.605h.581l1.15 2.9h-.199l1.078-2.9h.562L102 365.017h-.537Z" fill="#2D5587"/><path d="M120.82 363.525v-4.474h2.61v.553h-2.057v1.408h1.684v.553h-1.684v1.96h-.553Zm3.168 0v-3.356h.494v.811l-.081-.105c.039-.104.09-.199.152-.286a.947.947 0 0 1 .215-.214.931.931 0 0 1 .295-.162c.11-.037.222-.059.336-.065.114-.009.22-.001.32.021v.519a1.044 1.044 0 0 0-.383-.024.773.773 0 0 0-.385.152.827.827 0 0 0-.252.279 1.22 1.22 0 0 0-.121.358 2.162 2.162 0 0 0-.034.388v1.684h-.556Zm2.38-3.949v-.572h.553v.572h-.553Zm0 3.949v-3.356h.553v3.356h-.553Zm2.803.094c-.312 0-.581-.078-.804-.233a1.549 1.549 0 0 1-.519-.637 2.173 2.173 0 0 1-.181-.905c0-.335.06-.637.181-.904.122-.267.295-.477.519-.631.223-.155.49-.233.801-.233.317 0 .583.077.799.23.215.153.378.364.488.631.112.267.167.57.167.907 0 .334-.055.635-.167.905-.11.267-.273.479-.488.637-.216.155-.481.233-.796.233Zm.069-.507a.912.912 0 0 0 .556-.161.95.95 0 0 0 .32-.451c.07-.193.106-.411.106-.656 0-.248-.036-.467-.106-.655a.92.92 0 0 0-.317-.445.883.883 0 0 0-.544-.161.914.914 0 0 0-.565.168 1.004 1.004 0 0 0-.33.453c-.07.191-.105.404-.105.64 0 .239.036.454.108.647.073.19.182.341.327.453a.88.88 0 0 0 .55.168Zm.982.413v-2.47h-.063v-2.004h.557v4.474h-.494Zm2.318.094c-.25 0-.461-.046-.631-.137a.98.98 0 0 1-.382-.367.996.996 0 0 1-.127-.497.99.99 0 0 1 .099-.457.906.906 0 0 1 .286-.323c.122-.087.268-.155.438-.205.16-.043.338-.081.535-.112.199-.033.4-.063.603-.09l.568-.078-.199.115c.007-.298-.054-.519-.18-.662-.124-.142-.34-.214-.646-.214-.203 0-.381.047-.535.14-.151.091-.258.24-.32.447l-.525-.158a1.23 1.23 0 0 1 .469-.693c.232-.168.538-.252.917-.252.305 0 .566.055.783.165.22.108.377.271.472.491.048.103.078.216.09.339.013.12.019.246.019.379v2.075h-.491v-.804l.115.074a1.365 1.365 0 0 1-.531.615c-.226.139-.502.209-.827.209Zm.084-.463c.199 0 .371-.036.516-.106a.993.993 0 0 0 .354-.283.925.925 0 0 0 .174-.385c.031-.104.048-.219.05-.345a10.2 10.2 0 0 0 .006-.295l.193.084-.532.071c-.174.023-.338.048-.494.075a3.753 3.753 0 0 0-.419.09 1.35 1.35 0 0 0-.258.112.576.576 0 0 0-.193.177.464.464 0 0 0-.071.264.54.54 0 0 0 .068.261c.048.083.12.15.218.202a.836.836 0 0 0 .388.078Zm2.736 1.861.649-1.765.01.522-1.467-3.605h.581l1.15 2.9h-.199l1.078-2.9h.563l-1.827 4.848h-.538ZM156.003 363.619a2.18 2.18 0 0 1-.858-.162 1.638 1.638 0 0 1-.627-.46 1.544 1.544 0 0 1-.321-.711l.572-.091c.073.282.223.503.451.662.23.158.5.236.811.236.201 0 .382-.031.544-.093a.915.915 0 0 0 .388-.273.65.65 0 0 0 .143-.42.564.564 0 0 0-.193-.438.805.805 0 0 0-.199-.13 1.328 1.328 0 0 0-.233-.087l-1.14-.339a2.417 2.417 0 0 1-.36-.14 1.311 1.311 0 0 1-.311-.214.986.986 0 0 1-.218-.311 1.061 1.061 0 0 1-.08-.432c0-.265.068-.491.205-.677.138-.189.326-.333.562-.432.236-.1.502-.148.799-.146.3.002.568.056.804.161.239.104.435.253.591.448.157.194.263.428.317.699l-.588.102a1.031 1.031 0 0 0-.605-.773 1.284 1.284 0 0 0-.526-.112 1.26 1.26 0 0 0-.494.087.854.854 0 0 0-.351.252.556.556 0 0 0-.13.366.47.47 0 0 0 .118.333.87.87 0 0 0 .289.199c.116.047.229.087.338.118l.852.245c.097.027.209.064.335.112.129.048.253.115.373.202.12.085.22.199.299.342.078.141.118.319.118.534 0 .216-.044.407-.131.575a1.193 1.193 0 0 1-.357.423 1.677 1.677 0 0 1-.535.254c-.203.061-.42.091-.652.091Zm3.281 0c-.251 0-.461-.046-.631-.137a.973.973 0 0 1-.382-.367.997.997 0 0 1-.128-.497c0-.176.033-.328.1-.457a.893.893 0 0 1 .285-.323c.123-.087.269-.155.439-.205a5.07 5.07 0 0 1 .534-.112c.199-.033.4-.063.603-.09l.568-.078-.198.115c.006-.298-.054-.519-.181-.662-.124-.142-.339-.214-.646-.214-.203 0-.381.047-.534.14-.152.091-.258.24-.32.447l-.526-.158a1.23 1.23 0 0 1 .47-.693c.232-.168.537-.252.916-.252.305 0 .566.055.783.165.22.108.377.271.473.491.047.103.077.216.09.339.012.12.018.246.018.379v2.075h-.491v-.804l.115.074a1.365 1.365 0 0 1-.531.615c-.226.139-.501.209-.826.209Zm.083-.463c.199 0 .371-.036.516-.106a.993.993 0 0 0 .354-.283.9.9 0 0 0 .174-.385c.032-.104.048-.219.05-.345a10.2 10.2 0 0 0 .006-.295l.193.084-.531.071c-.174.023-.339.048-.494.075a3.725 3.725 0 0 0-.42.09 1.35 1.35 0 0 0-.258.112.572.572 0 0 0-.192.177.456.456 0 0 0-.072.264.54.54 0 0 0 .068.261c.048.083.121.15.218.202a.836.836 0 0 0 .388.078Zm4.332.369a2.47 2.47 0 0 1-.59.047 1.313 1.313 0 0 1-.516-.115.739.739 0 0 1-.345-.336.991.991 0 0 1-.109-.4 15.998 15.998 0 0 1-.006-.463v-3.021h.553v2.996c0 .136.001.253.003.351a.565.565 0 0 0 .065.252c.075.132.193.21.355.233.163.022.36.016.59-.019v.475Zm-2.247-2.899v-.457h2.247v.457h-2.247Zm4.202 2.986c-.215 0-.4-.034-.556-.102a1.113 1.113 0 0 1-.382-.274 1.333 1.333 0 0 1-.239-.379c-.058-.138-.1-.28-.125-.425a2.733 2.733 0 0 1-.034-.407v-1.856h.56v1.682c0 .157.014.309.043.456.029.147.078.28.146.398a.799.799 0 0 0 .28.28.872.872 0 0 0 .441.102.984.984 0 0 0 .379-.071.777.777 0 0 0 .292-.212.99.99 0 0 0 .187-.36c.043-.145.065-.314.065-.506l.363.111c0 .324-.059.602-.177.836a1.26 1.26 0 0 1-.494.541 1.453 1.453 0 0 1-.749.186Zm1.119-.087v-.898h-.062v-2.458h.556v3.356h-.494Zm1.364 0v-3.356h.494v.811l-.081-.105c.04-.104.091-.199.153-.286a.924.924 0 0 1 .214-.214.931.931 0 0 1 .295-.162c.11-.037.222-.059.336-.065.114-.009.22-.001.32.021v.519a1.039 1.039 0 0 0-.382-.024.773.773 0 0 0-.386.152.834.834 0 0 0-.251.279c-.058.11-.099.229-.121.358a2.162 2.162 0 0 0-.035.388v1.684h-.556Zm3.575.094c-.312 0-.581-.078-.804-.233a1.549 1.549 0 0 1-.519-.637 2.173 2.173 0 0 1-.181-.905c0-.335.06-.637.181-.904.122-.267.295-.477.519-.631.223-.155.49-.233.801-.233.317 0 .583.077.799.23.215.153.378.364.488.631.112.267.167.57.167.907 0 .334-.055.635-.167.905-.11.267-.273.479-.488.637-.216.155-.481.233-.796.233Zm.069-.507a.914.914 0 0 0 .556-.161.95.95 0 0 0 .32-.451c.07-.193.106-.411.106-.656 0-.248-.036-.467-.106-.655a.92.92 0 0 0-.317-.445.883.883 0 0 0-.544-.161.914.914 0 0 0-.565.168 1.004 1.004 0 0 0-.33.453c-.07.191-.105.404-.105.64 0 .239.036.454.108.647.073.19.182.341.327.453a.88.88 0 0 0 .55.168Zm.982.413v-2.47h-.063v-2.004h.557v4.474h-.494Zm2.318.094c-.25 0-.461-.046-.631-.137a.98.98 0 0 1-.382-.367.996.996 0 0 1-.127-.497.99.99 0 0 1 .099-.457.906.906 0 0 1 .286-.323c.122-.087.268-.155.438-.205.16-.043.338-.081.535-.112.199-.033.4-.063.603-.09l.568-.078-.199.115c.007-.298-.054-.519-.18-.662-.124-.142-.34-.214-.646-.214-.203 0-.381.047-.535.14-.151.091-.258.24-.32.447l-.525-.158a1.23 1.23 0 0 1 .469-.693c.232-.168.538-.252.917-.252.305 0 .566.055.783.165.22.108.377.271.472.491.048.103.078.216.09.339.013.12.019.246.019.379v2.075h-.491v-.804l.115.074a1.365 1.365 0 0 1-.531.615c-.226.139-.502.209-.827.209Zm.084-.463c.199 0 .371-.036.516-.106a.993.993 0 0 0 .354-.283.925.925 0 0 0 .174-.385c.031-.104.048-.219.05-.345a10.2 10.2 0 0 0 .006-.295l.193.084-.532.071c-.174.023-.338.048-.494.075a3.753 3.753 0 0 0-.419.09 1.35 1.35 0 0 0-.258.112.576.576 0 0 0-.193.177.464.464 0 0 0-.071.264.54.54 0 0 0 .068.261c.048.083.12.15.218.202a.836.836 0 0 0 .388.078Zm2.736 1.861.649-1.765.01.522-1.467-3.605h.581l1.15 2.9h-.199l1.078-2.9h.563l-1.827 4.848h-.538ZM198.599 363.619a2.18 2.18 0 0 1-.858-.162 1.641 1.641 0 0 1-.628-.46 1.553 1.553 0 0 1-.32-.711l.572-.091c.072.282.223.503.451.662.229.158.5.236.811.236.2 0 .382-.031.543-.093a.918.918 0 0 0 .389-.273.65.65 0 0 0 .143-.42.564.564 0 0 0-.193-.438.805.805 0 0 0-.199-.13 1.328 1.328 0 0 0-.233-.087l-1.14-.339a2.387 2.387 0 0 1-.361-.14 1.305 1.305 0 0 1-.31-.214.97.97 0 0 1-.218-.311 1.06 1.06 0 0 1-.081-.432c0-.265.069-.491.205-.677a1.31 1.31 0 0 1 .563-.432c.236-.1.502-.148.798-.146.301.002.569.056.805.161a1.525 1.525 0 0 1 .907 1.147l-.587.102a.98.98 0 0 0-.208-.469 1.034 1.034 0 0 0-.398-.304 1.276 1.276 0 0 0-.525-.112 1.26 1.26 0 0 0-.494.087.854.854 0 0 0-.351.252.557.557 0 0 0-.131.366c0 .137.04.248.118.333a.892.892 0 0 0 .289.199c.116.047.229.087.339.118l.852.245c.097.027.209.064.335.112.129.048.253.115.373.202.12.085.22.199.298.342.079.141.118.319.118.534 0 .216-.043.407-.13.575a1.193 1.193 0 0 1-.357.423 1.687 1.687 0 0 1-.535.254c-.203.061-.42.091-.652.091Zm3.6-.007a1.38 1.38 0 0 1-.556-.102 1.113 1.113 0 0 1-.382-.274 1.333 1.333 0 0 1-.239-.379c-.058-.138-.1-.28-.125-.425a2.606 2.606 0 0 1-.034-.407v-1.856h.559v1.682c0 .157.015.309.044.456.029.147.078.28.146.398a.79.79 0 0 0 .28.28.872.872 0 0 0 .441.102.984.984 0 0 0 .379-.071.777.777 0 0 0 .292-.212.99.99 0 0 0 .187-.36c.043-.145.065-.314.065-.506l.363.111c0 .324-.059.602-.177.836a1.26 1.26 0 0 1-.494.541 1.453 1.453 0 0 1-.749.186Zm1.119-.087v-.898h-.062v-2.458h.556v3.356h-.494Zm3.754 0v-1.681c0-.159-.015-.312-.044-.46a1.16 1.16 0 0 0-.146-.394.752.752 0 0 0-.28-.28.862.862 0 0 0-.441-.102.966.966 0 0 0-.379.071.749.749 0 0 0-.289.211 1.039 1.039 0 0 0-.19.361 1.767 1.767 0 0 0-.065.506l-.363-.112c0-.325.058-.603.174-.835.118-.235.282-.414.494-.538.213-.126.464-.19.752-.19.217 0 .403.035.556.103.153.068.281.159.382.273.102.112.181.239.239.38.058.138.099.28.122.425.024.143.037.279.037.407v1.855h-.559Zm-2.393 0v-3.356h.497v.898h.062v2.458h-.559Zm5.047.094c-.313 0-.581-.078-.805-.233a1.549 1.549 0 0 1-.519-.637 2.19 2.19 0 0 1-.18-.905c0-.335.06-.637.18-.904.122-.267.295-.477.519-.631.224-.155.491-.233.802-.233.317 0 .583.077.798.23.216.153.378.364.488.631.112.267.168.57.168.907 0 .334-.056.635-.168.905-.11.267-.272.479-.488.637-.215.155-.48.233-.795.233Zm.068-.507a.912.912 0 0 0 .556-.161.958.958 0 0 0 .321-.451c.07-.193.105-.411.105-.656 0-.248-.035-.467-.105-.655a.927.927 0 0 0-.317-.445.885.885 0 0 0-.544-.161.917.917 0 0 0-.566.168.995.995 0 0 0-.329.453 1.824 1.824 0 0 0-.106.64c0 .239.036.454.109.647.072.19.181.341.326.453a.882.882 0 0 0 .55.168Zm.982.413v-2.47h-.062v-2.004h.556v4.474h-.494Zm2.319.094c-.251 0-.461-.046-.631-.137a.973.973 0 0 1-.382-.367.997.997 0 0 1-.128-.497.99.99 0 0 1 .1-.457.887.887 0 0 1 .286-.323c.122-.087.268-.155.438-.205.159-.043.338-.081.534-.112.199-.033.4-.063.603-.09l.569-.078-.199.115c.006-.298-.054-.519-.18-.662-.125-.142-.34-.214-.647-.214-.203 0-.381.047-.534.14-.151.091-.258.24-.32.447l-.525-.158c.08-.294.237-.525.469-.693.232-.168.537-.252.917-.252.304 0 .565.055.783.165a.957.957 0 0 1 .472.491c.048.103.078.216.09.339.012.12.019.246.019.379v2.075h-.491v-.804l.115.074a1.373 1.373 0 0 1-.532.615c-.225.139-.501.209-.826.209Zm.084-.463c.199 0 .371-.036.516-.106a.993.993 0 0 0 .354-.283.925.925 0 0 0 .174-.385c.031-.104.047-.219.049-.345a7.93 7.93 0 0 0 .007-.295l.192.084-.531.071c-.174.023-.339.048-.494.075a3.823 3.823 0 0 0-.42.09 1.315 1.315 0 0 0-.257.112.576.576 0 0 0-.193.177.53.53 0 0 0-.003.525c.047.083.12.15.217.202a.84.84 0 0 0 .389.078Zm2.736 1.861.649-1.765.009.522-1.466-3.605h.581l1.149 2.9h-.198l1.078-2.9h.562l-1.827 4.848h-.537ZM234.606 363.525v-4.474h.503l1.691 3.564 1.681-3.564h.509v4.471h-.525v-3.256l-1.519 3.259h-.295l-1.52-3.259v3.259h-.525Zm6.685.094c-.333 0-.621-.076-.864-.227a1.509 1.509 0 0 1-.556-.628 2.078 2.078 0 0 1-.196-.92c0-.352.067-.661.199-.926.133-.265.32-.471.563-.618.242-.149.527-.224.854-.224.336 0 .625.076.867.227.242.149.428.357.556.625.131.265.196.57.196.916 0 .35-.065.659-.196.926a1.5 1.5 0 0 1-.559.625c-.242.149-.53.224-.864.224Zm0-.526c.348 0 .607-.116.777-.348.17-.232.255-.532.255-.901 0-.379-.086-.68-.258-.904-.172-.226-.43-.339-.774-.339a.984.984 0 0 0-.578.159.952.952 0 0 0-.339.438 1.742 1.742 0 0 0-.111.646c0 .377.087.68.261.908.174.228.429.341.767.341Zm4.693.432v-1.681c0-.159-.015-.312-.044-.46a1.14 1.14 0 0 0-.146-.394.75.75 0 0 0-.279-.28.866.866 0 0 0-.442-.102.966.966 0 0 0-.379.071.749.749 0 0 0-.289.211 1.021 1.021 0 0 0-.189.361 1.73 1.73 0 0 0-.066.506l-.363-.112c0-.325.058-.603.174-.835.118-.235.283-.414.494-.538.213-.126.464-.19.752-.19.217 0 .403.035.556.103.153.068.281.159.382.273.102.112.182.239.24.38.058.138.098.28.121.425.025.143.037.279.037.407v1.855h-.559Zm-2.393 0v-3.356h.497v.898h.062v2.458h-.559Zm5.047.094c-.313 0-.581-.078-.805-.233a1.564 1.564 0 0 1-.519-.637 2.19 2.19 0 0 1-.18-.905c0-.335.06-.637.18-.904a1.52 1.52 0 0 1 .519-.631c.224-.155.491-.233.802-.233.317 0 .583.077.799.23.215.153.378.364.487.631.112.267.168.57.168.907 0 .334-.056.635-.168.905a1.452 1.452 0 0 1-.487.637c-.216.155-.481.233-.796.233Zm.068-.507a.915.915 0 0 0 .557-.161.956.956 0 0 0 .32-.451c.07-.193.105-.411.105-.656 0-.248-.035-.467-.105-.655a.927.927 0 0 0-.317-.445.883.883 0 0 0-.544-.161.919.919 0 0 0-.566.168 1.002 1.002 0 0 0-.329.453c-.07.191-.106.404-.106.64 0 .239.037.454.109.647.073.19.181.341.326.453a.884.884 0 0 0 .55.168Zm.982.413v-2.47h-.062v-2.004h.556v4.474h-.494Zm2.319.094c-.251 0-.461-.046-.631-.137a.973.973 0 0 1-.382-.367.996.996 0 0 1-.127-.497.99.99 0 0 1 .099-.457.896.896 0 0 1 .286-.323c.122-.087.268-.155.438-.205.16-.043.338-.081.535-.112.198-.033.399-.063.602-.09l.569-.078-.199.115c.006-.298-.054-.519-.18-.662-.124-.142-.34-.214-.646-.214-.203 0-.382.047-.535.14-.151.091-.258.24-.32.447l-.525-.158a1.23 1.23 0 0 1 .469-.693c.232-.168.538-.252.917-.252.304 0 .565.055.783.165a.957.957 0 0 1 .472.491c.048.103.078.216.09.339.013.12.019.246.019.379v2.075h-.491v-.804l.115.074a1.371 1.371 0 0 1-.531.615c-.226.139-.502.209-.827.209Zm.084-.463c.199 0 .371-.036.516-.106a.993.993 0 0 0 .354-.283.925.925 0 0 0 .174-.385c.031-.104.048-.219.05-.345a10.2 10.2 0 0 0 .006-.295l.193.084-.532.071c-.174.023-.338.048-.494.075a3.753 3.753 0 0 0-.419.09 1.324 1.324 0 0 0-.258.112.576.576 0 0 0-.193.177.456.456 0 0 0-.071.264.53.53 0 0 0 .068.261c.048.083.12.15.217.202a.84.84 0 0 0 .389.078Zm2.736 1.861.649-1.765.01.522-1.467-3.605h.581l1.15 2.9h-.199l1.078-2.9h.562l-1.827 4.848h-.537ZM275.354 363.525v-3.949h-1.525v-.525h3.604v.525h-1.525v3.949h-.554Zm3.539.087c-.216 0-.401-.034-.557-.102a1.123 1.123 0 0 1-.382-.274 1.356 1.356 0 0 1-.239-.379c-.058-.138-.1-.28-.124-.425a2.613 2.613 0 0 1-.035-.407v-1.856h.56v1.682c0 .157.014.309.043.456.029.147.078.28.146.398a.799.799 0 0 0 .28.28.872.872 0 0 0 .441.102.984.984 0 0 0 .379-.071.77.77 0 0 0 .292-.212.99.99 0 0 0 .187-.36c.043-.145.065-.314.065-.506l.364.111c0 .324-.059.602-.178.836a1.26 1.26 0 0 1-.494.541 1.452 1.452 0 0 1-.748.186Zm1.118-.087v-.898h-.062v-2.458h.556v3.356h-.494Zm2.818.094a1.67 1.67 0 0 1-.863-.218 1.522 1.522 0 0 1-.572-.612 1.965 1.965 0 0 1-.205-.92c0-.366.067-.683.202-.951.134-.269.322-.476.562-.621.243-.147.526-.221.852-.221.337 0 .624.078.86.233.239.156.417.377.535.665.12.288.172.631.155 1.029h-.559v-.199c-.006-.412-.09-.72-.252-.923-.161-.205-.402-.308-.721-.308-.342 0-.602.11-.78.33-.178.219-.267.534-.267.944 0 .396.089.703.267.92.178.218.432.326.762.326.221 0 .414-.05.578-.152.163-.101.292-.247.385-.438l.531.183c-.13.297-.327.527-.59.69a1.634 1.634 0 0 1-.88.243Zm-1.239-1.616v-.445h2.479v.445h-2.479Zm4.725 1.613c-.4 0-.728-.088-.985-.262a1.1 1.1 0 0 1-.469-.736l.565-.09c.046.182.15.327.314.435a1.1 1.1 0 0 0 .609.158c.23 0 .41-.047.541-.143a.455.455 0 0 0 .195-.388.371.371 0 0 0-.065-.23c-.043-.06-.133-.116-.27-.168a6.632 6.632 0 0 0-.612-.186 3.756 3.756 0 0 1-.699-.246.893.893 0 0 1-.364-.295.727.727 0 0 1-.109-.407c0-.197.054-.369.162-.516.108-.149.258-.264.45-.345.195-.08.421-.121.678-.121.255 0 .482.041.683.121.201.081.363.196.485.345a.954.954 0 0 1 .221.516l-.566.103a.61.61 0 0 0-.261-.426c-.145-.104-.332-.158-.562-.165-.218-.008-.395.03-.532.115a.392.392 0 0 0-.202.345c0 .081.025.15.075.208a.735.735 0 0 0 .283.165c.139.052.34.111.603.177.296.075.529.157.699.246.172.087.294.19.366.31a.822.822 0 0 1 .109.439c0 .323-.119.578-.357.764-.238.184-.567.277-.985.277Zm3.345.003c-.313 0-.581-.078-.805-.233a1.556 1.556 0 0 1-.519-.637 2.19 2.19 0 0 1-.18-.905c0-.335.06-.637.18-.904.123-.267.295-.477.519-.631.224-.155.491-.233.802-.233.317 0 .583.077.799.23.215.153.378.364.487.631.112.267.168.57.168.907 0 .334-.056.635-.168.905a1.452 1.452 0 0 1-.487.637c-.216.155-.481.233-.796.233Zm.068-.507a.915.915 0 0 0 .557-.161.956.956 0 0 0 .32-.451c.07-.193.105-.411.105-.656 0-.248-.035-.467-.105-.655a.927.927 0 0 0-.317-.445.883.883 0 0 0-.544-.161.919.919 0 0 0-.566.168 1.002 1.002 0 0 0-.329.453c-.07.191-.106.404-.106.64 0 .239.037.454.109.647.073.19.181.341.326.453a.882.882 0 0 0 .55.168Zm.982.413v-2.47h-.062v-2.004h.556v4.474h-.494Zm2.319.094c-.251 0-.461-.046-.631-.137a.973.973 0 0 1-.382-.367.996.996 0 0 1-.127-.497.99.99 0 0 1 .099-.457.896.896 0 0 1 .286-.323c.122-.087.268-.155.438-.205.159-.043.338-.081.534-.112.199-.033.4-.063.603-.09l.569-.078-.199.115c.006-.298-.054-.519-.18-.662-.124-.142-.34-.214-.647-.214-.203 0-.381.047-.534.14-.151.091-.258.24-.32.447l-.525-.158a1.23 1.23 0 0 1 .469-.693c.232-.168.538-.252.917-.252.304 0 .565.055.783.165a.957.957 0 0 1 .472.491c.048.103.078.216.09.339.013.12.019.246.019.379v2.075h-.491v-.804l.115.074a1.373 1.373 0 0 1-.532.615c-.225.139-.501.209-.826.209Zm.084-.463c.199 0 .371-.036.516-.106a.993.993 0 0 0 .354-.283.925.925 0 0 0 .174-.385c.031-.104.048-.219.05-.345a10.2 10.2 0 0 0 .006-.295l.192.084-.531.071c-.174.023-.339.048-.494.075a3.753 3.753 0 0 0-.419.09 1.298 1.298 0 0 0-.258.112.576.576 0 0 0-.193.177.456.456 0 0 0-.071.264.53.53 0 0 0 .068.261c.048.083.12.15.217.202a.84.84 0 0 0 .389.078Zm2.736 1.861.649-1.765.009.522-1.466-3.605h.581l1.15 2.9h-.199l1.078-2.9h.562l-1.827 4.848h-.537Z" fill="#D5DDE7"/><path d="M76.79 343.719h216.823M76.79 320.019h216.823M76.79 296.32h216.823M76.79 272.617h216.823" stroke="#D5DDE7" stroke-opacity=".22" stroke-width=".345"/><path d="M80.278 273.28v2.283M80.278 305.25v4.187" stroke="#366AEF" stroke-width=".472" stroke-linecap="square"/><rect x="78.861" y="274.803" width="2.835" height="31.209" rx="1.417" fill="#366AEF"/><path d="M88.637 280.233v1.514M88.637 301.436v2.775" stroke="#F1364E" stroke-width=".472" stroke-linecap="square"/><rect x="87.22" y="281.241" width="2.835" height="20.696" rx="1.417" fill="#F1364E"/><path d="M96.996 289.41v2.09M96.96 318.613v12.794" stroke="#F1364E" stroke-width=".472" stroke-linecap="square"/><rect x="95.579" y="290.805" width="2.835" height="28.568" rx="1.417" fill="#F1364E"/><path d="M105.354 288.022v2.019M105.354 316.301v3.703" stroke="#366AEF" stroke-width=".472" stroke-linecap="square"/><rect x="103.937" y="289.369" width="2.835" height="27.608" rx="1.417" fill="#366AEF"/><path d="M288.96 285.52v2.019M288.96 313.801v3.703" stroke="#366AEF" stroke-width=".472" stroke-linecap="square"/><rect x="287.543" y="286.867" width="2.835" height="27.608" rx="1.417" fill="#366AEF"/><path d="M155.435 314.442v1.176M155.435 330.918v2.157" stroke="#366AEF" stroke-width=".472" stroke-linecap="square"/><rect x="154.018" y="315.227" width="2.835" height="16.085" rx="1.417" fill="#366AEF"/><path d="M172.118 295.252v7.51M172.154 323.719v2.96" stroke="#366AEF" stroke-width=".472" stroke-linecap="square"/><rect x="170.737" y="302.184" width="2.835" height="22.073" rx="1.417" fill="#366AEF"/><path d="M263.92 278.565v7.509M263.956 307.031v2.961" stroke="#366AEF" stroke-width=".472" stroke-linecap="square"/><rect x="262.539" y="285.496" width="2.835" height="22.073" rx="1.417" fill="#366AEF"/><path d="M180.476 273.561v3.058M180.476 310.275v2.225" stroke="#366AEF" stroke-width=".472" stroke-linecap="square"/><rect x="179.095" y="275.766" width="2.835" height="35.357" rx="1.417" fill="#366AEF"/><path d="M113.605 308.322v9.179M113.714 324.566v.998" stroke="#F1364E" stroke-width=".472" stroke-linecap="square"/><rect x="112.297" y="317.307" width="2.835" height="7.442" rx="1.417" fill="#F1364E"/><path d="M138.755 320.283v5.563M138.791 333.651v1.094" stroke="#F1364E" stroke-width=".472" stroke-linecap="square"/><rect x="137.374" y="325.688" width="2.835" height="8.162" rx="1.417" fill="#F1364E"/><path d="M122.037 312.492v4.326M122.037 333.072v10.013" stroke="#F1364E" stroke-width=".472" stroke-linecap="square"/><rect x="120.655" y="316.467" width="2.835" height="16.97" rx="1.417" fill="#F1364E"/><path d="M222.126 312.774v4.325M222.126 333.354v10.012" stroke="#F1364E" stroke-width=".472" stroke-linecap="square"/><rect x="220.745" y="316.748" width="2.835" height="16.97" rx="1.417" fill="#F1364E"/><path d="M147.114 312.492v9.735M147.149 338.561v3.412" stroke="#F1364E" stroke-width=".472" stroke-linecap="square"/><rect x="145.732" y="321.113" width="2.762" height="18.078" rx="1.381" fill="#F1364E"/><path d="M188.835 276.615v9.735M188.871 302.684v3.412" stroke="#F1364E" stroke-width=".472" stroke-linecap="square"/><rect x="187.454" y="285.237" width="2.762" height="18.078" rx="1.381" fill="#F1364E"/><path d="M197.121 331.41v-8.437M197.085 295.444v-5.754" stroke="#F1364E" stroke-width=".472" stroke-linecap="square"/><rect x="198.502" y="324.848" width="2.762" height="30.469" rx="1.381" transform="rotate(-180 198.502 324.848)" fill="#F1364E"/><path d="M272.279 315.555v-8.438M272.243 279.588v-5.753" stroke="#F1364E" stroke-width=".472" stroke-linecap="square"/><rect x="273.66" y="308.992" width="2.762" height="30.469" rx="1.381" transform="rotate(-180 273.66 308.992)" fill="#F1364E"/><path d="m130.396 297.481.036 23.699M130.432 329.172v1.126" stroke="#366AEF" stroke-width=".472" stroke-linecap="square"/><rect x="129.015" y="320.975" width="2.835" height="8.402" rx="1.417" fill="#366AEF"/><path d="m230.485 283.572.032 23.7M230.521 315.264v1.126" stroke="#366AEF" stroke-width=".472" stroke-linecap="square"/><rect x="229.104" y="307.067" width="2.835" height="8.402" rx="1.417" fill="#366AEF"/><path d="M163.759 315.555v3.616M163.795 327.221v1.126" stroke="#366AEF" stroke-width=".472" stroke-linecap="square"/><rect x="162.378" y="319.024" width="2.835" height="8.402" rx="1.417" fill="#366AEF"/><path d="M205.408 299.149v3.615M205.443 310.815v1.126" stroke="#366AEF" stroke-width=".472" stroke-linecap="square"/><rect x="204.026" y="302.617" width="2.835" height="8.402" rx="1.417" fill="#366AEF"/><path d="M255.562 301.096v3.616M255.598 312.762v1.126" stroke="#366AEF" stroke-width=".472" stroke-linecap="square"/><rect x="254.181" y="304.565" width="2.835" height="8.402" rx="1.417" fill="#366AEF"/><path d="M213.767 308.322v4.717M213.803 323.539v1.47" stroke="#F1364E" stroke-width=".472" stroke-linecap="square"/><rect x="212.386" y="312.848" width="2.835" height="10.96" rx="1.417" fill="#F1364E"/><path d="M238.843 302.76v4.716M238.879 317.979v1.47" stroke="#F1364E" stroke-width=".472" stroke-linecap="square"/><rect x="237.462" y="307.286" width="2.835" height="10.96" rx="1.417" fill="#F1364E"/><path d="M280.565 279.676v4.716M280.602 294.895v1.47" stroke="#F1364E" stroke-width=".472" stroke-linecap="square"/><rect x="279.185" y="284.201" width="2.835" height="10.96" rx="1.417" fill="#F1364E"/><path d="M247.203 313.607v2.672M247.238 322.23v.833" stroke="#F1364E" stroke-width=".472" stroke-linecap="square"/><rect x="245.821" y="316.17" width="2.835" height="6.21" rx="1.417" fill="#F1364E"/><rect x="212.132" y="243.932" width="81.482" height="15.882" rx="2.762" fill="#F9FAFC"/><path fill-rule="evenodd" clip-rule="evenodd" d="M285.095 249.549a.74.74 0 0 1 .26 1.026.3.3 0 0 0-.035.144.322.322 0 0 0 .323.319.74.74 0 0 1 .738.738v.345l-.002.027a.74.74 0 0 1-.733.71.325.325 0 0 0-.312.238.313.313 0 0 0 .033.243.745.745 0 0 1 .074.56.747.747 0 0 1-.345.448l-.313.173a.738.738 0 0 1-1.003-.272.328.328 0 0 0-.113-.115l-.001-.001a.318.318 0 0 0-.434.121.74.74 0 0 1-1.007.268l-.301-.174a.738.738 0 0 1-.27-1.008.288.288 0 0 0 .037-.148.315.315 0 0 0-.093-.229.32.32 0 0 0-.225-.093.74.74 0 0 1-.732-.75l-.001-.345c0-.406.33-.736.735-.736a.32.32 0 0 0 .279-.483.741.741 0 0 1 .27-1.007l.317-.173a.738.738 0 0 1 1.003.27.29.29 0 0 0 .111.114.322.322 0 0 0 .436-.115.73.73 0 0 1 1.004-.268l.3.173Zm-.207.36-.301-.173a.325.325 0 0 0-.244-.033.322.322 0 0 0-.194.151.74.74 0 0 1-1.004.264.707.707 0 0 1-.262-.267.322.322 0 0 0-.438-.113l-.317.173a.321.321 0 0 0-.114.436.74.74 0 0 1-.639 1.107.32.32 0 0 0-.319.319l.001.349a.325.325 0 0 0 .09.234.33.33 0 0 0 .228.098.728.728 0 0 1 .518.214.74.74 0 0 1 .122.877.324.324 0 0 0 .117.443l.301.173c.153.089.35.037.439-.116a.728.728 0 0 1 .447-.344.725.725 0 0 1 .82.338c.09.153.286.206.44.119l.313-.174a.32.32 0 0 0 .115-.436.732.732 0 0 1 .271-1.007.736.736 0 0 1 .367-.098.324.324 0 0 0 .319-.321l.001-.021v-.325a.322.322 0 0 0-.321-.323.728.728 0 0 1-.52-.211.729.729 0 0 1-.127-.878.324.324 0 0 0-.109-.455Zm-.908 1.227a.938.938 0 1 1-.938 1.625.938.938 0 0 1 .938-1.625Zm-.208.36a.523.523 0 1 0-.522.907.523.523 0 0 0 .522-.907Z" fill="#99ACC4"/><path d="M277.386 249.457v4.834" stroke="#E1E6EE" stroke-width=".518" stroke-linecap="round"/><path d="M252.9 252.141v-3.219l-.702.425v-.516l.702-.419h.469v3.729h-.469Zm2.348 0v-1.551l-1.256-2.178h.536l.953 1.649.95-1.649h.536l-1.253 2.178v1.551h-.466ZM242.529 252.141v-3.219l-.702.425v-.516l.702-.419h.468v3.729h-.468Zm1.454 0v-3.729h.419l1.409 2.97 1.401-2.97h.424v3.726h-.437v-2.714l-1.267 2.717h-.246l-1.266-2.717v2.717h-.437ZM231.417 252.141v-3.219l-.701.425v-.516l.701-.419h.469v3.729h-.469Zm2.249 0-1.08-3.729h.482l.829 2.949.826-2.947.484-.002.829 2.949.826-2.949h.484l-1.08 3.729h-.461l-.839-2.924-.839 2.924h-.461Z" fill="#99ACC4"/><path d="M226.477 249.132h-2.384a.217.217 0 0 0-.153.371l1.043 1.043a.43.43 0 0 0 .606 0l.397-.397.646-.646a.218.218 0 0 0-.155-.371Z" fill="#292D32"/><path d="M218.577 252.141v-3.219l-.701.425v-.516l.701-.419h.469v3.729h-.469Zm1.454 0v-3.729h1.15l.2.002c.094.002.185.009.271.021.289.038.53.143.723.316.195.171.342.388.44.653.098.264.148.555.148.872 0 .318-.05.609-.148.873a1.605 1.605 0 0 1-.44.655 1.32 1.32 0 0 1-.723.313 2.854 2.854 0 0 1-.274.021l-.197.003h-1.15Zm.474-.441h.676c.066 0 .139-.001.22-.005a2.14 2.14 0 0 0 .213-.023.883.883 0 0 0 .494-.256c.126-.133.219-.299.277-.498.059-.198.088-.412.088-.642 0-.235-.03-.451-.09-.65a1.188 1.188 0 0 0-.277-.494.876.876 0 0 0-.492-.252 1.524 1.524 0 0 0-.215-.023 6.263 6.263 0 0 0-.218-.005h-.676v2.848Z" fill="#2B87FF"/></g><g filter="url(#f)"><g clip-path="url(#g)"><rect x="111" y="317.617" width="220.923" height="51.754" rx="8.086" fill="#fff"/><path d="m318.013 330.231 3.235-3.235m0 3.235-3.235-3.235" stroke="#2D5587" stroke-opacity=".8" stroke-width=".809" stroke-linecap="round" stroke-linejoin="round"/><path d="M163.116 352.729v-3.727h.465l1.944 2.911v-2.911h.466v3.727h-.466l-1.944-2.914v2.914h-.465Zm4.377 0v-3.217l-.701.424v-.515l.701-.419h.468v3.727h-.468Zm2.685.077a1.23 1.23 0 0 1-.958-.445 1.29 1.29 0 0 1-.248-.481l.442-.119a.758.758 0 0 0 .166.318.806.806 0 0 0 .611.279.784.784 0 0 0 .698-.401.783.783 0 0 0 .106-.401.804.804 0 0 0-.804-.802.817.817 0 0 0-.696.352l-.409-.155.114-1.949h2v.438h-1.778l.205-.192-.096 1.56-.101-.132c.103-.11.227-.195.37-.256.145-.06.292-.09.442-.09a1.19 1.19 0 0 1 1.056.603c.107.184.161.392.161.623 0 .23-.059.439-.176.629a1.348 1.348 0 0 1-.469.453 1.244 1.244 0 0 1-.636.168Zm3.287 0c-.242 0-.458-.054-.647-.163a1.234 1.234 0 0 1-.448-.448 1.27 1.27 0 0 1-.163-.646v-1.367c0-.241.054-.457.163-.647.11-.189.26-.339.448-.447.189-.109.405-.163.647-.163.241 0 .457.054.646.163.19.108.339.258.448.447.109.19.163.406.163.647v1.367c0 .241-.054.457-.163.646a1.211 1.211 0 0 1-.448.448 1.27 1.27 0 0 1-.646.163Zm0-.442a.772.772 0 0 0 .398-.106.783.783 0 0 0 .391-.684v-1.42a.773.773 0 0 0-.391-.683.762.762 0 0 0-.398-.106.774.774 0 0 0-.399.106.773.773 0 0 0-.391.683v1.42a.783.783 0 0 0 .79.79Zm3.369.442c-.242 0-.458-.054-.647-.163a1.234 1.234 0 0 1-.448-.448 1.27 1.27 0 0 1-.163-.646v-1.367c0-.241.054-.457.163-.647.11-.189.26-.339.448-.447.189-.109.405-.163.647-.163.241 0 .457.054.646.163.19.108.339.258.448.447.109.19.163.406.163.647v1.367c0 .241-.054.457-.163.646a1.211 1.211 0 0 1-.448.448 1.27 1.27 0 0 1-.646.163Zm0-.442a.772.772 0 0 0 .398-.106.783.783 0 0 0 .391-.684v-1.42a.773.773 0 0 0-.391-.683.762.762 0 0 0-.398-.106.774.774 0 0 0-.399.106.773.773 0 0 0-.391.683v1.42a.783.783 0 0 0 .79.79Zm5.266.365v-1.4c0-.133-.012-.261-.036-.383a.965.965 0 0 0-.121-.329.635.635 0 0 0-.233-.233.716.716 0 0 0-.368-.085.827.827 0 0 0-.316.059.619.619 0 0 0-.24.176.871.871 0 0 0-.158.3c-.036.119-.054.26-.054.422l-.303-.093c0-.271.048-.503.145-.696.098-.195.235-.344.411-.448a1.21 1.21 0 0 1 .626-.158c.182 0 .336.029.464.086a.943.943 0 0 1 .318.227c.084.094.151.199.199.316a1.95 1.95 0 0 1 .132.694v1.545h-.466Zm-1.992 0v-3.727h.414v2.057h.052v1.67h-.466Zm4.055.077c-.209 0-.384-.038-.526-.114a.813.813 0 0 1-.318-.305.829.829 0 0 1-.106-.414c0-.147.028-.274.083-.38a.744.744 0 0 1 .238-.27c.102-.072.223-.129.365-.17a4.01 4.01 0 0 1 .445-.094c.165-.027.333-.052.502-.075l.473-.064-.165.095c.005-.248-.045-.432-.15-.551-.104-.119-.283-.178-.539-.178a.846.846 0 0 0-.445.116.62.62 0 0 0-.266.373l-.437-.132c.067-.245.197-.437.39-.577.194-.14.448-.21.764-.21.253 0 .471.046.652.137.183.09.314.226.393.409.04.086.065.18.075.282.01.1.016.206.016.316v1.729h-.409v-.671l.096.062a1.155 1.155 0 0 1-.443.513 1.294 1.294 0 0 1-.688.173Zm.07-.385c.165 0 .308-.03.429-.088a.82.82 0 0 0 .295-.236.765.765 0 0 0 .145-.321c.026-.086.04-.182.041-.287.004-.107.006-.189.006-.246l.16.07-.442.06a9.346 9.346 0 0 0-.412.062c-.129.02-.246.045-.349.075a1.117 1.117 0 0 0-.215.093.481.481 0 0 0-.16.147.446.446 0 0 0-.003.438c.04.069.1.125.181.168a.704.704 0 0 0 .324.065Zm3.232.383c-.333 0-.607-.073-.821-.218a.915.915 0 0 1-.39-.613l.471-.075a.591.591 0 0 0 .261.362.915.915 0 0 0 .507.132c.192 0 .342-.04.45-.119a.378.378 0 0 0 .163-.323.312.312 0 0 0-.054-.192c-.036-.05-.111-.096-.225-.14a5.587 5.587 0 0 0-.51-.155 3.149 3.149 0 0 1-.582-.204.745.745 0 0 1-.303-.246.612.612 0 0 1-.09-.339c0-.164.044-.307.134-.43a.862.862 0 0 1 .375-.287 1.47 1.47 0 0 1 .564-.101c.213 0 .402.034.57.101a.978.978 0 0 1 .403.287.791.791 0 0 1 .184.43l-.471.085a.506.506 0 0 0-.217-.354.83.83 0 0 0-.469-.137.774.774 0 0 0-.442.095.327.327 0 0 0-.168.288c0 .067.02.125.062.173a.607.607 0 0 0 .235.137c.116.043.283.092.502.148.247.062.441.13.583.204a.727.727 0 0 1 .305.259c.06.098.09.22.09.365a.764.764 0 0 1-.297.636c-.199.154-.472.231-.82.231Zm4.267.002c-.263 0-.484-.065-.663-.194a1.23 1.23 0 0 1-.409-.53 1.992 1.992 0 0 1-.137-.753c0-.282.046-.533.137-.756.093-.223.23-.398.409-.525.181-.128.403-.192.665-.192.259 0 .481.065.668.194.188.128.332.303.432.526.1.222.15.473.15.753 0 .279-.05.53-.15.753-.1.222-.244.399-.432.53a1.15 1.15 0 0 1-.67.194Zm-1.287-.077v-3.727h.464v1.669h-.052v2.058h-.412Zm1.23-.345a.73.73 0 0 0 .458-.139.848.848 0 0 0 .271-.378c.061-.161.091-.34.091-.538 0-.197-.03-.375-.091-.533a.805.805 0 0 0-.274-.378.752.752 0 0 0-.468-.14.728.728 0 0 0-.451.135.784.784 0 0 0-.266.37 1.548 1.548 0 0 0-.088.546c0 .203.028.385.085.546a.822.822 0 0 0 .269.375c.121.09.276.134.464.134Zm3.217.422c-.275 0-.514-.06-.72-.181a1.267 1.267 0 0 1-.476-.51 1.635 1.635 0 0 1-.171-.766c0-.305.056-.569.169-.792.112-.224.268-.396.468-.517.202-.123.438-.184.709-.184.281 0 .52.065.717.194.198.13.346.314.445.554.1.24.143.525.129.857h-.466v-.166c-.005-.343-.075-.6-.209-.769-.135-.17-.335-.256-.601-.256-.284 0-.501.092-.649.275-.148.182-.223.445-.223.786 0 .33.075.585.223.766.148.181.36.272.634.272a.888.888 0 0 0 .481-.127.856.856 0 0 0 .321-.365l.443.153a1.252 1.252 0 0 1-.492.574 1.36 1.36 0 0 1-.732.202Zm-1.033-1.345v-.37h2.065v.37h-2.065Zm4.22 1.345c-.275 0-.514-.06-.72-.181a1.267 1.267 0 0 1-.476-.51 1.635 1.635 0 0 1-.171-.766c0-.305.056-.569.169-.792.112-.224.268-.396.468-.517.202-.123.438-.184.709-.184.281 0 .52.065.717.194.198.13.347.314.445.554.1.24.143.525.129.857h-.466v-.166c-.005-.343-.075-.6-.209-.769-.135-.17-.335-.256-.6-.256-.285 0-.502.092-.65.275-.148.182-.223.445-.223.786 0 .33.075.585.223.766.148.181.36.272.634.272a.888.888 0 0 0 .481-.127.85.85 0 0 0 .321-.365l.443.153a1.252 1.252 0 0 1-.492.574 1.357 1.357 0 0 1-.732.202Zm-1.033-1.345v-.37h2.065v.37h-2.065Zm4.923 1.268v-1.4c0-.133-.012-.261-.036-.383a.966.966 0 0 0-.122-.329.635.635 0 0 0-.233-.233.712.712 0 0 0-.367-.085.824.824 0 0 0-.316.059.63.63 0 0 0-.241.176.871.871 0 0 0-.158.3c-.036.119-.054.26-.054.422l-.303-.093c0-.271.049-.503.145-.696.099-.195.236-.344.412-.448.177-.105.386-.158.626-.158.181 0 .336.029.463.086a.924.924 0 0 1 .318.227 1.1 1.1 0 0 1 .2.316c.048.116.082.234.101.355.02.119.031.232.031.339v1.545h-.466Zm-1.993 0v-2.795h.414v.748h.052v2.047h-.466Zm5.482.075c-.333 0-.606-.073-.82-.218a.916.916 0 0 1-.391-.613l.471-.075a.595.595 0 0 0 .261.362.92.92 0 0 0 .508.132c.191 0 .341-.04.45-.119a.38.38 0 0 0 .163-.323.306.306 0 0 0-.055-.192c-.036-.05-.111-.096-.225-.14a5.646 5.646 0 0 0-.509-.155 3.19 3.19 0 0 1-.583-.204.748.748 0 0 1-.302-.246.604.604 0 0 1-.091-.339c0-.164.045-.307.135-.43a.85.85 0 0 1 .375-.287c.162-.067.35-.101.564-.101.212 0 .402.034.569.101a.982.982 0 0 1 .404.287.799.799 0 0 1 .184.43l-.471.085a.508.508 0 0 0-.218-.354.828.828 0 0 0-.468-.137.778.778 0 0 0-.443.095.327.327 0 0 0-.168.288c0 .067.021.125.062.173a.613.613 0 0 0 .236.137c.115.043.283.092.502.148.246.062.441.13.582.204a.727.727 0 0 1 .305.259.68.68 0 0 1 .091.365.762.762 0 0 1-.298.636c-.198.154-.471.231-.82.231Zm2.879-.003c-.179 0-.334-.028-.463-.085a.926.926 0 0 1-.319-.228c-.084-.095-.15-.2-.199-.316a1.607 1.607 0 0 1-.103-.354 2.197 2.197 0 0 1-.029-.339v-1.545h.466v1.4c0 .131.012.258.036.38.024.123.065.233.122.331a.65.65 0 0 0 .233.233.722.722 0 0 0 .367.086c.116 0 .221-.02.316-.06a.645.645 0 0 0 .243-.176.818.818 0 0 0 .155-.3c.037-.121.055-.261.055-.422l.303.093c0 .269-.05.502-.148.696a1.064 1.064 0 0 1-.411.451 1.214 1.214 0 0 1-.624.155Zm.932-.072v-.748h-.052v-2.047h.463v2.795h-.411Zm2.442.077a1.32 1.32 0 0 1-.722-.189 1.235 1.235 0 0 1-.45-.525 1.84 1.84 0 0 1-.16-.761c.003-.291.057-.548.163-.768.107-.223.259-.396.458-.52.198-.125.437-.187.716-.187.295 0 .549.073.761.218.214.144.357.343.43.595l-.456.137a.746.746 0 0 0-.287-.378.78.78 0 0 0-.453-.134.785.785 0 0 0-.473.134.774.774 0 0 0-.277.368 1.473 1.473 0 0 0-.093.535c.003.311.075.562.214.753.142.19.351.285.629.285a.795.795 0 0 0 .456-.124.785.785 0 0 0 .274-.365l.466.121c-.097.261-.248.46-.453.598a1.3 1.3 0 0 1-.743.207Zm2.955 0c-.283 0-.524-.063-.722-.189a1.221 1.221 0 0 1-.45-.525 1.84 1.84 0 0 1-.161-.761c.004-.291.058-.548.163-.768.107-.223.26-.396.458-.52a1.32 1.32 0 0 1 .717-.187c.295 0 .549.073.761.218.214.144.357.343.429.595l-.455.137a.752.752 0 0 0-.287-.378.78.78 0 0 0-.453-.134.788.788 0 0 0-.474.134.787.787 0 0 0-.277.368c-.06.155-.091.333-.093.535.004.311.075.562.215.753.141.19.351.285.629.285a.79.79 0 0 0 .455-.124.787.787 0 0 0 .275-.365l.465.121c-.096.261-.247.46-.452.598a1.302 1.302 0 0 1-.743.207Zm2.988 0c-.274 0-.514-.06-.719-.181a1.253 1.253 0 0 1-.476-.51 1.635 1.635 0 0 1-.171-.766c0-.305.056-.569.168-.792.112-.224.268-.396.468-.517.202-.123.439-.184.709-.184.282 0 .521.065.717.194.199.13.347.314.445.554.1.24.143.525.13.857h-.466v-.166c-.005-.343-.075-.6-.21-.769-.134-.17-.334-.256-.6-.256-.285 0-.501.092-.65.275-.148.182-.222.445-.222.786 0 .33.074.585.222.766.149.181.36.272.634.272a.894.894 0 0 0 .482-.127.863.863 0 0 0 .321-.365l.442.153a1.252 1.252 0 0 1-.492.574 1.357 1.357 0 0 1-.732.202Zm-1.032-1.345v-.37h2.065v.37h-2.065Zm4.064 1.343c-.333 0-.606-.073-.82-.218a.912.912 0 0 1-.391-.613l.471-.075a.595.595 0 0 0 .261.362.917.917 0 0 0 .507.132c.192 0 .342-.04.451-.119a.38.38 0 0 0 .163-.323.306.306 0 0 0-.055-.192c-.036-.05-.111-.096-.225-.14a5.587 5.587 0 0 0-.51-.155 3.204 3.204 0 0 1-.582-.204.759.759 0 0 1-.303-.246.612.612 0 0 1-.09-.339c0-.164.045-.307.134-.43a.86.86 0 0 1 .376-.287c.162-.067.35-.101.564-.101.212 0 .402.034.569.101a.988.988 0 0 1 .404.287.797.797 0 0 1 .183.43l-.471.085a.503.503 0 0 0-.217-.354.828.828 0 0 0-.468-.137.778.778 0 0 0-.443.095.327.327 0 0 0-.168.288c0 .067.021.125.062.173a.613.613 0 0 0 .236.137c.115.043.283.092.502.148.246.062.44.13.582.204a.727.727 0 0 1 .305.259.68.68 0 0 1 .091.365.762.762 0 0 1-.298.636c-.198.154-.472.231-.82.231Zm2.874 0c-.333 0-.607-.073-.821-.218a.915.915 0 0 1-.39-.613l.471-.075a.595.595 0 0 0 .261.362.915.915 0 0 0 .507.132c.192 0 .342-.04.45-.119a.378.378 0 0 0 .163-.323.312.312 0 0 0-.054-.192c-.036-.05-.111-.096-.225-.14a5.587 5.587 0 0 0-.51-.155 3.149 3.149 0 0 1-.582-.204.752.752 0 0 1-.303-.246.612.612 0 0 1-.09-.339c0-.164.044-.307.134-.43a.862.862 0 0 1 .375-.287c.163-.067.351-.101.564-.101.213 0 .402.034.57.101a.978.978 0 0 1 .403.287.791.791 0 0 1 .184.43l-.471.085a.506.506 0 0 0-.217-.354.83.83 0 0 0-.469-.137.774.774 0 0 0-.442.095.327.327 0 0 0-.168.288c0 .067.02.125.062.173a.615.615 0 0 0 .235.137c.116.043.283.092.502.148.247.062.441.13.583.204a.727.727 0 0 1 .305.259c.06.098.091.22.091.365 0 .269-.1.481-.298.636-.198.154-.472.231-.82.231Zm2.084-.075v-2.948c0-.072.004-.146.01-.22a.958.958 0 0 1 .047-.22.553.553 0 0 1 .119-.199.546.546 0 0 1 .21-.15.792.792 0 0 1 .23-.057c.079-.007.154-.01.225-.01h.355v.383h-.329c-.136 0-.238.033-.305.101-.068.065-.101.165-.101.3v3.02h-.461Zm-.473-2.415v-.38h1.669v.38h-1.669Zm3.272 2.487c-.179 0-.334-.028-.463-.085a.913.913 0 0 1-.318-.228 1.127 1.127 0 0 1-.2-.316 1.607 1.607 0 0 1-.103-.354 2.197 2.197 0 0 1-.029-.339v-1.545h.466v1.4c0 .131.012.258.036.38.024.123.065.233.122.331a.65.65 0 0 0 .233.233.722.722 0 0 0 .367.086c.116 0 .221-.02.316-.06a.645.645 0 0 0 .243-.176.818.818 0 0 0 .155-.3c.037-.121.055-.261.055-.422l.303.093c0 .269-.05.502-.148.696a1.064 1.064 0 0 1-.411.451 1.214 1.214 0 0 1-.624.155Zm.932-.072v-.748h-.052v-2.047h.463v2.795h-.411Zm1.317 0v-3.804h.46v3.804h-.46Zm1.418 0v-3.804h.46v3.804h-.46Zm1.754 1.242.541-1.47.008.435-1.221-3.002h.483l.958 2.414h-.166l.898-2.414h.469l-1.522 4.037h-.448Zm4.789-1.165c-.26 0-.484-.065-.67-.194a1.286 1.286 0 0 1-.432-.53 1.82 1.82 0 0 1-.15-.753c0-.28.05-.531.15-.753.101-.223.246-.398.432-.526.186-.129.409-.194.667-.194.264 0 .486.064.665.192.18.127.315.302.407.525.093.223.139.474.139.756 0 .277-.046.528-.139.753a1.212 1.212 0 0 1-.407.53c-.179.129-.4.194-.662.194Zm.057-.422a.754.754 0 0 0 .463-.134.798.798 0 0 0 .267-.375c.058-.161.088-.343.088-.546 0-.207-.03-.389-.088-.546a.767.767 0 0 0-.264-.37.73.73 0 0 0-.453-.135.764.764 0 0 0-.471.14.826.826 0 0 0-.274.378 1.516 1.516 0 0 0-.088.533c0 .198.03.377.09.538a.85.85 0 0 0 .272.378.734.734 0 0 0 .458.139Zm.818.345v-2.058h-.052v-1.669h.463v3.727h-.411Zm2.477.077a1.39 1.39 0 0 1-.72-.181 1.267 1.267 0 0 1-.476-.51 1.635 1.635 0 0 1-.171-.766c0-.305.056-.569.168-.792a1.24 1.24 0 0 1 .469-.517c.202-.123.438-.184.709-.184.281 0 .52.065.717.194.198.13.346.314.445.554.1.24.143.525.129.857h-.466v-.166c-.005-.343-.075-.6-.209-.769-.135-.17-.335-.256-.601-.256-.284 0-.501.092-.649.275-.149.182-.223.445-.223.786 0 .33.074.585.223.766.148.181.36.272.634.272a.89.89 0 0 0 .481-.127.863.863 0 0 0 .321-.365l.442.153a1.244 1.244 0 0 1-.491.574 1.362 1.362 0 0 1-.732.202Zm-1.033-1.345v-.37h2.065v.37h-2.065Zm4.216 1.345c-.262 0-.483-.065-.662-.194a1.223 1.223 0 0 1-.409-.53 1.992 1.992 0 0 1-.137-.753c0-.282.046-.533.137-.756a1.18 1.18 0 0 1 .409-.525c.181-.128.403-.192.665-.192.259 0 .481.065.667.194.188.128.333.303.433.526.1.222.15.473.15.753 0 .279-.05.53-.15.753-.1.222-.245.399-.433.53a1.146 1.146 0 0 1-.67.194Zm-1.286 1.165v-4.037h.412v2.057h.051v1.98h-.463Zm1.229-1.587a.726.726 0 0 0 .458-.139.842.842 0 0 0 .272-.378c.06-.161.091-.34.091-.538 0-.197-.031-.375-.091-.533a.812.812 0 0 0-.274-.378.755.755 0 0 0-.469-.14.725.725 0 0 0-.45.135.777.777 0 0 0-.266.37 1.548 1.548 0 0 0-.088.546c0 .203.028.385.085.546a.815.815 0 0 0 .269.375c.121.09.275.134.463.134Zm3.197.422c-.278 0-.518-.063-.72-.189-.2-.126-.354-.3-.463-.522a1.722 1.722 0 0 1-.163-.766c0-.294.055-.551.166-.772.11-.22.266-.392.468-.514.202-.125.439-.187.712-.187.279 0 .52.063.722.189.201.124.356.298.463.52.109.221.163.475.163.764 0 .291-.054.548-.163.771a1.25 1.25 0 0 1-.466.52 1.348 1.348 0 0 1-.719.186Zm0-.437c.289 0 .505-.097.647-.29.141-.193.212-.443.212-.75 0-.316-.072-.567-.215-.753-.143-.188-.358-.282-.644-.282a.83.83 0 0 0-.482.131.79.79 0 0 0-.282.365 1.45 1.45 0 0 0-.093.539c0 .314.073.565.218.755.144.19.357.285.639.285Zm3.062.435c-.333 0-.606-.073-.82-.218a.92.92 0 0 1-.391-.613l.471-.075a.593.593 0 0 0 .262.362.915.915 0 0 0 .507.132c.191 0 .341-.04.45-.119a.378.378 0 0 0 .163-.323.312.312 0 0 0-.054-.192.51.51 0 0 0-.225-.14 5.69 5.69 0 0 0-.51-.155 3.149 3.149 0 0 1-.582-.204.745.745 0 0 1-.303-.246.604.604 0 0 1-.091-.339c0-.164.045-.307.135-.43a.862.862 0 0 1 .375-.287c.162-.067.35-.101.564-.101.212 0 .402.034.569.101a.982.982 0 0 1 .404.287.791.791 0 0 1 .184.43l-.471.085a.51.51 0 0 0-.217-.354.83.83 0 0 0-.469-.137.774.774 0 0 0-.442.095c-.112.071-.169.167-.169.288 0 .067.021.125.063.173a.607.607 0 0 0 .235.137c.116.043.283.092.502.148.247.062.441.13.582.204a.737.737 0 0 1 .306.259c.06.098.09.22.09.365a.764.764 0 0 1-.297.636c-.199.154-.472.231-.821.231Zm1.87-3.364v-.477h.461v.477h-.461Zm0 3.289v-2.795h.461v2.795h-.461Zm2.927 0c-.166.032-.33.045-.492.038a1.099 1.099 0 0 1-.429-.095.625.625 0 0 1-.288-.28.826.826 0 0 1-.09-.334 11.257 11.257 0 0 1-.005-.385v-2.515h.46v2.494c0 .114.001.211.003.292a.456.456 0 0 0 .054.21c.062.11.161.175.295.194.136.019.3.014.492-.015v.396Zm-1.871-2.415v-.38h1.871v.38h-1.871Zm3.662 2.492c-.274 0-.514-.06-.719-.181a1.26 1.26 0 0 1-.476-.51 1.635 1.635 0 0 1-.171-.766c0-.305.056-.569.168-.792.112-.224.269-.396.469-.517.201-.123.438-.184.709-.184.281 0 .52.065.716.194.199.13.347.314.446.554.1.24.143.525.129.857h-.466v-.166c-.005-.343-.075-.6-.209-.769-.135-.17-.335-.256-.601-.256-.284 0-.501.092-.649.275-.149.182-.223.445-.223.786 0 .33.074.585.223.766.148.181.359.272.634.272a.89.89 0 0 0 .481-.127.863.863 0 0 0 .321-.365l.442.153a1.244 1.244 0 0 1-.491.574 1.363 1.363 0 0 1-.733.202Zm-1.032-1.345v-.37h2.065v.37h-2.065Zm4.106 1.345c-.261 0-.484-.065-.671-.194a1.294 1.294 0 0 1-.432-.53 1.82 1.82 0 0 1-.15-.753c0-.28.05-.531.15-.753.102-.223.246-.398.432-.526.187-.129.409-.194.668-.194.264 0 .486.064.665.192.179.127.315.302.406.525.093.223.14.474.14.756 0 .277-.047.528-.14.753a1.21 1.21 0 0 1-.406.53c-.179.129-.4.194-.662.194Zm.057-.422a.754.754 0 0 0 .463-.134.803.803 0 0 0 .266-.375 1.58 1.58 0 0 0 .088-.546c0-.207-.029-.389-.088-.546a.767.767 0 0 0-.264-.37.73.73 0 0 0-.453-.135.763.763 0 0 0-.47.14.835.835 0 0 0-.275.378 1.54 1.54 0 0 0-.088.533c0 .198.03.377.091.538.06.159.151.284.272.378a.734.734 0 0 0 .458.139Zm.817.345v-2.058h-.052v-1.669h.464v3.727h-.412Zm2.483-3.289v-.477h.461v.477h-.461Zm0 3.289v-2.795h.461v2.795h-.461Zm3.357 0v-1.4c0-.133-.012-.261-.037-.383a.965.965 0 0 0-.121-.329.635.635 0 0 0-.233-.233.716.716 0 0 0-.368-.085c-.115 0-.22.02-.315.059a.622.622 0 0 0-.241.176.871.871 0 0 0-.158.3c-.036.119-.054.26-.054.422l-.303-.093c0-.271.048-.503.145-.696.098-.195.236-.344.411-.448.178-.105.387-.158.627-.158.181 0 .335.029.463.086a.924.924 0 0 1 .318.227c.085.094.151.199.199.316a1.95 1.95 0 0 1 .132.694v1.545h-.465Zm-1.993 0v-2.795h.414v.748h.052v2.047h-.466Zm4.821 0c-.166.032-.33.045-.492.038a1.099 1.099 0 0 1-.429-.095.625.625 0 0 1-.288-.28.826.826 0 0 1-.09-.334 11.257 11.257 0 0 1-.005-.385v-2.515h.46v2.494c0 .114.001.211.003.292a.456.456 0 0 0 .054.21c.062.11.161.175.295.194.137.019.3.014.492-.015v.396Zm-1.871-2.415v-.38h1.871v.38h-1.871Zm3.642 2.492c-.278 0-.518-.063-.72-.189-.2-.126-.354-.3-.463-.522a1.735 1.735 0 0 1-.163-.766c0-.294.055-.551.166-.772.11-.22.266-.392.468-.514.202-.125.439-.187.712-.187.279 0 .52.063.722.189.202.124.356.298.463.52.109.221.163.475.163.764 0 .291-.054.548-.163.771a1.25 1.25 0 0 1-.466.52 1.348 1.348 0 0 1-.719.186Zm0-.437c.29 0 .505-.097.647-.29.141-.193.212-.443.212-.75 0-.316-.072-.567-.215-.753-.143-.188-.358-.282-.644-.282a.83.83 0 0 0-.482.131.797.797 0 0 0-.282.365 1.45 1.45 0 0 0-.093.539c0 .314.073.565.218.755.145.19.358.285.639.285Zm3.601 1.602.54-1.47.008.435-1.221-3.002h.484l.957 2.414h-.165l.898-2.414h.468l-1.522 4.037h-.447Zm3.615-1.165c-.278 0-.518-.063-.719-.189a1.251 1.251 0 0 1-.464-.522 1.735 1.735 0 0 1-.163-.766c0-.294.056-.551.166-.772.11-.22.266-.392.468-.514.202-.125.439-.187.712-.187.279 0 .52.063.722.189.202.124.356.298.463.52.109.221.163.475.163.764 0 .291-.054.548-.163.771a1.25 1.25 0 0 1-.466.52 1.346 1.346 0 0 1-.719.186Zm0-.437c.29 0 .505-.097.647-.29.141-.193.212-.443.212-.75 0-.316-.072-.567-.215-.753-.143-.188-.358-.282-.644-.282a.827.827 0 0 0-.481.131.79.79 0 0 0-.282.365 1.429 1.429 0 0 0-.094.539c0 .314.073.565.218.755.145.19.358.285.639.285Zm3.108.432c-.179 0-.334-.028-.463-.085a.913.913 0 0 1-.318-.228 1.127 1.127 0 0 1-.2-.316 1.663 1.663 0 0 1-.103-.354 2.197 2.197 0 0 1-.029-.339v-1.545h.466v1.4c0 .131.012.258.036.38.025.123.065.233.122.331a.65.65 0 0 0 .233.233.722.722 0 0 0 .367.086c.116 0 .221-.02.316-.06a.645.645 0 0 0 .243-.176.82.82 0 0 0 .156-.3c.036-.121.054-.261.054-.422l.303.093c0 .269-.049.502-.148.696a1.058 1.058 0 0 1-.411.451 1.214 1.214 0 0 1-.624.155Zm.932-.072v-.748h-.052v-2.047h.463v2.795h-.411Zm1.265 0v-2.795h.412v.675l-.068-.088c.033-.086.075-.165.127-.238a.794.794 0 0 1 .179-.178.78.78 0 0 1 .245-.135c.092-.031.185-.049.28-.054a.888.888 0 0 1 .266.018v.432a.869.869 0 0 0-.318-.021.655.655 0 0 0-.321.127.703.703 0 0 0-.209.233.99.99 0 0 0-.101.298 1.813 1.813 0 0 0-.029.323v1.403h-.463Zm4.02.077c-.209 0-.384-.038-.525-.114a.81.81 0 0 1-.319-.305.839.839 0 0 1-.106-.414c0-.147.028-.274.083-.38a.744.744 0 0 1 .238-.27c.102-.072.224-.129.365-.17a4.01 4.01 0 0 1 .445-.094c.166-.027.333-.052.502-.075l.474-.064-.166.095c.005-.248-.045-.432-.15-.551-.104-.119-.283-.178-.538-.178a.843.843 0 0 0-.445.116.621.621 0 0 0-.267.373l-.437-.132c.067-.245.197-.437.391-.577.193-.14.447-.21.763-.21.254 0 .471.046.652.137.183.09.314.226.393.409.04.086.065.18.075.282.011.1.016.206.016.316v1.729h-.409v-.671l.096.062a1.149 1.149 0 0 1-.443.513 1.294 1.294 0 0 1-.688.173Zm.07-.385a.98.98 0 0 0 .429-.088.82.82 0 0 0 .295-.236.753.753 0 0 0 .145-.321c.026-.086.04-.182.042-.287.003-.107.005-.189.005-.246l.16.07-.442.06a9.346 9.346 0 0 0-.412.062c-.129.02-.245.045-.349.075a1.144 1.144 0 0 0-.215.093.491.491 0 0 0-.16.147.446.446 0 0 0-.003.438c.04.069.1.125.181.168a.704.704 0 0 0 .324.065Zm3.353.385c-.282 0-.523-.063-.721-.189a1.23 1.23 0 0 1-.451-.525 1.84 1.84 0 0 1-.16-.761c.003-.291.058-.548.163-.768.107-.223.259-.396.458-.52.198-.125.437-.187.717-.187.295 0 .548.073.76.218.214.144.358.343.43.595l-.455.137a.753.753 0 0 0-.288-.378.78.78 0 0 0-.453-.134.785.785 0 0 0-.473.134.78.78 0 0 0-.277.368c-.06.155-.091.333-.093.535.003.311.075.562.215.753.141.19.351.285.628.285a.795.795 0 0 0 .456-.124.779.779 0 0 0 .274-.365l.466.121c-.097.261-.248.46-.453.598a1.3 1.3 0 0 1-.743.207Zm2.955 0a1.32 1.32 0 0 1-.722-.189 1.221 1.221 0 0 1-.45-.525 1.84 1.84 0 0 1-.161-.761c.004-.291.058-.548.163-.768.107-.223.26-.396.458-.52a1.32 1.32 0 0 1 .717-.187c.295 0 .549.073.761.218.214.144.357.343.43.595l-.456.137a.746.746 0 0 0-.287-.378.78.78 0 0 0-.453-.134.785.785 0 0 0-.473.134.774.774 0 0 0-.277.368 1.473 1.473 0 0 0-.093.535c.003.311.075.562.214.753.142.19.351.285.629.285a.795.795 0 0 0 .456-.124.785.785 0 0 0 .274-.365l.466.121c-.097.261-.248.46-.453.598a1.302 1.302 0 0 1-.743.207Zm2.968 0c-.278 0-.518-.063-.72-.189-.2-.126-.354-.3-.463-.522a1.722 1.722 0 0 1-.163-.766c0-.294.055-.551.166-.772.11-.22.266-.392.468-.514.202-.125.439-.187.712-.187.279 0 .52.063.722.189.201.124.356.298.463.52.108.221.163.475.163.764 0 .291-.055.548-.163.771a1.25 1.25 0 0 1-.466.52 1.348 1.348 0 0 1-.719.186Zm0-.437c.289 0 .505-.097.647-.29.141-.193.212-.443.212-.75 0-.316-.072-.567-.215-.753-.143-.188-.358-.282-.644-.282a.83.83 0 0 0-.482.131.79.79 0 0 0-.282.365 1.45 1.45 0 0 0-.093.539c0 .314.073.565.217.755.145.19.358.285.64.285Zm3.108.432a1.14 1.14 0 0 1-.463-.085.926.926 0 0 1-.319-.228 1.124 1.124 0 0 1-.199-.316 1.607 1.607 0 0 1-.103-.354 2.197 2.197 0 0 1-.029-.339v-1.545h.466v1.4c0 .131.012.258.036.38.024.123.065.233.122.331a.643.643 0 0 0 .233.233.722.722 0 0 0 .367.086c.116 0 .221-.02.316-.06a.645.645 0 0 0 .243-.176.818.818 0 0 0 .155-.3c.037-.121.055-.261.055-.422l.302.093c0 .269-.049.502-.147.696a1.06 1.06 0 0 1-.412.451 1.207 1.207 0 0 1-.623.155Zm.931-.072v-.748h-.051v-2.047h.463v2.795h-.412Zm3.256 0v-1.4c0-.133-.012-.261-.037-.383a.965.965 0 0 0-.121-.329.635.635 0 0 0-.233-.233.716.716 0 0 0-.368-.085c-.115 0-.22.02-.315.059a.622.622 0 0 0-.241.176.871.871 0 0 0-.158.3c-.036.119-.054.26-.054.422l-.303-.093c0-.271.049-.503.145-.696a1.06 1.06 0 0 1 .412-.448c.177-.105.386-.158.626-.158.181 0 .335.029.463.086a.924.924 0 0 1 .318.227c.085.094.151.199.199.316a1.95 1.95 0 0 1 .132.694v1.545h-.465Zm-1.993 0v-2.795h.414v.748h.052v2.047h-.466Zm4.821 0c-.166.032-.33.045-.492.038a1.099 1.099 0 0 1-.429-.095.618.618 0 0 1-.287-.28.812.812 0 0 1-.091-.334 14.59 14.59 0 0 1-.005-.385v-2.515h.46v2.494c0 .114.001.211.003.292a.469.469 0 0 0 .054.21c.062.11.161.175.295.194.137.019.3.014.492-.015v.396Zm-1.871-2.415v-.38h1.871v.38h-1.871Zm2.651 2.415v-.508h.507v.508h-.507ZM163.252 340.203v-5.123h1.633l.252.003c.128.002.252.011.37.025.406.052.749.197 1.029.434.282.235.495.535.64.9.145.366.217.765.217 1.199 0 .434-.072.834-.217 1.199a2.229 2.229 0 0 1-.64.904c-.28.235-.623.378-1.029.431a3.804 3.804 0 0 1-.366.025l-.256.003h-1.633Zm.871-.808h.762c.071 0 .161-.002.27-.007.112-.004.21-.015.295-.032.242-.045.439-.153.591-.323.152-.171.263-.379.335-.623.073-.244.11-.501.11-.769 0-.277-.037-.538-.11-.782a1.547 1.547 0 0 0-.342-.616 1.026 1.026 0 0 0-.584-.317 1.557 1.557 0 0 0-.295-.032 7.979 7.979 0 0 0-.27-.007h-.762v3.508Zm5.986.915c-.384 0-.72-.087-1.007-.26a1.781 1.781 0 0 1-.669-.715 2.287 2.287 0 0 1-.234-1.053c0-.403.08-.757.242-1.061.161-.303.385-.54.672-.711.287-.171.619-.256.996-.256.387 0 .724.086 1.011.259.287.174.51.413.669.719.159.304.238.654.238 1.05 0 .398-.081.751-.242 1.057a1.787 1.787 0 0 1-.669.715c-.287.17-.622.256-1.007.256Zm0-.804c.342 0 .596-.114.762-.342.166-.228.249-.522.249-.882 0-.373-.084-.669-.253-.89-.168-.223-.421-.334-.758-.334-.23 0-.42.052-.569.156a.901.901 0 0 0-.327.431 1.753 1.753 0 0 0-.107.637c0 .372.084.67.253.893.17.22.421.331.75.331Zm5.538.697v-1.85c0-.121-.008-.255-.025-.402a1.403 1.403 0 0 0-.118-.424.804.804 0 0 0-.27-.338c-.119-.087-.28-.131-.484-.131-.109 0-.217.018-.324.053a.743.743 0 0 0-.291.185.91.91 0 0 0-.207.356 1.784 1.784 0 0 0-.078.576l-.509-.217c0-.327.063-.623.189-.889.128-.266.315-.477.562-.633.247-.159.55-.239.911-.239.284 0 .519.048.704.142.185.095.332.216.441.363.11.147.19.304.242.47.053.166.086.324.1.473.017.147.025.267.025.36v2.145h-.868Zm-2.665 0v-3.843h.765v1.192h.103v2.651h-.868Zm5.714.107c-.278 0-.512-.052-.705-.157a1.1 1.1 0 0 1-.437-.423 1.181 1.181 0 0 1-.146-.58c0-.185.031-.351.092-.498a.977.977 0 0 1 .285-.384c.128-.11.294-.199.498-.267a4.83 4.83 0 0 1 .541-.136c.209-.04.434-.077.676-.11.244-.035.499-.073.765-.114l-.306.175c.002-.266-.057-.462-.178-.587-.121-.126-.325-.189-.612-.189-.173 0-.34.04-.502.121a.672.672 0 0 0-.338.416l-.782-.245c.095-.325.275-.586.54-.783.269-.197.629-.295 1.082-.295.342 0 .642.055.9.167.261.111.455.294.58.548.069.135.111.274.125.416.014.14.021.293.021.459v2.359h-.751v-.832l.125.135a1.736 1.736 0 0 1-.608.612c-.231.128-.519.192-.865.192Zm.171-.683c.194 0 .36-.035.498-.103a.968.968 0 0 0 .327-.253.867.867 0 0 0 .167-.281c.045-.109.07-.234.075-.374.007-.142.011-.257.011-.345l.263.078c-.258.041-.48.076-.665.107-.185.031-.344.061-.477.089-.133.026-.25.056-.352.089-.1.036-.184.077-.253.125a.55.55 0 0 0-.16.163.423.423 0 0 0-.053.217c0 .095.023.179.071.253a.496.496 0 0 0 .206.171.825.825 0 0 0 .342.064Zm5.285.576a3.48 3.48 0 0 1-.748.061 1.716 1.716 0 0 1-.651-.132.895.895 0 0 1-.437-.402 1.148 1.148 0 0 1-.139-.509 20.682 20.682 0 0 1-.007-.587v-3.341h.854v3.291c0 .154.001.29.003.406.005.116.03.211.075.284a.496.496 0 0 0 .409.239c.188.016.401.007.641-.029v.719Zm-2.68-3.17v-.673h2.68v.673h-2.68Zm3.755-1.256v-.786h.857v.786h-.857Zm0 4.426v-3.843h.857v3.843h-.857Zm3.798.107c-.384 0-.72-.087-1.007-.26a1.772 1.772 0 0 1-.668-.715 2.274 2.274 0 0 1-.235-1.053c0-.403.08-.757.242-1.061.161-.303.385-.54.672-.711.287-.171.619-.256.996-.256.387 0 .724.086 1.011.259.287.174.51.413.669.719.159.304.238.654.238 1.05 0 .398-.08.751-.242 1.057a1.787 1.787 0 0 1-.669.715c-.287.17-.622.256-1.007.256Zm0-.804c.342 0 .596-.114.762-.342.166-.228.249-.522.249-.882 0-.373-.084-.669-.253-.89-.168-.223-.421-.334-.758-.334a.975.975 0 0 0-.569.156.901.901 0 0 0-.327.431 1.753 1.753 0 0 0-.107.637c0 .372.084.67.253.893.17.22.421.331.75.331Zm5.538.697v-1.85c0-.121-.008-.255-.025-.402a1.43 1.43 0 0 0-.117-.424.814.814 0 0 0-.271-.338c-.118-.087-.28-.131-.484-.131-.109 0-.217.018-.324.053a.743.743 0 0 0-.291.185.923.923 0 0 0-.207.356 1.784 1.784 0 0 0-.078.576l-.509-.217c0-.327.063-.623.189-.889.128-.266.315-.477.562-.633.247-.159.55-.239.911-.239.285 0 .519.048.704.142.185.095.332.216.442.363.109.147.189.304.242.47.052.166.085.324.099.473.017.147.025.267.025.36v2.145h-.868Zm-2.665 0v-3.843h.765v1.192h.103v2.651h-.868Z" fill="#2D5587"/><circle cx="138.009" cy="343.656" r="16.658" fill="#FEF6E8"/><g filter="url(#h)"><path d="M142.167 342.574h-2.252v-5.247c0-1.224-.663-1.472-1.472-.554l-.583.663-4.934 5.612c-.678.765-.394 1.392.627 1.392h2.252v5.247c0 1.225.663 1.473 1.472.554l.583-.663 4.934-5.612c.677-.765.393-1.392-.627-1.392Z" fill="#F9A000"/></g></g></g><defs><filter id="a" x="12" y="186" width="62" height="203" filterUnits="userSpaceOnUse" color-interpolation-filters="sRGB"><feFlood flood-opacity="0" result="BackgroundImageFix"/><feColorMatrix in="SourceAlpha" values="0 0 0 0 0 0 0 0 0 0 0 0 0 0 0 0 0 0 127 0" result="hardAlpha"/><feOffset/><feGaussianBlur stdDeviation="5"/><feComposite in2="hardAlpha" operator="out"/><feColorMatrix values="0 0 0 0 0 0 0 0 0 0 0 0 0 0 0 0 0 0 0.1 0"/><feBlend in2="BackgroundImageFix" result="effect1_dropShadow_306_2806"/><feBlend in="SourceGraphic" in2="effect1_dropShadow_306_2806" result="shape"/></filter><filter id="b" x="65" y="186" width="222" height="203" filterUnits="userSpaceOnUse" color-interpolation-filters="sRGB"><feFlood flood-opacity="0" result="BackgroundImageFix"/><feColorMatrix in="SourceAlpha" values="0 0 0 0 0 0 0 0 0 0 0 0 0 0 0 0 0 0 127 0" result="hardAlpha"/><feOffset/><feGaussianBlur stdDeviation="5"/><feComposite in2="hardAlpha" operator="out"/><feColorMatrix values="0 0 0 0 0 0 0 0 0 0 0 0 0 0 0 0 0 0 0.1 0"/><feBlend in2="BackgroundImageFix" result="effect1_dropShadow_306_2806"/><feBlend in="SourceGraphic" in2="effect1_dropShadow_306_2806" result="shape"/></filter><filter id="c" x="277" y="186" width="62" height="203" filterUnits="userSpaceOnUse" color-interpolation-filters="sRGB"><feFlood flood-opacity="0" result="BackgroundImageFix"/><feColorMatrix in="SourceAlpha" values="0 0 0 0 0 0 0 0 0 0 0 0 0 0 0 0 0 0 127 0" result="hardAlpha"/><feOffset/><feGaussianBlur stdDeviation="5"/><feComposite in2="hardAlpha" operator="out"/><feColorMatrix values="0 0 0 0 0 0 0 0 0 0 0 0 0 0 0 0 0 0 0.1 0"/><feBlend in2="BackgroundImageFix" result="effect1_dropShadow_306_2806"/><feBlend in="SourceGraphic" in2="effect1_dropShadow_306_2806" result="shape"/></filter><filter id="d" x="0" y="203" width="352" height="203" filterUnits="userSpaceOnUse" color-interpolation-filters="sRGB"><feFlood flood-opacity="0" result="BackgroundImageFix"/><feColorMatrix in="SourceAlpha" values="0 0 0 0 0 0 0 0 0 0 0 0 0 0 0 0 0 0 127 0" result="hardAlpha"/><feOffset/><feGaussianBlur stdDeviation="5"/><feComposite in2="hardAlpha" operator="out"/><feColorMatrix values="0 0 0 0 0 0 0 0 0 0 0 0 0 0 0 0 0 0 0.1 0"/><feBlend in2="BackgroundImageFix" result="effect1_dropShadow_306_2806"/><feBlend in="SourceGraphic" in2="effect1_dropShadow_306_2806" result="shape"/></filter><filter id="e" x="5.506" y="207.521" width="325.556" height="194.356" filterUnits="userSpaceOnUse" color-interpolation-filters="sRGB"><feFlood flood-opacity="0" result="BackgroundImageFix"/><feColorMatrix in="SourceAlpha" values="0 0 0 0 0 0 0 0 0 0 0 0 0 0 0 0 0 0 127 0" result="hardAlpha"/><feOffset/><feGaussianBlur stdDeviation="9.747"/><feComposite in2="hardAlpha" operator="out"/><feColorMatrix values="0 0 0 0 0 0 0 0 0 0 0 0 0 0 0 0 0 0 0.2 0"/><feBlend in2="BackgroundImageFix" result="effect1_dropShadow_306_2806"/><feBlend in="SourceGraphic" in2="effect1_dropShadow_306_2806" result="shape"/></filter><filter id="f" x="85.004" y="316.199" width="268.189" height="99.02" filterUnits="userSpaceOnUse" color-interpolation-filters="sRGB"><feFlood flood-opacity="0" result="BackgroundImageFix"/><feColorMatrix in="SourceAlpha" values="0 0 0 0 0 0 0 0 0 0 0 0 0 0 0 0 0 0 127 0" result="hardAlpha"/><feOffset dx="-2.363" dy="22.215"/><feGaussianBlur stdDeviation="11.816"/><feComposite in2="hardAlpha" operator="out"/><feColorMatrix values="0 0 0 0 0.340302 0 0 0 0 0.421377 0 0 0 0 0.516551 0 0 0 0.16 0"/><feBlend in2="BackgroundImageFix" result="effect1_dropShadow_306_2806"/><feBlend in="SourceGraphic" in2="effect1_dropShadow_306_2806" result="shape"/></filter><filter id="h" x="111.114" y="324.762" width="47.491" height="47.491" filterUnits="userSpaceOnUse" color-interpolation-filters="sRGB"><feFlood flood-opacity="0" result="BackgroundImageFix"/><feColorMatrix in="SourceAlpha" values="0 0 0 0 0 0 0 0 0 0 0 0 0 0 0 0 0 0 127 0" result="hardAlpha"/><feOffset dx="-3" dy="5"/><feGaussianBlur stdDeviation="7.5"/><feComposite in2="hardAlpha" operator="out"/><feColorMatrix values="0 0 0 0 0.976471 0 0 0 0 0.627451 0 0 0 0 0 0 0 0 0.4 0"/><feBlend in2="BackgroundImageFix" result="effect1_dropShadow_306_2806"/><feBlend in="SourceGraphic" in2="effect1_dropShadow_306_2806" result="shape"/></filter><clipPath id="g"><rect x="111" y="317.617" width="220.923" height="51.754" rx="8.086" fill="#fff"/></clipPath></defs></svg>