<svg width="151" height="151" viewBox="0 0 151 151" fill="none" xmlns="http://www.w3.org/2000/svg">
<path d="M58.084 69.8565C56.668 68.4405 54.7476 67.6451 52.7451 67.6451C50.7427 67.6451 48.8222 68.4405 47.4063 69.8565C45.9903 71.2724 45.1948 73.1929 45.1948 75.1953C45.1948 77.1978 45.9903 79.1183 47.4063 80.5342L69.9648 103.093C70.6675 103.79 71.5008 104.341 72.4169 104.715C73.3331 105.09 74.3141 105.279 75.3037 105.273C76.3331 105.241 77.3449 104.997 78.2762 104.557C79.2075 104.117 80.0385 103.491 80.7178 102.717L133.354 42.5606C134.57 41.0516 135.156 39.1318 134.99 37.2013C134.825 35.2708 133.92 33.4787 132.466 32.1987C131.011 30.9187 129.119 30.2496 127.183 30.3308C125.247 30.4121 123.417 31.2374 122.075 32.6348L75.3037 86.7754L58.084 69.8565Z" fill="#002D54"/>
<path d="M142.98 67.6758C140.986 67.6758 139.074 68.468 137.663 69.8782C136.253 71.2884 135.461 73.201 135.461 75.1953C135.461 91.1497 129.123 106.451 117.842 117.732C106.56 129.014 91.2591 135.352 75.3047 135.352C63.4245 135.346 51.8119 131.823 41.9312 125.227C32.0506 118.63 24.3443 109.256 19.7841 98.286C15.2239 87.3159 14.0141 75.2411 16.3071 63.5843C18.6002 51.9275 24.2934 41.2107 32.669 32.7852C38.2387 27.1409 44.8783 22.6642 52.1991 19.6171C59.52 16.5699 67.3751 15.0136 75.3047 15.0391C80.1131 15.0692 84.9038 15.6239 89.5918 16.6934C90.5728 16.9968 91.6057 17.0961 92.6265 16.9851C93.6474 16.8741 94.6348 16.5552 95.5277 16.048C96.4206 15.5408 97.2002 14.8561 97.8183 14.0361C98.4365 13.2161 98.8801 12.2782 99.1219 11.2801C99.3637 10.2821 99.3985 9.24513 99.2242 8.23313C99.0499 7.22113 98.6701 6.25556 98.1083 5.39595C97.5466 4.53634 96.8147 3.8009 95.9578 3.23499C95.1009 2.66907 94.1371 2.28466 93.126 2.10547C87.2844 0.731219 81.3057 0.0248703 75.3047 0C60.4487 0.0771769 45.9484 4.55323 33.6337 12.8633C21.319 21.1734 11.7419 32.945 6.11088 46.6928C0.479866 60.4405 -0.952669 75.5481 1.99406 90.1092C4.94078 104.67 12.1347 118.032 22.668 128.509C36.6294 142.477 55.5558 150.345 75.3047 150.391C95.2477 150.391 114.374 142.468 128.476 128.366C142.578 114.265 150.5 95.1383 150.5 75.1953C150.5 73.201 149.708 71.2884 148.298 69.8782C146.887 68.468 144.975 67.6758 142.98 67.6758Z" fill="#002D54"/>
</svg>
